<?xml version="1.0" encoding="utf-8"?>
<!-- Generator: Adobe Illustrator 15.0.0, SVG Export Plug-In . SVG Version: 6.00 Build 0)  -->
<!DOCTYPE svg PUBLIC "-//W3C//DTD SVG 1.1//EN" "http://www.w3.org/Graphics/SVG/1.1/DTD/svg11.dtd">
<svg version="1.1" id="Capa_1" xmlns="http://www.w3.org/2000/svg" xmlns:xlink="http://www.w3.org/1999/xlink" x="0px" y="0px"
	 width="144px" height="144px" viewBox="0 0 144 144" enable-background="new 0 0 144 144" xml:space="preserve">
<g>
	<path fill="#607D8B" d="M22.5,44.994h-18c-2.483,0-4.5,2.016-4.5,4.5v26.997c0,2.483,2.017,4.5,4.5,4.5h18
		c2.483,0,4.5-2.017,4.5-4.5V49.494C27,47.01,24.984,44.994,22.5,44.994z"/>
	<path fill="#D5DCE0" d="M141.021,0.261c-1.802-0.63-3.791-0.09-4.996,1.377C119.051,22.263,93.987,34.79,67.293,35.996
		C64.89,36.113,63,38.093,63,40.496V85.49c0,2.412,1.89,4.383,4.293,4.49c26.694,1.224,51.75,13.74,68.732,34.357
		c0.873,1.07,2.159,1.646,3.474,1.646c0.515,0,1.019-0.091,1.522-0.262c1.78-0.647,2.979-2.34,2.979-4.238V4.5
		C144,2.601,142.803,0.909,141.021,0.261z"/>
	<g>
		<path fill="#607D8B" d="M139.499,125.984c-2.483,0-4.499-2.017-4.499-4.5V4.5c0-2.484,2.016-4.5,4.499-4.5
			C141.984,0,144,2.016,144,4.5v116.985C144,123.969,141.984,125.984,139.499,125.984z"/>
		<path fill="#607D8B" d="M70.533,120.189l-18.36-36.717c-0.765-1.521-2.313-2.482-4.022-2.482H28.35
			c-1.476,0-2.853,0.72-3.698,1.935c-0.837,1.215-1.035,2.764-0.514,4.148l19.18,51.141c1.106,2.89,3.583,4.985,6.625,5.597
			c0.603,0.128,1.206,0.189,1.8,0.189c2.402,0,4.688-0.954,6.327-2.664l10.809-10.717C71.64,127.847,72.297,123.536,70.533,120.189z
			"/>
	</g>
	<path fill="#2196F3" d="M67.5,35.996h-45c-2.484,0-4.5,2.016-4.5,4.5V85.49c0,2.482,2.016,4.5,4.5,4.5h45
		c2.484,0,4.5-2.018,4.5-4.5V40.496C72,38.011,69.984,35.996,67.5,35.996z"/>
</g>
</svg>
