<?xml version="1.0" encoding="utf-8"?>
<!-- Generator: Adobe Illustrator 15.0.0, SVG Export Plug-In . SVG Version: 6.00 Build 0)  -->
<!DOCTYPE svg PUBLIC "-//W3C//DTD SVG 1.1//EN" "http://www.w3.org/Graphics/SVG/1.1/DTD/svg11.dtd">
<svg version="1.1" id="Layer_1" xmlns="http://www.w3.org/2000/svg" xmlns:xlink="http://www.w3.org/1999/xlink" x="0px" y="0px"
	 width="123px" height="148px" viewBox="279.5 437.5 123 148" enable-background="new 279.5 437.5 123 148" xml:space="preserve">
<path d="M340.464,509.366c9.53,0,17.781-3.418,24.523-10.161c6.743-6.742,10.16-14.992,10.16-24.522
	c0-9.527-3.417-17.778-10.161-24.522c-6.743-6.741-14.994-10.159-24.522-10.159c-9.53,0-17.78,3.418-24.522,10.16
	c-6.742,6.742-10.161,14.993-10.161,24.521c0,9.531,3.419,17.781,10.163,24.523C322.687,505.947,330.937,509.366,340.464,509.366z"
	/>
<path d="M401.151,550.729c-0.194-2.806-0.588-5.867-1.167-9.099c-0.584-3.257-1.337-6.335-2.237-9.148
	c-0.931-2.908-2.196-5.78-3.761-8.532c-1.624-2.856-3.531-5.344-5.671-7.391c-2.238-2.141-4.978-3.862-8.146-5.118
	c-3.158-1.249-6.657-1.882-10.4-1.882c-1.47,0-2.892,0.603-5.637,2.391c-1.69,1.102-3.667,2.376-5.873,3.786
	c-1.886,1.201-4.441,2.327-7.598,3.347c-3.08,0.997-6.206,1.502-9.292,1.502c-3.086,0-6.211-0.505-9.294-1.502
	c-3.153-1.018-5.708-2.145-7.592-3.346c-2.185-1.396-4.163-2.671-5.878-3.788c-2.742-1.788-4.165-2.391-5.635-2.391
	c-3.744,0-7.242,0.634-10.398,1.884c-3.166,1.254-5.907,2.976-8.147,5.118c-2.139,2.048-4.047,4.534-5.669,7.39
	c-1.563,2.752-2.829,5.623-3.76,8.533c-0.9,2.813-1.652,5.891-2.237,9.147c-0.579,3.228-0.973,6.289-1.167,9.102
	c-0.191,2.756-0.288,5.615-0.288,8.504c0,7.517,2.389,13.602,7.102,18.09c4.653,4.429,10.812,6.675,18.3,6.675h69.336
	c7.488,0,13.645-2.245,18.299-6.675c4.713-4.484,7.103-10.571,7.103-18.091C401.441,556.333,401.344,553.472,401.151,550.729z"/>
</svg>
