<?xml version="1.0" encoding="utf-8"?>
<!-- Generator: Adobe Illustrator 15.0.0, SVG Export Plug-In . SVG Version: 6.00 Build 0)  -->
<!DOCTYPE svg PUBLIC "-//W3C//DTD SVG 1.1//EN" "http://www.w3.org/Graphics/SVG/1.1/DTD/svg11.dtd">
<svg version="1.1" id="Layer_1" xmlns="http://www.w3.org/2000/svg" xmlns:xlink="http://www.w3.org/1999/xlink" x="0px" y="0px"
	 width="144px" height="144px" viewBox="0 0 144 144" enable-background="new 0 0 144 144" xml:space="preserve">
<path d="M72,0C32.298,0,0,32.298,0,72s32.298,72,72,72s72-32.298,72-72S111.702,0,72,0z"/>
<path fill="#FAFAFA" d="M108.492,56.742l-39,38.999c-1.17,1.17-2.706,1.759-4.242,1.759s-3.072-0.589-4.242-1.759l-19.5-19.499
	c-2.347-2.346-2.347-6.139,0-8.484c2.346-2.347,6.137-2.347,8.483,0l15.258,15.258l34.759-34.758c2.346-2.347,6.137-2.347,8.483,0
	C110.838,50.604,110.838,54.396,108.492,56.742z"/>
</svg>
