<?xml version="1.0" encoding="utf-8"?>
<!-- Generator: Adobe Illustrator 15.0.0, SVG Export Plug-In . SVG Version: 6.00 Build 0)  -->
<!DOCTYPE svg PUBLIC "-//W3C//DTD SVG 1.1//EN" "http://www.w3.org/Graphics/SVG/1.1/DTD/svg11.dtd">
<svg version="1.1" id="Capa_1" xmlns="http://www.w3.org/2000/svg" xmlns:xlink="http://www.w3.org/1999/xlink" x="0px" y="0px"
	 width="595.279px" height="485.674px" viewBox="0 178.109 595.279 485.674" enable-background="new 0 178.109 595.279 485.674"
	 xml:space="preserve">
<path fill="#1E90FF" d="M481.636,646.723c0,9.422-7.639,17.061-17.061,17.061H127.918c-9.422,0-17.061-7.639-17.061-17.061v-36.396
	c0-9.422,7.639-17.061,17.061-17.061h336.657c9.422,0,17.061,7.639,17.061,17.061V646.723z M595.28,322.893
	c0-18.625-15.149-33.775-33.774-33.775s-33.772,15.149-33.772,33.775c0,6.066,1.629,11.749,4.44,16.674l-150.725,60.291
	l-57.869-115.735c18.164-9.288,30.636-28.182,30.636-49.944c0-30.918-25.156-56.069-56.071-56.069s-56.069,25.154-56.069,56.069
	c0,21.762,12.47,40.654,30.634,49.944l-57.866,115.735L63.305,339.243c2.695-4.85,4.242-10.42,4.242-16.351
	c0-18.625-15.149-33.775-33.774-33.775S0,304.267,0,322.893c0,13.685,8.193,25.47,19.922,30.77l75.873,187.984
	c2.604,6.454,8.862,10.676,15.82,10.676h375.327c7.021,0,13.325-4.304,15.884-10.842l73.78-188.423
	C587.662,347.502,595.28,336.083,595.28,322.893z"/>
</svg>
