<?xml version="1.0" encoding="utf-8"?>
<!-- Generator: Adobe Illustrator 15.0.0, SVG Export Plug-In . SVG Version: 6.00 Build 0)  -->
<!DOCTYPE svg PUBLIC "-//W3C//DTD SVG 1.1//EN" "http://www.w3.org/Graphics/SVG/1.1/DTD/svg11.dtd">
<svg version="1.1" id="Capa_1" xmlns="http://www.w3.org/2000/svg" xmlns:xlink="http://www.w3.org/1999/xlink" x="0px" y="0px"
	 width="144px" height="144px" viewBox="0 0 144 144" enable-background="new 0 0 144 144" xml:space="preserve">
<path fill="#FFFFFF" d="M141.054,20.573L123.4,2.937c-3.92-3.918-10.3-3.914-14.219,0.006L14.803,97.371
	c-2.95,2.947-5.201,6.595-6.513,10.551l-0.084,0.254L0,144l35.855-8.189l0.253-0.084c3.958-1.31,7.609-3.559,10.563-6.508
	l94.389-94.437c1.897-1.899,2.941-4.422,2.94-7.106C143.999,24.993,142.953,22.47,141.054,20.573z M14.966,129.044l3.352-14.633
	l11.297,11.287L14.966,129.044z M39.904,120.079l-15.958-15.943l78.013-78.054l15.959,15.943L39.904,120.079z M125.869,34.07
	L109.91,18.127l6.386-6.389l15.959,15.942L125.869,34.07z"/>
</svg>
