<?xml version="1.0" encoding="utf-8"?>
<!-- Generator: Adobe Illustrator 15.0.0, SVG Export Plug-In . SVG Version: 6.00 Build 0)  -->
<!DOCTYPE svg PUBLIC "-//W3C//DTD SVG 1.1//EN" "http://www.w3.org/Graphics/SVG/1.1/DTD/svg11.dtd">
<svg version="1.1" id="Capa_1" xmlns="http://www.w3.org/2000/svg" xmlns:xlink="http://www.w3.org/1999/xlink" x="0px" y="0px"
	 width="768px" height="492px" viewBox="0 0 768 492" enable-background="new 0 0 768 492" xml:space="preserve">
<g>
	<g>
		<path d="M700.5,0.5h-633C30.327,0.5,0,25.952,0,57.212v378.077C0,466.442,30.192,492,67.5,492h633
			c37.08,0,67.5-25.366,67.5-56.711V57.212C768,26.058,737.808,0.5,700.5,0.5z M691.179,38.308L385.431,295.189L77.039,38.308
			H691.179z M45,427.459V64.86l216.719,180.519L45,427.459z M76.819,454.192l216.855-182.196l75.986,63.294
			c8.796,7.327,22.99,7.304,31.75-0.058l74.09-62.248l215.681,181.208H76.819z M723,427.458L507.319,246.25L723,65.041V427.458z"/>
	</g>
</g>
</svg>
