<?xml version="1.0" encoding="utf-8"?>
<!-- Generator: Adobe Illustrator 15.0.0, SVG Export Plug-In . SVG Version: 6.00 Build 0)  -->
<!DOCTYPE svg PUBLIC "-//W3C//DTD SVG 1.1//EN" "http://www.w3.org/Graphics/SVG/1.1/DTD/svg11.dtd">
<svg version="1.1" id="Layer_1" xmlns="http://www.w3.org/2000/svg" xmlns:xlink="http://www.w3.org/1999/xlink" x="0px" y="0px"
	 width="540px" height="527.5px" viewBox="120 222.5 540 527.5" enable-background="new 120 222.5 540 527.5" xml:space="preserve">
<path fill="#67B438" d="M417.113,684.591c-3.485,2.324-6.972,4.647-8.133,5.811c8.133,12.78,16.267,25.562,24.398,38.342
	c4.647,6.971,5.811,15.104-3.485,19.752c-9.295,4.648-12.78-2.324-17.429-9.295c-5.81-10.457-12.78-20.914-22.075-34.856
	c-9.295,13.942-16.267,23.237-22.075,34.856c-4.647,6.971-8.134,13.942-17.429,9.295c-10.457-4.647-8.134-12.781-3.484-19.752
	c6.971-12.78,15.104-24.399,23.236-37.18c-2.323-1.162-4.646-3.486-8.134-5.811c-1.161,0-2.323,0-2.323,1.161
	c-19.752,27.886-46.476,33.695-77.846,25.563c-16.266-4.647-31.371-11.618-46.475-19.752c-11.619-5.811-11.619-15.104-1.162-23.237
	c17.428-13.942,38.342-20.914,63.903-23.237c-8.133-5.81-15.104-11.619-23.237-16.267c-2.324-1.162-5.81,0-9.295,2.323
	c-46.475,27.886-90.626,15.104-116.188-32.532c-6.971-13.942-5.809-18.591,8.133-24.399c19.752-8.133,39.504-12.78,61.58-6.971
	c-3.486-12.78-8.133-19.752-23.238-18.59c-23.237,1.16-41.828-9.295-51.123-30.209c-9.295-22.076-16.266-45.313-22.076-68.552
	c-2.324-9.295,4.647-16.267,15.104-12.779c15.104,4.646,30.209,10.457,44.151,16.266c3.486,1.162,5.81,3.486,9.295,4.647
	c2.324-9.296,0-15.104-8.133-20.913c-31.371-18.591-42.989-42.99-34.856-81.333c2.324-13.942,8.133-26.722,13.942-39.503
	c5.809-12.781,15.104-13.942,24.399-2.324c9.295,12.781,17.428,27.885,25.562,41.827c1.162-3.485,2.324-6.971,3.485-10.457
	c0-8.132,0-16.265,0-25.561c-2.324-40.666,19.752-68.551,49.961-91.789c9.295-6.971,15.104-4.646,20.914,6.971
	c20.914,40.666,12.781,79.008-22.076,108.055c-6.971,5.81-13.942,9.295-20.914,15.104c-4.647,3.484-9.295,9.295-12.781,13.941
	c1.162,1.162,1.162,1.162,2.324,2.324c9.295-5.811,18.59-11.619,29.047-16.268c18.59-9.295,25.562-4.646,24.399,15.104
	c-1.162,46.475-19.752,74.358-62.741,91.788c-2.324,1.162-5.81,5.81-5.81,9.295c0,8.133,1.162,16.267,3.486,25.562
	c6.971-8.134,12.781-16.267,18.59-23.236c10.457-11.619,17.428-11.619,26.723,1.161c19.752,26.724,32.533,68.551,2.324,103.406
	c-1.162,1.162-1.162,2.324-3.485,4.647c9.295,8.133,17.428,15.104,27.885,24.398c-2.324-12.779-4.647-22.074-5.809-32.531
	c-1.162-11.619,3.485-17.43,16.266-15.104c22.076,3.485,41.828,11.618,58.093,26.723c17.429,16.268,22.076,36.02,17.429,58.095
	c-2.323,12.78-1.162,22.076,12.78,26.724c11.619-4.646,15.104-11.619,12.781-25.562c-6.973-33.694,5.809-56.933,36.018-72.036
	c11.619-5.811,24.399-9.295,36.02-12.78c15.104-3.486,20.913,2.323,18.59,18.59c-1.162,9.295-3.485,17.428-5.811,29.047
	c10.457-9.295,19.752-16.267,27.886-24.398c-1.161-2.324-2.323-4.647-3.485-5.811c-24.399-32.531-23.237-73.197,3.485-104.567
	c9.295-10.457,15.104-10.457,24.398-1.162c3.486,3.484,6.972,6.971,9.295,11.618c3.486,3.485,5.811,8.134,9.295,13.942
	c1.162-4.647,1.162-6.972,2.324-9.296c4.647-22.075,4.647-23.237-16.267-32.532c-40.665-18.59-52.284-56.932-51.122-95.272
	c0-10.457,8.133-13.943,17.428-10.457c12.781,5.81,24.399,12.78,38.342,17.428c-4.646-4.646-8.133-9.295-12.78-13.942
	c-11.619-9.295-24.398-17.428-34.855-29.046c-29.047-30.208-22.075-68.551-6.971-98.759c3.484-6.971,10.457-9.295,17.428-3.486
	c29.047,22.076,51.123,48.799,51.123,88.303c0,10.457,0,19.752,0,30.209c0,3.484,1.161,8.133,4.646,11.619
	c2.323-4.647,3.485-9.295,5.81-13.943c6.972-10.457,12.78-22.075,20.914-32.532c5.81-8.133,15.104-6.971,19.752,2.324
	c15.104,25.561,22.075,52.285,16.267,81.332c-3.486,19.752-17.429,32.532-33.693,41.827c-9.296,4.646-13.942,10.457-10.457,19.752
	c15.104-5.811,31.369-12.78,46.475-18.59c17.429-6.973,26.724,2.322,20.914,19.752c-6.972,20.914-11.619,41.827-20.914,61.579
	c-9.295,20.914-27.885,30.209-51.122,30.209c-17.429,0-17.429,0-24.399,17.428c22.075-5.81,42.989-1.161,61.579,6.972
	c12.78,5.811,13.942,11.619,8.134,23.237c-24.399,48.799-70.875,61.579-116.188,33.694c-5.809-3.485-9.295-3.485-13.942,1.162
	c-4.646,4.646-10.457,8.133-17.428,12.779c9.295,2.324,18.59,3.486,25.563,5.811c12.779,5.81,26.723,11.619,38.342,19.752
	c9.295,5.81,8.133,15.104-1.162,20.914c-20.914,12.779-44.151,22.074-69.713,23.236c-22.075,1.162-39.504-6.972-52.284-24.398
	C421.761,686.915,419.438,685.753,417.113,684.591C418.275,684.591,417.113,684.591,417.113,684.591z"/>
</svg>
