<?xml version="1.0" encoding="utf-8"?>
<!-- Generator: Adobe Illustrator 15.0.0, SVG Export Plug-In . SVG Version: 6.00 Build 0)  -->
<!DOCTYPE svg PUBLIC "-//W3C//DTD SVG 1.1//EN" "http://www.w3.org/Graphics/SVG/1.1/DTD/svg11.dtd">
<svg version="1.1" id="Capa_1" xmlns="http://www.w3.org/2000/svg" xmlns:xlink="http://www.w3.org/1999/xlink" x="0px" y="0px"
	 width="474.349px" height="595.28px" viewBox="60.466 123.305 474.349 595.28"
	 enable-background="new 60.466 123.305 474.349 595.28" xml:space="preserve">
<path fill="#ED694A" d="M434.251,313.759c-12.406-13.544-31.692-31.824-39.896,9.452c-2.791,14.035-9.31,24.853-14.896,33.563
	c-6.021-30.476-24.138-62.02-41.208-83.288c-6.388-7.957-29.053-39.589-33.406-92.509c-0.65-7.898-10.031-11.607-15.899-6.28
	c-56.077,50.906-86.857,120.918-88,199.739c0,0-23.352-19.683-36.037-56.299c-3.416-9.86-16.635-11.742-22.37-3.023
	c-1.102,1.674-2.122,3.351-3.043,4.979C96.229,396.596,75.415,489.498,94.656,575.93c32.171,144.747,244.977,185.215,357.637,94.238
	C562.519,581.159,527.481,415.493,434.251,313.759z"/>
<g>
	<path fill="#D8553A" d="M124.603,585.017c-19.018-87.356,1.113-181.162,43.362-258.863c-1.068-2.578-2.096-5.244-3.057-8.016
		c-3.415-9.86-16.635-11.742-22.37-3.023c-1.102,1.674-2.121,3.351-3.042,4.979c-43.266,76.503-64.078,169.405-44.838,255.837
		c14.674,66.022,66.934,110.336,130.125,130.391C175.487,682.441,136.882,641.506,124.603,585.017z"/>
	<path fill="#D8553A" d="M231.038,372.985c2.336-71.535,28.21-135.678,74.519-184.954c-0.318-2.714-0.555-5.14-0.707-6.982
		c-0.664-7.965-9.702-11.96-15.545-6.679c-54.162,48.969-87.175,118.273-88.359,200.064l10.137,7.873
		c4.993,3.877,11.757,3.709,16.525,0.157C230.452,380.052,230.861,376.413,231.038,372.985z"/>
</g>
<path fill="#F4A32C" d="M400.235,419.57c-9.161-10.003-23.407-23.506-29.467,6.982c-2.061,10.365-6.877,18.357-11.001,24.791
	c-4.447-22.51-17.83-45.81-30.438-61.519c-4.718-5.877-21.458-29.241-24.675-68.33c-0.48-5.834-7.408-8.572-11.743-4.638
	c-41.42,37.599-64.155,89.314-64.998,147.531c0,0-17.248-14.538-26.617-41.584c-2.522-7.282-12.288-8.672-16.523-2.231
	c-0.813,1.235-1.567,2.475-2.247,3.677c-31.958,56.507-47.331,125.125-33.12,188.967c23.763,106.913,180.944,136.804,264.158,69.606
	C494.978,617.079,469.098,494.716,400.235,419.57z"/>
<path fill="#E89528" d="M179.042,621.603c-12.582-62.407,0.45-129.37,28.08-185.132c-2.105-4.122-4.101-8.68-5.828-13.665
	c-2.522-7.283-12.288-8.674-16.523-2.233c-0.813,1.235-1.567,2.475-2.248,3.678c-31.956,56.507-47.328,125.126-33.119,188.966
	c11.053,49.725,50.968,82.776,98.874,97.16C214.24,693.307,187.442,663.317,179.042,621.603z"/>
<path fill="#F4D44E" d="M369.183,516.171c-6.202-6.771-15.847-15.913-19.949,4.727c-1.394,7.018-4.655,12.427-7.447,16.782
	c-3.012-15.239-12.068-31.011-20.605-41.645c-3.192-3.979-14.524-19.794-16.703-46.255c-0.325-3.95-5.015-5.804-7.949-3.14
	c-28.039,25.453-43.429,60.461-44,99.869c0,0-11.676-9.842-18.018-28.149c-1.708-4.93-8.317-5.87-11.185-1.511
	c-0.551,0.836-1.061,1.675-1.521,2.488c-21.633,38.252-32.04,84.702-22.42,127.92c16.086,72.374,122.488,92.607,178.817,47.118
	c19.29-15.577,31.25-37.526,33.676-61.807C415.539,595.795,401.386,551.313,369.183,516.171z"/>
<path fill="#EAE9E8" d="M340.366,605.814c-3.455-3.772-8.828-8.865-11.114,2.632c-0.776,3.91-2.593,6.924-4.149,9.351
	c-1.678-8.49-6.724-17.277-11.479-23.201c-1.779-2.217-8.093-11.028-9.307-25.77c-0.182-2.201-2.795-3.232-4.429-1.75
	c-15.62,14.181-24.196,33.685-24.514,55.64c0,0-6.505-5.482-10.038-15.683c-0.952-2.748-4.635-3.272-6.23-0.842
	c-0.308,0.466-0.591,0.934-0.847,1.387c-12.053,21.312-17.851,47.19-12.49,71.268c12.205,54.913,112.249,53.248,118.386-8.184
	C366.193,650.175,358.307,625.392,340.366,605.814z"/>
<path fill="#F7E7A1" d="M268.997,689.744c-5.36-21.538,0.438-44.688,12.49-63.751c0.256-0.405,0.54-0.823,0.846-1.24
	c1.598-2.173,5.28-1.704,6.231,0.752c3.533,9.125,10.038,14.03,10.038,14.03c0.262-16.138,6.107-30.787,16.845-42.537
	c-2.401-3.325-9.747-11.343-11.132-28.17c-0.181-2.201-2.795-3.232-4.428-1.75c-15.621,14.181-24.196,33.685-24.514,55.641
	c0,0-6.505-5.483-10.039-15.683c-0.95-2.747-4.634-3.271-6.23-0.842c-0.307,0.467-0.591,0.934-0.846,1.388
	c-12.053,21.31-17.851,47.189-12.491,71.267c4.96,22.317,25.337,35.73,47.864,38.967
	C281.481,711.848,272.141,702.397,268.997,689.744z"/>
<g>
	<path fill="#D8553A" d="M214.624,202.418c25.143-20.45,25.087-58.709,0-79.113C189.482,143.754,189.536,182.015,214.624,202.418z"
		/>
	<path fill="#D8553A" d="M515.979,366.548c25.143-20.45,25.087-58.709,0-79.113C504.487,296.78,490.892,346.145,515.979,366.548z"/>
	<path fill="#D8553A" d="M70.672,382.119c18.12-14.739,18.08-42.311,0-57.018C62.391,331.837,52.592,367.414,70.672,382.119z"/>
	<path fill="#D8553A" d="M384.501,259.436c18.119-14.739,18.08-42.311,0-57.018C366.381,217.156,366.421,244.73,384.501,259.436z"/>
</g>
<path fill="#E89528" d="M251.031,455.039c4.161-49.125,22.921-92.805,54.419-126.104c-0.318-2.414-0.587-4.891-0.796-7.438
	c-0.48-5.834-7.409-8.572-11.743-4.638c-32.822,29.794-53.887,68.459-61.646,112.192l-0.012-0.003
	c-0.575,3.243-1.289,7.969-1.74,11.681c0.001,0.004,0.002,0.006,0.005,0.01c-0.943,7.748-1.489,15.636-1.605,23.651
	C228.787,464.561,248.632,474.761,251.031,455.039z"/>
<g>
	<path fill="#E8C842" d="M228.381,657.523c-8.552-40.373-1.269-83.426,15.65-120.73c-3.278-4.596-6.864-10.77-9.519-18.434
		c-1.71-4.93-8.318-5.87-11.187-1.512c-0.55,0.836-1.062,1.676-1.521,2.489c-21.633,38.252-32.04,84.702-22.42,127.919
		c7.534,33.895,34.876,56.352,67.606,65.979C247.94,700.589,233.529,681.868,228.381,657.523z"/>
	<path fill="#E8C842" d="M283.399,528.867c2.835-20.259,11.121-42.581,24.164-61.242c-1.42-5.27-2.537-11.224-3.083-17.845
		c-0.325-3.949-5.016-5.804-7.949-3.14c-17.47,15.86-30.009,35.437-37.133,57.468l-0.019-0.004
		c-1.12,3.461-2.705,9.195-3.666,13.722c0.009-0.003,0.017-0.003,0.024-0.006c-1.967,9.235-3.061,18.82-3.204,28.688
		C268.22,548.467,281.197,544.582,283.399,528.867z"/>
</g>
</svg>
