<?xml version="1.0" encoding="utf-8"?>
<!-- Generator: Adobe Illustrator 15.0.0, SVG Export Plug-In . SVG Version: 6.00 Build 0)  -->
<!DOCTYPE svg PUBLIC "-//W3C//DTD SVG 1.1//EN" "http://www.w3.org/Graphics/SVG/1.1/DTD/svg11.dtd">
<svg version="1.1" id="Capa_1" xmlns="http://www.w3.org/2000/svg" xmlns:xlink="http://www.w3.org/1999/xlink" x="0px" y="0px"
	 width="378.939px" height="378.939px" viewBox="0 0 378.939 378.939" enable-background="new 0 0 378.939 378.939"
	 xml:space="preserve">
<g>
	<path fill="#E84615" d="M348.151,54.514c-19.883-19.884-46.314-30.826-74.435-30.826c-28.124,0-54.559,10.942-74.449,30.826
		l-9.798,9.8l-9.798-9.8c-19.884-19.884-46.325-30.826-74.443-30.826c-28.117,0-54.56,10.942-74.441,30.826
		c-41.05,41.053-41.05,107.848,0,148.885l147.09,147.092c2.404,2.413,5.398,3.892,8.526,4.461c1.05,0.207,2.104,0.303,3.161,0.303
		c4.161,0,8.329-1.587,11.498-4.764l147.09-147.092C389.202,162.362,389.202,95.567,348.151,54.514z M325.155,180.404
		L189.47,316.091L53.782,180.404c-28.368-28.363-28.368-74.514,0-102.893c13.74-13.739,32.017-21.296,51.445-21.296
		c19.432,0,37.702,7.557,51.438,21.296l21.305,21.313c6.107,6.098,16.897,6.098,23.003,0l21.297-21.313
		c13.737-13.739,32.009-21.296,51.446-21.296c19.431,0,37.701,7.557,51.438,21.296C353.526,105.89,353.526,152.039,325.155,180.404z
		"/>
</g>
</svg>
