<?xml version="1.0" encoding="utf-8"?>
<!-- Generator: Adobe Illustrator 15.0.0, SVG Export Plug-In . SVG Version: 6.00 Build 0)  -->
<!DOCTYPE svg PUBLIC "-//W3C//DTD SVG 1.1//EN" "http://www.w3.org/Graphics/SVG/1.1/DTD/svg11.dtd">
<svg version="1.1" id="Capa_1" xmlns="http://www.w3.org/2000/svg" xmlns:xlink="http://www.w3.org/1999/xlink" x="0px" y="0px"
	 width="595.279px" height="523.345px" viewBox="0 159.273 595.279 523.345" enable-background="new 0 159.273 595.279 523.345"
	 xml:space="preserve">
<path fill="#D62927" d="M547.198,207.859c-31.171-31.171-72.438-48.208-116.481-48.208s-85.437,17.163-116.607,48.334l-16.279,16.28
	l-16.532-16.532c-31.171-31.171-72.69-48.46-116.733-48.46c-43.918,0-85.311,17.163-116.355,48.208
	C17.038,238.652-0.125,280.045,0.001,324.088c0,44.043,17.289,85.31,48.46,116.481L285.462,677.57
	c3.281,3.281,7.698,5.048,11.989,5.048s8.708-1.64,11.988-4.921l237.506-236.623c31.172-31.171,48.335-72.564,48.335-116.607
	C595.406,280.423,578.369,239.03,547.198,207.859z"/>
</svg>
