<?xml version="1.0" encoding="utf-8"?>
<!-- Generator: Adobe Illustrator 15.0.0, SVG Export Plug-In . SVG Version: 6.00 Build 0)  -->
<!DOCTYPE svg PUBLIC "-//W3C//DTD SVG 1.1//EN" "http://www.w3.org/Graphics/SVG/1.1/DTD/svg11.dtd">
<svg version="1.1" id="Layer_1" xmlns="http://www.w3.org/2000/svg" xmlns:xlink="http://www.w3.org/1999/xlink" x="0px" y="0px"
	 width="720px" height="720px" viewBox="-62.36 57.445 720 720" enable-background="new -62.36 57.445 720 720"
	 xml:space="preserve">
<title></title>
<path d="M440.963,669.982c-0.466,1.936-2.456,2.963-5.899,2.963H369.14c-3.925,0-7.369-1.721-10.331-5.211l-108.737-138.37
	l-30.408,28.86v107.327c0,4.938-2.456,7.394-7.369,7.394h-51.051c-4.958,0-7.434-2.456-7.434-7.394V176.359
	c0-4.893,2.476-7.414,7.434-7.414h51.051c4.913,0,7.369,2.521,7.369,7.414v301.205l130.268-131.717
	c3.458-3.463,6.927-5.166,10.394-5.166h68.019c3.019,0,4.952,1.261,5.979,3.782c0.973,3.131,0.714,5.354-0.755,6.614
	L295.916,484.302l143.553,178.649c2,2.184,2.456,4.366,1.469,7.513"/>
<g>
	<path d="M637.64,77.445v680h-680v-680H637.64 M657.64,57.445h-720v720h720V57.445L657.64,57.445z"/>
</g>
</svg>
