<?xml version="1.0" encoding="utf-8"?>
<!-- Generator: Adobe Illustrator 15.0.0, SVG Export Plug-In . SVG Version: 6.00 Build 0)  -->
<!DOCTYPE svg PUBLIC "-//W3C//DTD SVG 1.1//EN" "http://www.w3.org/Graphics/SVG/1.1/DTD/svg11.dtd">
<svg version="1.1" id="Capa_1" xmlns="http://www.w3.org/2000/svg" xmlns:xlink="http://www.w3.org/1999/xlink" x="0px" y="0px"
	 width="874px" height="873.445px" viewBox="-175.86 0 874 873.445" enable-background="new -175.86 0 874 873.445"
	 xml:space="preserve">
<g>
	<path d="M267.831,159.53c-15.424,41.363-58.658,142.787-95.231,170.948c-0.701,0.467-1.285,1.051-1.87,1.636
		c-10.75,11.333-17.994,23.603-22.902,34.352c-6.894-3.739-14.723-5.842-23.136-5.842H53.415c-26.875,0-48.608,21.85-48.608,48.608
		v189.877c0,26.875,21.85,48.609,48.608,48.609h71.278c10.399,0,20.098-3.271,28.043-8.881l27.459,3.271
		c4.207,0.584,78.989,10.049,155.757,8.53c13.905,1.052,26.992,1.636,39.145,1.636c20.916,0,39.144-1.636,54.333-4.908
		c35.756-7.595,60.178-22.784,72.563-45.102c9.464-17.06,9.464-34.004,7.946-44.754c23.252-21.033,27.341-44.284,26.523-60.644
		c-0.467-9.465-2.57-17.527-4.79-23.485c11.45-14.607,16.943-30.265,16.241-46.39c-0.702-17.761-8.647-31.666-15.189-40.195
		c7.594-18.929,10.516-48.725-14.841-71.861c-18.579-16.943-50.127-24.538-93.828-22.435c-30.73,1.402-56.437,7.128-57.488,7.362
		h-0.118c-5.842,1.051-12.035,2.336-18.345,3.739c-0.468-7.479,0.819-26.057,14.605-67.889
		C377.376,123.297,267.831,159.53,267.831,159.53z M53.415,616.17c-9.464,0-17.059-7.712-17.059-17.061V409.116
		c0-9.464,7.712-17.06,17.059-17.06h71.278c9.465,0,17.06,7.711,17.06,17.06v189.877c0,9.465-7.712,17.059-17.06,17.059H53.415
		V616.17z M332.564,225.549c-19.63,59.475-21.266,90.79-5.725,104.579c7.712,6.894,17.994,7.245,25.473,4.557
		c7.127-1.636,13.904-3.038,20.33-4.09c0.469-0.116,1.053-0.232,1.521-0.35c35.871-7.829,100.138-12.62,122.455,7.711
		c18.931,17.294,5.492,40.196,3.974,42.649c-4.323,6.543-3.038,15.073,2.805,20.332c0.116,0.117,12.386,11.685,12.97,27.226
		c0.467,10.399-4.44,21.032-14.606,31.549c-4.908,5.142-5.842,12.97-2.103,19.046c0,0.117,4.79,8.297,5.374,19.514
		c0.818,15.307-6.543,28.862-21.967,40.429c-5.493,4.207-7.712,11.45-5.375,17.995c0,0.116,5.024,15.54-3.155,30.146
		c-7.828,14.021-25.239,24.069-51.646,29.679c-21.149,4.557-49.893,5.376-85.181,2.57c-0.468,0-1.053,0-1.637,0
		c-75.132,1.637-151.083-8.18-151.901-8.295h-0.117l-11.801-1.402c0.7-3.272,1.051-6.778,1.051-10.283V409.116
		c0-5.024-0.817-9.932-2.22-14.489c2.103-7.829,7.945-25.239,21.734-40.079c52.464-41.598,92.978-154.418,92.51-157.105
		C338.147,172.749,332.564,225.549,332.564,225.549z"/>
</g>
<g>
	<path d="M262.39,48.918c52.393,0,103.202,10.254,151.019,30.479c46.199,19.541,87.696,47.521,123.339,83.164
		s63.623,77.14,83.163,123.339c20.225,47.816,30.479,98.625,30.479,151.018S640.135,540.12,619.91,587.937
		c-19.54,46.199-47.521,87.696-83.163,123.339s-77.14,63.623-123.339,83.163c-47.816,20.225-98.626,30.479-151.019,30.479
		s-103.202-10.255-151.018-30.479c-46.199-19.54-87.697-47.521-123.339-83.163s-63.623-77.14-83.164-123.339
		c-20.225-47.816-30.479-98.626-30.479-151.019s10.254-103.202,30.479-151.018c19.541-46.199,47.521-87.697,83.164-123.339
		s77.14-63.623,123.339-83.164C159.188,59.172,209.997,48.918,262.39,48.918 M262.39,19.918c-230.303,0-417,186.697-417,417
		s186.697,417,417,417s417-186.697,417-417S492.693,19.918,262.39,19.918L262.39,19.918z"/>
</g>
</svg>
