<?xml version="1.0" encoding="utf-8"?>
<!-- Generator: Adobe Illustrator 15.0.0, SVG Export Plug-In . SVG Version: 6.00 Build 0)  -->
<!DOCTYPE svg PUBLIC "-//W3C//DTD SVG 1.1//EN" "http://www.w3.org/Graphics/SVG/1.1/DTD/svg11.dtd">
<svg version="1.1" id="Capa_1" xmlns="http://www.w3.org/2000/svg" xmlns:xlink="http://www.w3.org/1999/xlink" x="0px" y="0px"
	 width="418.557px" height="595.281px" viewBox="0 0 418.557 595.281" enable-background="new 0 0 418.557 595.281"
	 xml:space="preserve">
<g>
	<path d="M212.183,595.234c-6.028,0-11.636-3.113-14.816-8.238L31.24,319.467C10.801,286.48,0,248.457,0,209.496
		C0,94.178,93.884,0.36,209.279,0.36s209.278,93.818,209.278,209.136c0,37.806-10.207,74.857-29.521,107.147l-161.89,270.116
		c-3.126,5.215-8.743,8.426-14.824,8.473C212.276,595.234,212.23,595.234,212.183,595.234z M209.278,35.216
		c-96.163,0-174.397,78.182-174.397,174.28c0,32.474,8.991,64.15,26.007,91.607l151.034,243.225l147.187-245.579
		c16.068-26.876,24.568-57.742,24.568-89.251C383.675,113.397,305.441,35.216,209.278,35.216z"/>
	<path d="M209.278,314.063c-36.504,0-69.812-18.562-89.097-49.654c-10.172-16.436-15.543-35.419-15.543-54.914
		c0-57.659,46.939-104.567,104.64-104.567s104.639,46.909,104.639,104.567c0,18.92-5.081,37.423-14.692,53.51
		C280.1,294.978,246.477,314.063,209.278,314.063z M209.278,139.784c-38.466,0-69.76,31.272-69.76,69.712
		c0,13.012,3.566,25.656,10.317,36.563c12.87,20.751,35.096,33.149,59.44,33.149c24.808,0,47.237-12.741,60.001-34.078
		c6.383-10.681,9.759-23.006,9.759-35.634C279.037,171.056,247.743,139.784,209.278,139.784z"/>
</g>
</svg>
