<?xml version="1.0" encoding="utf-8"?>
<!-- Generator: Adobe Illustrator 15.0.0, SVG Export Plug-In . SVG Version: 6.00 Build 0)  -->
<!DOCTYPE svg PUBLIC "-//W3C//DTD SVG 1.1//EN" "http://www.w3.org/Graphics/SVG/1.1/DTD/svg11.dtd">
<svg version="1.1" id="Capa_1" xmlns="http://www.w3.org/2000/svg" xmlns:xlink="http://www.w3.org/1999/xlink" x="0px" y="0px"
	 width="144px" height="144px" viewBox="312 440 144 144" enable-background="new 312 440 144 144" xml:space="preserve">
<linearGradient id="SVGID_1_" gradientUnits="userSpaceOnUse" x1="179.0156" y1="686.6797" x2="173.3682" y2="681.0322" gradientTransform="matrix(-1.6 0 0 1.6 685.4009 -558.4514)">
	<stop  offset="0" style="stop-color:#97AAAA"/>
	<stop  offset="1" style="stop-color:#E8EFEE"/>
</linearGradient>
<polygon fill="url(#SVGID_1_)" points="396.745,534.247 406.247,524.745 414.49,532.989 404.989,542.491 "/>
<radialGradient id="SVGID_2_" cx="259.0767" cy="620.7217" r="164.631" gradientTransform="matrix(-0.3 0 0 0.3 440.5123 311.2904)" gradientUnits="userSpaceOnUse">
	<stop  offset="1.000000e-004" style="stop-color:#FFFFFF;stop-opacity:0"/>
	<stop  offset="0.482" style="stop-color:#FDFDFD;stop-opacity:0.482"/>
	<stop  offset="0.656" style="stop-color:#F6F7F7;stop-opacity:0.655"/>
	<stop  offset="0.779" style="stop-color:#EBEDEC;stop-opacity:0.779"/>
	<stop  offset="0.879" style="stop-color:#DADDDD;stop-opacity:0.879"/>
	<stop  offset="0.964" style="stop-color:#C4CAC9;stop-opacity:0.964"/>
	<stop  offset="1" style="stop-color:#B8BFBE"/>
</radialGradient>
<circle fill="url(#SVGID_2_)" cx="365.793" cy="493.793" r="50.493"/>
<linearGradient id="SVGID_3_" gradientUnits="userSpaceOnUse" x1="199.748" y1="630.1768" x2="199.748" y2="706.6586" gradientTransform="matrix(-1.6 0 0 1.6 685.4009 -558.4514)">
	<stop  offset="0" style="stop-color:#5B6A6A"/>
	<stop  offset="1" style="stop-color:#303033"/>
</linearGradient>
<path fill="url(#SVGID_3_)" d="M312,493.793c0,29.709,24.084,53.793,53.793,53.793s53.793-24.084,53.793-53.793
	S395.502,440,365.793,440S312,464.083,312,493.793z M320.925,493.793c0-24.78,20.088-44.869,44.868-44.869
	s44.868,20.088,44.868,44.869s-20.088,44.868-44.868,44.868C341.014,538.661,320.925,518.573,320.925,493.793z"/>
<linearGradient id="SVGID_4_" gradientUnits="userSpaceOnUse" x1="156.4292" y1="696.6768" x2="163.1937" y2="703.4413" gradientTransform="matrix(-1.6 0 0 1.6 685.4009 -558.4514)">
	<stop  offset="0" style="stop-color:#5B6A6A"/>
	<stop  offset="1" style="stop-color:#303033"/>
</linearGradient>
<path fill="url(#SVGID_4_)" d="M440.976,582.409l-35.853-35.853l13.434-13.434l35.853,35.853c2.121,2.12,2.121,5.559,0,7.68
	l-5.754,5.754C446.534,584.53,443.096,584.53,440.976,582.409z"/>
<linearGradient id="SVGID_5_" gradientUnits="userSpaceOnUse" x1="168.6289" y1="688.752" x2="174.4342" y2="682.9467" gradientTransform="matrix(-1.6 0 0 1.6 685.4009 -558.4514)">
	<stop  offset="0" style="stop-color:#97AAAA"/>
	<stop  offset="1" style="stop-color:#E8EFEE"/>
</linearGradient>
<path fill="url(#SVGID_5_)" d="M420.641,529.201l0.621,0.621c1.958,1.958,1.958,5.132,0,7.09l-12.351,12.35
	c-1.958,1.958-5.132,1.958-7.09,0l-0.62-0.62c-1.958-1.958-1.958-5.133,0-7.09l12.35-12.351
	C415.509,527.243,418.684,527.243,420.641,529.201z"/>
<linearGradient id="SVGID_6_" gradientUnits="userSpaceOnUse" x1="176.4375" y1="680.9434" x2="164.366" y2="693.013" gradientTransform="matrix(-1.6 0 0 1.6 685.4009 -558.4514)">
	<stop  offset="0" style="stop-color:#97AAAA"/>
	<stop  offset="1" style="stop-color:#E8EFEE"/>
</linearGradient>
<path fill="url(#SVGID_6_)" d="M417.227,531.486l1.75,1.75c1.646,1.646,1.646,4.314,0,5.961l-7.779,7.779
	c-1.646,1.646-4.315,1.646-5.961,0l-1.75-1.75c-1.646-1.646-1.646-4.314,0-5.961l7.779-7.779
	C412.912,529.841,415.58,529.841,417.227,531.486z"/>
<linearGradient id="SVGID_7_" gradientUnits="userSpaceOnUse" x1="168.6294" y1="688.752" x2="174.4342" y2="682.9472" gradientTransform="matrix(-1.6 0 0 1.6 685.4009 -558.4514)">
	<stop  offset="0" style="stop-color:#97AAAA"/>
	<stop  offset="1" style="stop-color:#E8EFEE"/>
</linearGradient>
<path fill="url(#SVGID_7_)" d="M412.344,534.347l3.772,3.772c1.087,1.087,1.087,2.85,0,3.938l-2.06,2.06
	c-1.087,1.088-2.851,1.088-3.938,0l-3.772-3.772c-1.088-1.087-1.088-2.851,0-3.938l2.06-2.06
	C409.493,533.259,411.256,533.259,412.344,534.347z"/>
</svg>
