<?xml version="1.0" encoding="utf-8"?>
<!-- Generator: Adobe Illustrator 15.0.0, SVG Export Plug-In . SVG Version: 6.00 Build 0)  -->
<!DOCTYPE svg PUBLIC "-//W3C//DTD SVG 1.1//EN" "http://www.w3.org/Graphics/SVG/1.1/DTD/svg11.dtd">
<svg version="1.1" id="Capa_1" xmlns="http://www.w3.org/2000/svg" xmlns:xlink="http://www.w3.org/1999/xlink" x="0px" y="0px"
	 width="144px" height="144px" viewBox="184 184 144 144" enable-background="new 184 184 144 144" xml:space="preserve">
<g>
	<path fill="#FEE97D" d="M241.467,270.507c-22.309-22.307-28.337-54.724-18.09-82.498c0.995-2.696-2.07-5.093-4.469-3.495
		c-4.475,2.979-8.711,6.468-12.625,10.469c-30.039,30.702-29.654,80.067,0.845,110.316c30.594,30.344,79.997,30.268,110.497-0.229
		c3.751-3.75,7.039-7.786,9.868-12.038c1.593-2.396-0.823-5.431-3.53-4.433C296.186,298.837,263.771,292.809,241.467,270.507z"/>
	<g>
		<path fill="#FEDF30" d="M323.961,288.6c-5.657,2.085-11.507,3.495-17.424,4.23c-30.681,26.277-76.872,24.969-106.006-3.928
			c-5.579-5.533-10.145-11.708-13.707-18.289c3.506,12.733,10.277,24.742,20.303,34.686c30.594,30.345,79.997,30.269,110.497-0.228
			c3.751-3.75,7.039-7.786,9.868-12.039C329.084,290.638,326.668,287.602,323.961,288.6L323.961,288.6z"/>
	</g>
	<path fill="#FEE97D" d="M287.817,220.226l11.428,1.66c1.997,0.291,2.797,2.729,1.354,4.134l-8.285,8.076
		c-0.571,0.557-0.832,1.357-0.697,2.141l1.953,11.389c0.341,1.984-1.756,3.494-3.546,2.554l-10.196-5.359
		c-0.713-0.375-1.566-0.375-2.28,0l-10.195,5.359c-1.79,0.94-3.887-0.569-3.546-2.554l1.953-11.389
		c0.134-0.784-0.126-1.584-0.697-2.141l-8.286-8.076c-1.441-1.405-0.642-3.844,1.355-4.134l11.427-1.66
		c0.796-0.115,1.484-0.614,1.838-1.332l5.101-10.333c0.894-1.81,3.488-1.81,4.382,0l5.101,10.333
		C286.334,219.612,287.021,220.11,287.817,220.226L287.817,220.226z"/>
	<g>
		<path fill="#FEDF30" d="M300.601,226.02c1.441-1.405,0.642-3.844-1.355-4.134l-8.589-1.248l-2.373,2.313
			c-2.178,2.122-3.171,5.171-2.658,8.16l0.516,3.001c0.682,3.974-3.519,6.998-7.102,5.114l-2.6-1.366
			c-2.719-1.43-5.974-1.43-8.693,0l-2.488,1.308l-1.451,8.458c-0.34,1.984,1.757,3.494,3.546,2.553l10.196-5.359
			c0.713-0.375,1.567-0.375,2.28,0l10.196,5.359c1.789,0.941,3.886-0.569,3.546-2.553l-1.954-11.389
			c-0.134-0.784,0.126-1.584,0.698-2.141L300.601,226.02z"/>
	</g>
</g>
</svg>
