<?xml version="1.0" encoding="utf-8"?>
<!-- Generator: Adobe Illustrator 15.0.0, SVG Export Plug-In . SVG Version: 6.00 Build 0)  -->
<!DOCTYPE svg PUBLIC "-//W3C//DTD SVG 1.1//EN" "http://www.w3.org/Graphics/SVG/1.1/DTD/svg11.dtd">
<svg version="1.1" id="Layer_1" xmlns="http://www.w3.org/2000/svg" xmlns:xlink="http://www.w3.org/1999/xlink" x="0px" y="0px"
	 width="595.279px" height="841.891px" viewBox="0 0 595.279 841.891" enable-background="new 0 0 595.279 841.891"
	 xml:space="preserve">
<g>
	<g>
		<path fill="#2C2F33" d="M561.615,270.728H377.367V135.337c0-6.685-5.348-12.032-12.032-12.032H33.665
			c-6.685,0-12.032,5.348-12.032,12.032v571.217c0,6.684,5.348,12.031,12.032,12.031h331.67h196.279
			c6.685,0,12.032-5.348,12.032-12.031V282.759C573.647,276.075,568.299,270.728,561.615,270.728z M353.303,282.759v411.883H45.698
			V147.369h307.605V282.759L353.303,282.759z M549.582,694.521H377.367V294.67h172.215V694.521z"/>
		<path fill="#2C2F33" d="M424.28,355.802h78.391c6.685,0,12.032-5.348,12.032-12.032c0-6.684-5.348-12.032-12.032-12.032H424.28
			c-6.685,0-12.031,5.348-12.031,12.032C412.248,350.333,417.595,355.802,424.28,355.802z"/>
		<path fill="#2C2F33" d="M424.28,416.205h78.391c6.685,0,12.032-5.348,12.032-12.032s-5.348-12.032-12.032-12.032H424.28
			c-6.685,0-12.031,5.347-12.031,12.032S417.595,416.205,424.28,416.205z"/>
		<path fill="#2C2F33" d="M424.28,476.486h78.391c6.685,0,12.032-5.347,12.032-12.031s-5.348-12.032-12.032-12.032H424.28
			c-6.685,0-12.031,5.348-12.031,12.032S417.595,476.486,424.28,476.486z"/>
		<path fill="#2C2F33" d="M424.28,536.89h78.391c6.685,0,12.032-5.348,12.032-12.032c0-6.684-5.348-12.031-12.032-12.031H424.28
			c-6.685,0-12.031,5.348-12.031,12.031C412.248,531.542,417.595,536.89,424.28,536.89z"/>
		<path fill="#2C2F33" d="M424.28,597.172h78.391c6.685,0,12.032-5.348,12.032-12.032s-5.348-12.032-12.032-12.032H424.28
			c-6.685,0-12.031,5.348-12.031,12.032C412.248,591.702,417.595,597.172,424.28,597.172z"/>
		<path fill="#2C2F33" d="M424.28,657.574h78.391c6.685,0,12.032-5.348,12.032-12.031c0-6.685-5.348-12.032-12.032-12.032H424.28
			c-6.685,0-12.031,5.348-12.031,12.032C412.248,652.227,417.595,657.574,424.28,657.574z"/>
		<path fill="#2C2F33" d="M101.482,241.194c6.685,0,12.032-5.348,12.032-12.032v-26.616c0-6.685-5.348-12.032-12.032-12.032
			s-12.031,5.347-12.031,12.032v26.616C89.45,235.847,94.797,241.194,101.482,241.194z"/>
		<path fill="#2C2F33" d="M166.868,241.194c6.685,0,12.031-5.348,12.031-12.032v-26.616c0-6.685-5.347-12.032-12.031-12.032
			s-12.032,5.347-12.032,12.032v26.616C154.836,235.847,160.184,241.194,166.868,241.194z"/>
		<path fill="#2C2F33" d="M232.133,241.194c6.684,0,12.031-5.348,12.031-12.032v-26.616c0-6.685-5.348-12.032-12.031-12.032
			c-6.685,0-12.032,5.347-12.032,12.032v26.616C220.101,235.847,225.57,241.194,232.133,241.194z"/>
		<path fill="#2C2F33" d="M297.519,241.194c6.685,0,12.031-5.348,12.031-12.032v-26.616c0-6.685-5.347-12.032-12.031-12.032
			s-12.032,5.347-12.032,12.032v26.616C285.487,235.847,290.834,241.194,297.519,241.194z"/>
		<path fill="#2C2F33" d="M101.482,323.595c6.685,0,12.032-5.348,12.032-12.032v-26.738c0-6.684-5.348-12.032-12.032-12.032
			s-12.031,5.348-12.031,12.032v26.738C89.45,318.126,94.797,323.595,101.482,323.595z"/>
		<path fill="#2C2F33" d="M166.868,323.595c6.685,0,12.031-5.348,12.031-12.032v-26.738c0-6.684-5.347-12.032-12.031-12.032
			s-12.032,5.348-12.032,12.032v26.738C154.836,318.126,160.184,323.595,166.868,323.595z"/>
		<path fill="#2C2F33" d="M232.133,323.595c6.684,0,12.031-5.348,12.031-12.032v-26.738c0-6.684-5.348-12.032-12.031-12.032
			c-6.685,0-12.032,5.348-12.032,12.032v26.738C220.101,318.126,225.57,323.595,232.133,323.595z"/>
		<path fill="#2C2F33" d="M297.519,323.595c6.685,0,12.031-5.348,12.031-12.032v-26.738c0-6.684-5.347-12.032-12.031-12.032
			s-12.032,5.348-12.032,12.032v26.738C285.487,318.126,290.834,323.595,297.519,323.595z"/>
		<path fill="#2C2F33" d="M101.482,405.875c6.685,0,12.032-5.348,12.032-12.032v-26.616c0-6.685-5.348-12.032-12.032-12.032
			s-12.031,5.348-12.031,12.032v26.616C89.45,400.527,94.797,405.875,101.482,405.875z"/>
		<path fill="#2C2F33" d="M166.868,405.875c6.685,0,12.031-5.348,12.031-12.032v-26.616c0-6.685-5.347-12.032-12.031-12.032
			s-12.032,5.348-12.032,12.032v26.616C154.836,400.527,160.184,405.875,166.868,405.875z"/>
		<path fill="#2C2F33" d="M232.133,405.875c6.684,0,12.031-5.348,12.031-12.032v-26.616c0-6.685-5.348-12.032-12.031-12.032
			c-6.685,0-12.032,5.348-12.032,12.032v26.616C220.101,400.527,225.57,405.875,232.133,405.875z"/>
		<path fill="#2C2F33" d="M297.519,405.875c6.685,0,12.031-5.348,12.031-12.032v-26.616c0-6.685-5.347-12.032-12.031-12.032
			s-12.032,5.348-12.032,12.032v26.616C285.487,400.527,290.834,405.875,297.519,405.875z"/>
		<path fill="#2C2F33" d="M101.482,488.275c6.685,0,12.032-5.348,12.032-12.031v-26.617c0-6.684-5.348-12.031-12.032-12.031
			s-12.031,5.348-12.031,12.031v26.617C89.45,482.807,94.797,488.275,101.482,488.275z"/>
		<path fill="#2C2F33" d="M166.868,488.275c6.685,0,12.031-5.348,12.031-12.031v-26.617c0-6.684-5.347-12.031-12.031-12.031
			s-12.032,5.348-12.032,12.031v26.617C154.836,482.807,160.184,488.275,166.868,488.275z"/>
		<path fill="#2C2F33" d="M232.133,488.275c6.684,0,12.031-5.348,12.031-12.031v-26.617c0-6.684-5.348-12.031-12.031-12.031
			c-6.685,0-12.032,5.348-12.032,12.031v26.617C220.101,482.807,225.57,488.275,232.133,488.275z"/>
		<path fill="#2C2F33" d="M297.519,488.275c6.685,0,12.031-5.348,12.031-12.031v-26.617c0-6.684-5.347-12.031-12.031-12.031
			s-12.032,5.348-12.032,12.031v26.617C285.487,482.807,290.834,488.275,297.519,488.275z"/>
		<path fill="#2C2F33" d="M101.482,570.555c6.685,0,12.032-5.347,12.032-12.031v-26.616c0-6.685-5.348-12.032-12.032-12.032
			s-12.031,5.348-12.031,12.032v26.616C89.45,565.208,94.797,570.555,101.482,570.555z"/>
		<path fill="#2C2F33" d="M166.868,570.555c6.685,0,12.031-5.347,12.031-12.031v-26.616c0-6.685-5.347-12.032-12.031-12.032
			s-12.032,5.348-12.032,12.032v26.616C154.836,565.208,160.184,570.555,166.868,570.555z"/>
		<path fill="#2C2F33" d="M232.133,570.555c6.684,0,12.031-5.347,12.031-12.031v-26.616c0-6.685-5.348-12.032-12.031-12.032
			c-6.685,0-12.032,5.348-12.032,12.032v26.616C220.101,565.208,225.57,570.555,232.133,570.555z"/>
		<path fill="#2C2F33" d="M297.519,570.555c6.685,0,12.031-5.347,12.031-12.031v-26.616c0-6.685-5.347-12.032-12.031-12.032
			s-12.032,5.348-12.032,12.032v26.616C285.487,565.208,290.834,570.555,297.519,570.555z"/>
		<path fill="#2C2F33" d="M101.482,652.956c6.685,0,12.032-5.348,12.032-12.032v-26.737c0-6.685-5.348-12.032-12.032-12.032
			s-12.031,5.348-12.031,12.032v26.737C89.45,647.487,94.797,652.956,101.482,652.956z"/>
		<path fill="#2C2F33" d="M166.868,652.956c6.685,0,12.031-5.348,12.031-12.032v-26.737c0-6.685-5.347-12.032-12.031-12.032
			s-12.032,5.348-12.032,12.032v26.737C154.836,647.487,160.184,652.956,166.868,652.956z"/>
		<path fill="#2C2F33" d="M232.133,652.956c6.684,0,12.031-5.348,12.031-12.032v-26.737c0-6.685-5.348-12.032-12.031-12.032
			c-6.685,0-12.032,5.348-12.032,12.032v26.737C220.101,647.487,225.57,652.956,232.133,652.956z"/>
		<path fill="#2C2F33" d="M297.519,652.956c6.685,0,12.031-5.348,12.031-12.032v-26.737c0-6.685-5.347-12.032-12.031-12.032
			s-12.032,5.348-12.032,12.032v26.737C285.487,647.487,290.834,652.956,297.519,652.956z"/>
	</g>
</g>
</svg>
