<?xml version="1.0" encoding="utf-8"?>
<!-- Generator: Adobe Illustrator 15.0.0, SVG Export Plug-In . SVG Version: 6.00 Build 0)  -->
<!DOCTYPE svg PUBLIC "-//W3C//DTD SVG 1.1//EN" "http://www.w3.org/Graphics/SVG/1.1/DTD/svg11.dtd">
<svg version="1.1" id="Layer_1" xmlns="http://www.w3.org/2000/svg" xmlns:xlink="http://www.w3.org/1999/xlink" x="0px" y="0px"
	 width="144px" height="144px" viewBox="0 0 144 144" enable-background="new 0 0 144 144" xml:space="preserve">
<path fill="#607D8B" d="M100.173,18c0-9.924-8.427-18-18.782-18H18.783C8.427,0,0,8.076,0,18v108c0,9.924,8.427,18,18.783,18h62.607
	c10.355,0,18.782-8.076,18.782-18V18z"/>
<path fill="#FAFAFA" d="M87.65,126c0,3.316-2.805,6-6.26,6H18.782c-3.456,0-6.261-2.684-6.261-6V18c0-3.318,2.805-6,6.261-6h3.13
	c3.456,0,6.261,2.682,6.261,6c0,3.316,2.806,6,6.261,6h31.305c3.455,0,6.261-2.682,6.261-6s2.806-6,6.26-6h3.132
	c3.455,0,6.26,2.682,6.26,6V126L87.65,126z"/>
<path fill="#546D79" d="M50.086,0H18.782C8.427,0,0,8.076,0,18v108c0,9.924,8.427,18,18.783,18h31.304v-12H18.783
	c-3.456,0-6.262-2.684-6.262-6V18c0-3.318,2.806-6,6.262-6h3.13c3.456,0,6.261,2.682,6.261,6c0,3.316,2.805,6,6.262,6h15.651
	L50.086,0L50.086,0z"/>
<path fill="#DADADA" d="M21.913,12h-3.13c-3.456,0-6.262,2.682-6.262,6v108c0,3.316,2.806,6,6.262,6h31.304V24H34.436
	c-3.457,0-6.262-2.682-6.262-6C28.173,14.682,25.369,12,21.913,12z"/>
<path fill="#FF0000" d="M103.305,33c-22.438,0-40.695,17.496-40.695,39c0,21.505,18.257,39,40.695,39S144,93.505,144,72
	C144,50.496,125.743,33,103.305,33z"/>
<path fill="#FAFAFA" d="M123.486,51.264c1.53,1.53,1.529,4.01,0,5.54L88.721,91.569c-1.529,1.529-4.01,1.53-5.539,0l0,0
	c-1.529-1.529-1.529-4.01,0-5.539l34.766-34.766C119.477,49.735,121.957,49.735,123.486,51.264L123.486,51.264z"/>
<path fill="#FAFAFA" d="M84.182,51.264c-1.53,1.53-1.529,4.01,0,5.54l34.766,34.766c1.529,1.529,4.01,1.53,5.539,0l0,0
	c1.529-1.529,1.529-4.01,0-5.539L89.721,51.265C88.191,49.735,85.711,49.735,84.182,51.264L84.182,51.264z"/>
</svg>
