<?xml version="1.0" encoding="utf-8"?>
<!-- Generator: Adobe Illustrator 15.0.0, SVG Export Plug-In . SVG Version: 6.00 Build 0)  -->
<!DOCTYPE svg PUBLIC "-//W3C//DTD SVG 1.1//EN" "http://www.w3.org/Graphics/SVG/1.1/DTD/svg11.dtd">
<svg version="1.1" id="Layer_1" xmlns="http://www.w3.org/2000/svg" xmlns:xlink="http://www.w3.org/1999/xlink" x="0px" y="0px"
	 width="144px" height="144px" viewBox="184 184 144 144" enable-background="new 184 184 144 144" xml:space="preserve">
<path fill="#607D8B" d="M284.173,202c0-9.924-8.427-18-18.782-18h-62.608C192.427,184,184,192.076,184,202v108
	c0,9.924,8.427,18,18.783,18h62.608c10.355,0,18.782-8.076,18.782-18V202z"/>
<path fill="#FAFAFA" d="M271.651,310c0,3.317-2.805,6-6.261,6h-62.608c-3.456,0-6.261-2.683-6.261-6V202c0-3.318,2.805-6,6.261-6
	h3.13c3.456,0,6.261,2.682,6.261,6c0,3.317,2.805,6,6.261,6h31.304c3.456,0,6.261-2.682,6.261-6c0-3.318,2.805-6,6.26-6h3.131
	c3.456,0,6.261,2.682,6.261,6V310z"/>
<path fill="#546D79" d="M234.086,184h-31.304C192.427,184,184,192.076,184,202v108c0,9.924,8.427,18,18.783,18h31.304v-12h-31.304
	c-3.456,0-6.261-2.683-6.261-6V202c0-3.318,2.805-6,6.261-6h3.13c3.456,0,6.261,2.682,6.261,6c0,3.317,2.805,6,6.261,6h15.652V184z"
	/>
<path fill="#DADADA" d="M205.913,196h-3.13c-3.456,0-6.261,2.682-6.261,6v108c0,3.317,2.805,6,6.261,6h31.304V208h-15.652
	c-3.457,0-6.261-2.682-6.261-6C212.173,198.682,209.369,196,205.913,196z"/>
<path fill="#05B169" d="M287.304,217c-22.438,0-40.695,17.496-40.695,39c0,21.505,18.257,39,40.695,39
	C309.743,295,328,277.505,328,256C328,234.496,309.743,217,287.304,217z"/>
<path fill="#FAFAFA" d="M311.303,244.808l-27.604,26.453c-0.828,0.793-1.915,1.191-3.003,1.191c-1.087,0-2.174-0.398-3.002-1.191
	l-13.802-13.227c-1.661-1.591-1.661-4.164,0-5.755c1.66-1.591,4.343-1.591,6.004,0l10.8,10.35l24.602-23.577
	c1.66-1.591,4.343-1.591,6.004,0C312.963,240.644,312.963,243.216,311.303,244.808z"/>
</svg>
