<?xml version="1.0" encoding="utf-8"?>
<!-- Generator: Adobe Illustrator 15.0.0, SVG Export Plug-In . SVG Version: 6.00 Build 0)  -->
<!DOCTYPE svg PUBLIC "-//W3C//DTD SVG 1.1//EN" "http://www.w3.org/Graphics/SVG/1.1/DTD/svg11.dtd">
<svg version="1.1" id="Capa_1" xmlns="http://www.w3.org/2000/svg" xmlns:xlink="http://www.w3.org/1999/xlink" x="0px" y="0px"
	 width="768px" height="768px" viewBox="0 0 768 768" enable-background="new 0 0 768 768" xml:space="preserve">
<path fill="#0F9AF0" d="M768,384c0-19.818-6.332-38.622-18.289-54.354c-7.697-10.157-10.262-23.052-7.045-35.349
	c5.034-19.145,3.689-38.94-3.895-57.248c-7.587-18.309-20.633-33.259-37.7-43.219c-10.998-6.437-18.303-17.369-20.035-29.961
	c-2.673-19.613-11.493-37.386-25.506-51.401c-14.013-14.013-31.785-22.833-51.369-25.501c-12.623-1.739-23.555-9.042-29.976-20.01
	c-9.974-17.099-24.924-30.146-43.233-37.729c-10.984-4.549-22.548-6.856-34.368-6.856c-7.707,0-15.405,0.998-22.848,2.957
	c-3.408,0.891-6.921,1.344-10.441,1.344c-8.948,0-17.804-2.976-24.909-8.361C422.623,6.332,403.819,0,384,0l-90,384l90,384
	c19.819,0,38.623-6.331,54.355-18.289c7.133-5.406,15.986-8.381,24.935-8.381c3.519,0,7.032,0.451,10.411,1.336
	c7.475,1.967,15.171,2.963,22.877,2.963c11.821,0,23.387-2.307,34.371-6.855c18.309-7.586,33.26-20.632,43.219-37.699
	c6.438-10.998,17.369-18.302,29.962-20.036c19.613-2.673,37.389-11.492,51.401-25.507c14.012-14.015,22.832-31.785,25.5-51.368
	c1.737-12.622,9.042-23.554,20.012-29.975c17.097-9.976,30.146-24.926,37.729-43.234c7.581-18.306,8.929-38.103,3.901-57.219
	c-3.224-12.327-0.658-25.222,7.019-35.352C761.668,422.622,768,403.818,768,384z"/>
<path fill="#13BDF7" d="M329.645,18.29c-7.131,5.406-15.986,8.382-24.938,8.382c-3.518,0-7.03-0.453-10.407-1.335
	c-7.476-1.968-15.174-2.965-22.881-2.965c-11.82,0-23.383,2.307-34.37,6.856c-18.309,7.585-33.259,20.631-43.219,37.701
	c-6.437,10.996-17.369,18.3-29.959,20.034c-19.614,2.676-37.388,11.496-51.4,25.508c-14.013,14.014-22.833,31.788-25.5,51.369
	c-1.74,12.623-9.043,23.555-20.012,29.975c-17.099,9.975-30.146,24.926-37.728,43.234c-7.584,18.308-8.931,38.104-3.903,57.218
	c3.223,12.328,0.658,25.222-7.019,35.352C6.332,345.378,0,364.182,0,384s6.332,38.622,18.29,54.355
	c7.696,10.155,10.261,23.049,7.045,35.346c-5.036,19.145-3.688,38.939,3.894,57.246c7.584,18.313,20.631,33.265,37.7,43.22
	c10.996,6.437,18.301,17.368,20.035,29.96c2.673,19.615,11.493,37.39,25.506,51.401c14.014,14.015,31.788,22.835,51.369,25.502
	c12.623,1.737,23.555,9.042,29.975,20.011c9.975,17.098,24.926,30.145,43.234,37.729c10.986,4.551,22.551,6.858,34.373,6.858
	c7.706,0,15.402-0.998,22.845-2.957c3.409-0.893,6.922-1.344,10.441-1.344c8.947,0,17.804,2.975,24.907,8.358
	C345.377,761.669,364.182,768,384,768V0C364.184,0,345.38,6.332,329.645,18.29z"/>
<path fill="#085AAE" d="M384,91.5L319.478,384L384,676.5c161.544,0,292.5-130.956,292.5-292.5S545.544,91.5,384,91.5z"/>
<path fill="#0A77E8" d="M91.5,384c0,161.544,130.956,292.5,292.5,292.5v-585C222.456,91.5,91.5,222.456,91.5,384z"/>
<polygon fill="#B2F5FF" points="384,246.122 339,403.621 588.663,358.621 530.656,246.122 "/>
<polygon fill="#FFFFFF" points="384,246.122 237.344,246.122 179.337,358.621 384,403.621 "/>
<polygon fill="#18E0FF" points="384,593.871 588.663,358.621 384,358.621 339,476.245 "/>
<polygon fill="#B2F5FF" points="179.337,358.621 384,593.871 384,358.621 "/>
</svg>
