<?xml version="1.0" encoding="utf-8"?>
<!-- Generator: Adobe Illustrator 15.0.0, SVG Export Plug-In . SVG Version: 6.00 Build 0)  -->
<!DOCTYPE svg PUBLIC "-//W3C//DTD SVG 1.1//EN" "http://www.w3.org/Graphics/SVG/1.1/DTD/svg11.dtd">
<svg version="1.1" id="Capa_1" xmlns="http://www.w3.org/2000/svg" xmlns:xlink="http://www.w3.org/1999/xlink" x="0px" y="0px"
	 width="402.279px" height="595.28px" viewBox="96.5 123.305 402.279 595.28" enable-background="new 96.5 123.305 402.279 595.28"
	 xml:space="preserve">
<g>
	<g>
		<g>
			<path d="M297.64,416.997c51.405,0,93.227-41.726,93.227-93.013s-41.821-93.013-93.227-93.013s-93.227,41.726-93.227,93.013
				S246.235,416.997,297.64,416.997z M297.64,277.478c25.702,0,46.613,20.863,46.613,46.506s-20.911,46.506-46.613,46.506
				c-25.701,0-46.613-20.862-46.613-46.506S271.939,277.478,297.64,277.478z"/>
			<path d="M426.962,477.652c45.211-37.955,71.817-94.338,71.817-153.668c0-110.655-90.231-200.68-201.14-200.68
				S96.5,213.33,96.5,323.984c0,59.33,26.606,115.715,71.817,153.669l-39.423,213.465c-1.696,9.187,2.282,18.494,10.1,23.633
				c7.817,5.138,17.961,5.109,25.751-0.072l132.895-88.407l132.896,88.408c7.788,5.18,17.93,5.211,25.75,0.072
				c7.818-5.139,11.797-14.446,10.101-23.632L426.962,477.652z M143.114,323.984c0-85.013,69.32-154.173,154.526-154.173
				s154.526,69.161,154.526,154.173c0,49.437-24.039,96.234-64.306,125.18c-26.382,18.966-57.579,28.993-90.221,28.993
				s-63.839-10.025-90.222-28.993C167.153,420.219,143.114,373.421,143.114,323.984z M310.569,578.976
				c-7.827-5.207-18.03-5.207-25.857,0l-99.993,66.521L210.665,505c26.949,12.934,56.483,19.663,86.975,19.663
				c30.493,0,60.025-6.729,86.975-19.663l25.947,140.497L310.569,578.976z"/>
		</g>
	</g>
</g>
</svg>
