<?xml version="1.0" encoding="utf-8"?>
<!-- Generator: Adobe Illustrator 15.0.0, SVG Export Plug-In . SVG Version: 6.00 Build 0)  -->
<!DOCTYPE svg PUBLIC "-//W3C//DTD SVG 1.1//EN" "http://www.w3.org/Graphics/SVG/1.1/DTD/svg11.dtd">
<svg version="1.1" id="Layer_1" xmlns="http://www.w3.org/2000/svg" xmlns:xlink="http://www.w3.org/1999/xlink" x="0px" y="0px"
	 width="755px" height="709px" viewBox="0 0 755 709" enable-background="new 0 0 755 709" xml:space="preserve">
<path fill="#F49819" d="M755.692,267.625c1.229,3.691,3.691,7.385,3.691,11.077c0,3.691-1.229,6.152-2.462,9.846
	c-3.691,3.692-8.615,9.847-13.538,13.539c-36.923,36.923-75.077,73.846-110.77,110.769c-14.771,14.771-36.923,25.848-41.847,45.539
	c-3.691,18.461,4.924,40.615,8.615,61.538C608,571.625,617.846,623.317,624,676.24c3.692,25.847-17.23,39.385-41.846,29.538
	c-2.462-1.23-6.154-2.462-8.616-4.924c-56.615-29.538-114.461-59.076-171.076-88.614c-13.539-7.386-23.385-6.153-35.692,0
	c-59.076,30.77-118.153,61.538-176,91.076c-12.308,6.154-23.384,7.386-34.461-1.229c-11.077-8.615-12.308-19.692-11.077-32
	c11.077-66.462,22.154-134.154,34.461-200.615c1.23-9.847,0-16-7.385-23.385c-22.154-22.154-44.308-43.077-66.461-64
	c-22.153-20.923-44.308-43.077-66.462-65.231c-4.923-4.923-9.846-11.076-14.77-16c-2.461-2.461-4.923-4.923-7.384-8.614
	c-2.462-2.462-3.692-4.924-4.923-8.615c0-1.23-1.23-3.692-1.23-4.923c0-1.231,0-2.462,1.23-4.924
	c4.923-17.23,25.846-24.614,43.077-27.076c61.538-8.615,123.077-18.461,184.615-25.846c13.539-2.462,22.154-7.386,28.308-20.924
	c28.308-59.077,57.847-116.923,87.385-174.769C361.846,12.856,368,3.01,385.23,3.01c16,0,24.614,9.846,30.77,23.385
	c29.538,59.077,59.077,118.154,88.615,176c4.923,9.846,12.308,16,23.385,17.23c62.77,8.615,125.538,18.462,189.538,27.077
	C732.308,249.164,745.846,254.087,755.692,267.625z"/>
</svg>
