<?xml version="1.0" encoding="utf-8"?>
<!-- Generator: Adobe Illustrator 15.0.0, SVG Export Plug-In . SVG Version: 6.00 Build 0)  -->
<!DOCTYPE svg PUBLIC "-//W3C//DTD SVG 1.1//EN" "http://www.w3.org/Graphics/SVG/1.1/DTD/svg11.dtd">
<svg version="1.1" id="Layer_1" xmlns="http://www.w3.org/2000/svg" xmlns:xlink="http://www.w3.org/1999/xlink" x="0px" y="0px"
	 width="144px" height="125.424px" viewBox="0 0 144 125.424" enable-background="new 0 0 144 125.424" xml:space="preserve">
<rect fill="#D2EBFF" width="144" height="125.424"/>
<path fill="#FFFFFF" d="M41.517,74.568c-0.45-0.001-0.88,0.178-1.199,0.495L29.662,85.723v-9.461c0-0.936-0.759-1.693-1.694-1.693
	h-2.54c-1.402-0.001-2.539-1.138-2.54-2.541V22.915c0-1.402,1.138-2.539,2.54-2.54h72.823c1.402,0.001,2.539,1.138,2.54,2.54v49.112
	c-0.001,1.404-1.138,2.54-2.54,2.541H41.517z"/>
<g>
	<path fill="#57A4FF" d="M122.808,39.851v49.111c0.001,2.338-1.895,4.234-4.232,4.234c0,0,0,0-0.002,0h-2.54v13.548l-13.549-13.548
		H52.525c-2.338,0.001-4.234-1.894-4.234-4.231c0,0,0-0.002,0-0.003V76.261h49.959c2.338,0.001,4.233-1.894,4.233-4.231
		c0-0.002,0-0.002,0-0.003V35.615h16.089c2.337-0.001,4.233,1.894,4.234,4.231C122.808,39.849,122.808,39.849,122.808,39.851z"/>
	<g>
		<path fill="#004FAC" d="M118.573,33.923h-14.396V22.915c-0.003-3.271-2.654-5.924-5.927-5.927H25.428
			c-3.271,0.003-5.924,2.656-5.927,5.927v49.113c0.003,3.273,2.656,5.924,5.927,5.928h0.847V89.81c0,0.936,0.757,1.694,1.693,1.695
			c0.45,0.001,0.881-0.178,1.199-0.498l13.051-13.052h4.38v11.008c0.003,3.272,2.655,5.924,5.927,5.928h49.259l13.05,13.053
			c0.661,0.661,1.733,0.662,2.395,0.001c0.318-0.317,0.498-0.749,0.497-1.2V94.89h0.847c3.272-0.004,5.924-2.654,5.928-5.928V39.851
			C124.497,36.579,121.846,33.926,118.573,33.923z M41.517,74.568c-0.45-0.001-0.88,0.178-1.199,0.495L29.662,85.723v-9.461
			c0-0.936-0.759-1.693-1.694-1.693h-2.54c-1.402-0.001-2.539-1.138-2.54-2.541V22.915c0-1.402,1.138-2.539,2.54-2.54h72.823
			c1.402,0.001,2.539,1.138,2.54,2.54v49.112c-0.001,1.404-1.138,2.54-2.54,2.541H41.517z M121.112,88.963
			c0,1.403-1.137,2.539-2.539,2.54h-2.54c-0.935,0-1.693,0.759-1.693,1.693v9.462l-10.656-10.659
			c-0.318-0.318-0.749-0.496-1.199-0.496H52.525c-1.402-0.001-2.539-1.138-2.541-2.54V77.955h48.266
			c3.272-0.004,5.924-2.654,5.927-5.928V37.31h14.396c1.403,0.001,2.539,1.138,2.539,2.541V88.963z"/>
		<path fill="#004FAC" d="M29.662,47.471h64.354c0.936,0,1.695-0.758,1.695-1.693s-0.76-1.693-1.695-1.693H29.662
			c-0.936,0-1.693,0.758-1.693,1.693C27.969,46.712,28.727,47.471,29.662,47.471z"/>
		<path fill="#004FAC" d="M29.662,40.698h64.354c0.936,0,1.695-0.759,1.695-1.693c0-0.936-0.76-1.694-1.695-1.694H29.662
			c-0.936,0-1.693,0.758-1.693,1.694C27.969,39.938,28.727,40.698,29.662,40.698z"/>
		<path fill="#004FAC" d="M29.662,54.246h64.354c0.936,0,1.695-0.759,1.695-1.693s-0.76-1.694-1.695-1.694H29.662
			c-0.936,0-1.693,0.758-1.693,1.694C27.969,53.488,28.727,54.246,29.662,54.246z"/>
		<path fill="#004FAC" d="M29.662,33.923h64.354c0.936,0,1.695-0.759,1.695-1.693c0-0.935-0.76-1.693-1.695-1.693H29.662
			c-0.936,0-1.693,0.758-1.693,1.693C27.969,33.164,28.727,33.923,29.662,33.923z"/>
		<path fill="#004FAC" d="M95.712,59.326c0-0.934-0.76-1.692-1.695-1.692H29.662c-0.936,0-1.693,0.758-1.693,1.692
			c0,0.936,0.758,1.695,1.693,1.695h64.354C94.952,61.021,95.712,60.261,95.712,59.326z"/>
	</g>
</g>
</svg>
