<?xml version="1.0" encoding="utf-8"?>
<!-- Generator: Adobe Illustrator 15.0.0, SVG Export Plug-In . SVG Version: 6.00 Build 0)  -->
<!DOCTYPE svg PUBLIC "-//W3C//DTD SVG 1.1//EN" "http://www.w3.org/Graphics/SVG/1.1/DTD/svg11.dtd">
<svg version="1.1" id="Layer_1" xmlns="http://www.w3.org/2000/svg" xmlns:xlink="http://www.w3.org/1999/xlink" x="0px" y="0px"
	 width="144px" height="103.997px" viewBox="120 86.751 144 103.997" enable-background="new 120 86.751 144 103.997"
	 xml:space="preserve">
<path d="M258,144.667H126c-3.312,0-6-2.688-6-6c0-3.313,2.688-6,6-6h132c3.313,0,6,2.688,6,6
	C264,141.979,261.313,144.667,258,144.667z"/>
<path d="M258,98.666H126c-3.312,0-6-2.688-6-6c0-3.312,2.688-6,6-6h132c3.313,0,6,2.688,6,6C264,95.979,261.313,98.666,258,98.666z"
	/>
<path d="M258,190.666H126c-3.312,0-6-2.688-6-6c0-3.313,2.688-6,6-6h132c3.313,0,6,2.688,6,6
	C264,187.978,261.313,190.666,258,190.666z"/>
</svg>
