<?xml version="1.0" encoding="utf-8"?>
<!-- Generator: Adobe Illustrator 15.0.0, SVG Export Plug-In . SVG Version: 6.00 Build 0)  -->
<!DOCTYPE svg PUBLIC "-//W3C//DTD SVG 1.1//EN" "http://www.w3.org/Graphics/SVG/1.1/DTD/svg11.dtd">
<svg version="1.1" id="Layer_1" xmlns="http://www.w3.org/2000/svg" xmlns:xlink="http://www.w3.org/1999/xlink" x="0px" y="0px"
	 width="252px" height="180px" viewBox="0 0 252 180" enable-background="new 0 0 252 180" xml:space="preserve">
<ellipse fill="#2C2F33" cx="127.02" cy="109.5" rx="42.852" ry="42"/>
<ellipse fill="#2C2F33" cx="51.267" cy="111.25" rx="15.049" ry="14.75"/>
<ellipse fill="#2C2F33" cx="199.202" cy="111.25" rx="15.049" ry="14.75"/>
<path fill="#2C2F33" d="M227.004,21.75c0-2.347-1.939-4.25-4.336-4.25H28.822c-2.395,0-4.336,1.903-4.336,4.25l0,0
	c0,2.347,1.941,4.25,4.336,4.25h193.846C225.063,26,227.004,24.097,227.004,21.75L227.004,21.75z"/>
<path fill="#2C2F33" d="M202.008,3.75c0-2.071-2.17-3.75-4.846-3.75H56.113c-2.677,0-4.846,1.679-4.846,3.75l0,0
	c0,2.071,2.169,3.75,4.846,3.75h141.049C199.838,7.5,202.008,5.821,202.008,3.75L202.008,3.75z"/>
<path fill="#2C2F33" d="M241.798,38H10.203C4.568,38,0,42.477,0,48v122c0,5.521,4.568,10,10.203,10h231.595
	c5.634,0,10.202-4.479,10.202-10V48C252,42.477,247.432,38,241.798,38z M237.206,165H15.304V53h221.902V165z"/>
</svg>
