<?xml version="1.0" encoding="utf-8"?>
<!-- Generator: Adobe Illustrator 15.0.0, SVG Export Plug-In . SVG Version: 6.00 Build 0)  -->
<!DOCTYPE svg PUBLIC "-//W3C//DTD SVG 1.1//EN" "http://www.w3.org/Graphics/SVG/1.1/DTD/svg11.dtd">
<svg version="1.1" id="Layer_1" xmlns="http://www.w3.org/2000/svg" xmlns:xlink="http://www.w3.org/1999/xlink" x="0px" y="0px"
	 width="144px" height="144px" viewBox="312 440 144 144" enable-background="new 312 440 144 144" xml:space="preserve">
<circle fill="#FCD462" cx="384" cy="512.001" r="41.4"/>
<g>
	<path fill="#F6C358" d="M403.62,475.461c1.8,5.76,3.06,11.88,3.24,18.18c1.08,25.02-15.84,47.16-37.8,56.88
		c4.68,1.8,9.72,2.88,14.94,2.88c22.86,0,41.4-18.54,41.4-41.4C425.4,496.161,416.58,482.481,403.62,475.461z"/>
	<path fill="#F6C358" d="M384,440.001c-3.42,0-6.12,2.7-6.12,6.12v10.08c0,3.42,2.7,6.12,6.12,6.12s6.12-2.7,6.12-6.12v-10.08
		C390.12,442.701,387.42,440.001,384,440.001z"/>
	<path fill="#F6C358" d="M384,561.681c-3.42,0-6.12,2.7-6.12,6.12v10.08c0,3.42,2.7,6.12,6.12,6.12s6.12-2.7,6.12-6.12v-10.08
		C390.12,564.381,387.42,561.681,384,561.681z"/>
	<path fill="#F6C358" d="M456,512.001c0-3.42-2.7-6.12-6.12-6.12H439.8c-3.42,0-6.12,2.7-6.12,6.12c0,3.42,2.7,6.12,6.12,6.12h10.08
		C453.3,518.121,456,515.421,456,512.001z"/>
	<path fill="#F6C358" d="M334.32,512.001c0-3.42-2.7-6.12-6.12-6.12h-10.08c-3.42,0-6.12,2.7-6.12,6.12c0,3.42,2.7,6.12,6.12,6.12
		h10.08C331.62,518.121,334.32,515.421,334.32,512.001z"/>
	<path fill="#F6C358" d="M434.94,461.061c-2.341-2.34-6.3-2.34-8.641,0l-7.2,7.2c-2.34,2.34-2.34,6.3,0,8.64
		c2.341,2.34,6.301,2.34,8.641,0l7.2-7.2C437.28,467.361,437.28,463.401,434.94,461.061z"/>
	<path fill="#F6C358" d="M348.9,547.101c-2.34-2.34-6.3-2.34-8.64,0l-7.2,7.2c-2.34,2.34-2.34,6.3,0,8.64
		c2.34,2.341,6.3,2.341,8.64,0l7.2-7.2C351.24,553.4,351.24,549.621,348.9,547.101z"/>
	<path fill="#F6C358" d="M434.94,562.94c2.34-2.34,2.34-6.3,0-8.64l-7.2-7.2c-2.34-2.34-6.3-2.34-8.641,0
		c-2.34,2.34-2.34,6.3,0,8.64l7.2,7.2C428.641,565.281,432.6,565.281,434.94,562.94z"/>
	<path fill="#F6C358" d="M348.9,476.901c2.34-2.34,2.34-6.3,0-8.64l-7.2-7.2c-2.34-2.34-6.3-2.34-8.64,0c-2.34,2.34-2.34,6.3,0,8.64
		l7.2,7.2C342.6,479.241,346.38,479.241,348.9,476.901z"/>
</g>
</svg>
