<?xml version="1.0" encoding="utf-8"?>
<!-- Generator: Adobe Illustrator 15.0.0, SVG Export Plug-In . SVG Version: 6.00 Build 0)  -->
<!DOCTYPE svg PUBLIC "-//W3C//DTD SVG 1.1//EN" "http://www.w3.org/Graphics/SVG/1.1/DTD/svg11.dtd">
<svg version="1.1" id="Capa_1" xmlns="http://www.w3.org/2000/svg" xmlns:xlink="http://www.w3.org/1999/xlink" x="0px" y="0px"
	 width="512px" height="642.571px" viewBox="0 0 512 642.571" enable-background="new 0 0 512 642.571" xml:space="preserve">
<path fill="#EAEDEF" d="M482,90H256H30L0,120v477.571c0,24.814,20.186,45,45,45h211h211c24.814,0,45-20.186,45-45V120L482,90z"/>
<path fill="#575F64" d="M467,0H256H45C20.186,0,0,20.186,0,45v75h256h256V45C512,20.186,491.814,0,467,0z"/>
<g>
	<circle fill="#FFFFFF" cx="91" cy="60" r="15"/>
	<circle fill="#FFFFFF" cx="151" cy="60" r="15"/>
	<circle fill="#FFFFFF" cx="211" cy="60" r="15"/>
</g>
<g>
	<path fill="#D3D8DD" d="M422.544,185H256H89.456c-9.206,0-16.655,7.449-16.655,16.654v71.037c0,9.205,7.449,16.654,16.655,16.654
		H256h166.544c9.206,0,16.654-7.449,16.654-16.654v-71.037C439.198,192.449,431.75,185,422.544,185z"/>
	<path fill="#D3D8DD" d="M330,358.04c0-2.783-2.257-5.039-5.04-5.039H77.54c-2.784,0-5.04,2.256-5.04,5.039v3.42
		c0,2.785,2.256,5.041,5.04,5.041h247.42c2.783,0,5.04-2.256,5.04-5.041V358.04z"/>
	<path fill="#D3D8DD" d="M440,332.04c0-2.783-2.257-5.039-5.04-5.039H77.54c-2.784,0-5.04,2.256-5.04,5.039v3.42
		c0,2.785,2.256,5.041,5.04,5.041h357.42c2.783,0,5.04-2.256,5.04-5.041V332.04z"/>
	<path fill="#D3D8DD" d="M440,306.04c0-2.784-2.257-5.04-5.04-5.04H77.54c-2.784,0-5.04,2.256-5.04,5.04v3.42
		c0,2.784,2.256,5.04,5.04,5.04h357.42c2.783,0,5.04-2.256,5.04-5.04V306.04z"/>
</g>
<g>
	<path fill="#D3D8DD" d="M422.544,406H256H89.456c-9.206,0-16.655,7.449-16.655,16.654v71.037c0,9.199,7.449,16.648,16.655,16.648
		H256h166.544c9.206,0,16.654-7.449,16.654-16.648v-71.037C439.198,413.45,431.75,406,422.544,406z"/>
	<path fill="#D3D8DD" d="M330,579.04c0-2.783-2.257-5.039-5.04-5.039H77.54c-2.784,0-5.04,2.256-5.04,5.039v3.42
		c0,2.785,2.256,5.041,5.04,5.041h247.42c2.783,0,5.04-2.256,5.04-5.041V579.04z"/>
	<path fill="#D3D8DD" d="M440,553.04c0-2.783-2.257-5.039-5.04-5.039H77.54c-2.784,0-5.04,2.256-5.04,5.039v3.42
		c0,2.785,2.256,5.041,5.04,5.041h357.42c2.783,0,5.04-2.256,5.04-5.041V553.04z"/>
	<path fill="#D3D8DD" d="M440,527.04c0-2.783-2.257-5.039-5.04-5.039H77.54c-2.784,0-5.04,2.256-5.04,5.039v3.42
		c0,2.785,2.256,5.041,5.04,5.041h357.42c2.783,0,5.04-2.256,5.04-5.041V527.04z"/>
</g>
</svg>
