<?xml version="1.0" encoding="utf-8"?>
<!-- Generator: Adobe Illustrator 15.0.0, SVG Export Plug-In . SVG Version: 6.00 Build 0)  -->
<!DOCTYPE svg PUBLIC "-//W3C//DTD SVG 1.1//EN" "http://www.w3.org/Graphics/SVG/1.1/DTD/svg11.dtd">
<svg version="1.1" id="Layer_1" xmlns="http://www.w3.org/2000/svg" xmlns:xlink="http://www.w3.org/1999/xlink" x="0px" y="0px"
	 width="512px" height="512px" viewBox="0 0 512 512" enable-background="new 0 0 512 512" xml:space="preserve">
<path fill="#1B7735" d="M423.723,0H17.656C7.91,0,0,7.902,0,17.656v406.065c0,9.759,7.91,17.656,17.656,17.656h423.723V17.656
	C441.379,7.902,433.469,0,423.723,0z"/>
<path fill="#23A24D" d="M494.344,70.622H88.278c-9.758,0-17.656,7.898-17.656,17.656v406.066c0,9.754,7.898,17.656,17.656,17.656
	h406.066c9.754,0,17.656-7.902,17.656-17.656V88.278C512,78.52,504.098,70.622,494.344,70.622z"/>
<g>
	<g>
		<path fill="#FFFFFF" d="M124.57,360.46l65.314-147.493c4.553-10.171,12.849-16.329,24.094-16.329h2.409
			c11.239,0,19.272,6.157,23.821,16.329l65.316,147.493c1.34,2.946,2.146,5.621,2.146,8.3c0,10.975-8.567,19.808-19.544,19.808
			c-9.635,0-16.062-5.621-19.81-14.188l-12.578-29.443h-82.447l-13.117,30.783c-3.48,8.028-10.438,12.848-19.005,12.848
			c-10.711,0-19.007-8.563-19.007-19.272C122.162,366.35,123.231,363.406,124.57,360.46z M240.479,308.532l-25.967-61.837
			l-25.964,61.837H240.479z"/>
		<path fill="#FFFFFF" d="M327.198,345.736v-0.535c0-31.318,23.825-45.771,57.819-45.771c14.456,0,24.898,2.408,35.069,5.89v-2.41
			c0-16.866-10.441-26.233-30.786-26.233c-11.241,0-20.343,1.604-28.104,4.014c-2.41,0.805-4.018,1.07-5.894,1.07
			c-9.365,0-16.861-7.226-16.861-16.595c0-7.228,4.551-13.384,10.976-15.794c12.848-4.817,26.769-7.495,45.775-7.495
			c22.216,0,38.277,5.888,48.45,16.062c10.707,10.707,15.524,26.5,15.524,45.773v65.316c0,10.978-8.833,19.541-19.809,19.541
			c-11.777,0-19.541-8.299-19.541-16.864v-0.27c-9.903,10.976-23.559,18.202-43.364,18.202
			C349.417,389.639,327.198,374.117,327.198,345.736z M420.62,336.367v-7.226c-6.959-3.21-16.062-5.353-25.965-5.353
			c-17.4,0-28.106,6.959-28.106,19.808v0.536c0,10.973,9.103,17.396,22.217,17.396C407.771,361.532,420.62,351.094,420.62,336.367z"
			/>
	</g>
</g>
</svg>
