<?xml version="1.0" encoding="utf-8"?>
<!-- Generator: Adobe Illustrator 15.0.0, SVG Export Plug-In . SVG Version: 6.00 Build 0)  -->
<!DOCTYPE svg PUBLIC "-//W3C//DTD SVG 1.1//EN" "http://www.w3.org/Graphics/SVG/1.1/DTD/svg11.dtd">
<svg version="1.1" id="Capa_1" xmlns="http://www.w3.org/2000/svg" xmlns:xlink="http://www.w3.org/1999/xlink" x="0px" y="0px"
	 width="144px" height="36px" viewBox="0 0 144 36" enable-background="new 0 0 144 36" xml:space="preserve">
<path fill="#FFFFFF" d="M138.729,5.273c7.029,7.028,7.029,18.427,0,25.455c-7.028,7.029-18.427,7.029-25.457,0
	c-7.027-7.028-7.027-18.427,0-25.455C120.302-1.756,131.699-1.756,138.729,5.273"/>
<path fill="#FFFFFF" d="M84.729,5.273c7.029,7.028,7.029,18.427,0,25.455c-7.028,7.029-18.427,7.029-25.455,0
	c-7.029-7.028-7.029-18.427,0-25.455C66.302-1.756,77.699-1.756,84.729,5.273"/>
<path fill="#FFFFFF" d="M30.729,5.273c7.028,7.028,7.028,18.427,0,25.455c-7.029,7.029-18.427,7.029-25.457,0
	c-7.028-7.028-7.028-18.427,0-25.455C12.302-1.756,23.699-1.756,30.729,5.273"/>
</svg>
