<?xml version="1.0" encoding="utf-8"?>
<!-- Generator: Adobe Illustrator 15.0.0, SVG Export Plug-In . SVG Version: 6.00 Build 0)  -->
<!DOCTYPE svg PUBLIC "-//W3C//DTD SVG 1.1//EN" "http://www.w3.org/Graphics/SVG/1.1/DTD/svg11.dtd">
<svg version="1.1" id="Capa_1" xmlns="http://www.w3.org/2000/svg" xmlns:xlink="http://www.w3.org/1999/xlink" x="0px" y="0px"
	 width="144px" height="36px" viewBox="184 237 144 36" enable-background="new 184 237 144 36" xml:space="preserve">
<path d="M322.729,242.271c7.029,7.029,7.029,18.427,0,25.456s-18.427,7.029-25.457,0c-7.028-7.029-7.028-18.427,0-25.456
	C304.302,235.242,315.699,235.242,322.729,242.271"/>
<path d="M268.729,242.271c7.029,7.029,7.029,18.427,0,25.456s-18.427,7.029-25.456,0s-7.029-18.427,0-25.456
	S261.699,235.242,268.729,242.271"/>
<path d="M214.728,242.271c7.029,7.029,7.029,18.427,0,25.456s-18.426,7.029-25.456,0c-7.029-7.029-7.029-18.427,0-25.456
	C196.302,235.242,207.699,235.242,214.728,242.271"/>
</svg>
