<?xml version="1.0" encoding="utf-8"?>
<!-- Generator: Adobe Illustrator 15.0.0, SVG Export Plug-In . SVG Version: 6.00 Build 0)  -->
<!DOCTYPE svg PUBLIC "-//W3C//DTD SVG 1.1//EN" "http://www.w3.org/Graphics/SVG/1.1/DTD/svg11.dtd">
<svg version="1.1" id="Layer_1" xmlns="http://www.w3.org/2000/svg" xmlns:xlink="http://www.w3.org/1999/xlink" x="0px" y="0px"
	 width="751px" height="617px" viewBox="0 0 751 617" enable-background="new 0 0 751 617" xml:space="preserve">
<path fill="#EFB600" d="M723.242,186.792c-66.921,63.734-133.843,127.469-200.763,191.204
	c-47.802-115.785-95.603-230.507-144.465-347.354c-48.863,116.846-96.664,231.569-144.466,347.354
	C165.566,313.199,98.645,250.527,31.724,186.792c-1.062,2.125,0,3.187,0,4.249c3.187,12.747,6.374,25.494,10.623,39.303
	c23.369,87.105,45.676,174.207,67.983,260.248l-2.125,57.361h-1.062c0,14.871,0,28.682,0,42.49h540.68V477.846
	c22.307-86.041,45.677-172.083,67.982-259.187c3.188-10.622,5.313-21.244,8.498-31.867
	C724.305,186.792,724.305,186.792,723.242,186.792z"/>
<g>
	<g>
		<path fill="#BD8B28" d="M82.712,539.455l1.062-45.676C65.716,425.797,47.658,357.813,29.6,289.83L5.169,198.476
			c-2.125-6.374-1.063-12.747,0-19.12c3.187-8.498,9.56-15.935,19.12-18.059c8.498-2.125,18.058,0,25.494,6.373l174.206,164.648
			L353.583,21.083c5.311-11.685,18.058-19.121,31.867-15.934c8.498,2.125,14.871,8.498,18.058,16.996l128.531,310.174
			l173.146-164.647c7.437-7.437,19.12-9.56,28.682-5.312l-10.623,24.433l10.623-24.433c12.746,5.312,20.183,19.121,15.934,31.868
			l-75.419,286.805v109.412c0,14.869-11.686,26.555-26.557,26.555h-540.68c-13.809,0-25.494-11.684-25.494-25.494L82.712,539.455z
			 M134.761,563.887h487.568v-86.041c0-2.125,0-4.248,1.063-6.373l53.112-202.888L540.537,397.115
			c-6.374,6.373-14.871,8.498-23.369,6.373c-8.498-2.123-15.935-7.436-19.12-15.934L378.015,100.75L257.981,388.617
			c-3.187,8.498-10.623,13.811-19.12,15.934c-8.498,2.125-16.996-1.063-23.37-6.373L79.525,268.584l2.125,7.436
			c18.058,69.046,36.116,139.154,54.174,208.199c1.063,2.125,1.063,5.313,1.063,7.438l-1.063,79.668"/>
	</g>
</g>
</svg>
