<?xml version="1.0" encoding="utf-8"?>
<!-- Generator: Adobe Illustrator 15.0.0, SVG Export Plug-In . SVG Version: 6.00 Build 0)  -->
<!DOCTYPE svg PUBLIC "-//W3C//DTD SVG 1.1//EN" "http://www.w3.org/Graphics/SVG/1.1/DTD/svg11.dtd">
<svg version="1.1" id="Layer_1" xmlns="http://www.w3.org/2000/svg" xmlns:xlink="http://www.w3.org/1999/xlink" x="0px" y="0px"
	 width="759.387px" height="610.894px" viewBox="0 0 759.387 610.894" enable-background="new 0 0 759.387 610.894"
	 xml:space="preserve">
<path fill="#EA5921" d="M764.542,172.697c-72.65,69.189-145.299,138.379-217.947,207.568
	C494.704,254.572,442.811,130.031,389.766,3.183C336.721,130.03,284.829,254.57,232.937,380.265
	C159.135,309.921,86.486,241.886,13.838,172.697c-1.153,2.307,0,3.459,0,4.611c3.459,13.839,6.919,27.676,11.532,42.668
	c25.369,94.559,49.585,189.117,73.802,282.521l-1.153,61.117l0,0c0,16.145,0,31.137,0,46.127c196.036,0,388.612,1.152,583.495,1.152
	V488.66c24.217-93.404,49.586-186.811,73.803-281.369C758.774,195.759,761.081,184.228,764.542,172.697
	C765.694,172.697,765.694,172.697,764.542,172.697z"/>
</svg>
