<?xml version="1.0" encoding="utf-8"?>
<!-- Generator: Adobe Illustrator 15.0.0, SVG Export Plug-In . SVG Version: 6.00 Build 0)  -->
<!DOCTYPE svg PUBLIC "-//W3C//DTD SVG 1.1//EN" "http://www.w3.org/Graphics/SVG/1.1/DTD/svg11.dtd">
<svg version="1.1" id="Capa_1" xmlns="http://www.w3.org/2000/svg" xmlns:xlink="http://www.w3.org/1999/xlink" x="0px" y="0px"
	 width="144px" height="151.352px" viewBox="142.487 138.812 144 151.352" enable-background="new 142.487 138.812 144 151.352"
	 xml:space="preserve">
<path fill="#1652F0" d="M284.916,270.719l-37.484-19.824l-1.732-5.409c-0.518-1.813-1.338-3.624-3.025-4.101
	c-0.536-0.151-1.214-1.13-1.302-1.813l-1-10.519c-0.056-0.901,0.306-1.709,0.781-2.277c2.872-3.441,4.438-7.427,5.1-11.984
	c0.333-2.292,1.525-4.404,2.139-6.661l2.402-12.578c0.251-1.651,0.203-2.924-1.644-3.564c-0.509-0.178-0.952-1.021-0.952-2.286
	l0.024-23.732c-0.392-5.744-3.434-10.186-7.747-13.277c-8.24-5.906-22.995-3.167-18.18-12.801c0.285-0.567,0.194-1.552-1.785-0.824
	c-7.387,2.718-27.062,9.899-32.004,13.625c-4.424,3.334-7.354,7.533-7.747,13.277l0.024,23.732c0,1.044-0.443,2.108-0.953,2.286
	c-1.847,0.64-1.895,1.913-1.644,3.564l2.404,12.578c0.611,2.256,1.804,4.37,2.137,6.661c0.662,4.557,2.228,8.542,5.1,11.984
	c0.475,0.568,0.837,1.376,0.782,2.277l-1,10.519c-0.088,0.683-0.767,1.661-1.302,1.813c-1.688,0.477-2.508,2.288-3.026,4.101
	l-1.732,5.409l-37.487,19.824c-0.967,0.512-1.573,1.517-1.573,2.61v13.881c0,1.63,1.323,2.952,2.954,2.952h138.094
	c1.63,0,2.952-1.322,2.952-2.952v-13.881C286.489,272.235,285.883,271.23,284.916,270.719z"/>
</svg>
