<?xml version="1.0" encoding="utf-8"?>
<!-- Generator: Adobe Illustrator 15.0.0, SVG Export Plug-In . SVG Version: 6.00 Build 0)  -->
<!DOCTYPE svg PUBLIC "-//W3C//DTD SVG 1.1//EN" "http://www.w3.org/Graphics/SVG/1.1/DTD/svg11.dtd">
<svg version="1.1" id="Capa_1" xmlns="http://www.w3.org/2000/svg" xmlns:xlink="http://www.w3.org/1999/xlink" x="0px" y="0px"
	 width="144px" height="151.352px" viewBox="0 0 144 151.352" enable-background="new 0 0 144 151.352" xml:space="preserve">
<g>
	<path fill="#1652F0" d="M74.967,5.65c0.105,0.632,0.292,1.241,0.56,1.824c1.795,3.91,6.219,5.021,10.901,6.199
		c3.175,0.798,6.773,1.703,9.228,3.462c3.718,2.665,5.761,6.085,6.077,10.169l-0.023,23.59c0,2.449,0.956,4.465,2.583,5.538
		l-2.287,11.977c-0.195,0.679-0.476,1.406-0.771,2.172c-0.546,1.416-1.166,3.021-1.428,4.827c-0.586,4.031-1.964,7.301-4.212,9.995
		c-1.213,1.452-1.818,3.261-1.703,5.092l0.004,0.063l0.006,0.064l1,10.52l0.007,0.065l0.009,0.066
		c0.246,1.912,1.681,4.271,3.883,5.056c0.109,0.174,0.318,0.582,0.565,1.447l0.018,0.06l0.019,0.06l1.731,5.409l0.497,1.554
		l1.442,0.763L140,135.151v12.201H4V135.15l36.93-19.529l1.442-0.763l0.498-1.554l1.732-5.409l0.019-0.061l0.018-0.061
		c0.247-0.865,0.456-1.272,0.564-1.445c2.128-0.768,3.635-3.121,3.884-5.056l0.008-0.066l0.006-0.065l1-10.52l0.006-0.066
		l0.004-0.066c0.113-1.83-0.492-3.637-1.703-5.086c-2.249-2.694-3.626-5.964-4.212-9.998c-0.263-1.803-0.88-3.405-1.426-4.818
		c-0.296-0.769-0.578-1.498-0.772-2.178L39.71,56.43c1.776-1.194,2.584-3.516,2.584-5.541L42.27,27.303
		c0.313-4.047,2.271-7.299,6.155-10.226C52.091,14.313,66.679,8.731,74.967,5.65 M79.182,0c-0.283,0-0.662,0.075-1.16,0.258
		c-7.388,2.719-27.063,9.899-32.005,13.625c-4.424,3.334-7.354,7.533-7.747,13.277l0.024,23.732c0,1.044-0.443,2.107-0.953,2.286
		c-1.847,0.64-1.896,1.912-1.644,3.563l2.403,12.578c0.611,2.256,1.804,4.37,2.138,6.661c0.662,4.557,2.228,8.542,5.1,11.983
		c0.475,0.568,0.837,1.376,0.781,2.277l-1,10.52c-0.088,0.683-0.767,1.66-1.301,1.813c-1.688,0.477-2.509,2.288-3.026,4.101
		l-1.732,5.409L1.572,131.908C0.605,132.42,0,133.425,0,134.519V148.4c0,1.63,1.322,2.952,2.953,2.952h138.095
		c1.63,0,2.952-1.322,2.952-2.952v-13.881c-0.001-1.095-0.607-2.1-1.574-2.61l-37.484-19.824l-1.731-5.409
		c-0.519-1.813-1.339-3.624-3.025-4.101c-0.536-0.151-1.214-1.13-1.302-1.813l-1-10.52c-0.057-0.901,0.307-1.709,0.781-2.277
		c2.871-3.44,4.438-7.427,5.1-11.983c0.333-2.292,1.525-4.404,2.139-6.661l2.402-12.578c0.251-1.651,0.203-2.924-1.645-3.563
		c-0.508-0.179-0.951-1.021-0.951-2.286l0.023-23.732c-0.392-5.744-3.434-10.186-7.746-13.277
		c-8.24-5.905-22.996-3.167-18.181-12.801C80.019,0.658,80.021,0,79.182,0L79.182,0z"/>
</g>
</svg>
