<?xml version="1.0" encoding="utf-8"?>
<!-- Generator: Adobe Illustrator 15.0.0, SVG Export Plug-In . SVG Version: 6.00 Build 0)  -->
<!DOCTYPE svg PUBLIC "-//W3C//DTD SVG 1.1//EN" "http://www.w3.org/Graphics/SVG/1.1/DTD/svg11.dtd">
<svg version="1.1" id="Capa_1" xmlns="http://www.w3.org/2000/svg" xmlns:xlink="http://www.w3.org/1999/xlink" x="0px" y="0px"
	 width="95.801px" height="61.167px" viewBox="0 17.234 95.801 61.167" enable-background="new 0 17.234 95.801 61.167"
	 xml:space="preserve">
<g>
	<g>
		<path d="M38.664,44.689c0,0,9.065-0.673,9.065-11.306c0-10.632-7.417-15.819-16.813-15.819H13.622h-0.508H0v59.414h13.114h0.508
			h17.294c0,0,18.874,0.597,18.874-17.536C49.79,59.442,50.613,44.689,38.664,44.689z M13.622,28.125h15.069h2.226
			c0,0,4.203,0,4.203,6.181c0,6.181-2.473,7.077-5.275,7.077H13.622V28.125z M30.119,66.42H13.622V50.542h17.294
			c0,0,6.264-0.08,6.264,8.16C37.18,65.573,32.599,66.351,30.119,66.42z"/>
		<rect x="62.18" y="21.064" width="24.514" height="7.317"/>
		<path d="M74.961,32.682c-22.849,0-22.828,22.826-22.828,22.826s-1.566,22.713,22.828,22.713c0,0,20.332,1.162,20.332-15.801
			H84.836c0,0,0.35,6.391-9.525,6.391c0,0-10.455,0.699-10.455-10.34h30.785C95.641,58.471,99.008,32.682,74.961,32.682z
			 M84.254,50.542H64.738c0,0,1.277-9.159,10.455-9.159C84.372,41.382,84.254,50.542,84.254,50.542z"/>
	</g>
</g>
</svg>
