<?xml version="1.0" encoding="utf-8"?>
<!-- Generator: Adobe Illustrator 15.0.0, SVG Export Plug-In . SVG Version: 6.00 Build 0)  -->
<!DOCTYPE svg PUBLIC "-//W3C//DTD SVG 1.1//EN" "http://www.w3.org/Graphics/SVG/1.1/DTD/svg11.dtd">
<svg version="1.1" id="Capa_1" xmlns="http://www.w3.org/2000/svg" xmlns:xlink="http://www.w3.org/1999/xlink" x="0px" y="0px"
	 width="144px" height="144px" viewBox="312 440 144 144" enable-background="new 312 440 144 144" xml:space="preserve">
<circle fill="#EC407A" cx="384" cy="512" r="72"/>
<path fill="#C2185B" d="M384,440c-39.699,0-72,32.301-72,72s32.301,72,72,72s72-32.301,72-72S423.699,440,384,440z M446.973,512.54
	c-15.246-4.023-30.879-4.491-45.773-1.422c-2.034-5.076-4.23-10.071-6.588-15.003c13.473-6.3,25.929-14.841,36.854-25.398
	C441.104,481.778,447,496.196,447,512C447,512.18,446.973,512.351,446.973,512.54z M425.103,464.363
	c-10.205,9.855-21.815,17.883-34.397,23.751c-6.723-12.87-14.589-25.164-23.49-36.774C372.57,449.855,378.177,449,384,449
	C399.705,449,414.061,454.814,425.103,464.363z M358.323,454.526c9.135,11.628,17.154,24.012,23.985,36.981
	c-18.9,7.218-39.42,9.99-59.967,7.587C326.508,479.15,340.152,462.68,358.323,454.526z M321,512c0-1.35,0.117-2.673,0.207-3.996
	c5.328,0.63,10.656,1.044,15.966,1.044c16.938,0,33.579-3.312,49.176-9.387c2.16,4.5,4.194,9.063,6.075,13.688
	c-22.122,6.643-41.832,20.809-55.098,40.815C327.219,542.987,321,528.218,321,512z M343.905,560.555
	c12.204-19.188,30.815-32.715,51.759-38.835c5.688,15.66,9.783,31.923,12.168,48.564C400.479,573.308,392.433,575,384,575
	C368.781,575,354.804,569.573,343.905,560.555z M416.274,566c-2.476-15.858-6.399-31.383-11.772-46.368
	c13.599-2.556,27.828-1.953,41.688,1.962C443.283,540.458,432.024,556.55,416.274,566z"/>
</svg>
