<?xml version="1.0" encoding="utf-8"?>
<!-- Generator: Adobe Illustrator 15.0.0, SVG Export Plug-In . SVG Version: 6.00 Build 0)  -->
<!DOCTYPE svg PUBLIC "-//W3C//DTD SVG 1.1//EN" "http://www.w3.org/Graphics/SVG/1.1/DTD/svg11.dtd">
<svg version="1.1" id="Capa_1" xmlns="http://www.w3.org/2000/svg" xmlns:xlink="http://www.w3.org/1999/xlink" x="0px" y="0px"
	 width="144px" height="144px" viewBox="312 440 144 144" enable-background="new 312 440 144 144" xml:space="preserve">
<path fill="#1976D2" d="M438,440H330c-9.927,0-18,8.073-18,18v108c0,9.927,8.073,18,18,18h108c9.927,0,18-8.073,18-18V458
	C456,448.073,447.927,440,438,440z"/>
<path fill="#FAFAFA" d="M433.5,512H411v-18c0-4.968,4.032-4.5,9-4.5h9V467h-18l0,0c-14.913,0-27,12.087-27,27v18h-18v22.5h18V584h27
	v-49.5h13.5L433.5,512z"/>
</svg>
