<?xml version="1.0" encoding="utf-8"?>
<!-- Generator: Adobe Illustrator 15.0.0, SVG Export Plug-In . SVG Version: 6.00 Build 0)  -->
<!DOCTYPE svg PUBLIC "-//W3C//DTD SVG 1.1//EN" "http://www.w3.org/Graphics/SVG/1.1/DTD/svg11.dtd">
<svg version="1.1" id="Capa_1" xmlns="http://www.w3.org/2000/svg" xmlns:xlink="http://www.w3.org/1999/xlink" x="0px" y="0px"
	 width="144px" height="144px" viewBox="312 440 144 144" enable-background="new 312 440 144 144" xml:space="preserve">
<g>
	<g>
		<path d="M383.991,440C344.238,440,312,473.051,312,513.824c0,32.611,20.628,60.277,49.248,70.048c3.6,0.68,4.914-1.6,4.914-3.558
			c0-1.755-0.063-6.396-0.099-12.555c-20.025,4.458-24.255-9.899-24.255-9.899c-3.267-8.529-7.992-10.8-7.992-10.8
			c-6.543-4.577,0.486-4.485,0.486-4.485c7.227,0.523,11.025,7.61,11.025,7.61c6.426,11.278,16.857,8.023,20.961,6.131
			c0.648-4.771,2.511-8.024,4.572-9.872c-15.984-1.865-32.796-8.198-32.796-36.48c0-8.061,2.808-14.65,7.416-19.816
			c-0.747-1.866-3.213-9.375,0.702-19.531c0,0,6.048-1.985,19.8,7.564c5.742-1.636,11.898-2.454,18.027-2.481
			c6.111,0.037,12.276,0.845,18.027,2.491c13.743-9.55,19.782-7.564,19.782-7.564c3.924,10.166,1.458,17.666,0.72,19.532
			c4.617,5.166,7.397,11.756,7.397,19.817c0,28.354-16.829,34.596-32.867,36.425c2.583,2.279,4.887,6.783,4.887,13.668
			c0,9.871-0.09,17.831-0.09,20.248c0,1.977,1.296,4.274,4.949,3.548C435.39,574.084,456,546.426,456,513.824
			C456,473.051,423.762,440,383.991,440z"/>
	</g>
</g>
</svg>
