<?xml version="1.0" encoding="utf-8"?>
<!-- Generator: Adobe Illustrator 15.0.0, SVG Export Plug-In . SVG Version: 6.00 Build 0)  -->
<!DOCTYPE svg PUBLIC "-//W3C//DTD SVG 1.1//EN" "http://www.w3.org/Graphics/SVG/1.1/DTD/svg11.dtd">
<svg version="1.1" id="Layer_1" xmlns="http://www.w3.org/2000/svg" xmlns:xlink="http://www.w3.org/1999/xlink" x="0px" y="0px"
	 width="144px" height="144px" viewBox="312 440 144 144" enable-background="new 312 440 144 144" xml:space="preserve">
<path fill="#FBBB00" d="M343.914,527.021l-5.013,18.712l-18.32,0.388C315.105,535.966,312,524.347,312,512
	c0-11.939,2.904-23.198,8.05-33.112h0.004l16.31,2.99l7.145,16.213c-1.496,4.359-2.311,9.039-2.311,13.909
	C341.2,517.285,342.157,522.35,343.914,527.021z"/>
<path fill="#518EF8" d="M454.742,498.549C455.568,502.905,456,507.403,456,512c0,5.154-0.542,10.183-1.574,15.033
	c-3.505,16.505-12.663,30.916-25.351,41.115l-0.004-0.004l-20.543-1.049l-2.908-18.15c8.419-4.937,14.997-12.663,18.463-21.912
	h-38.5v-28.484h39.062H454.742L454.742,498.549z"/>
<path fill="#28B446" d="M429.071,568.145l0.004,0.004C416.736,578.066,401.063,584,384,584c-27.419,0-51.258-15.325-63.419-37.879
	l23.333-19.1c6.08,16.228,21.734,27.779,40.086,27.779c7.889,0,15.278-2.133,21.619-5.855L429.071,568.145z"/>
<path fill="#F14336" d="M429.957,456.576l-23.324,19.096c-6.563-4.102-14.321-6.472-22.633-6.472
	c-18.768,0-34.714,12.082-40.49,28.892l-23.455-19.203h-0.004C332.034,455.785,356.173,440,384,440
	C401.47,440,417.488,446.223,429.957,456.576z"/>
</svg>
