<?xml version="1.0" encoding="utf-8"?>
<!-- Generator: Adobe Illustrator 15.0.0, SVG Export Plug-In . SVG Version: 6.00 Build 0)  -->
<!DOCTYPE svg PUBLIC "-//W3C//DTD SVG 1.1//EN" "http://www.w3.org/Graphics/SVG/1.1/DTD/svg11.dtd">
<svg version="1.1" id="Layer_1" xmlns="http://www.w3.org/2000/svg" xmlns:xlink="http://www.w3.org/1999/xlink" x="0px" y="0px"
	 width="144px" height="144px" viewBox="168 168 144 144" enable-background="new 168 168 144 144" xml:space="preserve">
<path d="M240,168c-39.764,0-72,32.236-72,72c0,39.764,32.236,72,72,72c39.764,0,72-32.236,72-72
	C311.955,200.255,279.745,168.044,240,168z M240,307.2c-37.113,0-67.2-30.087-67.2-67.2s30.087-67.2,67.2-67.2
	s67.2,30.087,67.2,67.2C307.158,277.096,277.096,307.158,240,307.2z"/>
<path d="M262.061,205.939c-3.184-0.009-6.239,1.256-8.483,3.513L240,223.03c-4.024,4.035-4.662,10.342-1.523,15.101l-0.346,0.346
	c-4.759-3.138-11.066-2.501-15.101,1.523l-13.578,13.577c-4.651,4.692-4.635,12.262,0.038,16.933
	c4.671,4.672,12.24,4.688,16.933,0.037L240,256.97c4.024-4.034,4.662-10.342,1.523-15.101l0.346-0.346
	c4.759,3.139,11.066,2.501,15.101-1.523l13.577-13.577c3.432-3.432,4.457-8.594,2.6-13.077S266.914,205.939,262.061,205.939z
	 M236.606,253.577l-13.576,13.574c-2.85,2.719-7.333,2.719-10.182,0c-2.811-2.812-2.811-7.369,0-10.182l13.574-13.576
	c2.146-2.164,5.433-2.721,8.172-1.385l-4.776,4.778c-0.624,0.603-0.875,1.494-0.654,2.334c0.219,0.839,0.875,1.495,1.714,1.714
	c0.839,0.221,1.731-0.03,2.333-0.653l4.779-4.779C239.302,248.146,238.749,251.418,236.606,253.577z M267.151,223.03l-13.574,13.576
	c-2.159,2.142-5.432,2.695-8.175,1.385l4.779-4.779c0.909-0.941,0.896-2.438-0.029-3.364s-2.424-0.939-3.365-0.029l-4.778,4.779
	c-1.311-2.743-0.757-6.015,1.385-8.175l13.576-13.574c1.809-1.871,4.485-2.623,7.002-1.963c2.519,0.659,4.483,2.624,5.143,5.143
	C269.773,218.545,269.022,221.222,267.151,223.03z"/>
</svg>
