<?xml version="1.0" encoding="utf-8"?>
<!-- Generator: Adobe Illustrator 15.0.0, SVG Export Plug-In . SVG Version: 6.00 Build 0)  -->
<!DOCTYPE svg PUBLIC "-//W3C//DTD SVG 1.1//EN" "http://www.w3.org/Graphics/SVG/1.1/DTD/svg11.dtd">
<svg version="1.1" id="Layer_1" xmlns="http://www.w3.org/2000/svg" xmlns:xlink="http://www.w3.org/1999/xlink" x="0px" y="0px"
	 width="122px" height="144px" viewBox="195 184 122 144" enable-background="new 195 184 122 144" xml:space="preserve">
<g>
	<path fill="#FF9800" d="M222.664,273.034l62.027,13.176l2.599-12.534l-62.028-13.271L222.664,273.034z"/>
	<path fill="#FF9800" d="M221.29,289.426h63.396v12.762H221.29V289.426z"/>
	<path fill="#FF9800" d="M230.8,242.986l57.432,27.157l5.322-11.665l-57.462-27.228L230.8,242.986z"/>
	<path fill="#FF9800" d="M288.238,270.148l-0.007-0.006l-0.006,0.006H288.238z"/>
</g>
<path fill="#757575" d="M196,276.574V328h113.952v-51.426h-12.679v38.567h-88.596v-38.567H196z"/>
<path fill="#FF9800" d="M246.718,214.378l48.654,41.238l8.076-9.9l-48.654-41.238L246.718,214.378z"/>
<path fill="#FF9800" d="M316,235.522L278.188,184l-10.146,7.716l37.812,51.522L316,235.522z"/>
</svg>
