<?xml version="1.0" encoding="utf-8"?>
<!-- Generator: Adobe Illustrator 15.0.0, SVG Export Plug-In . SVG Version: 6.00 Build 0)  -->
<!DOCTYPE svg PUBLIC "-//W3C//DTD SVG 1.1//EN" "http://www.w3.org/Graphics/SVG/1.1/DTD/svg11.dtd">
<svg version="1.1" id="Capa_1" xmlns="http://www.w3.org/2000/svg" xmlns:xlink="http://www.w3.org/1999/xlink" x="0px" y="0px"
	 width="144px" height="144px" viewBox="312 440 144 144" enable-background="new 312 440 144 144" xml:space="preserve">
<g>
	<circle fill="#55ACEE" cx="384.003" cy="511.996" r="72"/>
	<g>
		<path fill="#F1F2F2" d="M428.105,491.741c-3.085,1.368-6.404,2.293-9.885,2.707c3.554-2.129,6.281-5.499,7.568-9.52
			c-3.325,1.973-7.01,3.404-10.929,4.175c-3.14-3.344-7.612-5.433-12.565-5.433c-9.502,0-17.21,7.708-17.21,17.21
			c0,1.349,0.153,2.662,0.448,3.922c-14.303-0.717-26.985-7.568-35.474-17.984c-1.481,2.541-2.331,5.5-2.331,8.653
			c0,5.969,3.041,11.239,7.656,14.325c-2.82-0.089-5.476-0.863-7.795-2.155c-0.001,0.073-0.001,0.146-0.001,0.218
			c0,8.338,5.935,15.293,13.806,16.874c-1.442,0.396-2.966,0.604-4.533,0.604c-1.111,0-2.188-0.106-3.238-0.307
			c2.19,6.836,8.544,11.812,16.077,11.952c-5.891,4.616-13.311,7.367-21.376,7.367c-1.386,0-2.759-0.081-4.103-0.241
			c7.612,4.885,16.661,7.732,26.379,7.732c31.656,0,48.967-26.224,48.967-48.968c0-0.746-0.018-1.489-0.051-2.226
			C422.882,498.223,425.8,495.192,428.105,491.741L428.105,491.741z"/>
	</g>
</g>
</svg>
