<?xml version="1.0" encoding="utf-8"?>
<!-- Generator: Adobe Illustrator 15.0.0, SVG Export Plug-In . SVG Version: 6.00 Build 0)  -->
<!DOCTYPE svg PUBLIC "-//W3C//DTD SVG 1.1//EN" "http://www.w3.org/Graphics/SVG/1.1/DTD/svg11.dtd">
<svg version="1.1" id="Capa_1" xmlns="http://www.w3.org/2000/svg" xmlns:xlink="http://www.w3.org/1999/xlink" x="0px" y="0px"
	 width="144px" height="118.334px" viewBox="312 452.5 144 118.334" enable-background="new 312 452.5 144 118.334"
	 xml:space="preserve">
<path fill="#03A9F4" d="M456,467.351c-5.354,2.349-11.061,3.906-17.01,4.662c6.12-3.654,10.791-9.396,12.986-16.317
	c-5.705,3.402-12.006,5.805-18.72,7.146c-5.418-5.769-13.14-9.342-21.563-9.342c-16.345,0-29.502,13.266-29.502,29.529
	c0,2.34,0.198,4.59,0.684,6.732c-24.543-1.197-46.26-12.96-60.849-30.879c-2.547,4.419-4.041,9.477-4.041,14.922
	c0,10.224,5.265,19.287,13.113,24.534c-4.743-0.09-9.396-1.467-13.338-3.636c0,0.09,0,0.207,0,0.324
	c0,14.346,10.233,26.262,23.652,29.007c-2.403,0.656-5.022,0.972-7.74,0.972c-1.89,0-3.798-0.107-5.589-0.504
	c3.825,11.691,14.679,20.286,27.585,20.565c-10.044,7.856-22.797,12.591-36.603,12.591c-2.421,0-4.743-0.108-7.065-0.405
	c13.077,8.434,28.575,13.248,45.288,13.248c54.324,0,84.024-45,84.024-84.006c0-1.305-0.046-2.565-0.108-3.816
	C447.063,478.52,451.986,473.327,456,467.351z"/>
</svg>
