<?xml version="1.0" encoding="utf-8"?>
<!-- Generator: Adobe Illustrator 15.0.0, SVG Export Plug-In . SVG Version: 6.00 Build 0)  -->
<!DOCTYPE svg PUBLIC "-//W3C//DTD SVG 1.1//EN" "http://www.w3.org/Graphics/SVG/1.1/DTD/svg11.dtd">
<svg version="1.1" id="Capa_1" xmlns="http://www.w3.org/2000/svg" xmlns:xlink="http://www.w3.org/1999/xlink" x="0px" y="0px"
	 width="144px" height="144px" viewBox="0 0 144 144" enable-background="new 0 0 144 144" xml:space="preserve">
<g>
	<path fill="#1AB7EA" d="M136.08,7.922C130.801,2.641,124.439,0,117.002,0h-90c-7.438,0-13.797,2.642-19.08,7.922
		C2.643,13.202,0.002,19.563,0.002,27v90.002c0,7.436,2.641,13.797,7.92,19.078c5.283,5.28,11.643,7.922,19.08,7.922h90
		c7.437,0,13.797-2.642,19.076-7.922c5.281-5.281,7.922-11.643,7.922-19.078V27C144,19.563,141.359,13.201,136.08,7.922z
		 M117.566,47.719c-0.878,4.563-3.455,11.642-7.736,21.233c-4.283,9.595-9.673,18.735-16.174,27.423
		c-7.438,10-15.251,17.406-23.438,22.222c-2.125,1.311-4.5,2.297-7.125,2.952c-2.625,0.654-5.281,0.607-7.969-0.143
		c-3.813-1.625-7.031-5.531-9.656-11.719c-1.313-3.189-3.094-9.346-5.344-18.471c-2.248-8.813-3.906-14.655-4.968-17.53
		c-0.312-0.813-0.702-2.079-1.171-3.797c-0.469-1.72-0.938-3.218-1.406-4.5s-1.046-2.484-1.733-3.609
		c-1.062-1.813-2.359-2.75-3.89-2.813c-1.531-0.062-3.346,0.267-5.438,0.984c-2.093,0.719-3.795,0.983-5.108,0.797
		c-0.75-0.125-1.422-0.75-2.016-1.875s-1.393-1.937-2.393-2.438v-0.657c2.5-1.751,6.328-4.938,11.484-9.563
		s9.422-7.938,12.797-9.938c4.375-2.563,8.344-3.344,11.907-2.344c1.687,0.5,3.267,1.75,4.733,3.75c1.469,2,2.578,4.156,3.328,6.469
		c0.688,2.188,1.75,7.313,3.188,15.375c0.188,1.249,0.454,3.484,0.797,6.702c0.343,3.219,0.657,5.843,0.937,7.875
		c0.281,2.032,0.875,4.313,1.783,6.843c0.904,2.533,2.076,4.549,3.515,6.049c2.688,2.875,5.407,3.313,8.157,1.313
		c1.75-1.313,3.969-4.406,6.655-9.279c2.938-5.687,4.563-10.155,4.873-13.405c0.438-4.75-0.392-7.844-2.483-9.281
		c-2.092-1.438-5.64-1.938-10.64-1.5c1-3.063,2.392-5.922,4.171-8.578c1.782-2.655,3.643-4.844,5.579-6.563
		c1.94-1.719,3.956-3.234,6.048-4.547c2.096-1.313,3.891-2.265,5.394-2.857c1.499-0.594,2.778-0.985,3.843-1.174
		c8.438-1.25,14.28,0.156,17.533,4.219C117.909,38.28,118.565,42.406,117.566,47.719z"/>
</g>
<g>
	<path fill="#FFFFFF" d="M117.566,47.719c-0.878,4.563-3.455,11.642-7.736,21.233c-4.283,9.595-9.673,18.735-16.174,27.423
		c-7.438,10-15.251,17.406-23.438,22.222c-2.125,1.311-4.5,2.297-7.125,2.952c-2.625,0.654-5.281,0.607-7.969-0.143
		c-3.813-1.625-7.031-5.531-9.656-11.719c-1.313-3.189-3.094-9.346-5.344-18.471c-2.248-8.813-3.906-14.655-4.968-17.53
		c-0.312-0.813-0.702-2.079-1.171-3.797c-0.469-1.72-0.938-3.218-1.406-4.5s-1.046-2.484-1.733-3.609
		c-1.062-1.813-2.359-2.75-3.89-2.813c-1.531-0.062-3.346,0.267-5.438,0.984c-2.093,0.719-3.795,0.983-5.108,0.797
		c-0.75-0.125-1.422-0.75-2.016-1.875s-1.393-1.937-2.393-2.438v-0.657c2.5-1.751,6.328-4.938,11.484-9.563
		s9.422-7.938,12.797-9.938c4.375-2.563,8.344-3.344,11.907-2.344c1.687,0.5,3.267,1.75,4.733,3.75c1.469,2,2.578,4.156,3.328,6.469
		c0.688,2.188,1.75,7.313,3.188,15.375c0.188,1.249,0.454,3.484,0.797,6.702c0.343,3.219,0.657,5.843,0.937,7.875
		c0.281,2.032,0.875,4.313,1.783,6.843c0.904,2.533,2.076,4.549,3.515,6.049c2.688,2.875,5.407,3.313,8.157,1.313
		c1.75-1.313,3.969-4.406,6.655-9.279c2.938-5.687,4.563-10.155,4.873-13.405c0.438-4.75-0.392-7.844-2.483-9.281
		c-2.092-1.438-5.64-1.938-10.64-1.5c1-3.063,2.392-5.922,4.171-8.578c1.782-2.655,3.643-4.844,5.579-6.563
		c1.94-1.719,3.956-3.234,6.048-4.547c2.096-1.313,3.891-2.265,5.394-2.857c1.499-0.594,2.778-0.985,3.843-1.174
		c8.438-1.25,14.28,0.156,17.533,4.219C117.909,38.28,118.565,42.406,117.566,47.719z"/>
</g>
</svg>
