<?xml version="1.0" encoding="utf-8"?>
<!-- Generator: Adobe Illustrator 15.0.0, SVG Export Plug-In . SVG Version: 6.00 Build 0)  -->
<!DOCTYPE svg PUBLIC "-//W3C//DTD SVG 1.1//EN" "http://www.w3.org/Graphics/SVG/1.1/DTD/svg11.dtd">
<svg version="1.1" id="Layer_1" xmlns="http://www.w3.org/2000/svg" xmlns:xlink="http://www.w3.org/1999/xlink" x="0px" y="0px"
	 width="144px" height="144px" viewBox="184 184 144 144" enable-background="new 184 184 144 144" xml:space="preserve">
<circle fill="#2CB742" cx="256" cy="256.25" r="72"/>
<path fill="#FFFFFF" d="M289.187,223.374c-8.784-8.654-20.469-13.423-32.905-13.428c-12.408,0-24.112,4.765-32.953,13.417
	c-8.857,8.667-13.739,20.184-13.75,32.388v0.014v0.009c0.001,7.386,1.964,14.838,5.689,21.64l-5.562,24.998l25.569-5.752
	c6.476,3.229,13.701,4.93,20.989,4.933h0.019c12.406,0,24.109-4.766,32.952-13.418c8.865-8.674,13.749-20.176,13.755-32.389
	C302.993,243.66,298.092,232.149,289.187,223.374z M256.282,294.376h-0.017c-6.543-0.003-13.027-1.628-18.749-4.7l-1.209-0.648
	l-17.002,3.824l3.693-16.599l-0.712-1.214c-3.54-6.036-5.41-12.7-5.41-19.273c0.014-21.275,17.689-38.603,39.405-38.603
	c10.491,0.004,20.348,4.026,27.755,11.323c7.52,7.41,11.659,17.104,11.656,27.298C295.683,277.063,278.003,294.376,256.282,294.376z
	 M243.573,235.566h-2.047c-0.713,0-1.87,0.264-2.849,1.317c-0.979,1.054-3.739,3.601-3.739,8.782c0,5.181,3.829,10.187,4.362,10.89
	c0.534,0.703,7.39,11.674,18.249,15.896c9.025,3.507,10.861,2.81,12.82,2.634c1.959-0.175,6.321-2.547,7.212-5.005
	c0.89-2.459,0.89-4.567,0.622-5.007c-0.267-0.439-0.979-0.702-2.047-1.229c-1.069-0.526-6.305-3.117-7.285-3.47
	c-0.979-0.351-1.69-0.526-2.403,0.528c-0.713,1.053-2.811,3.488-3.435,4.19c-0.623,0.704-1.246,0.792-2.314,0.265
	c-1.068-0.528-4.474-1.659-8.555-5.246c-3.177-2.792-5.381-6.351-6.004-7.405c-0.623-1.053-0.066-1.624,0.469-2.149
	c0.48-0.471,1.128-1.116,1.663-1.73c0.534-0.615,0.685-1.054,1.042-1.756c0.356-0.703,0.178-1.318-0.089-1.844
	c-0.268-0.527-2.317-5.734-3.268-7.816h0C245.177,235.657,244.334,235.598,243.573,235.566z"/>
</svg>
