<?xml version="1.0" encoding="utf-8"?>
<!-- Generator: Adobe Illustrator 15.0.0, SVG Export Plug-In . SVG Version: 6.00 Build 0)  -->
<!DOCTYPE svg PUBLIC "-//W3C//DTD SVG 1.1//EN" "http://www.w3.org/Graphics/SVG/1.1/DTD/svg11.dtd">
<svg version="1.1" id="Layer_1" xmlns="http://www.w3.org/2000/svg" xmlns:xlink="http://www.w3.org/1999/xlink" x="0px" y="0px"
	 width="144px" height="101.5px" viewBox="184 128.25 144 101.5" enable-background="new 184 128.25 144 101.5"
	 xml:space="preserve">
<path fill="#FF0000" d="M325.034,144.608c-1.66-6.169-6.523-11.031-12.691-12.692c-11.269-3.084-56.343-3.084-56.343-3.084
	s-45.073,0-56.342,2.966c-6.049,1.66-11.031,6.642-12.691,12.81c-2.965,11.268-2.965,34.635-2.965,34.635s0,23.485,2.965,34.635
	c1.661,6.168,6.523,11.031,12.692,12.692c11.386,3.084,56.342,3.084,56.342,3.084s45.073,0,56.342-2.966
	c6.169-1.66,11.031-6.523,12.692-12.691C328,202.729,328,179.362,328,179.362S328.119,155.875,325.034,144.608z"/>
<path fill="#FFFFFF" d="M241.648,200.831l37.481-21.588l-37.481-21.588V200.831z"/>
</svg>
