<?xml version="1.0" encoding="utf-8"?>
<!-- Generator: Adobe Illustrator 15.0.0, SVG Export Plug-In . SVG Version: 6.00 Build 0)  -->
<!DOCTYPE svg PUBLIC "-//W3C//DTD SVG 1.1//EN" "http://www.w3.org/Graphics/SVG/1.1/DTD/svg11.dtd">
<svg version="1.1" id="Layer_1" xmlns="http://www.w3.org/2000/svg" xmlns:xlink="http://www.w3.org/1999/xlink" x="0px" y="0px"
	 width="1000px" height="534px" viewBox="0 0 1000 534" enable-background="new 0 0 1000 534" xml:space="preserve">
<g>
	<defs>
		<rect id="SVGID_1_" y="50.341" width="1000" height="537.659"/>
	</defs>
	<clipPath id="SVGID_2_">
		<use xlink:href="#SVGID_1_"  overflow="visible"/>
	</clipPath>
</g>
<g opacity="0.75">
	<g>
		<defs>
			<rect id="SVGID_3_" x="587.449" y="266.133" width="187.224" height="261.09"/>
		</defs>
		<clipPath id="SVGID_4_">
			<use xlink:href="#SVGID_3_"  overflow="visible"/>
		</clipPath>
		<path clip-path="url(#SVGID_4_)" fill="#FFE36C" d="M590.854,334.812c13.771-49.819,65.32-79.043,115.141-65.271
			c49.82,13.77,79.044,65.319,65.271,115.14c-5.488,19.86-16.984,36.441-31.977,48.335c-18.24,15.844-57.751,28.503-61.379,41.627
			l-4.146,14.994c-0.826,2.993-3.925,4.749-6.918,3.922l-14.495-4.007l-13.322-3.682l-14.497-4.008
			c-2.993-0.827-4.749-3.925-3.921-6.918l4.144-14.994c3.627-13.123-23.773-44.279-31.287-67.241
			C586.712,374.802,585.364,354.671,590.854,334.812"/>
		<path clip-path="url(#SVGID_4_)" fill="#FFFFFF" d="M754.818,385.704c-2.858-0.79-4.535-3.748-3.745-6.605
			c8.872-32.099-5.113-66.009-34.012-82.462c-2.577-1.469-3.476-4.746-2.01-7.324c1.469-2.578,4.747-3.479,7.324-2.009
			c33.174,18.89,49.23,57.813,39.048,94.655C760.633,384.817,757.676,386.494,754.818,385.704"/>
		<path clip-path="url(#SVGID_4_)" fill="#FFE36C" d="M769.619,389.966c-15.202,35.611-55.65,65.65-110.843,50.396
			c-55.189-15.256-72.858-63.287-69.224-100.168c-3.881,18.092-2.23,36.224,3.916,52.514c7.512,22.962,34.914,54.117,31.287,67.241
			l-4.146,14.995c-0.827,2.992,0.929,6.089,3.921,6.917l14.497,4.007l13.322,3.683l14.497,4.007c2.993,0.827,6.09-0.929,6.917-3.922
			l4.146-14.994c3.628-13.124,43.14-25.782,61.379-41.627C752.929,422.194,763.656,407.484,769.619,389.966"/>
		<path clip-path="url(#SVGID_4_)" fill="#868D93" d="M678.271,481.634l-57.418-15.871l-7.563,27.365
			c-1.236,4.469-1.174,9.197,0.178,13.632c2.557,8.383,9.223,14.876,17.668,17.21l8.418,2.327
			c8.447,2.335,17.501,0.188,23.999-5.693c3.438-3.111,5.919-7.136,7.155-11.604L678.271,481.634z"/>
		<path clip-path="url(#SVGID_4_)" fill="#868D93" d="M615.748,484.215c0.162,0.052,0.329,0.092,0.503,0.12l59.062,9.919
			c2.016,0.339,3.872-1.045,4.146-3.09c0.271-2.044-1.146-3.979-3.157-4.314l-59.064-9.919c-2.015-0.339-3.872,1.045-4.144,3.091
			C612.843,481.891,614.005,483.667,615.748,484.215"/>
		<path clip-path="url(#SVGID_4_)" fill="#868D93" d="M612.287,496.739c0.161,0.052,0.328,0.092,0.502,0.12l59.062,9.919
			c2.016,0.339,3.872-1.045,4.146-3.09c0.271-2.044-1.146-3.975-3.157-4.314l-59.064-9.919c-2.015-0.339-3.872,1.045-4.144,3.09
			C609.381,494.415,610.543,496.191,612.287,496.739"/>
		<path clip-path="url(#SVGID_4_)" fill="#868D93" d="M611.153,509.771c0.161,0.051,0.328,0.092,0.502,0.12l55.982,9.401
			c2.018,0.339,3.871-1.044,4.146-3.09c0.271-2.045-1.146-3.979-3.157-4.314l-55.985-9.401c-2.015-0.339-3.871,1.044-4.143,3.089
			C608.248,507.446,609.41,509.223,611.153,509.771"/>
	</g>
</g>
<path fill="#F4C914" d="M343.332,257.27c0-82.49,66.871-149.361,149.36-149.361c82.49,0,149.361,66.871,149.361,149.361
	c0,32.882-10.634,63.275-28.638,87.947c-21.32,32.127-76.716,68.398-76.716,90.13v24.827c0,4.955-4.019,8.973-8.975,8.973h-24.003
	h-22.058H457.66c-4.955,0-8.973-4.018-8.973-8.973v-24.827c0-21.731-55.397-58.003-76.716-90.13
	C353.966,320.545,343.332,290.151,343.332,257.27"/>
<path fill="#FFFFFF" d="M617.188,265.839c-4.732,0-8.569-3.836-8.569-8.569c0-53.146-35.933-99.361-87.378-112.386
	c-4.589-1.161-7.367-5.822-6.205-10.411c1.162-4.589,5.821-7.37,10.41-6.204c59.062,14.952,100.311,68,100.311,129
	C625.756,262.003,621.919,265.839,617.188,265.839"/>
<g opacity="0.55">
	<g>
		<defs>
			<rect id="SVGID_5_" x="343.619" y="266.101" width="298.146" height="203.047"/>
		</defs>
		<clipPath id="SVGID_6_">
			<use xlink:href="#SVGID_5_"  overflow="visible"/>
		</clipPath>
		<path clip-path="url(#SVGID_6_)" fill="#FFC043" d="M641.767,266.102c-8.243,61.243-57.689,124.648-149.074,124.648
			c-91.383,0-138.983-66.371-149.072-124.648c1.721,29.481,11.971,56.67,28.351,79.115c21.319,32.127,76.716,68.398,76.716,90.13
			v24.827c0,4.955,4.017,8.973,8.973,8.973h24.003h22.06h24.003c4.956,0,8.974-4.018,8.974-8.973v-24.827
			c0-21.731,55.396-58.003,76.716-90.13h-0.001C629.794,322.771,640.044,295.583,641.767,266.102"/>
	</g>
</g>
<path fill="#868D93" d="M540.229,445.948h-95.071v45.312c0,7.397,2.106,14.645,6.071,20.891
	c7.496,11.809,20.51,18.962,34.496,18.962h13.938c13.986,0,27-7.153,34.496-18.962c3.964-6.246,6.07-13.493,6.07-20.891V445.948z"/>
<path fill="#868D93" d="M445.15,476.503c0.271,0.01,0.546,0,0.823-0.029l95.07-9.855c3.246-0.336,5.511-3.253,5.063-6.513
	c-0.45-3.263-3.452-5.637-6.691-5.295l-95.071,9.854c-3.245,0.337-5.512,3.254-5.061,6.515
	C439.692,474.162,442.235,476.401,445.15,476.503"/>
<path fill="#868D93" d="M445.15,497.24c0.271,0.01,0.546,0,0.823-0.029l95.07-9.855c3.246-0.335,5.511-3.252,5.063-6.513
	c-0.45-3.263-3.452-5.63-6.691-5.295l-95.071,9.854c-3.245,0.336-5.512,3.253-5.061,6.514
	C439.692,494.9,442.235,497.139,445.15,497.24"/>
<path fill="#868D93" d="M448.947,517.768c0.271,0.009,0.545,0,0.822-0.029l90.113-9.343c3.246-0.336,5.512-3.252,5.063-6.514
	c-0.45-3.261-3.456-5.635-6.691-5.296l-90.115,9.343c-3.244,0.336-5.511,3.252-5.061,6.515
	C443.489,515.427,446.032,517.665,448.947,517.768"/>
<path fill="#F4C914" d="M492.63,3.093c-4.551,0-8.239,3.688-8.239,8.238v48.611c0,4.549,3.688,8.238,8.239,8.238
	c4.55,0,8.239-3.689,8.239-8.238V11.331C500.869,6.781,497.18,3.093,492.63,3.093"/>
<path fill="#F4C914" d="M309.773,120.414l41.685,25.007c1.327,0.796,2.787,1.175,4.231,1.175c2.798,0,5.528-1.427,7.072-4.002
	c2.341-3.902,1.075-8.963-2.826-11.303l-41.685-25.007c-3.902-2.341-8.963-1.075-11.304,2.826
	C304.606,113.013,305.872,118.073,309.773,120.414"/>
<path fill="#F4C914" d="M396.903,34.709c-2.224-3.971-7.245-5.387-11.214-3.163c-3.97,2.224-5.386,7.244-3.163,11.214l23.75,42.413
	c1.51,2.697,4.31,4.215,7.196,4.215c1.362,0,2.744-0.339,4.017-1.052c3.971-2.224,5.387-7.244,3.164-11.214L396.903,34.709z"/>
<path fill="#F4C914" d="M629.697,146.596c1.441,0,2.902-0.379,4.229-1.175l41.685-25.007c3.902-2.34,5.167-7.401,2.826-11.303
	c-2.341-3.903-7.4-5.168-11.303-2.827l-41.685,25.007c-3.901,2.34-5.167,7.402-2.826,11.303
	C624.169,145.169,626.897,146.596,629.697,146.596"/>
<path fill="#F4C914" d="M599.696,31.546c-3.971-2.222-8.991-0.807-11.215,3.163l-23.75,42.413c-2.223,3.97-0.807,8.99,3.164,11.214
	c1.274,0.713,2.654,1.052,4.019,1.052c2.886,0,5.686-1.518,7.195-4.215l23.75-42.413C605.083,38.79,603.667,33.77,599.696,31.546"/>
<g opacity="0.75">
	<g>
		<defs>
			<rect id="SVGID_7_" x="230.367" y="182.688" width="149.839" height="207.819"/>
		</defs>
		<clipPath id="SVGID_8_">
			<use xlink:href="#SVGID_7_"  overflow="visible"/>
		</clipPath>
		<path clip-path="url(#SVGID_8_)" fill="#FFE36C" d="M261.753,300.053c-9.556-32.009,8.646-65.702,40.654-75.258
			c32.008-9.555,65.701,8.646,75.257,40.654c3.809,12.758,3.204,25.783-0.924,37.442c-4.551,14.936-21.844,35.428-19.327,43.859
			l2.876,9.634c0.574,1.923-0.519,3.947-2.443,4.521l-9.313,2.78l-8.56,2.555l-9.314,2.781c-1.923,0.573-3.947-0.52-4.521-2.442
			l-2.876-9.633c-2.517-8.434-28.214-16.091-40.208-26.086C273.21,323.373,265.562,312.812,261.753,300.053"/>
		<path clip-path="url(#SVGID_8_)" fill="#FFFFFF" d="M369.008,271.654c-1.836,0.548-3.77-0.496-4.318-2.333
			c-6.157-20.622-25.453-34.392-46.924-33.486c-1.915,0.081-3.532-1.405-3.613-3.32c-0.081-1.916,1.405-3.534,3.32-3.613
			c24.65-1.041,46.801,14.765,53.867,38.435C371.888,269.174,370.844,271.105,369.008,271.654"/>
		<path clip-path="url(#SVGID_8_)" fill="#FFE36C" d="M378.576,268.908c3.896,24.719-7.945,55.05-43.405,65.636
			c-35.458,10.587-61.617-9.653-72.283-31.098c4.084,11.24,11.21,20.604,20.166,27.414c11.994,9.996,37.691,17.653,40.209,26.086
			l2.875,9.634c0.575,1.923,2.599,3.017,4.521,2.442l9.314-2.781l8.56-2.555l9.314-2.781c1.923-0.573,3.016-2.598,2.442-4.52
			l-2.876-9.635c-2.517-8.433,14.776-28.924,19.327-43.859C380.495,292.284,381.323,280.549,378.576,268.908"/>
		<path clip-path="url(#SVGID_8_)" fill="#868D93" d="M360.01,350.456l-36.89,11.013l5.249,17.582
			c0.857,2.87,2.514,5.438,4.776,7.403c4.276,3.713,10.155,4.981,15.582,3.361l5.408-1.614c5.427-1.62,9.648-5.904,11.188-11.354
			c0.815-2.884,0.793-5.939-0.064-8.811L360.01,350.456z"/>
		<path clip-path="url(#SVGID_8_)" fill="#868D93" d="M326.657,373.325c0.106-0.027,0.212-0.062,0.316-0.105l35.748-14.838
			c1.22-0.506,1.761-1.9,1.209-3.114c-0.552-1.213-1.992-1.786-3.21-1.279l-35.748,14.837c-1.22,0.507-1.761,1.901-1.209,3.114
			C324.268,373.051,325.514,373.624,326.657,373.325"/>
		<path clip-path="url(#SVGID_8_)" fill="#868D93" d="M329.06,381.372c0.106-0.027,0.212-0.063,0.316-0.105l35.747-14.837
			c1.221-0.507,1.762-1.901,1.21-3.115c-0.552-1.213-1.991-1.784-3.21-1.279l-35.748,14.837c-1.22,0.507-1.762,1.9-1.209,3.114
			C326.67,381.098,327.917,381.671,329.06,381.372"/>
		<path clip-path="url(#SVGID_8_)" fill="#868D93" d="M332.911,388.897c0.106-0.028,0.212-0.063,0.316-0.105l33.884-14.065
			c1.22-0.506,1.761-1.9,1.209-3.114c-0.552-1.213-1.993-1.786-3.209-1.278l-33.885,14.063c-1.22,0.506-1.762,1.9-1.209,3.114
			C330.521,388.622,331.768,389.195,332.911,388.897"/>
		<path clip-path="url(#SVGID_8_)" fill="#FFE36C" d="M290.24,184.131c-1.766,0.527-2.77,2.386-2.243,4.151l5.631,18.861
			c0.528,1.766,2.386,2.77,4.152,2.243c1.765-0.526,2.769-2.386,2.242-4.151l-5.631-18.862
			C293.864,184.608,292.006,183.604,290.24,184.131"/>
		<path clip-path="url(#SVGID_8_)" fill="#FFE36C" d="M232.878,250.837l19.072,4.874c0.607,0.155,1.218,0.134,1.778-0.034
			c1.086-0.323,1.979-1.193,2.28-2.372c0.456-1.784-0.621-3.603-2.406-4.059l-19.071-4.874c-1.785-0.456-3.603,0.621-4.059,2.406
			C230.016,248.564,231.093,250.381,232.878,250.837"/>
		<path clip-path="url(#SVGID_8_)" fill="#FFE36C" d="M256.758,207.488c-1.323-1.283-3.435-1.251-4.718,0.071
			c-1.283,1.323-1.25,3.435,0.072,4.718l14.128,13.706c0.899,0.871,2.162,1.136,3.281,0.802c0.529-0.156,1.026-0.449,1.437-0.873
			c1.283-1.322,1.251-3.436-0.071-4.718L256.758,207.488z"/>
		<path clip-path="url(#SVGID_8_)" fill="#FFE36C" d="M335.081,182.769c-1.798-0.401-3.582,0.729-3.985,2.526l-4.302,19.209
			c-0.403,1.798,0.728,3.582,2.526,3.984c0.577,0.131,1.152,0.101,1.681-0.057c1.12-0.335,2.031-1.248,2.304-2.47l4.302-19.208
			C338.01,184.957,336.878,183.172,335.081,182.769"/>
	</g>
</g>
<g opacity="0.75">
	<g>
		<defs>
			<rect id="SVGID_9_" x="250.445" y="428.492" width="130.005" height="93.49"/>
		</defs>
		<clipPath id="SVGID_10_">
			<use xlink:href="#SVGID_9_"  overflow="visible"/>
		</clipPath>
		<path clip-path="url(#SVGID_10_)" fill="#E59A2E" d="M310.559,520.017c-24.731,7.384-50.766-6.68-58.149-31.411
			c-7.384-24.732,6.68-50.767,31.411-58.149c9.859-2.943,19.923-2.476,28.931,0.714c11.541,3.517,27.374,16.879,33.89,14.934
			l7.443-2.223c1.486-0.443,3.05,0.401,3.493,1.888l2.149,7.196l1.974,6.614l2.149,7.196c0.443,1.485-0.402,3.051-1.888,3.493
			l-7.443,2.222c-6.515,1.945-12.432,21.801-20.156,31.068C328.578,511.165,320.417,517.073,310.559,520.017"/>
		<path clip-path="url(#SVGID_10_)" fill="#FFFFFF" d="M330.11,467.294c-1.419,0.424-2.913-0.384-3.336-1.803
			c-4.757-15.933-19.667-26.573-36.257-25.873c-1.479,0.062-2.73-1.087-2.792-2.566c-0.062-1.48,1.086-2.73,2.566-2.792
			c19.046-0.804,36.161,11.408,41.621,29.697C332.336,465.376,331.529,466.87,330.11,467.294"/>
		<path clip-path="url(#SVGID_10_)" fill="#E28130" d="M286.495,429.751c19.1-3.01,42.535,6.14,50.714,33.538
			c8.18,27.398-7.459,47.609-24.028,55.851c8.685-3.154,15.919-8.66,21.182-15.58c7.724-9.269,13.641-29.123,20.156-31.069
			l7.443-2.221c1.486-0.444,2.331-2.009,1.887-3.494l-2.148-7.197l-1.974-6.613l-2.149-7.195c-0.443-1.487-2.007-2.331-3.493-1.889
			l-7.444,2.224c-6.515,1.944-22.348-11.417-33.889-14.935C304.557,428.27,295.488,427.629,286.495,429.751"/>
		<path clip-path="url(#SVGID_10_)" fill="#868D93" d="M349.504,444.097l8.51,28.503l13.584-4.056
			c2.218-0.662,4.203-1.941,5.72-3.689c2.87-3.305,3.85-7.847,2.598-12.04l-1.247-4.179c-1.252-4.193-4.562-7.454-8.773-8.644
			c-2.228-0.631-4.589-0.613-6.807,0.049L349.504,444.097z"/>
		<path clip-path="url(#SVGID_10_)" fill="#868D93" d="M367.175,469.867c-0.021-0.082-0.049-0.164-0.083-0.244l-11.463-27.621
			c-0.392-0.943-1.469-1.361-2.407-0.935c-0.937,0.427-1.38,1.539-0.988,2.48l11.464,27.621c0.391,0.942,1.469,1.361,2.406,0.935
			C366.962,471.713,367.405,470.75,367.175,469.867"/>
		<path clip-path="url(#SVGID_10_)" fill="#868D93" d="M373.392,468.011c-0.021-0.082-0.049-0.163-0.082-0.244l-11.464-27.621
			c-0.392-0.942-1.469-1.361-2.407-0.935s-1.378,1.539-0.988,2.481l11.464,27.62c0.391,0.943,1.469,1.361,2.406,0.935
			C373.179,469.857,373.622,468.895,373.392,468.011"/>
		<path clip-path="url(#SVGID_10_)" fill="#868D93" d="M379.207,465.035c-0.021-0.082-0.049-0.163-0.083-0.244l-10.866-26.181
			c-0.391-0.943-1.468-1.361-2.406-0.934c-0.937,0.426-1.38,1.54-0.989,2.479l10.867,26.182c0.391,0.943,1.468,1.361,2.406,0.935
			C378.994,466.881,379.437,465.918,379.207,465.035"/>
	</g>
</g>
<rect y="-233.106" fill="none" width="1000" height="821.106"/>
<rect y="-233.106" fill="none" width="1000" height="821.106"/>
</svg>
