<?xml version="1.0" encoding="utf-8"?>
<!-- Generator: Adobe Illustrator 15.0.0, SVG Export Plug-In . SVG Version: 6.00 Build 0)  -->
<!DOCTYPE svg PUBLIC "-//W3C//DTD SVG 1.1//EN" "http://www.w3.org/Graphics/SVG/1.1/DTD/svg11.dtd">
<svg version="1.1" id="Layer_1" xmlns="http://www.w3.org/2000/svg" xmlns:xlink="http://www.w3.org/1999/xlink" x="0px" y="0px"
	 width="1000px" height="643px" viewBox="0 0 1000 643" enable-background="new 0 0 1000 643" xml:space="preserve">
<g>
	<defs>
		<rect id="SVGID_1_" y="-123.106" width="1000" height="821.106"/>
	</defs>
	<clipPath id="SVGID_2_">
		<use xlink:href="#SVGID_1_"  overflow="visible"/>
	</clipPath>
	<g clip-path="url(#SVGID_2_)">
		<defs>
			<rect id="SVGID_3_" y="160.341" width="1000" height="537.659"/>
		</defs>
		<clipPath id="SVGID_4_">
			<use xlink:href="#SVGID_3_"  overflow="visible"/>
		</clipPath>
	</g>
	<g clip-path="url(#SVGID_2_)">
		<defs>
			<rect id="SVGID_5_" y="-123.106" width="1000" height="821.106"/>
		</defs>
		<clipPath id="SVGID_6_">
			<use xlink:href="#SVGID_5_"  overflow="visible"/>
		</clipPath>
		<g opacity="0.5" clip-path="url(#SVGID_6_)">
			<g>
				<defs>
					<rect id="SVGID_7_" x="130.161" y="563.673" width="102.964" height="74.045"/>
				</defs>
				<clipPath id="SVGID_8_">
					<use xlink:href="#SVGID_7_"  overflow="visible"/>
				</clipPath>
				<path clip-path="url(#SVGID_8_)" fill="#E59A2E" d="M177.771,636.161c-19.588,5.849-40.207-5.291-46.055-24.878
					c-5.847-19.588,5.291-40.207,24.879-46.055c7.808-2.331,15.779-1.96,22.913,0.566v-0.001c9.14,2.785,21.68,13.368,26.84,11.828
					l5.896-1.761c1.176-0.35,2.415,0.319,2.766,1.495l1.701,5.7l1.565,5.237l1.701,5.699c0.352,1.177-0.317,2.416-1.494,2.768
					l-5.896,1.76c-5.16,1.54-9.845,17.266-15.962,24.605C192.042,629.15,185.58,633.83,177.771,636.161"/>
				<path clip-path="url(#SVGID_8_)" fill="#FFFFFF" d="M193.256,594.404c-1.124,0.336-2.307-0.304-2.643-1.428
					c-3.767-12.619-15.576-21.046-28.714-20.491c-1.172,0.049-2.163-0.861-2.212-2.033c-0.049-1.172,0.86-2.162,2.032-2.211
					c15.085-0.637,28.64,9.036,32.964,23.521C195.019,592.886,194.379,594.069,193.256,594.404"/>
				<path clip-path="url(#SVGID_8_)" fill="#E28130" d="M158.713,564.671c15.127-2.384,33.688,4.862,40.166,26.563
					c6.478,21.698-5.908,37.707-19.03,44.233c6.878-2.499,12.607-6.859,16.776-12.341c6.117-7.34,10.803-23.064,15.963-24.604
					l5.896-1.762c1.176-0.351,1.845-1.59,1.494-2.767l-1.702-5.699l-1.564-5.238l-1.701-5.698c-0.352-1.178-1.59-1.847-2.767-1.496
					l-5.895,1.761c-5.16,1.54-17.7-9.043-26.84-11.828v0.001C173.018,563.496,165.835,562.99,158.713,564.671"/>
				<path clip-path="url(#SVGID_8_)" fill="#868D93" d="M208.616,576.032l6.739,22.574l10.759-3.212
					c1.757-0.524,3.328-1.538,4.53-2.922c2.274-2.617,3.049-6.214,2.058-9.535l-0.988-3.31c-0.992-3.321-3.613-5.904-6.948-6.848
					c-1.764-0.498-3.634-0.483-5.391,0.04L208.616,576.032z"/>
				<path clip-path="url(#SVGID_8_)" fill="#868D93" d="M222.611,596.442c-0.018-0.063-0.039-0.129-0.065-0.193l-9.08-21.876
					c-0.31-0.746-1.164-1.077-1.906-0.74c-0.742,0.338-1.093,1.22-0.783,1.965l9.08,21.876c0.31,0.746,1.163,1.078,1.905,0.74
					C222.442,597.904,222.794,597.142,222.611,596.442"/>
				<path clip-path="url(#SVGID_8_)" fill="#868D93" d="M227.535,594.973c-0.017-0.064-0.038-0.13-0.065-0.192l-9.08-21.877
					c-0.309-0.746-1.163-1.077-1.905-0.74c-0.743,0.338-1.093,1.219-0.783,1.964l9.079,21.877c0.311,0.746,1.163,1.078,1.906,0.74
					C227.366,596.435,227.718,595.672,227.535,594.973"/>
				<path clip-path="url(#SVGID_8_)" fill="#868D93" d="M232.141,592.616c-0.018-0.064-0.039-0.13-0.065-0.193l-8.607-20.735
					c-0.309-0.747-1.163-1.078-1.906-0.74c-0.742,0.338-1.093,1.22-0.782,1.964l8.606,20.735c0.31,0.747,1.163,1.078,1.905,0.741
					C231.972,594.078,232.324,593.315,232.141,592.616"/>
			</g>
		</g>
		<g opacity="0.75" clip-path="url(#SVGID_6_)">
			<g>
				<defs>
					<rect id="SVGID_9_" x="619.213" y="43.585" width="280.529" height="556.301"/>
				</defs>
				<clipPath id="SVGID_10_">
					<use xlink:href="#SVGID_9_"  overflow="visible"/>
				</clipPath>
				<g clip-path="url(#SVGID_10_)">
					<defs>
						<path id="SVGID_11_" d="M741.521,122.61L621.813,81.852c-1.717,16.789-2.6,33.826-2.6,51.068c0,17.243,0.883,34.28,2.6,51.069
							l119.621-40.729c0.025-6.744,0.053-13.486,0.086-20.229L741.521,122.61z"/>
					</defs>
					<clipPath id="SVGID_12_">
						<use xlink:href="#SVGID_11_"  overflow="visible"/>
					</clipPath>
					
						<linearGradient id="SVGID_13_" gradientUnits="userSpaceOnUse" x1="0" y1="698" x2="1" y2="698" gradientTransform="matrix(122.3081 0 0 -122.3081 619.182 85503.9922)">
						<stop  offset="0" style="stop-color:#FFFFFF"/>
						<stop  offset="1" style="stop-color:#FFE36C"/>
					</linearGradient>
					<rect x="619.213" y="81.852" clip-path="url(#SVGID_12_)" fill="url(#SVGID_13_)" width="122.309" height="102.137"/>
				</g>
				<path clip-path="url(#SVGID_10_)" fill="#868D93" d="M741.49,132.92l0.029-9.889c-0.033,6.743-0.061,13.486-0.086,20.229
					l0.088-0.03L741.49,132.92z"/>
				<path clip-path="url(#SVGID_10_)" fill="#868D93" d="M797.341,533.771c-25.325,0.072-50.651,0.146-75.978,0.218
					c-4.669,0.11-9.336,0.262-14.005,0.324c-14.053,0.188-11.88-1.338-12.056,11.628c-0.178,13.193-0.199,26.391-0.289,39.579
					c0.081,2.464,0.375,4.948,0.195,7.398c-0.354,4.857,1.518,6.93,6.582,6.902c23.631-0.125,47.262-0.092,70.893,0.064
					c4.882,0.031,6.956-1.68,6.825-6.721c-0.228-8.787-0.205-17.59,0.053-26.376c0.319-10.904,7.064-17.535,17.816-18.042
					c-0.013,0-0.024-0.003-0.037-0.004V533.771z"/>
				<polygon clip-path="url(#SVGID_10_)" fill="#868D93" points="797.402,533.771 797.378,533.771 797.414,533.771 				"/>
				<path clip-path="url(#SVGID_10_)" fill="#FFFFFF" d="M797.341,336.12c-0.969,0.03-1.911,0.116-2.82,0.26
					c-0.933,0.147-1.833,0.353-2.696,0.613c-0.433,0.13-0.855,0.274-1.269,0.433c-4.549,1.734-7.958,5.11-9.69,9.716
					c-0.104,0.279-0.204,0.563-0.297,0.852c-0.115,0.359-0.217,0.729-0.313,1.101c-0.12,0.467-0.225,0.944-0.313,1.433
					c-0.016,0.084-0.032,0.167-0.046,0.252c-0.155,0.921-0.254,1.877-0.291,2.867c-0.118,3.084-0.152,6.172-0.15,9.261v0.012
					c0.003,4.129,0.073,8.261,0.103,12.391c0.008,1.025,0.014,2.052,0.015,3.079c2.974,0.087,5.947,0.21,8.921,0.331
					c2.948,0.12,5.897,0.238,8.847,0.319V336.12z"/>
				<path clip-path="url(#SVGID_10_)" fill="#FFFFFF" d="M797.341,479.774c-0.307-0.01-0.613-0.019-0.92-0.027
					c-0.802-0.029-1.604-0.059-2.405-0.089c0.802,0.03,1.604,0.06,2.405,0.089C796.728,479.756,797.034,479.765,797.341,479.774
					v-45.03c-2.662,0.094-5.019,0.477-7.07,1.165c-0.169,0.057-0.337,0.114-0.503,0.177c-6.812,2.511-10.139,8.531-10.263,18.458
					c-0.026,2.05-0.04,4.101-0.046,6.152c-0.006,2.059-0.005,4.116,0.001,6.176c0.009,4.096,0.032,8.192,0.034,12.288
					c4.599,0.105,9.197,0.322,13.796,0.498c0.802,0.03,1.604,0.06,2.404,0.089c0.44,0.014,0.881,0.026,1.32,0.04
					c0.109-0.004,0.218-0.007,0.326-0.011V479.774z"/>
				<path clip-path="url(#SVGID_10_)" fill="#515151" d="M797.015,479.787c0.108,0.003,0.218,0.007,0.326,0.01v-0.021
					C797.232,479.78,797.123,479.783,797.015,479.787"/>
				<path clip-path="url(#SVGID_10_)" fill="#515151" d="M797.341,240.083c-0.032,0.001-0.064,0.001-0.095,0.002
					c-0.08,0.003-0.152,0.013-0.231,0.016c0.112,0.004,0.216,0.017,0.326,0.022V240.083z"/>
				<path clip-path="url(#SVGID_10_)" fill="#FFFFFF" d="M795.801,240.235c0.497-0.054,1.02-0.079,1.54-0.106v-0.006
					c-0.11-0.005-0.214-0.018-0.326-0.023c-0.662,0.027-1.313,0.067-1.938,0.135c-0.7,0.076-1.377,0.179-2.03,0.307
					s-1.283,0.282-1.892,0.463c-1.515,0.45-2.886,1.062-4.109,1.836c-0.244,0.155-0.483,0.316-0.716,0.484
					c-0.467,0.335-0.908,0.696-1.327,1.084c-0.419,0.387-0.813,0.8-1.185,1.238c-0.742,0.877-1.391,1.858-1.943,2.941
					c-0.276,0.541-0.528,1.108-0.757,1.701c-0.113,0.297-0.222,0.599-0.324,0.909c-0.818,2.474-1.254,5.357-1.303,8.65
					c-0.112,7.69-0.087,15.382-0.125,23.074c2.463,0.012,4.926,0.026,7.388,0.04c3.528,0.02,7.059,0.04,10.588,0.059v-42.892
					C796.82,240.157,796.298,240.182,795.801,240.235"/>
				<path clip-path="url(#SVGID_10_)" fill="#FFFFFF" d="M797.341,327.641L797.341,327.641v-44.619
					c-3.529-0.02-7.059-0.039-10.588-0.06c-2.462-0.013-4.925-0.027-7.387-0.04c-14.123,0.022-28.245,0.043-42.366,0.066
					c-0.937,14.938-1.874,29.877-2.811,44.815C755.24,327.749,776.291,327.695,797.341,327.641"/>
				<path clip-path="url(#SVGID_10_)" fill="#FFFFFF" d="M797.341,428.118v-49.077v-0.001v-0.002
					c-2.949-0.081-5.898-0.199-8.847-0.319c-2.974-0.121-5.947-0.245-8.921-0.331c-16.148-0.07-32.296-0.141-48.443-0.21
					c-0.375,5.558-0.549,11.141-1.151,16.674l-0.891,14.39c-0.111,2.77-0.252,5.534-0.514,8.287l-0.702,11.344
					C751.027,428.617,774.185,428.312,797.341,428.118L797.341,428.118z"/>
				<path clip-path="url(#SVGID_10_)" fill="#E6EAEC" d="M788.494,378.718c2.948,0.121,5.896,0.239,8.847,0.32
					C794.391,378.957,791.442,378.839,788.494,378.718"/>
				<path clip-path="url(#SVGID_10_)" fill="#868D93" d="M779.491,259.849c0.048-3.293,0.483-6.177,1.302-8.65
					c0.103-0.31,0.211-0.613,0.324-0.91c0.228-0.592,0.48-1.16,0.757-1.701c0.553-1.083,1.201-2.063,1.943-2.94
					c0.371-0.439,0.766-0.852,1.185-1.238c0.419-0.388,0.861-0.749,1.327-1.084c0.232-0.168,0.472-0.33,0.716-0.484
					c1.224-0.774,2.594-1.387,4.11-1.837c0.606-0.18,1.237-0.335,1.891-0.463c0.653-0.128,1.33-0.23,2.03-0.306
					c0.626-0.069,1.276-0.109,1.938-0.135c-0.077-0.003-0.149-0.013-0.229-0.016c-0.056-0.002-0.114-0.001-0.169-0.003
					c-0.32-0.007-0.641-0.014-0.969-0.013c0.328-0.001,0.648,0.006,0.969,0.013c0.055,0.002,0.113,0.001,0.169,0.003
					c0.079,0.003,0.151,0.013,0.229,0.016c0.08-0.003,0.152-0.013,0.232-0.016c0.03-0.001,0.063-0.001,0.095-0.002v-0.001
					c-0.319-0.007-0.641-0.014-0.968-0.013c0.327-0.001,0.648,0.006,0.968,0.013v-7.908c-19.041,0.034-38.082,0.069-57.122,0.104
					c-0.152,1.393-0.291,2.788-0.433,4.182l-2.727,44.032c-0.019,0.832-0.046,1.663-0.06,2.496
					c14.121-0.023,28.243-0.044,42.366-0.066C779.403,275.231,779.378,267.538,779.491,259.849"/>
				<path clip-path="url(#SVGID_10_)" fill="#868D93" d="M797.414,232.173h-0.036C797.39,232.174,797.402,232.173,797.414,232.173
					L797.414,232.173z"/>
				<path clip-path="url(#SVGID_10_)" fill="#868D93" d="M779.491,259.849c0.048-3.293,0.483-6.177,1.302-8.65
					C779.975,253.672,779.539,256.556,779.491,259.849"/>
				<path clip-path="url(#SVGID_10_)" fill="#868D93" d="M779.494,479.16c-0.002-4.096-0.025-8.192-0.034-12.289
					c-0.006-2.059-0.007-4.116-0.001-6.174c0.006-2.053,0.02-4.104,0.046-6.154c0.124-9.926,3.451-15.946,10.263-18.458
					c0.166-0.062,0.334-0.119,0.503-0.176c2.052-0.688,4.408-1.071,7.07-1.165v-0.003v-6.622
					c-23.156,0.192-46.313,0.498-69.469,0.753l-2.938,47.472c0.026,0.922,0.063,1.845,0.116,2.77h0.048
					C743.229,479.128,761.361,479.145,779.494,479.16 M795.922,434.72c0.235,0.003,0.463,0.013,0.694,0.021
					C796.385,434.732,796.157,434.723,795.922,434.72c-1.426-0.02-2.765,0.061-4.02,0.233
					C793.157,434.78,794.496,434.7,795.922,434.72"/>
				<path clip-path="url(#SVGID_10_)" fill="#FFFFFF" d="M797.341,533.771h0.013h0.024H797.341V479.8v-0.003
					c-0.108-0.003-0.217-0.006-0.326-0.009c-0.133,0.004-0.266,0.007-0.398,0.012c0.133-0.005,0.266-0.008,0.398-0.012
					c-0.439-0.015-0.88-0.027-1.32-0.041c-0.801-0.029-1.603-0.059-2.404-0.089c-4.599-0.176-9.197-0.392-13.796-0.498
					c-18.133-0.016-36.265-0.032-54.396-0.048h-0.048c-1.229,18.292-2.457,36.585-3.687,54.877
					C746.689,533.918,772.016,533.844,797.341,533.771"/>
				<path clip-path="url(#SVGID_10_)" fill="#E6EAEC" d="M793.29,479.658c-4.599-0.176-9.197-0.393-13.796-0.498
					C784.093,479.267,788.691,479.482,793.29,479.658"/>
				<path clip-path="url(#SVGID_10_)" fill="#868D93" d="M797.378,88.373h0.036V48.102c-0.012,0-0.024-0.002-0.036-0.002
					c-0.013,0-0.024,0.002-0.037,0.002v40.271H797.378z"/>
				<path clip-path="url(#SVGID_10_)" fill="#868D93" d="M797.378,88.373h-0.037H797.378z"/>
				<path clip-path="url(#SVGID_10_)" fill="#868D93" d="M853.265,132.92l-0.03,10.311l0.087,0.03
					c-0.025-6.737-0.053-13.474-0.085-20.21L853.265,132.92z"/>
				<path clip-path="url(#SVGID_10_)" fill="#868D93" d="M899.453,545.941c-0.176-12.966,1.997-11.439-12.057-11.628
					c-4.669-0.062-9.338-0.214-14.006-0.324c-25.324-0.071-50.65-0.146-75.977-0.218v14.972c-0.013,0.001-0.024,0.004-0.036,0.004
					c10.752,0.508,17.496,7.138,17.815,18.042c0.258,8.786,0.281,17.59,0.053,26.376c-0.13,5.041,1.943,6.753,6.826,6.721
					c23.63-0.156,47.262-0.189,70.893-0.064c5.064,0.027,6.936-2.045,6.581-6.901c-0.179-2.451,0.115-4.936,0.196-7.399
					C899.652,572.332,899.631,559.135,899.453,545.941"/>
				<polygon clip-path="url(#SVGID_10_)" fill="#868D93" points="797.341,533.771 797.341,533.771 797.378,533.771 797.354,533.771 
									"/>
				<path clip-path="url(#SVGID_10_)" fill="#868D93" d="M797.414,533.771h-0.036h-0.037v14.972
					c0.013,0.001,0.024,0.004,0.037,0.004s0.023-0.003,0.036-0.004V533.771z"/>
				<polygon clip-path="url(#SVGID_10_)" fill="#868D93" points="797.341,533.771 797.341,533.771 797.354,533.771 				"/>
				<polygon clip-path="url(#SVGID_10_)" fill="#FFE36C" points="797.414,88.373 797.414,88.373 797.378,88.373 				"/>
				<path clip-path="url(#SVGID_10_)" fill="#FFE36C" d="M828.805,94.42c0.033-4.59-1.67-6.297-6.292-6.24
					c-8.365,0.102-16.731,0.172-25.099,0.193h-0.036h-0.037c-8.366-0.021-16.732-0.091-25.1-0.193
					c-4.622-0.057-6.324,1.65-6.29,6.24c0.139,19.519,0.176,39.04-0.012,58.558c-0.022,2.302,0.409,3.828,1.302,4.809
					c1.14,1.253,3.03,1.62,5.691,1.583c8.136-0.116,16.272-0.188,24.408-0.213c0.012,0,0.024-0.001,0.037-0.001
					c0.012,0,0.024,0.001,0.036,0.001c8.137,0.025,16.273,0.097,24.408,0.213c2.662,0.037,4.553-0.33,5.691-1.583
					c0.893-0.981,1.324-2.507,1.303-4.809C828.628,133.46,828.666,113.939,828.805,94.42"/>
				<path clip-path="url(#SVGID_10_)" fill="#FFFFFF" d="M806.262,378.718c2.974-0.121,5.947-0.244,8.921-0.331
					c0.001-1.025,0.007-2.053,0.015-3.079c0.03-4.13,0.1-8.261,0.102-12.39v-0.012c0.003-3.088-0.033-6.177-0.149-9.261
					c-0.038-0.989-0.137-1.946-0.292-2.866c-0.014-0.085-0.031-0.168-0.045-0.252c-0.088-0.489-0.192-0.967-0.313-1.435
					c-0.096-0.372-0.198-0.74-0.313-1.1c-0.092-0.288-0.191-0.572-0.297-0.852c-1.89-5.024-5.774-8.586-10.958-10.148
					c-0.864-0.261-1.764-0.465-2.696-0.613c-0.911-0.143-1.853-0.229-2.821-0.26v42.918
					C800.364,378.957,803.313,378.839,806.262,378.718"/>
				<path clip-path="url(#SVGID_10_)" fill="#FFFFFF" d="M797.378,379.039c0.012,0,0.024-0.001,0.036-0.001V336.12
					c-0.014-0.001-0.024-0.002-0.036-0.003c-0.013,0.001-0.024,0.002-0.037,0.003v42.918
					C797.353,379.038,797.365,379.039,797.378,379.039"/>
				<path clip-path="url(#SVGID_10_)" fill="#515151" d="M797.341,379.038v0.002c0.012,0,0.022,0,0.035-0.001
					C797.363,379.039,797.353,379.038,797.341,379.038"/>
				<path clip-path="url(#SVGID_10_)" fill="#515151" d="M797.378,379.039c-0.013,0-0.025-0.001-0.037-0.001
					c0.012,0,0.023,0.001,0.035,0.001H797.378z"/>
				<path clip-path="url(#SVGID_10_)" fill="#515151" d="M797.341,336.115v0.005c0.013-0.001,0.024-0.002,0.037-0.003
					C797.365,336.117,797.354,336.115,797.341,336.115"/>
				<path clip-path="url(#SVGID_10_)" fill="#FFFFFF" d="M798.335,479.746c0.802-0.028,1.604-0.058,2.405-0.088
					C799.939,479.688,799.137,479.718,798.335,479.746c-0.307,0.01-0.613,0.02-0.921,0.028v0.002
					c0.109,0.004,0.218,0.007,0.326,0.011c0.44-0.014,0.88-0.026,1.32-0.041c0.802-0.028,1.604-0.058,2.405-0.088
					c4.599-0.176,9.197-0.392,13.796-0.498c0.002-4.096,0.024-8.192,0.034-12.289c0.005-2.059,0.007-4.116,0.001-6.175
					c-0.007-2.052-0.021-4.103-0.046-6.153c-0.125-9.926-3.451-15.945-10.264-18.458c-0.165-0.062-0.333-0.119-0.503-0.176
					c-2.052-0.688-4.407-1.071-7.07-1.165v45.03C797.722,479.766,798.028,479.756,798.335,479.746"/>
				<path clip-path="url(#SVGID_10_)" fill="#515151" d="M797.414,479.797c0.109-0.003,0.218-0.007,0.326-0.01
					c-0.108-0.004-0.217-0.007-0.326-0.011V479.797z"/>
				<path clip-path="url(#SVGID_10_)" fill="#515151" d="M797.414,479.797v-0.021c-0.012,0-0.024,0-0.036,0
					c-0.013,0-0.025,0-0.037,0v0.021c0.012,0.001,0.024,0.001,0.037,0.001C797.39,479.798,797.402,479.798,797.414,479.797"/>
				<path clip-path="url(#SVGID_10_)" fill="#515151" d="M797.341,479.776c0.012,0,0.024,0,0.037-0.001
					c-0.013,0-0.024-0.001-0.037-0.001V479.776z"/>
				<path clip-path="url(#SVGID_10_)" fill="#515151" d="M797.378,479.775c0.012,0.001,0.024,0.001,0.036,0.001v-0.002
					C797.402,479.774,797.39,479.775,797.378,479.775"/>
				<path clip-path="url(#SVGID_10_)" fill="#FFFFFF" d="M797.378,479.775c0.012,0,0.024-0.001,0.036-0.001v-45.03
					c-0.014,0-0.023-0.001-0.036-0.002c-0.013,0.001-0.024,0.002-0.037,0.002v45.03
					C797.354,479.774,797.365,479.775,797.378,479.775"/>
				<path clip-path="url(#SVGID_10_)" fill="#515151" d="M797.341,434.74v0.004c0.013,0,0.024-0.001,0.037-0.002
					C797.365,434.742,797.354,434.74,797.341,434.74"/>
				<path clip-path="url(#SVGID_10_)" fill="#515151" d="M797.341,479.797v0.003c0.013-0.001,0.024-0.001,0.037-0.002
					C797.365,479.798,797.353,479.798,797.341,479.797"/>
				<path clip-path="url(#SVGID_10_)" fill="#FFFFFF" d="M797.414,240.129c0.521,0.027,1.043,0.053,1.54,0.106
					C798.457,240.182,797.936,240.156,797.414,240.129v42.893c3.529-0.02,7.059-0.039,10.588-0.06
					c2.463-0.014,4.925-0.027,7.388-0.04c-0.037-7.691-0.013-15.384-0.125-23.073c-0.049-3.293-0.483-6.177-1.303-8.651
					c-0.102-0.309-0.21-0.612-0.324-0.909c-0.229-0.593-0.48-1.16-0.757-1.701c-0.553-1.083-1.2-2.063-1.942-2.94
					c-0.372-0.439-0.767-0.852-1.185-1.239c-0.419-0.387-0.861-0.749-1.327-1.084c-0.232-0.168-0.472-0.329-0.717-0.483
					c-1.223-0.775-2.594-1.387-4.11-1.837c-0.606-0.181-1.236-0.335-1.891-0.463c-0.652-0.128-1.329-0.23-2.029-0.307
					c-0.626-0.068-1.276-0.108-1.939-0.134c-0.111,0.005-0.216,0.017-0.326,0.022V240.129z"/>
				<path clip-path="url(#SVGID_10_)" fill="#515151" d="M797.74,240.101c-0.078-0.003-0.15-0.013-0.23-0.016
					c-0.031-0.001-0.063-0.001-0.096-0.002v0.04C797.524,240.119,797.629,240.105,797.74,240.101"/>
				<path clip-path="url(#SVGID_10_)" fill="#515151" d="M797.341,240.129c0.013-0.001,0.024-0.002,0.037-0.003
					c-0.013-0.001-0.024-0.002-0.037-0.003V240.129z"/>
				<path clip-path="url(#SVGID_10_)" fill="#FFFFFF" d="M797.414,283.021v-42.893c-0.013-0.001-0.024-0.002-0.036-0.003
					c-0.013,0.001-0.024,0.002-0.037,0.003v42.893h0.037H797.414z"/>
				<path clip-path="url(#SVGID_10_)" fill="#515151" d="M797.378,240.126c0.012-0.001,0.022-0.002,0.036-0.003v-0.04h-0.036h-0.037
					v0.04C797.354,240.124,797.365,240.125,797.378,240.126"/>
				<path clip-path="url(#SVGID_10_)" fill="#515151" d="M797.378,240.126c0.012,0.001,0.022,0.002,0.036,0.003v-0.006
					C797.4,240.124,797.39,240.125,797.378,240.126"/>
				<polygon clip-path="url(#SVGID_10_)" fill="#515151" points="797.341,283.021 797.341,283.021 797.378,283.021 				"/>
				<path clip-path="url(#SVGID_10_)" fill="#515151" d="M797.341,240.082L797.341,240.082l0.037,0.001
					C797.365,240.083,797.353,240.083,797.341,240.082"/>
				<path clip-path="url(#SVGID_10_)" fill="#FFFFFF" d="M808.002,282.962c-3.529,0.021-7.059,0.04-10.588,0.06v44.619
					c21.051,0.054,42.102,0.108,63.151,0.162h0.001c-0.938-14.938-1.874-29.877-2.811-44.815
					c-14.122-0.022-28.244-0.044-42.366-0.065C812.927,282.935,810.465,282.948,808.002,282.962"/>
				<polygon clip-path="url(#SVGID_10_)" fill="#FFFFFF" points="797.414,283.021 797.414,283.021 797.378,283.021 				"/>
				<polygon clip-path="url(#SVGID_10_)" fill="#FFFFFF" points="797.414,327.641 797.414,283.022 797.378,283.022 797.341,283.022 
					797.341,327.641 797.378,327.641 				"/>
				<polygon clip-path="url(#SVGID_10_)" fill="#FFFFFF" points="797.414,327.641 797.414,327.641 797.378,327.641 				"/>
				<path clip-path="url(#SVGID_10_)" fill="#FFFFFF" d="M797.378,327.641h0.036H797.378z"/>
				<path clip-path="url(#SVGID_10_)" fill="#FFFFFF" d="M806.262,378.718c-2.949,0.121-5.897,0.239-8.848,0.32v0.002v0.001v49.077
					v0.001c23.157,0.192,46.313,0.498,69.469,0.753l-0.702-11.343c-0.262-2.753-0.402-5.52-0.513-8.288l-0.892-14.39
					c-0.602-5.532-0.775-11.115-1.15-16.675c-16.148,0.07-32.296,0.142-48.443,0.21
					C812.209,378.474,809.235,378.597,806.262,378.718"/>
				<path clip-path="url(#SVGID_10_)" fill="#FFFFFF" d="M797.414,379.04v-0.002c-0.011,0-0.021,0.001-0.035,0.001
					C797.393,379.04,797.403,379.04,797.414,379.04"/>
				<path clip-path="url(#SVGID_10_)" fill="#FFFFFF" d="M797.414,428.118v-49.077c-0.012-0.001-0.024-0.001-0.036-0.002
					c-0.013,0.001-0.024,0.001-0.037,0.002v49.077c0.013,0,0.024,0.001,0.037,0.001C797.39,428.119,797.402,428.118,797.414,428.118
					"/>
				<path clip-path="url(#SVGID_10_)" fill="#FFFFFF" d="M797.378,379.039c0.012,0.001,0.024,0.001,0.036,0.002v-0.001
					C797.403,379.04,797.392,379.04,797.378,379.039L797.378,379.039z"/>
				<path clip-path="url(#SVGID_10_)" fill="#FFFFFF" d="M797.414,428.119L797.414,428.119c-0.012-0.001-0.024,0-0.036,0H797.414z"
					/>
				<path clip-path="url(#SVGID_10_)" fill="#E6EAEC" d="M797.414,379.038c2.95-0.081,5.898-0.199,8.848-0.32
					C803.313,378.839,800.364,378.957,797.414,379.038"/>
				<path clip-path="url(#SVGID_10_)" fill="#E6EAEC" d="M797.378,379.039L797.378,379.039c0.014,0,0.025-0.001,0.036-0.001
					C797.402,379.038,797.39,379.039,797.378,379.039"/>
				<path clip-path="url(#SVGID_10_)" fill="#E6EAEC" d="M797.376,379.039c-0.012,0.001-0.023,0.001-0.035,0.001v0.001
					c0.013-0.001,0.024-0.001,0.037-0.002H797.376z"/>
				<rect x="797.377" y="379.038" clip-path="url(#SVGID_10_)" fill="#E6EAEC" width="0.002" height="0.002"/>
				<path clip-path="url(#SVGID_10_)" fill="#868D93" d="M797.414,336.12v-0.005c-0.013,0-0.024,0.002-0.036,0.002
					C797.39,336.118,797.401,336.119,797.414,336.12"/>
				<polygon clip-path="url(#SVGID_10_)" fill="#868D93" points="797.341,327.641 797.341,327.641 797.378,327.641 				"/>
				<path clip-path="url(#SVGID_10_)" fill="#868D93" d="M797.414,336.115v-8.475h-0.036h-0.037v8.475
					c0.013,0,0.024,0.002,0.037,0.002C797.39,336.117,797.401,336.115,797.414,336.115"/>
				<path clip-path="url(#SVGID_10_)" fill="#868D93" d="M797.378,327.641h-0.037H797.378z"/>
				<path clip-path="url(#SVGID_10_)" fill="#868D93" d="M734.189,327.803c-0.059,0.599-0.112,1.195-0.17,1.793l-2.83,45.712
					c-0.02,0.956-0.047,1.912-0.06,2.869c16.147,0.07,32.295,0.142,48.443,0.21c-0.001-1.025-0.007-2.053-0.015-3.079
					c-0.03-4.13-0.1-8.261-0.103-12.39v-0.011c-0.002-3.089,0.033-6.178,0.15-9.262c0.037-0.989,0.136-1.946,0.291-2.866
					c0.014-0.085,0.03-0.168,0.046-0.252c0.088-0.489,0.192-0.967,0.313-1.435c0.096-0.372,0.197-0.74,0.313-1.1
					c0.093-0.288,0.192-0.572,0.297-0.852c1.732-4.605,5.142-7.981,9.69-9.717c0.413-0.157,0.836-0.302,1.269-0.432
					c0.863-0.261,1.764-0.465,2.696-0.613c0.909-0.143,1.852-0.229,2.82-0.26v-0.004v-8.476
					C776.291,327.695,755.24,327.749,734.189,327.803"/>
				<path clip-path="url(#SVGID_10_)" fill="#868D93" d="M815.197,375.308c-0.008,1.026-0.014,2.053-0.015,3.079
					c16.147-0.069,32.295-0.14,48.443-0.21c-0.014-0.957-0.04-1.913-0.06-2.869l-2.83-45.712c-0.058-0.598-0.111-1.195-0.171-1.793
					c-21.05-0.054-42.101-0.107-63.151-0.162v8.476v0.004c0.969,0.03,1.911,0.116,2.821,0.26c0.933,0.147,1.832,0.353,2.696,0.614
					c5.184,1.562,9.069,5.124,10.958,10.147c0.105,0.279,0.205,0.563,0.297,0.853c0.114,0.358,0.218,0.727,0.313,1.099
					c0.12,0.468,0.225,0.945,0.313,1.434c0.015,0.084,0.031,0.167,0.045,0.253c0.155,0.921,0.254,1.877,0.292,2.866
					c0.116,3.084,0.151,6.172,0.149,9.262v0.011C815.297,367.047,815.228,371.178,815.197,375.308"/>
				<path clip-path="url(#SVGID_10_)" fill="#868D93" d="M797.378,327.641h-0.037H797.378z"/>
				<path clip-path="url(#SVGID_10_)" fill="#868D93" d="M797.378,327.641h0.036H797.378z"/>
				<path clip-path="url(#SVGID_10_)" fill="#868D93" d="M797.378,327.641"/>
				<path clip-path="url(#SVGID_10_)" fill="#868D93" d="M798.383,240.068c-0.328-0.001-0.649,0.006-0.969,0.014v0.001
					c0.031,0.001,0.064,0.001,0.096,0.002c0.08,0.003,0.152,0.012,0.23,0.015c0.079-0.003,0.151-0.012,0.23-0.015
					c0.056-0.002,0.113-0.001,0.169-0.003c0.319-0.008,0.64-0.015,0.968-0.014c-0.328-0.001-0.648,0.006-0.968,0.014
					c-0.056,0.002-0.113,0.001-0.169,0.003c-0.079,0.003-0.151,0.012-0.23,0.015c0.664,0.027,1.313,0.067,1.939,0.135
					c0.7,0.076,1.377,0.179,2.029,0.307c0.654,0.128,1.284,0.282,1.891,0.463c1.517,0.45,2.887,1.062,4.11,1.836
					c0.245,0.155,0.484,0.316,0.717,0.484c0.466,0.335,0.908,0.696,1.327,1.084c0.418,0.387,0.813,0.8,1.185,1.238
					c0.742,0.877,1.39,1.858,1.942,2.941c0.276,0.541,0.528,1.108,0.757,1.701c0.114,0.297,0.223,0.599,0.324,0.909
					c0.819,2.474,1.254,5.357,1.303,8.65c0.112,7.69,0.088,15.382,0.125,23.074c14.122,0.021,28.244,0.042,42.366,0.065
					c-0.016-0.833-0.041-1.664-0.061-2.496l-2.726-44.031c-0.143-1.395-0.281-2.789-0.433-4.183
					c-19.041-0.035-38.082-0.069-57.123-0.104v7.909C797.733,240.075,798.055,240.067,798.383,240.068"/>
				<path clip-path="url(#SVGID_10_)" fill="#868D93" d="M797.341,232.173L797.341,232.173c0.013,0,0.024,0.001,0.037,0H797.341z"/>
				<path clip-path="url(#SVGID_10_)" fill="#868D93" d="M797.414,240.082c-0.012,0.001-0.024,0.001-0.036,0.001L797.414,240.082
					L797.414,240.082z"/>
				<path clip-path="url(#SVGID_10_)" fill="#868D93" d="M797.378,240.083c0.012,0,0.024,0,0.036-0.001v-7.908
					c-0.012-0.001-0.024,0-0.036-0.001c-0.013,0.001-0.024,0-0.037,0.001v7.908C797.353,240.083,797.365,240.083,797.378,240.083"/>
				<path clip-path="url(#SVGID_10_)" fill="#868D93" d="M813.962,251.198c0.819,2.474,1.254,5.357,1.303,8.65
					C815.216,256.556,814.781,253.672,813.962,251.198"/>
				<path clip-path="url(#SVGID_10_)" fill="#868D93" d="M797.414,434.74v0.004c2.663,0.094,5.019,0.478,7.07,1.165
					c0.17,0.058,0.338,0.114,0.503,0.176c6.813,2.513,10.138,8.532,10.263,18.458c0.026,2.052,0.04,4.102,0.047,6.153
					c0.006,2.059,0.004,4.116-0.001,6.175c-0.01,4.098-0.032,8.193-0.034,12.289c18.132-0.016,36.264-0.032,54.396-0.048h0.047
					c0.055-0.924,0.091-1.846,0.117-2.768l-2.939-47.473c-23.156-0.255-46.312-0.561-69.469-0.753V434.74z M802.854,434.953
					c-1.257-0.174-2.595-0.253-4.021-0.232c-0.234,0.003-0.463,0.012-0.693,0.02c0.23-0.008,0.459-0.017,0.693-0.02
					C800.26,434.7,801.598,434.779,802.854,434.953"/>
				<path clip-path="url(#SVGID_10_)" fill="#868D93" d="M797.414,434.744v-0.004c-0.013,0-0.023,0.002-0.036,0.002
					C797.391,434.743,797.401,434.744,797.414,434.744"/>
				<path clip-path="url(#SVGID_10_)" fill="#868D93" d="M797.341,428.118L797.341,428.118l0.037,0.001
					C797.365,428.119,797.354,428.118,797.341,428.118"/>
				<path clip-path="url(#SVGID_10_)" fill="#868D93" d="M797.414,434.74v-6.621h-0.036h-0.037v6.621
					c0.013,0,0.024,0.002,0.037,0.002S797.401,434.74,797.414,434.74"/>
				<path clip-path="url(#SVGID_10_)" fill="#FFFFFF" d="M815.262,479.16c-4.599,0.106-9.197,0.322-13.796,0.498
					c-0.802,0.03-1.604,0.061-2.405,0.088c-0.44,0.016-0.88,0.027-1.32,0.041c0.133,0.004,0.267,0.008,0.399,0.014
					c-0.133-0.006-0.267-0.01-0.399-0.014c-0.108,0.003-0.217,0.007-0.326,0.01v0.004v53.971h-0.036h0.024h0.012
					c25.326,0.073,50.652,0.146,75.978,0.218c-1.229-18.292-2.458-36.585-3.687-54.877h-0.047
					C851.525,479.128,833.394,479.145,815.262,479.16"/>
				<path clip-path="url(#SVGID_10_)" fill="#FFFFFF" d="M797.414,533.771h-0.012H797.414z"/>
				<path clip-path="url(#SVGID_10_)" fill="#FFFFFF" d="M797.414,479.8v-0.003c-0.012,0.001-0.024,0.001-0.036,0.001
					C797.39,479.799,797.402,479.799,797.414,479.8"/>
				<path clip-path="url(#SVGID_10_)" fill="#FFFFFF" d="M797.414,479.8c-0.012-0.001-0.024-0.001-0.036-0.002
					c-0.013,0.001-0.024,0.001-0.037,0.002v53.973h0.037h0.036V479.8z"/>
				<path clip-path="url(#SVGID_10_)" fill="#E6EAEC" d="M815.262,479.16c-4.599,0.105-9.197,0.322-13.796,0.498
					C806.064,479.482,810.663,479.267,815.262,479.16"/>
				<path clip-path="url(#SVGID_10_)" fill="#868D93" d="M856.157,157.787h-2.664V90.911h12.69l-68.77-47.326v4.517v36.29v3.981
					c8.367-0.022,16.733-0.091,25.098-0.193c4.623-0.057,6.326,1.65,6.293,6.24c-0.139,19.518-0.177,39.04,0.012,58.557
					c0.021,2.303-0.41,3.829-1.303,4.81h-60.271c-0.894-0.981-1.325-2.507-1.303-4.81c0.188-19.517,0.15-39.039,0.011-58.557
					c-0.033-4.59,1.67-6.297,6.292-6.24c8.366,0.102,16.732,0.171,25.099,0.193v-3.981v-36.29v-4.517l-68.769,47.326h12.689v66.876
					h-2.663c-3.791,0-6.863,3.072-6.863,6.862v31.231c0,3.79,3.072,6.862,6.863,6.862h117.559c3.79,0,6.862-3.072,6.862-6.862
					v-31.231C863.02,160.859,859.947,157.787,856.157,157.787"/>
			</g>
		</g>
		<g opacity="0.75" clip-path="url(#SVGID_6_)">
			<g>
				<defs>
					<rect id="SVGID_14_" x="201.363" y="212.272" width="382.306" height="332.877"/>
				</defs>
				<clipPath id="SVGID_15_">
					<use xlink:href="#SVGID_14_"  overflow="visible"/>
				</clipPath>
				<path clip-path="url(#SVGID_15_)" fill="#F4C914" d="M583.348,326.427c4.526-48.386-39.305-92.055-97.897-97.535
					c-58.594-5.482-109.762,29.301-114.289,77.686c-1.797,19.212,4.036,37.677,15.382,53.307c3.517,6.699,6.712,13.089,9.624,19.184
					l0.001-0.001c0,0,0.01,0.021,0.015,0.033c1.119,2.342,2.199,4.641,3.234,6.893c9.911,20.596,40.502,80.186,63.633,82.35
					c23.12,2.163,64.205-50.669,77.783-69.093c1.447-2.038,2.947-4.116,4.495-6.227l0.002-0.004
					c3.992-5.446,8.317-11.133,13.015-17.064C572.395,362.702,581.551,345.639,583.348,326.427"/>
				<path clip-path="url(#SVGID_15_)" fill="#E28130" d="M429.279,478.82c9.909,7.441,31.983,8.637,31.983,8.637
					s21.914,2.921,33.031-2.555c2.489-1.227,4.306-3.494,4.945-6.193c2.003-8.461,10.31-35.398,41.596-79.458
					c-13.578,18.424-54.663,71.256-77.784,69.092c-23.13-2.164-53.721-61.753-63.632-82.35
					c22.585,49.117,25.752,77.139,26.15,85.823C425.695,474.59,427.062,477.154,429.279,478.82"/>
				<path clip-path="url(#SVGID_15_)" fill="#FFFFFF" d="M564.533,326.023c-3.39,0.633-6.65-1.602-7.282-4.992
					c-7.103-38.062-39.013-66.358-77.599-68.811c-3.441-0.218-6.054-3.185-5.835-6.627c0.219-3.442,3.185-6.056,6.627-5.835
					c44.298,2.816,80.929,35.295,89.081,78.982C570.158,322.131,567.923,325.392,564.533,326.023"/>
				<path clip-path="url(#SVGID_15_)" fill="#868D93" d="M499.438,480.796l-74.454-6.965l-3.319,35.486
					c-0.542,5.793,0.577,11.623,3.224,16.805c5.005,9.797,14.673,16.353,25.626,17.377l10.915,1.022
					c10.953,1.023,21.669-3.625,28.404-12.324c3.563-4.602,5.743-10.122,6.285-15.916L499.438,480.796z"/>
				<path clip-path="url(#SVGID_15_)" fill="#868D93" d="M422.74,497.76c0.213,0.027,0.428,0.04,0.647,0.037l75.175-0.753
					c2.567-0.025,4.555-2.144,4.442-4.731c-0.113-2.587-2.29-4.665-4.852-4.637l-75.177,0.754c-2.565,0.025-4.554,2.144-4.44,4.73
					C418.637,495.527,420.465,497.467,422.74,497.76"/>
				<path clip-path="url(#SVGID_15_)" fill="#868D93" d="M421.222,514c0.212,0.027,0.428,0.04,0.646,0.038l75.176-0.754
					c2.567-0.024,4.554-2.143,4.441-4.729c-0.113-2.588-2.291-4.662-4.853-4.638l-75.177,0.753c-2.564,0.025-4.554,2.144-4.44,4.73
					C417.118,511.769,418.947,513.707,421.222,514"/>
				<path clip-path="url(#SVGID_15_)" fill="#868D93" d="M422.691,530.354c0.212,0.027,0.428,0.04,0.646,0.038l71.257-0.715
					c2.567-0.025,4.554-2.143,4.442-4.731c-0.115-2.587-2.293-4.666-4.853-4.637l-71.257,0.715
					c-2.566,0.025-4.554,2.144-4.441,4.731C418.588,528.122,420.417,530.061,422.691,530.354"/>
				<path clip-path="url(#SVGID_15_)" fill="#FFE36C" d="M201.363,329.754c0-64.884,52.599-117.482,117.482-117.482
					c64.884,0,117.482,52.598,117.482,117.482c0,25.863-8.364,49.771-22.527,69.176h0.001c-16.77,25.27-60.342,53.801-60.342,70.894
					v19.528c0,3.897-3.16,7.057-7.059,7.057h-18.88h-17.35h-18.88c-3.898,0-7.058-3.159-7.058-7.057v-19.528
					c0-17.093-43.573-45.624-60.343-70.894C209.728,379.524,201.363,355.617,201.363,329.754"/>
				<path clip-path="url(#SVGID_15_)" fill="#FFFFFF" d="M416.769,336.494c-3.723,0-6.741-3.018-6.741-6.74
					c0-41.804-28.263-78.155-68.729-88.398c-3.608-0.914-5.794-4.58-4.88-8.189c0.914-3.61,4.579-5.797,8.189-4.88
					c46.456,11.761,78.901,53.486,78.901,101.468C423.509,333.477,420.491,336.494,416.769,336.494"/>
				<path clip-path="url(#SVGID_15_)" fill="#FFE36C" d="M436.102,336.7c-6.484,48.172-45.377,98.044-117.256,98.044
					S209.525,382.539,201.59,336.7c1.355,23.189,9.416,44.574,22.3,62.229c16.77,25.27,60.343,53.8,60.343,70.894v19.527
					c0,3.898,3.16,7.058,7.057,7.058h18.88h17.351h18.88c3.898,0,7.058-3.159,7.058-7.058v-19.527
					c0-17.094,43.573-45.624,60.343-70.894h-0.001C426.685,381.274,434.748,359.89,436.102,336.7"/>
				<path clip-path="url(#SVGID_15_)" fill="#868D93" d="M356.234,478.161h-74.778v35.641c0,5.819,1.656,11.519,4.775,16.432
					c5.896,9.288,16.132,14.915,27.133,14.915h10.963c11.001,0,21.237-5.627,27.133-14.915c3.118-4.913,4.774-10.612,4.774-16.432
					V478.161z"/>
				<path clip-path="url(#SVGID_15_)" fill="#868D93" d="M281.45,502.194c0.214,0.008,0.429,0,0.647-0.021l74.779-7.752
					c2.553-0.266,4.335-2.56,3.981-5.124c-0.353-2.566-2.715-4.433-5.262-4.165l-74.781,7.751c-2.552,0.265-4.335,2.559-3.98,5.125
					C277.157,500.354,279.157,502.114,281.45,502.194"/>
				<path clip-path="url(#SVGID_15_)" fill="#868D93" d="M281.45,518.506c0.214,0.008,0.429,0,0.647-0.021l74.779-7.752
					c2.553-0.265,4.335-2.56,3.981-5.124c-0.353-2.566-2.715-4.429-5.262-4.165l-74.781,7.751c-2.552,0.265-4.335,2.559-3.98,5.125
					C277.157,516.665,279.157,518.426,281.45,518.506"/>
				<path clip-path="url(#SVGID_15_)" fill="#868D93" d="M284.437,534.651c0.214,0.008,0.43,0,0.647-0.021l70.88-7.35
					c2.553-0.265,4.335-2.558,3.982-5.124c-0.354-2.564-2.718-4.432-5.263-4.165l-70.881,7.349
					c-2.553,0.265-4.336,2.559-3.981,5.125C280.144,532.811,282.144,534.571,284.437,534.651"/>
				<path clip-path="url(#SVGID_15_)" fill="#FFFFFF" d="M398.81,386.492L398.81,386.492c0.007,0.012,0.013,0.021,0.019,0.032
					C398.822,386.514,398.81,386.492,398.81,386.492"/>
				<path clip-path="url(#SVGID_15_)" fill="#FFFFFF" d="M548.622,386.496c0.001-0.001,0.001-0.003,0.002-0.004L548.622,386.496z"/>
			</g>
		</g>
		<path clip-path="url(#SVGID_6_)" fill="#E59A2E" d="M526.84,439.034c4.073-43.548-35.374-82.849-88.107-87.782
			c-52.735-4.933-98.787,26.371-102.86,69.918c-1.618,17.291,3.632,33.91,13.844,47.976c3.164,6.031,6.04,11.782,8.661,17.266
			l0.001-0.002c0,0,0.009,0.021,0.014,0.031c1.007,2.106,1.978,4.177,2.91,6.203c8.921,18.537,36.452,72.168,57.27,74.116
			c20.808,1.945,57.785-45.604,70.005-62.186c1.302-1.834,2.653-3.703,4.045-5.603l0.002-0.003
			c3.593-4.903,7.485-10.021,11.713-15.359C516.981,471.682,525.223,456.325,526.84,439.034"/>
		<path clip-path="url(#SVGID_6_)" fill="#E28130" d="M388.179,576.188c8.918,6.697,28.785,7.772,28.785,7.772
			s19.722,2.628,29.727-2.298c2.24-1.104,3.876-3.146,4.451-5.576c1.802-7.613,9.278-31.857,37.436-71.513
			c-12.22,16.582-49.197,64.132-70.004,62.185c-20.819-1.947-48.35-55.579-57.271-74.115c20.326,44.206,23.178,69.424,23.536,77.241
			C384.953,572.38,386.182,574.688,388.179,576.188"/>
		<path clip-path="url(#SVGID_6_)" fill="#FFFFFF" d="M509.907,438.672c-3.051,0.568-5.985-1.441-6.555-4.493
			c-6.393-34.256-35.111-59.724-69.838-61.93c-3.097-0.197-5.449-2.867-5.252-5.965c0.198-3.097,2.867-5.451,5.964-5.251
			c39.868,2.534,72.836,31.765,80.173,71.084C514.969,435.168,512.957,438.104,509.907,438.672"/>
		<path clip-path="url(#SVGID_6_)" fill="#868D93" d="M451.322,577.967l-67.009-6.269l-2.987,31.937
			c-0.488,5.215,0.518,10.461,2.901,15.125c4.504,8.817,13.206,14.718,23.064,15.641l9.823,0.919
			c9.858,0.921,19.503-3.263,25.564-11.092c3.207-4.142,5.168-9.11,5.657-14.323L451.322,577.967z"/>
		<path clip-path="url(#SVGID_6_)" fill="#868D93" d="M382.294,593.233c0.19,0.024,0.385,0.036,0.582,0.034l67.657-0.679
			c2.311-0.022,4.1-1.929,3.998-4.258c-0.102-2.327-2.061-4.198-4.367-4.173l-67.659,0.679c-2.309,0.022-4.099,1.929-3.996,4.258
			C378.601,591.224,380.246,592.97,382.294,593.233"/>
		<path clip-path="url(#SVGID_6_)" fill="#868D93" d="M380.926,607.851c0.191,0.024,0.386,0.035,0.583,0.033l67.657-0.678
			c2.31-0.022,4.1-1.93,3.997-4.258c-0.101-2.327-2.061-4.195-4.366-4.173l-67.659,0.679c-2.309,0.021-4.1,1.928-3.997,4.257
			C377.234,605.841,378.879,607.586,380.926,607.851"/>
		<path clip-path="url(#SVGID_6_)" fill="#868D93" d="M382.249,622.568c0.191,0.024,0.385,0.036,0.582,0.034l64.131-0.643
			c2.309-0.024,4.099-1.93,3.997-4.259c-0.102-2.328-2.064-4.198-4.367-4.173l-64.131,0.644c-2.31,0.022-4.1,1.928-3.997,4.257
			C378.557,620.559,380.201,622.305,382.249,622.568"/>
		<path clip-path="url(#SVGID_6_)" fill="#FFE36C" d="M575.39,446.502c-47.165-117.455-82.683-106.425-82.683-106.425
			s-35.518,11.029-7.853,134.54c0,0,17.924,68.724,47.212,105.895c2.898,3.679,7.762,5.189,12.235,3.802l22.119-6.87l22.119-6.869
			c4.473-1.388,7.625-5.389,7.93-10.063C599.549,513.289,575.39,446.502,575.39,446.502"/>
		<path clip-path="url(#SVGID_6_)" fill="#868D93" d="M597.756,564.888l-64.271,19.96l9.512,30.633
			c1.553,5.002,4.498,9.458,8.49,12.849c7.546,6.411,17.847,8.514,27.302,5.579l9.423-2.928c9.455-2.937,16.752-10.505,19.34-20.062
			c1.369-5.055,1.271-10.396-0.281-15.398L597.756,564.888z"/>
		<path clip-path="url(#SVGID_6_)" fill="#868D93" d="M539.893,605.506c0.186-0.051,0.369-0.115,0.551-0.191l62.203-26.622
			c2.124-0.91,3.043-3.357,2.055-5.468s-3.517-3.085-5.635-2.176l-62.205,26.623c-2.123,0.908-3.043,3.356-2.054,5.467
			C535.711,605.069,537.9,606.049,539.893,605.506"/>
		<path clip-path="url(#SVGID_6_)" fill="#868D93" d="M544.246,619.525c0.186-0.051,0.369-0.114,0.551-0.191l62.204-26.622
			c2.123-0.909,3.043-3.357,2.054-5.468c-0.988-2.11-3.515-3.081-5.635-2.175l-62.205,26.622c-2.122,0.908-3.043,3.356-2.054,5.467
			C540.065,619.089,542.255,620.068,544.246,619.525"/>
		<path clip-path="url(#SVGID_6_)" fill="#868D93" d="M551.123,632.605c0.186-0.051,0.369-0.114,0.55-0.191l58.961-25.235
			c2.124-0.909,3.043-3.356,2.054-5.467c-0.988-2.11-3.518-3.085-5.634-2.176l-58.962,25.235c-2.123,0.909-3.043,3.356-2.054,5.467
			C546.941,632.169,549.131,633.148,551.123,632.605"/>
		<path clip-path="url(#SVGID_6_)" fill="#FFFFFF" d="M518.702,379.625c-2.099-2.282-4.328-4.432-6.679-6.436
			c-4.718-4.02-9.457-8.01-14.074-12.144c-3.929-3.518,0.365-9.814,5.045-7.384c20.854,10.835,37.031,29.939,43.721,53.784
			c0.875,3.11-1.05,6.34-4.261,7.019c-2.927,0.618-5.8-1.301-6.615-4.179c-3.315-11.701-9.265-22.08-17.079-30.599l0.01-0.001
			L518.702,379.625z"/>
		<path clip-path="url(#SVGID_6_)" fill="#FFFFFF" d="M524.487,387.62l-0.004,0.008c0.014,0.025,0.026,0.051,0.04,0.074
			L524.487,387.62z"/>
		<path clip-path="url(#SVGID_6_)" fill="#F4C914" d="M561.258,440.501c0-58.396,47.339-105.732,105.733-105.732
			c58.396,0,105.733,47.337,105.733,105.732c0,23.277-7.527,44.793-20.273,62.259c-15.092,22.742-54.308,48.42-54.308,63.805v17.574
			c0,3.508-2.844,6.352-6.353,6.352h-16.992h-15.615h-16.992c-3.508,0-6.352-2.844-6.352-6.352v-17.574
			c0-15.385-39.217-41.063-54.309-63.805C568.785,485.294,561.258,463.778,561.258,440.501"/>
		<path clip-path="url(#SVGID_6_)" fill="#FFFFFF" d="M755.122,446.567c-3.351,0-6.066-2.716-6.066-6.065
			c0-37.623-25.437-70.34-61.855-79.56c-3.249-0.822-5.215-4.122-4.393-7.37c0.822-3.249,4.121-5.218,7.369-4.393
			c41.811,10.585,71.012,48.138,71.012,91.322C761.188,443.852,758.472,446.567,755.122,446.567"/>
		<g opacity="0.55" clip-path="url(#SVGID_6_)">
			<g>
				<defs>
					<rect id="SVGID_16_" x="561.461" y="446.753" width="211.061" height="143.738"/>
				</defs>
				<clipPath id="SVGID_17_">
					<use xlink:href="#SVGID_16_"  overflow="visible"/>
				</clipPath>
				<path clip-path="url(#SVGID_17_)" fill="#FFC043" d="M772.521,446.753c-5.836,43.354-40.839,88.239-105.53,88.239
					c-64.69,0-98.388-46.984-105.53-88.239c1.219,20.87,8.476,40.117,20.07,56.007c15.092,22.742,54.309,48.42,54.309,63.805v17.574
					c0,3.509,2.844,6.352,6.352,6.352h16.992h15.615h16.992c3.509,0,6.353-2.843,6.353-6.352v-17.574
					c0-15.385,39.216-41.063,54.308-63.805C764.047,486.87,771.303,467.623,772.521,446.753"/>
			</g>
		</g>
		<path clip-path="url(#SVGID_6_)" fill="#868D93" d="M700.642,574.068h-67.301v32.075c0,5.238,1.489,10.367,4.298,14.79
			c5.306,8.359,14.519,13.423,24.419,13.423h9.867c9.9,0,19.112-5.063,24.42-13.423c2.807-4.423,4.297-9.552,4.297-14.79V574.068z"
			/>
		<path clip-path="url(#SVGID_6_)" fill="#868D93" d="M633.335,595.698c0.192,0.007,0.387,0,0.583-0.021l67.301-6.977
			c2.298-0.237,3.901-2.304,3.583-4.611c-0.318-2.31-2.443-3.989-4.736-3.748l-67.302,6.976c-2.297,0.238-3.901,2.303-3.583,4.611
			C629.472,594.041,631.271,595.626,633.335,595.698"/>
		<path clip-path="url(#SVGID_6_)" fill="#868D93" d="M633.335,610.378c0.192,0.007,0.387,0,0.583-0.021l67.301-6.977
			c2.298-0.236,3.901-2.303,3.583-4.61c-0.318-2.31-2.443-3.986-4.736-3.748l-67.302,6.976c-2.297,0.237-3.901,2.303-3.583,4.611
			C629.472,608.722,631.271,610.306,633.335,610.378"/>
		<path clip-path="url(#SVGID_6_)" fill="#868D93" d="M636.023,624.909c0.191,0.007,0.387,0,0.582-0.021l63.792-6.613
			c2.298-0.238,3.901-2.303,3.584-4.611c-0.318-2.309-2.446-3.988-4.736-3.749l-63.793,6.613c-2.297,0.238-3.903,2.303-3.583,4.612
			C632.159,623.252,633.96,624.837,636.023,624.909"/>
		<path clip-path="url(#SVGID_6_)" fill="#F4C914" d="M175.201,474.126c11.936-41.026,54.87-64.606,95.896-52.672
			c41.025,11.937,64.607,54.87,52.671,95.896c-4.757,16.354-14.445,29.932-26.969,39.597h0.001
			c-15.253,12.893-48.052,22.917-51.197,33.725l-3.592,12.349c-0.717,2.464-3.296,3.881-5.761,3.164l-11.939-3.474l-10.969-3.191
			l-11.939-3.474c-2.465-0.717-3.881-3.297-3.164-5.762l3.592-12.346c3.144-10.81-19.158-36.865-25.112-55.928
			C171.334,507.134,170.442,490.48,175.201,474.126"/>
		<path clip-path="url(#SVGID_6_)" fill="#FFFFFF" d="M310.161,518.014c-2.354-0.685-3.707-3.146-3.022-5.502
			c7.69-26.432-3.494-54.616-27.195-68.537c-2.114-1.242-2.821-3.962-1.58-6.076c1.242-2.113,3.962-2.822,6.075-1.579
			c27.211,15.982,40.05,48.334,31.224,78.674C314.978,517.346,312.515,518.699,310.161,518.014"/>
		<g opacity="0.55" clip-path="url(#SVGID_6_)">
			<g>
				<defs>
					<rect id="SVGID_18_" x="172.114" y="478.56" width="150.233" height="127.81"/>
				</defs>
				<clipPath id="SVGID_19_">
					<use xlink:href="#SVGID_18_"  overflow="visible"/>
				</clipPath>
				<path clip-path="url(#SVGID_19_)" fill="#FFC043" d="M322.348,521.701c-12.962,29.267-46.729,53.646-92.178,40.422
					c-45.448-13.223-59.518-53.119-56.104-83.563c-3.409,14.913-2.245,29.917,2.653,43.451
					c5.954,19.062,28.257,45.117,25.112,55.926l-3.591,12.347c-0.717,2.465,0.699,5.045,3.164,5.762l11.938,3.473l10.97,3.192
					l11.938,3.473c2.465,0.718,5.044-0.699,5.761-3.164l3.593-12.348c3.144-10.808,35.943-20.832,51.196-33.725h-0.001
					C308.194,548.153,317.225,536.114,322.348,521.701"/>
			</g>
		</g>
		<path clip-path="url(#SVGID_6_)" fill="#868D93" d="M245.824,596.454l-47.282-13.756l-6.557,22.535
			c-1.07,3.679-1.071,7.588-0.003,11.269c2.019,6.957,7.456,12.398,14.412,14.422l6.932,2.017c6.956,2.023,14.464,0.349,19.9-4.439
			c2.875-2.533,4.972-5.832,6.042-9.512L245.824,596.454z"/>
		<path clip-path="url(#SVGID_6_)" fill="#868D93" d="M194.117,597.893c0.134,0.044,0.271,0.079,0.413,0.105l48.709,8.854
			c1.662,0.303,3.212-0.82,3.46-2.508c0.248-1.686-0.901-3.302-2.561-3.601l-48.709-8.855c-1.663-0.303-3.212,0.82-3.46,2.507
			C191.741,595.939,192.681,597.421,194.117,597.893"/>
		<path clip-path="url(#SVGID_6_)" fill="#868D93" d="M191.116,608.207c0.134,0.044,0.271,0.078,0.414,0.104l48.708,8.854
			c1.663,0.303,3.212-0.819,3.46-2.507c0.248-1.687-0.902-3.3-2.561-3.601l-48.709-8.856c-1.663-0.303-3.212,0.82-3.46,2.508
			C188.74,606.253,189.681,607.734,191.116,608.207"/>
		<path clip-path="url(#SVGID_6_)" fill="#868D93" d="M190.035,618.965c0.133,0.044,0.271,0.079,0.413,0.104l46.169,8.394
			c1.663,0.302,3.212-0.82,3.46-2.508s-0.902-3.302-2.562-3.602l-46.168-8.394c-1.664-0.302-3.212,0.82-3.46,2.508
			C187.659,617.011,188.599,618.492,190.035,618.965"/>
		<path clip-path="url(#SVGID_6_)" fill="#FFE36C" d="M318.376,131.663c-3.53,0-6.392,2.861-6.392,6.392v37.713
			c0,3.531,2.862,6.392,6.392,6.392c3.53,0,6.393-2.861,6.393-6.392v-37.713C324.769,134.524,321.906,131.663,318.376,131.663"/>
		<path clip-path="url(#SVGID_6_)" fill="#FFE36C" d="M176.508,222.687l32.341,19.401c1.03,0.618,2.163,0.912,3.282,0.912
			c2.172,0,4.289-1.107,5.487-3.105c1.817-3.027,0.835-6.954-2.192-8.77l-32.341-19.401c-3.027-1.815-6.954-0.834-8.77,2.193
			C172.499,216.945,173.481,220.871,176.508,222.687"/>
		<path clip-path="url(#SVGID_6_)" fill="#FFE36C" d="M244.107,156.192c-1.726-3.08-5.621-4.179-8.7-2.454
			c-3.081,1.725-4.18,5.62-2.454,8.7l18.425,32.906c1.172,2.092,3.345,3.271,5.583,3.271c1.058,0,2.129-0.264,3.118-0.817
			c3.08-1.725,4.178-5.62,2.454-8.7L244.107,156.192z"/>
		<path clip-path="url(#SVGID_6_)" fill="#FFE36C" d="M401.443,153.738c-3.08-1.724-6.976-0.626-8.7,2.454l-18.427,32.906
			c-1.725,3.08-0.626,6.975,2.454,8.701c0.988,0.552,2.061,0.816,3.117,0.816c2.24,0,4.412-1.179,5.583-3.271l18.427-32.906
			C405.623,159.358,404.523,155.464,401.443,153.738"/>
		<path clip-path="url(#SVGID_6_)" fill="#FFE36C" d="M461.425,76.254c69.791,0,78.895-72.825,78.895-72.825
			s9.103,72.826,78.894,72.826c-69.791,0-78.894,72.825-78.894,72.825S531.216,76.254,461.425,76.254"/>
		<path clip-path="url(#SVGID_6_)" fill="#FFE36C" d="M435.821,146.235c30.534,0,34.517-31.86,34.517-31.86
			s3.982,31.861,34.515,31.861c-30.533,0-34.515,31.86-34.515,31.86S466.355,146.235,435.821,146.235"/>
		<path clip-path="url(#SVGID_6_)" fill="#E59A2E" d="M797.414,48.098c-0.013,0-0.024,0.002-0.036,0.002
			c0.012,0,0.024,0.003,0.036,0.003V48.098z"/>
		<path clip-path="url(#SVGID_6_)" fill="#E59A2E" d="M797.341,48.098v0.005c0.013,0,0.024-0.003,0.037-0.003
			C797.365,48.1,797.354,48.098,797.341,48.098"/>
		<path clip-path="url(#SVGID_6_)" fill="#F4C914" d="M290.768,570.281c0,20.586,21.48,23.271,21.48,23.271
			s-21.48,2.685-21.48,23.271c0-20.586-21.48-23.271-21.48-23.271S290.768,590.867,290.768,570.281"/>
		<g opacity="0.75" clip-path="url(#SVGID_6_)">
			<g>
				<defs>
					<rect id="SVGID_20_" x="114.26" y="368.996" width="118.672" height="164.593"/>
				</defs>
				<clipPath id="SVGID_21_">
					<use xlink:href="#SVGID_20_"  overflow="visible"/>
				</clipPath>
				<path clip-path="url(#SVGID_21_)" fill="#FFE36C" d="M139.117,461.949c-7.568-25.351,6.848-52.036,32.197-59.604
					c25.351-7.568,52.036,6.847,59.605,32.197c3.016,10.104,2.537,20.422-0.733,29.655v-0.001
					c-3.604,11.829-17.3,28.06-15.306,34.737l2.277,7.63c0.455,1.523-0.411,3.126-1.935,3.581l-7.376,2.202l-6.779,2.023
					l-7.377,2.202c-1.522,0.455-3.126-0.411-3.58-1.935l-2.278-7.628c-1.993-6.68-22.346-12.744-31.845-20.661
					C148.19,480.419,142.134,472.055,139.117,461.949"/>
				<path clip-path="url(#SVGID_21_)" fill="#FFFFFF" d="M224.063,439.458c-1.455,0.435-2.986-0.393-3.42-1.848
					c-4.876-16.333-20.158-27.238-37.164-26.521c-1.517,0.064-2.798-1.112-2.861-2.63c-0.065-1.517,1.112-2.799,2.63-2.86
					c19.522-0.825,37.065,11.692,42.662,30.439C226.345,437.492,225.518,439.023,224.063,439.458"/>
				<path clip-path="url(#SVGID_21_)" fill="#FFE36C" d="M231.641,437.283c3.086,19.577-6.293,43.601-34.376,51.983
					c-28.084,8.384-48.802-7.646-57.249-24.629c3.234,8.901,8.879,16.316,15.972,21.712c9.499,7.917,29.851,13.981,31.844,20.661
					l2.279,7.628c0.454,1.523,2.057,2.39,3.58,1.935l7.377-2.202l6.779-2.023l7.376-2.202c1.523-0.455,2.39-2.059,1.935-3.581
					l-2.278-7.63c-1.994-6.678,11.702-22.908,15.307-34.737v0.001C233.162,455.798,233.816,446.501,231.641,437.283"/>
				<path clip-path="url(#SVGID_21_)" fill="#868D93" d="M216.937,501.869l-29.217,8.722l4.157,13.925
					c0.679,2.273,1.992,4.308,3.784,5.863c3.386,2.941,8.042,3.945,12.339,2.662l4.284-1.277c4.299-1.284,7.641-4.677,8.862-8.993
					c0.645-2.283,0.627-4.703-0.052-6.978L216.937,501.869z"/>
				<path clip-path="url(#SVGID_21_)" fill="#868D93" d="M190.521,519.981c0.084-0.021,0.167-0.05,0.25-0.084l28.312-11.751
					c0.966-0.4,1.395-1.506,0.959-2.467c-0.438-0.961-1.579-1.415-2.542-1.012l-28.314,11.751c-0.966,0.399-1.394,1.504-0.957,2.465
					C188.628,519.763,189.617,520.218,190.521,519.981"/>
				<path clip-path="url(#SVGID_21_)" fill="#868D93" d="M192.424,526.354c0.084-0.021,0.168-0.05,0.25-0.084l28.312-11.751
					c0.967-0.401,1.396-1.506,0.959-2.467c-0.438-0.961-1.578-1.413-2.542-1.013l-28.313,11.752
					c-0.967,0.399-1.395,1.504-0.958,2.465C190.532,526.136,191.519,526.591,192.424,526.354"/>
				<path clip-path="url(#SVGID_21_)" fill="#868D93" d="M195.474,532.314c0.085-0.021,0.168-0.05,0.25-0.084l26.837-11.139
					c0.966-0.401,1.394-1.506,0.958-2.466c-0.438-0.961-1.579-1.415-2.542-1.015l-26.837,11.14c-0.966,0.4-1.395,1.505-0.958,2.466
					C193.582,532.096,194.568,532.551,195.474,532.314"/>
				<path clip-path="url(#SVGID_21_)" fill="#FFE36C" d="M161.679,370.14c-1.398,0.417-2.193,1.891-1.776,3.287l4.46,14.939
					c0.418,1.397,1.889,2.193,3.288,1.775c1.398-0.417,2.193-1.89,1.776-3.288l-4.46-14.938
					C164.549,370.518,163.077,369.722,161.679,370.14"/>
				<path clip-path="url(#SVGID_21_)" fill="#FFE36C" d="M116.248,422.971l15.104,3.86c0.482,0.123,0.965,0.105,1.409-0.027
					c0.86-0.257,1.568-0.944,1.806-1.879c0.362-1.413-0.492-2.852-1.906-3.214l-15.104-3.86c-1.413-0.36-2.853,0.492-3.214,1.905
					C113.981,421.17,114.834,422.61,116.248,422.971"/>
				<path clip-path="url(#SVGID_21_)" fill="#FFE36C" d="M135.161,388.639c-1.048-1.017-2.721-0.991-3.736,0.057
					c-1.016,1.048-0.991,2.72,0.056,3.736l11.191,10.854c0.711,0.69,1.711,0.9,2.597,0.636c0.419-0.125,0.813-0.356,1.139-0.692
					c1.016-1.047,0.99-2.72-0.057-3.736L135.161,388.639z"/>
				<path clip-path="url(#SVGID_21_)" fill="#FFE36C" d="M197.192,369.061c-1.424-0.317-2.837,0.577-3.156,2.001l-3.407,15.213
					c-0.32,1.424,0.577,2.837,2.001,3.156c0.457,0.104,0.912,0.08,1.331-0.045c0.886-0.265,1.608-0.988,1.825-1.956l3.407-15.213
					C199.512,370.793,198.616,369.38,197.192,369.061"/>
			</g>
		</g>
		<path clip-path="url(#SVGID_6_)" fill="#F4C914" d="M121.771,210.38c58.562,0,66.2-61.106,66.2-61.106s7.638,61.107,66.199,61.107
			c-58.561,0-66.199,61.107-66.199,61.107S180.333,210.38,121.771,210.38"/>
		<path clip-path="url(#SVGID_6_)" fill="#F4C914" d="M100.287,269.102c25.621,0,28.963-26.734,28.963-26.734
			s3.342,26.734,28.962,26.734c-25.62,0-28.962,26.734-28.962,26.734S125.908,269.102,100.287,269.102"/>
		<path clip-path="url(#SVGID_6_)" fill="#E59A2E" d="M831.702,465.634c0,32.131-33.528,36.322-33.528,36.322
			s33.528,4.191,33.528,36.323c0-32.132,33.528-36.323,33.528-36.323S831.702,497.765,831.702,465.634"/>
		<path clip-path="url(#SVGID_6_)" fill="#E59A2E" d="M783.593,469.737c14.057,0,15.891,14.669,15.891,14.669
			s1.834-14.669,15.891-14.669c-14.057,0-15.891-14.669-15.891-14.669S797.649,469.737,783.593,469.737"/>
		<path clip-path="url(#SVGID_6_)" fill="#FFC043" d="M814.409,636.681c-23.82,11.512-52.462,1.534-63.974-22.286
			c-11.512-23.819-1.534-52.462,22.285-63.974c9.496-4.589,19.757-5.76,29.394-4.004c12.253,1.674,30.457,12.608,36.731,9.576
			l7.17-3.466c1.432-0.691,3.152-0.092,3.844,1.34l3.35,6.931l3.078,6.37l3.35,6.931c0.692,1.433,0.093,3.152-1.339,3.844
			l-7.169,3.466c-6.275,3.031-9.019,24.09-15.32,34.729C831.197,624.781,823.904,632.092,814.409,636.681"/>
		<path clip-path="url(#SVGID_6_)" fill="#FFFFFF" d="M832.435,585.304c-1.452,0.441-2.987-0.377-3.43-1.829
			c-4.962-16.307-20.303-27.132-37.304-26.324c-1.516,0.072-2.804-1.099-2.876-2.615c-0.071-1.517,1.099-2.805,2.615-2.876
			c19.517-0.927,37.127,11.499,42.823,30.215C834.705,583.326,833.887,584.861,832.435,585.304"/>
		<path clip-path="url(#SVGID_6_)" fill="#FFC043" d="M775.313,549.271c18.835-6.167,44.045-0.736,56.798,25.652
			c12.752,26.388,0.229,49.396-15.192,60.441c8.274-4.611,14.695-11.364,18.891-19.228c6.302-10.639,9.045-31.698,15.32-34.73
			l7.169-3.465c1.432-0.691,2.031-2.412,1.339-3.844l-3.35-6.931l-3.078-6.37l-3.35-6.932c-0.691-1.431-2.412-2.03-3.844-1.339
			l-7.169,3.465c-6.275,3.033-24.479-7.901-36.732-9.574C793.348,544.819,784.065,545.654,775.313,549.271"/>
		<path clip-path="url(#SVGID_6_)" fill="#868D93" d="M841.416,553.494l13.267,27.453l13.085-6.323
			c2.136-1.033,3.935-2.651,5.186-4.669c2.363-3.813,2.613-8.567,0.661-12.606l-1.945-4.025c-1.951-4.039-5.833-6.799-10.289-7.315
			c-2.358-0.272-4.743,0.131-6.88,1.163L841.416,553.494z"/>
		<path clip-path="url(#SVGID_6_)" fill="#868D93" d="M863.507,576.686c-0.035-0.08-0.076-0.158-0.123-0.233l-16.113-26.078
			c-0.55-0.891-1.708-1.138-2.587-0.553s-1.146,1.783-0.596,2.672l16.113,26.077c0.55,0.89,1.709,1.138,2.588,0.554
			C863.593,578.588,863.885,577.541,863.507,576.686"/>
		<path clip-path="url(#SVGID_6_)" fill="#868D93" d="M869.495,573.791c-0.035-0.08-0.076-0.157-0.123-0.232l-16.113-26.079
			c-0.55-0.89-1.708-1.137-2.587-0.552c-0.879,0.586-1.145,1.782-0.596,2.672l16.113,26.077c0.55,0.89,1.709,1.137,2.588,0.553
			C869.581,575.693,869.873,574.647,869.495,573.791"/>
		<path clip-path="url(#SVGID_6_)" fill="#868D93" d="M874.893,569.83c-0.035-0.08-0.076-0.157-0.123-0.232l-15.273-24.719
			c-0.55-0.891-1.707-1.138-2.587-0.553c-0.879,0.585-1.146,1.784-0.596,2.671l15.273,24.718c0.55,0.891,1.708,1.138,2.588,0.553
			C874.979,571.732,875.271,570.686,874.893,569.83"/>
	</g>
</g>
</svg>
