<?xml version="1.0" encoding="utf-8"?>
<!-- Generator: Adobe Illustrator 15.0.0, SVG Export Plug-In . SVG Version: 6.00 Build 0)  -->
<!DOCTYPE svg PUBLIC "-//W3C//DTD SVG 1.1//EN" "http://www.w3.org/Graphics/SVG/1.1/DTD/svg11.dtd">
<svg version="1.1" id="Layer_1" xmlns="http://www.w3.org/2000/svg" xmlns:xlink="http://www.w3.org/1999/xlink" x="0px" y="0px"
	 width="1000px" height="566px" viewBox="0 200.053 1000 566" enable-background="new 0 200.053 1000 566" xml:space="preserve">
<g>
	<g>
		<defs>
			<rect id="SVGID_1_" width="1000" height="821.106"/>
		</defs>
		<clipPath id="SVGID_2_">
			<use xlink:href="#SVGID_1_"  overflow="visible"/>
		</clipPath>
	</g>
	<g>
		<defs>
			<rect id="SVGID_3_" width="1000" height="821.106"/>
		</defs>
		<clipPath id="SVGID_4_">
			<use xlink:href="#SVGID_3_"  overflow="visible"/>
		</clipPath>
		<g clip-path="url(#SVGID_4_)">
			<g>
				<defs>
					<rect id="SVGID_5_" width="1000" height="821.106"/>
				</defs>
				<defs>
					<rect id="SVGID_6_" width="1000" height="821.106"/>
				</defs>
				<clipPath id="SVGID_7_">
					<use xlink:href="#SVGID_5_"  overflow="visible"/>
				</clipPath>
				<clipPath id="SVGID_8_" clip-path="url(#SVGID_7_)">
					<use xlink:href="#SVGID_6_"  overflow="visible"/>
				</clipPath>
				<path clip-path="url(#SVGID_8_)" fill="#F4C914" d="M392.111,634.506c0,25.992,27.122,29.383,27.122,29.383
					s-27.122,3.391-27.122,29.383c0-25.992-27.122-29.383-27.122-29.383S392.111,660.5,392.111,634.506"/>
				<g clip-path="url(#SVGID_8_)">
					<g opacity="0.75">
						<g>
							<defs>
								<rect id="SVGID_9_" x="90.587" y="657.848" width="130.006" height="93.49"/>
							</defs>
							<defs>
								<rect id="SVGID_10_" x="90.587" y="657.848" width="130.006" height="93.49"/>
							</defs>
							<defs>
								<rect id="SVGID_11_" x="90.587" y="657.848" width="130.006" height="93.49"/>
							</defs>
							<defs>
								<rect id="SVGID_12_" x="90.587" y="657.848" width="130.006" height="93.49"/>
							</defs>
							<defs>
								<rect id="SVGID_13_" x="90.587" y="657.848" width="130.006" height="93.49"/>
							</defs>
							<defs>
								<rect id="SVGID_14_" x="90.587" y="657.848" width="130.006" height="93.49"/>
							</defs>
							<defs>
								<rect id="SVGID_15_" x="90.587" y="657.848" width="130.006" height="93.49"/>
							</defs>
							<clipPath id="SVGID_16_">
								<use xlink:href="#SVGID_9_"  overflow="visible"/>
							</clipPath>
							<clipPath id="SVGID_17_" clip-path="url(#SVGID_16_)">
								<use xlink:href="#SVGID_10_"  overflow="visible"/>
							</clipPath>
							<clipPath id="SVGID_18_" clip-path="url(#SVGID_17_)">
								<use xlink:href="#SVGID_11_"  overflow="visible"/>
							</clipPath>
							<clipPath id="SVGID_19_" clip-path="url(#SVGID_18_)">
								<use xlink:href="#SVGID_12_"  overflow="visible"/>
							</clipPath>
							<clipPath id="SVGID_20_" clip-path="url(#SVGID_19_)">
								<use xlink:href="#SVGID_13_"  overflow="visible"/>
							</clipPath>
							<clipPath id="SVGID_21_" clip-path="url(#SVGID_20_)">
								<use xlink:href="#SVGID_14_"  overflow="visible"/>
							</clipPath>
							<clipPath id="SVGID_22_" clip-path="url(#SVGID_21_)">
								<use xlink:href="#SVGID_15_"  overflow="visible"/>
							</clipPath>
							<path clip-path="url(#SVGID_22_)" fill="#E59A2E" d="M150.702,749.374c-24.732,7.383-50.767-6.68-58.149-31.412
								c-7.384-24.73,6.679-50.766,31.411-58.146c9.858-2.943,19.923-2.477,28.931,0.713c11.54,3.518,27.373,16.879,33.889,14.934
								l7.443-2.223c1.487-0.443,3.05,0.402,3.494,1.889l2.148,7.195l1.975,6.615l2.148,7.193c0.443,1.486-0.401,3.051-1.887,3.494
								l-7.443,2.223c-6.516,1.945-12.433,21.801-20.156,31.068C168.721,740.522,160.56,746.43,150.702,749.374"/>
							<path clip-path="url(#SVGID_22_)" fill="#FFFFFF" d="M170.251,696.651c-1.419,0.424-2.912-0.385-3.336-1.803
								c-4.757-15.934-19.666-26.572-36.256-25.875c-1.48,0.064-2.73-1.086-2.793-2.564c-0.061-1.48,1.086-2.73,2.567-2.791
								c19.046-0.805,36.161,11.408,41.621,29.697C172.479,694.733,171.671,696.227,170.251,696.651"/>
							<path clip-path="url(#SVGID_22_)" fill="#E28130" d="M126.638,659.108c19.1-3.01,42.535,6.141,50.715,33.539
								c8.179,27.396-7.459,47.607-24.028,55.85c8.684-3.154,15.918-8.66,21.181-15.58c7.724-9.268,13.641-29.123,20.156-31.068
								l7.444-2.221c1.485-0.445,2.33-2.01,1.886-3.496l-2.148-7.195l-1.975-6.613l-2.148-7.195
								c-0.443-1.486-2.007-2.33-3.493-1.889l-7.444,2.225c-6.515,1.943-22.348-11.418-33.888-14.936
								C144.7,657.625,135.63,656.987,126.638,659.108"/>
							<path clip-path="url(#SVGID_22_)" fill="#868D93" d="M189.646,673.454l8.51,28.504l13.585-4.057
								c2.217-0.662,4.202-1.941,5.719-3.689c2.87-3.305,3.85-7.846,2.598-12.039l-1.247-4.18c-1.252-4.193-4.561-7.455-8.773-8.645
								c-2.228-0.629-4.589-0.611-6.807,0.049L189.646,673.454z"/>
							<path clip-path="url(#SVGID_22_)" fill="#868D93" d="M207.317,699.223c-0.021-0.082-0.049-0.164-0.082-0.242L195.77,671.36
								c-0.391-0.943-1.468-1.361-2.405-0.936c-0.938,0.426-1.381,1.539-0.989,2.479l11.464,27.623
								c0.391,0.941,1.469,1.359,2.406,0.934C207.104,701.071,207.547,700.108,207.317,699.223"/>
							<path clip-path="url(#SVGID_22_)" fill="#868D93" d="M213.535,697.368c-0.021-0.082-0.049-0.162-0.083-0.244l-11.464-27.621
								c-0.391-0.943-1.469-1.361-2.406-0.934c-0.938,0.426-1.379,1.539-0.988,2.48l11.463,27.619
								c0.392,0.943,1.469,1.361,2.407,0.936C213.322,699.213,213.765,698.25,213.535,697.368"/>
							<path clip-path="url(#SVGID_22_)" fill="#868D93" d="M219.35,694.391c-0.021-0.08-0.049-0.162-0.083-0.242L208.4,667.967
								c-0.392-0.943-1.469-1.361-2.406-0.934c-0.938,0.426-1.38,1.539-0.989,2.479l10.866,26.182
								c0.392,0.941,1.469,1.361,2.407,0.936C219.135,696.239,219.58,695.276,219.35,694.391"/>
						</g>
					</g>
					<g>
						<defs>
							<rect id="SVGID_23_" width="1000" height="821.106"/>
						</defs>
						<clipPath id="SVGID_24_">
							<use xlink:href="#SVGID_23_"  overflow="visible"/>
						</clipPath>
						<g clip-path="url(#SVGID_24_)">
							<g opacity="0.75">
								<g>
									<defs>
										<rect id="SVGID_25_" x="70.51" y="412.045" width="149.838" height="207.818"/>
									</defs>
									<defs>
										<rect id="SVGID_26_" x="70.51" y="412.045" width="149.838" height="207.818"/>
									</defs>
									<defs>
										<rect id="SVGID_27_" x="70.51" y="412.045" width="149.838" height="207.818"/>
									</defs>
									<defs>
										<rect id="SVGID_28_" x="70.51" y="412.045" width="149.838" height="207.818"/>
									</defs>
									<defs>
										<rect id="SVGID_29_" x="70.51" y="412.045" width="149.838" height="207.818"/>
									</defs>
									<defs>
										<rect id="SVGID_30_" x="70.51" y="412.045" width="149.838" height="207.818"/>
									</defs>
									<defs>
										<rect id="SVGID_31_" x="70.51" y="412.045" width="149.838" height="207.818"/>
									</defs>
									<defs>
										<rect id="SVGID_32_" x="70.51" y="412.045" width="149.838" height="207.818"/>
									</defs>
									<defs>
										<rect id="SVGID_33_" x="70.51" y="412.045" width="149.838" height="207.818"/>
									</defs>
									<defs>
										<rect id="SVGID_34_" x="70.51" y="412.045" width="149.838" height="207.818"/>
									</defs>
									<defs>
										<rect id="SVGID_35_" x="70.51" y="412.045" width="149.838" height="207.818"/>
									</defs>
									<clipPath id="SVGID_36_">
										<use xlink:href="#SVGID_25_"  overflow="visible"/>
									</clipPath>
									<clipPath id="SVGID_37_" clip-path="url(#SVGID_36_)">
										<use xlink:href="#SVGID_26_"  overflow="visible"/>
									</clipPath>
									<clipPath id="SVGID_38_" clip-path="url(#SVGID_37_)">
										<use xlink:href="#SVGID_27_"  overflow="visible"/>
									</clipPath>
									<clipPath id="SVGID_39_" clip-path="url(#SVGID_38_)">
										<use xlink:href="#SVGID_28_"  overflow="visible"/>
									</clipPath>
									<clipPath id="SVGID_40_" clip-path="url(#SVGID_39_)">
										<use xlink:href="#SVGID_29_"  overflow="visible"/>
									</clipPath>
									<clipPath id="SVGID_41_" clip-path="url(#SVGID_40_)">
										<use xlink:href="#SVGID_30_"  overflow="visible"/>
									</clipPath>
									<clipPath id="SVGID_42_" clip-path="url(#SVGID_41_)">
										<use xlink:href="#SVGID_31_"  overflow="visible"/>
									</clipPath>
									<clipPath id="SVGID_43_" clip-path="url(#SVGID_42_)">
										<use xlink:href="#SVGID_32_"  overflow="visible"/>
									</clipPath>
									<clipPath id="SVGID_44_" clip-path="url(#SVGID_43_)">
										<use xlink:href="#SVGID_33_"  overflow="visible"/>
									</clipPath>
									<clipPath id="SVGID_45_" clip-path="url(#SVGID_44_)">
										<use xlink:href="#SVGID_34_"  overflow="visible"/>
									</clipPath>
									<clipPath id="SVGID_46_" clip-path="url(#SVGID_45_)">
										<use xlink:href="#SVGID_35_"  overflow="visible"/>
									</clipPath>
									<path clip-path="url(#SVGID_46_)" fill="#FFE36C" d="M101.896,529.411c-9.556-32.01,8.646-65.703,40.653-75.258
										c32.009-9.557,65.702,8.645,75.258,40.652c3.81,12.76,3.204,25.785-0.925,37.443h0.001
										c-4.551,14.936-21.844,35.428-19.327,43.859l2.876,9.633c0.574,1.924-0.519,3.947-2.442,4.521l-9.315,2.779l-8.558,2.555
										l-9.315,2.781c-1.923,0.574-3.947-0.52-4.52-2.443l-2.876-9.631c-2.518-8.434-28.215-16.092-40.209-26.086
										C113.351,552.731,105.705,542.168,101.896,529.411"/>
									<path clip-path="url(#SVGID_46_)" fill="#FFFFFF" d="M209.15,501.01c-1.836,0.549-3.77-0.496-4.317-2.332
										c-6.157-20.623-25.453-34.393-46.924-33.486c-1.915,0.082-3.533-1.406-3.613-3.32c-0.082-1.916,1.405-3.535,3.32-3.613
										c24.65-1.041,46.801,14.766,53.867,38.438C212.031,498.532,210.987,500.461,209.15,501.01"/>
									<path clip-path="url(#SVGID_46_)" fill="#FFE36C" d="M218.719,498.264c3.896,24.721-7.946,55.051-43.405,65.637
										s-61.617-9.652-72.283-31.098c4.083,11.238,11.209,20.604,20.166,27.414c11.994,9.996,37.691,17.652,40.209,26.086
										l2.875,9.633c0.574,1.924,2.598,3.018,4.521,2.441l9.314-2.779l8.559-2.555l9.315-2.781
										c1.922-0.574,3.016-2.598,2.442-4.521l-2.876-9.633c-2.518-8.434,14.775-28.926,19.327-43.859h-0.001
										C220.638,521.641,221.465,509.905,218.719,498.264"/>
									<path clip-path="url(#SVGID_46_)" fill="#868D93" d="M200.153,579.813l-36.89,11.014l5.248,17.58
										c0.858,2.871,2.514,5.439,4.777,7.404c4.276,3.713,10.154,4.98,15.581,3.361l5.408-1.615
										c5.428-1.619,9.648-5.902,11.189-11.354c0.815-2.883,0.792-5.939-0.065-8.811L200.153,579.813z"/>
									<path clip-path="url(#SVGID_46_)" fill="#868D93" d="M166.8,602.682c0.106-0.027,0.212-0.063,0.316-0.105l35.747-14.838
										c1.221-0.506,1.762-1.9,1.21-3.113c-0.552-1.213-1.992-1.787-3.21-1.279l-35.748,14.836
										c-1.219,0.508-1.761,1.902-1.209,3.115C164.411,602.409,165.657,602.981,166.8,602.682"/>
									<path clip-path="url(#SVGID_46_)" fill="#868D93" d="M169.202,610.729c0.106-0.025,0.212-0.063,0.316-0.105l35.747-14.836
										c1.221-0.508,1.762-1.902,1.21-3.115c-0.552-1.213-1.992-1.785-3.21-1.279l-35.748,14.838
										c-1.219,0.506-1.761,1.898-1.209,3.113C166.813,610.456,168.059,611.028,169.202,610.729"/>
									<path clip-path="url(#SVGID_46_)" fill="#868D93" d="M173.054,618.254c0.106-0.027,0.211-0.063,0.315-0.105l33.884-14.064
										c1.221-0.506,1.762-1.9,1.21-3.115c-0.553-1.213-1.993-1.785-3.21-1.277l-33.884,14.063c-1.22,0.506-1.762,1.9-1.21,3.113
										C170.664,617.979,171.91,618.551,173.054,618.254"/>
									<path clip-path="url(#SVGID_46_)" fill="#FFE36C" d="M130.383,413.489c-1.766,0.525-2.77,2.385-2.242,4.15l5.631,18.861
										c0.526,1.766,2.385,2.77,4.151,2.242c1.766-0.525,2.77-2.387,2.242-4.15l-5.631-18.861
										C134.007,413.965,132.148,412.961,130.383,413.489"/>
									<path clip-path="url(#SVGID_46_)" fill="#FFE36C" d="M73.021,480.194l19.071,4.875c0.608,0.154,1.219,0.133,1.779-0.035
										c1.086-0.322,1.979-1.193,2.28-2.371c0.457-1.785-0.621-3.604-2.406-4.061l-19.072-4.873
										c-1.785-0.455-3.601,0.621-4.058,2.406C70.158,477.92,71.235,479.739,73.021,480.194"/>
									<path clip-path="url(#SVGID_46_)" fill="#FFE36C" d="M96.901,436.844c-1.323-1.281-3.436-1.25-4.718,0.072
										c-1.283,1.322-1.251,3.434,0.072,4.717l14.128,13.707c0.899,0.871,2.162,1.135,3.281,0.801
										c0.529-0.156,1.025-0.447,1.437-0.873c1.282-1.32,1.251-3.436-0.072-4.719L96.901,436.844z"/>
									<path clip-path="url(#SVGID_46_)" fill="#FFE36C" d="M175.222,412.125c-1.798-0.402-3.582,0.729-3.984,2.525l-4.303,19.209
										c-0.402,1.799,0.728,3.582,2.527,3.984c0.576,0.129,1.152,0.102,1.681-0.059c1.119-0.334,2.03-1.246,2.304-2.469
										l4.301-19.207C178.152,414.315,177.021,412.53,175.222,412.125"/>
								</g>
							</g>
							<g>
								<defs>
									<rect id="SVGID_47_" width="1000" height="821.106"/>
								</defs>
								<defs>
									<rect id="SVGID_48_" width="1000" height="821.106"/>
								</defs>
								<defs>
									<rect id="SVGID_49_" width="1000" height="821.106"/>
								</defs>
								<defs>
									<rect id="SVGID_50_" width="1000" height="821.106"/>
								</defs>
								<defs>
									<rect id="SVGID_51_" width="1000" height="821.106"/>
								</defs>
								<defs>
									<rect id="SVGID_52_" width="1000" height="821.106"/>
								</defs>
								<defs>
									<rect id="SVGID_53_" width="1000" height="821.106"/>
								</defs>
								<defs>
									<rect id="SVGID_54_" width="1000" height="821.106"/>
								</defs>
								<defs>
									<rect id="SVGID_55_" width="1000" height="821.106"/>
								</defs>
								<defs>
									<rect id="SVGID_56_" width="1000" height="821.106"/>
								</defs>
								<defs>
									<rect id="SVGID_57_" width="1000" height="821.106"/>
								</defs>
								<defs>
									<rect id="SVGID_58_" width="1000" height="821.106"/>
								</defs>
								<defs>
									<rect id="SVGID_59_" width="1000" height="821.106"/>
								</defs>
								<defs>
									<rect id="SVGID_60_" width="1000" height="821.106"/>
								</defs>
								<defs>
									<rect id="SVGID_61_" width="1000" height="821.106"/>
								</defs>
								<defs>
									<rect id="SVGID_62_" width="1000" height="821.106"/>
								</defs>
								<defs>
									<rect id="SVGID_63_" width="1000" height="821.106"/>
								</defs>
								<defs>
									<rect id="SVGID_64_" width="1000" height="821.106"/>
								</defs>
								<defs>
									<rect id="SVGID_65_" width="1000" height="821.106"/>
								</defs>
								<clipPath id="SVGID_66_">
									<use xlink:href="#SVGID_47_"  overflow="visible"/>
								</clipPath>
								<clipPath id="SVGID_67_" clip-path="url(#SVGID_66_)">
									<use xlink:href="#SVGID_48_"  overflow="visible"/>
								</clipPath>
								<clipPath id="SVGID_68_" clip-path="url(#SVGID_67_)">
									<use xlink:href="#SVGID_49_"  overflow="visible"/>
								</clipPath>
								<clipPath id="SVGID_69_" clip-path="url(#SVGID_68_)">
									<use xlink:href="#SVGID_50_"  overflow="visible"/>
								</clipPath>
								<clipPath id="SVGID_70_" clip-path="url(#SVGID_69_)">
									<use xlink:href="#SVGID_51_"  overflow="visible"/>
								</clipPath>
								<clipPath id="SVGID_71_" clip-path="url(#SVGID_70_)">
									<use xlink:href="#SVGID_52_"  overflow="visible"/>
								</clipPath>
								<clipPath id="SVGID_72_" clip-path="url(#SVGID_71_)">
									<use xlink:href="#SVGID_53_"  overflow="visible"/>
								</clipPath>
								<clipPath id="SVGID_73_" clip-path="url(#SVGID_72_)">
									<use xlink:href="#SVGID_54_"  overflow="visible"/>
								</clipPath>
								<clipPath id="SVGID_74_" clip-path="url(#SVGID_73_)">
									<use xlink:href="#SVGID_55_"  overflow="visible"/>
								</clipPath>
								<clipPath id="SVGID_75_" clip-path="url(#SVGID_74_)">
									<use xlink:href="#SVGID_56_"  overflow="visible"/>
								</clipPath>
								<clipPath id="SVGID_76_" clip-path="url(#SVGID_75_)">
									<use xlink:href="#SVGID_57_"  overflow="visible"/>
								</clipPath>
								<clipPath id="SVGID_77_" clip-path="url(#SVGID_76_)">
									<use xlink:href="#SVGID_58_"  overflow="visible"/>
								</clipPath>
								<clipPath id="SVGID_78_" clip-path="url(#SVGID_77_)">
									<use xlink:href="#SVGID_59_"  overflow="visible"/>
								</clipPath>
								<clipPath id="SVGID_79_" clip-path="url(#SVGID_78_)">
									<use xlink:href="#SVGID_60_"  overflow="visible"/>
								</clipPath>
								<clipPath id="SVGID_80_" clip-path="url(#SVGID_79_)">
									<use xlink:href="#SVGID_61_"  overflow="visible"/>
								</clipPath>
								<clipPath id="SVGID_81_" clip-path="url(#SVGID_80_)">
									<use xlink:href="#SVGID_62_"  overflow="visible"/>
								</clipPath>
								<clipPath id="SVGID_82_" clip-path="url(#SVGID_81_)">
									<use xlink:href="#SVGID_63_"  overflow="visible"/>
								</clipPath>
								<clipPath id="SVGID_83_" clip-path="url(#SVGID_82_)">
									<use xlink:href="#SVGID_64_"  overflow="visible"/>
								</clipPath>
								<clipPath id="SVGID_84_" clip-path="url(#SVGID_83_)">
									<use xlink:href="#SVGID_65_"  overflow="visible"/>
								</clipPath>
								<path clip-path="url(#SVGID_84_)" fill="#E59A2E" d="M448.174,486.497c5.755-61.516-49.969-117.034-124.462-124.002
									c-74.493-6.968-139.546,37.252-145.301,98.768c-2.284,24.426,5.131,47.9,19.557,67.771
									c4.47,8.518,8.532,16.641,12.235,24.389v-0.002c0,0,0.013,0.027,0.021,0.043c1.422,2.977,2.795,5.9,4.111,8.764
									c12.601,26.186,51.492,101.943,80.9,104.695c29.394,2.75,81.626-64.418,98.89-87.842c1.84-2.59,3.747-5.23,5.714-7.916
									l0.003-0.006v0.002c5.076-6.926,10.573-14.154,16.546-21.695C434.248,532.614,445.889,510.92,448.174,486.497"/>
								<path clip-path="url(#SVGID_84_)" fill="#E28130" d="M252.3,680.243c12.598,9.461,40.662,10.979,40.662,10.979
									s27.859,3.711,41.992-3.248c3.165-1.559,5.476-4.441,6.288-7.875c2.545-10.754,13.106-45.002,52.883-101.02
									c-17.263,23.424-69.496,90.592-98.89,87.842c-29.408-2.752-68.299-78.512-80.9-104.695
									c28.713,62.445,32.74,98.068,33.246,109.111C247.743,674.862,249.479,678.124,252.3,680.243"/>
								<path clip-path="url(#SVGID_84_)" fill="#FFFFFF" d="M424.254,485.983c-4.309,0.805-8.454-2.037-9.259-6.348
									c-9.029-48.391-49.597-84.364-98.653-87.481c-4.376-0.278-7.697-4.051-7.419-8.426c0.278-4.376,4.049-7.699,8.425-7.418
									c56.317,3.579,102.889,44.872,113.253,100.413C431.405,481.036,428.563,485.178,424.254,485.983"/>
								<path clip-path="url(#SVGID_84_)" fill="#868D93" d="M341.496,682.752l-94.657-8.854l-4.22,45.111
									c-0.689,7.367,0.732,14.779,4.099,21.367c6.363,12.455,18.655,20.789,32.58,22.092l13.877,1.301
									c13.925,1.301,27.549-4.609,36.112-15.666c4.528-5.854,7.3-12.871,7.989-20.238L341.496,682.752z"/>
								<path clip-path="url(#SVGID_84_)" fill="#868D93" d="M243.986,704.321c0.27,0.035,0.543,0.051,0.822,0.047l95.574-0.957
									c3.263-0.031,5.791-2.727,5.647-6.016c-0.146-3.289-2.912-5.932-6.169-5.895l-95.575,0.957
									c-3.262,0.033-5.791,2.725-5.647,6.014C238.769,701.481,241.093,703.948,243.986,704.321"/>
								<path clip-path="url(#SVGID_84_)" fill="#868D93" d="M242.054,724.967c0.27,0.035,0.544,0.051,0.822,0.047l95.574-0.957
									c3.263-0.029,5.791-2.725,5.646-6.016c-0.144-3.289-2.912-5.926-6.168-5.893l-95.576,0.955
									c-3.262,0.033-5.791,2.727-5.646,6.016C236.838,722.129,239.162,724.594,242.054,724.967"/>
								<path clip-path="url(#SVGID_84_)" fill="#868D93" d="M243.924,745.758c0.27,0.035,0.543,0.051,0.821,0.047l90.593-0.908
									c3.263-0.031,5.79-2.725,5.647-6.014c-0.146-3.289-2.916-5.934-6.169-5.896l-90.593,0.908
									c-3.263,0.033-5.791,2.727-5.647,6.016C238.707,742.918,241.031,745.385,243.924,745.758"/>
								<path clip-path="url(#SVGID_84_)" fill="#FFE36C" d="M516.757,497.043c-66.626-165.917-116.8-150.336-116.8-150.336
									s-50.173,15.58-11.093,190.053c0,0,25.318,97.08,66.691,149.588c4.095,5.197,10.966,7.332,17.283,5.369l31.247-9.703
									l31.245-9.701c6.319-1.965,10.772-7.615,11.201-14.217C550.884,591.389,516.757,497.043,516.757,497.043"/>
								<path clip-path="url(#SVGID_84_)" fill="#868D93" d="M548.352,664.278l-90.793,28.195l13.438,43.271
									c2.194,7.064,6.354,13.361,11.994,18.152c10.659,9.053,25.21,12.025,38.565,7.877l13.312-4.133
									c13.356-4.148,23.664-14.84,27.32-28.34c1.935-7.143,1.796-14.688-0.398-21.752L548.352,664.278z"/>
								<path clip-path="url(#SVGID_84_)" fill="#868D93" d="M466.612,721.657c0.263-0.072,0.521-0.162,0.777-0.271l87.869-37.607
									c3-1.283,4.299-4.74,2.903-7.723c-1.397-2.98-4.968-4.357-7.96-3.072l-87.871,37.607c-2.999,1.283-4.299,4.74-2.902,7.721
									C460.706,721.04,463.799,722.422,466.612,721.657"/>
								<path clip-path="url(#SVGID_84_)" fill="#868D93" d="M472.763,741.459c0.264-0.072,0.521-0.162,0.777-0.27l87.87-37.607
									c3-1.283,4.3-4.742,2.903-7.723c-1.398-2.982-4.967-4.354-7.96-3.072l-87.871,37.607c-2.999,1.281-4.301,4.74-2.903,7.721
									C466.855,740.844,469.95,742.229,472.763,741.459"/>
								<path clip-path="url(#SVGID_84_)" fill="#868D93" d="M482.476,759.938c0.264-0.072,0.521-0.162,0.777-0.271l83.289-35.648
									c3-1.283,4.298-4.74,2.903-7.723c-1.398-2.98-4.972-4.355-7.961-3.072l-83.289,35.648c-3,1.283-4.301,4.74-2.903,7.721
									C476.57,759.321,479.663,760.706,482.476,759.938"/>
								<path clip-path="url(#SVGID_84_)" fill="#FFFFFF" d="M436.679,402.574c-2.964-3.225-6.113-6.26-9.436-9.091
									c-6.661-5.679-13.358-11.315-19.879-17.154c-5.552-4.97,0.515-13.864,7.127-10.431
									c29.459,15.306,52.309,42.292,61.758,75.978c1.237,4.391-1.481,8.955-6.019,9.914c-4.133,0.873-8.192-1.838-9.344-5.902
									c-4.685-16.529-13.088-31.191-24.126-43.225l0.014-0.003L436.679,402.574z"/>
								<path clip-path="url(#SVGID_84_)" fill="#FFFFFF" d="M444.851,413.868l-0.007,0.012c0.021,0.035,0.038,0.07,0.058,0.105
									L444.851,413.868z"/>
								<path clip-path="url(#SVGID_84_)" fill="#F4C914" d="M124.921,278.999c73.941,0,83.586-77.155,83.586-77.155
									S218.151,279,292.093,279c-73.941,0-83.585,77.155-83.585,77.155S198.863,278.999,124.921,278.999"/>
								<path clip-path="url(#SVGID_84_)" fill="#F4C914" d="M97.796,353.141c32.349,0,36.568-33.756,36.568-33.756
									s4.22,33.756,36.569,33.756c-32.349,0-36.569,33.756-36.569,33.756S130.146,353.141,97.796,353.141"/>
								<path clip-path="url(#SVGID_84_)" fill="#F4C914" d="M496.792,488.569c0-82.491,66.872-149.362,149.36-149.362
									c82.49,0,149.361,66.871,149.361,149.362c0,32.881-10.635,63.273-28.639,87.945c-21.32,32.127-76.718,68.398-76.718,90.131
									v24.826c0,4.955-4.017,8.975-8.973,8.975h-24.003h-22.059h-24.004c-4.955,0-8.975-4.02-8.975-8.975v-24.826
									c0-21.73-55.396-58.004-76.716-90.131C507.427,551.842,496.792,521.45,496.792,488.569"/>
								<path clip-path="url(#SVGID_84_)" fill="#FFFFFF" d="M770.648,497.137c-4.733,0-8.57-3.838-8.57-8.568
									c0-53.146-35.932-99.362-87.378-112.387c-4.588-1.161-7.366-5.822-6.205-10.411c1.162-4.589,5.822-7.37,10.411-6.204
									c59.062,14.952,100.311,68,100.311,129.002C779.217,493.299,775.38,497.137,770.648,497.137"/>
								<g clip-path="url(#SVGID_84_)">
									<g opacity="0.55">
										<g>
											<defs>
												<rect id="SVGID_85_" x="497.08" y="497.399" width="298.146" height="203.047"/>
											</defs>
											<clipPath id="SVGID_86_">
												<use xlink:href="#SVGID_85_"  overflow="visible"/>
											</clipPath>
											<path clip-path="url(#SVGID_86_)" fill="#FFC043" d="M795.227,497.399c-8.242,61.244-57.688,124.648-149.072,124.648
												c-91.383,0-138.984-66.371-149.073-124.648c1.722,29.48,11.973,56.672,28.352,79.115
												c21.318,32.127,76.718,68.398,76.718,90.131v24.826c0,4.955,4.017,8.975,8.973,8.975h24.003h22.06h24.004
												c4.955,0,8.973-4.02,8.973-8.975v-24.826c0-21.73,55.396-58.004,76.716-90.131
												C783.255,554.071,793.504,526.879,795.227,497.399"/>
										</g>
									</g>
									<g>
										<defs>
											<rect id="SVGID_87_" width="1000" height="821.106"/>
										</defs>
										<defs>
											<rect id="SVGID_88_" width="1000" height="821.106"/>
										</defs>
										<defs>
											<rect id="SVGID_89_" width="1000" height="821.106"/>
										</defs>
										<defs>
											<rect id="SVGID_90_" width="1000" height="821.106"/>
										</defs>
										<defs>
											<rect id="SVGID_91_" width="1000" height="821.106"/>
										</defs>
										<defs>
											<rect id="SVGID_92_" width="1000" height="821.106"/>
										</defs>
										<defs>
											<rect id="SVGID_93_" width="1000" height="821.106"/>
										</defs>
										<defs>
											<rect id="SVGID_94_" width="1000" height="821.106"/>
										</defs>
										<defs>
											<rect id="SVGID_95_" width="1000" height="821.106"/>
										</defs>
										<defs>
											<rect id="SVGID_96_" width="1000" height="821.106"/>
										</defs>
										<defs>
											<rect id="SVGID_97_" width="1000" height="821.106"/>
										</defs>
										<defs>
											<rect id="SVGID_98_" width="1000" height="821.106"/>
										</defs>
										<clipPath id="SVGID_99_">
											<use xlink:href="#SVGID_87_"  overflow="visible"/>
										</clipPath>
										<clipPath id="SVGID_100_" clip-path="url(#SVGID_99_)">
											<use xlink:href="#SVGID_88_"  overflow="visible"/>
										</clipPath>
										<clipPath id="SVGID_101_" clip-path="url(#SVGID_100_)">
											<use xlink:href="#SVGID_89_"  overflow="visible"/>
										</clipPath>
										<clipPath id="SVGID_102_" clip-path="url(#SVGID_101_)">
											<use xlink:href="#SVGID_90_"  overflow="visible"/>
										</clipPath>
										<clipPath id="SVGID_103_" clip-path="url(#SVGID_102_)">
											<use xlink:href="#SVGID_91_"  overflow="visible"/>
										</clipPath>
										<clipPath id="SVGID_104_" clip-path="url(#SVGID_103_)">
											<use xlink:href="#SVGID_92_"  overflow="visible"/>
										</clipPath>
										<clipPath id="SVGID_105_" clip-path="url(#SVGID_104_)">
											<use xlink:href="#SVGID_93_"  overflow="visible"/>
										</clipPath>
										<clipPath id="SVGID_106_" clip-path="url(#SVGID_105_)">
											<use xlink:href="#SVGID_94_"  overflow="visible"/>
										</clipPath>
										<clipPath id="SVGID_107_" clip-path="url(#SVGID_106_)">
											<use xlink:href="#SVGID_95_"  overflow="visible"/>
										</clipPath>
										<clipPath id="SVGID_108_" clip-path="url(#SVGID_107_)">
											<use xlink:href="#SVGID_96_"  overflow="visible"/>
										</clipPath>
										<clipPath id="SVGID_109_" clip-path="url(#SVGID_108_)">
											<use xlink:href="#SVGID_97_"  overflow="visible"/>
										</clipPath>
										<clipPath id="SVGID_110_" clip-path="url(#SVGID_109_)">
											<use xlink:href="#SVGID_98_"  overflow="visible"/>
										</clipPath>
										<path clip-path="url(#SVGID_110_)" fill="#868D93" d="M693.688,677.247h-95.069v45.313c0,7.396,2.105,14.645,6.071,20.891
											c7.494,11.809,20.51,18.963,34.494,18.963h13.938c13.985,0,27-7.154,34.495-18.963c3.965-6.246,6.069-13.492,6.069-20.891
											L693.688,677.247L693.688,677.247z"/>
										<path clip-path="url(#SVGID_110_)" fill="#868D93" d="M598.611,707.801c0.271,0.008,0.546,0,0.821-0.029l95.07-9.855
											c3.245-0.336,5.51-3.252,5.063-6.514c-0.449-3.262-3.451-5.635-6.69-5.295l-95.072,9.854
											c-3.244,0.336-5.511,3.254-5.061,6.516C593.153,705.459,595.696,707.7,598.611,707.801"/>
										<path clip-path="url(#SVGID_110_)" fill="#868D93" d="M598.611,728.54c0.271,0.01,0.546,0,0.821-0.029l95.07-9.855
											c3.245-0.334,5.51-3.252,5.063-6.514c-0.449-3.262-3.451-5.629-6.69-5.295l-95.072,9.855
											c-3.244,0.336-5.511,3.252-5.061,6.514C593.153,726.198,595.696,728.438,598.611,728.54"/>
										<path clip-path="url(#SVGID_110_)" fill="#868D93" d="M602.408,749.065c0.271,0.01,0.546,0,0.822-0.029l90.113-9.342
											c3.245-0.336,5.512-3.252,5.063-6.516c-0.45-3.26-3.455-5.635-6.69-5.295l-90.116,9.344
											c-3.243,0.336-5.511,3.252-5.061,6.514C596.95,746.723,599.493,748.963,602.408,749.065"/>
										<path clip-path="url(#SVGID_110_)" fill="#F4C914" d="M643.215,233.389c-4.551,0-8.238,3.689-8.238,8.239v48.61
											c0,4.549,3.688,8.239,8.238,8.239s8.238-3.69,8.238-8.239v-48.61C651.453,237.078,647.766,233.389,643.215,233.389"/>
										<path clip-path="url(#SVGID_110_)" fill="#F4C914" d="M460.358,350.711l41.685,25.006
											c1.328,0.797,2.788,1.176,4.231,1.176c2.799,0,5.526-1.428,7.07-4.002c2.342-3.903,1.075-8.963-2.825-11.304
											l-41.685-25.007c-3.903-2.34-8.963-1.074-11.304,2.827C455.191,343.311,456.457,348.371,460.358,350.711"/>
										<path clip-path="url(#SVGID_110_)" fill="#F4C914" d="M547.488,265.006c-2.225-3.971-7.244-5.387-11.215-3.164
											c-3.971,2.224-5.387,7.245-3.162,11.215l23.75,42.412c1.51,2.697,4.311,4.216,7.194,4.216c1.363,0,2.744-0.339,4.02-1.052
											c3.97-2.224,5.386-7.244,3.163-11.215L547.488,265.006z"/>
										<path clip-path="url(#SVGID_110_)" fill="#F4C914" d="M780.282,376.893c1.44,0,2.901-0.379,4.229-1.176l41.687-25.006
											c3.9-2.34,5.168-7.401,2.826-11.303c-2.343-3.903-7.401-5.169-11.305-2.828l-41.685,25.007
											c-3.901,2.341-5.167,7.402-2.826,11.304C774.754,375.465,777.483,376.893,780.282,376.893"/>
										<path clip-path="url(#SVGID_110_)" fill="#F4C914" d="M750.281,261.842c-3.972-2.222-8.991-0.806-11.214,3.164
											l-23.75,42.412c-2.225,3.971-0.809,8.991,3.163,11.215c1.273,0.713,2.653,1.052,4.019,1.052
											c2.886,0,5.686-1.519,7.196-4.216l23.749-42.412C755.668,269.087,754.252,264.066,750.281,261.842"/>
										<path clip-path="url(#SVGID_110_)" fill="#E59A2E" d="M893.859,399.379c0,40.569-42.333,45.862-42.333,45.862
											s42.334,5.291,42.334,45.861c0-40.57,42.333-45.861,42.333-45.861S893.859,439.95,893.859,399.379"/>
										<path clip-path="url(#SVGID_110_)" fill="#E59A2E" d="M833.115,404.56c17.749,0,20.063,18.521,20.063,18.521
											s2.316-18.521,20.065-18.521c-17.749,0-20.065-18.521-20.065-18.521S850.864,404.56,833.115,404.56"/>
										<g clip-path="url(#SVGID_110_)">
											<g opacity="0.75">
												<g>
													<defs>
														<rect id="SVGID_111_" x="740.916" y="495.491" width="187.223" height="261.09"/>
													</defs>
													<defs>
														<rect id="SVGID_112_" x="740.916" y="495.491" width="187.223" height="261.09"/>
													</defs>
													<defs>
														<rect id="SVGID_113_" x="740.916" y="495.491" width="187.223" height="261.09"/>
													</defs>
													<defs>
														<rect id="SVGID_114_" x="740.916" y="495.491" width="187.223" height="261.09"/>
													</defs>
													<defs>
														<rect id="SVGID_115_" x="740.916" y="495.491" width="187.223" height="261.09"/>
													</defs>
													<defs>
														<rect id="SVGID_116_" x="740.916" y="495.491" width="187.223" height="261.09"/>
													</defs>
													<defs>
														<rect id="SVGID_117_" x="740.916" y="495.491" width="187.223" height="261.09"/>
													</defs>
													<clipPath id="SVGID_118_">
														<use xlink:href="#SVGID_111_"  overflow="visible"/>
													</clipPath>
													<clipPath id="SVGID_119_" clip-path="url(#SVGID_118_)">
														<use xlink:href="#SVGID_112_"  overflow="visible"/>
													</clipPath>
													<clipPath id="SVGID_120_" clip-path="url(#SVGID_119_)">
														<use xlink:href="#SVGID_113_"  overflow="visible"/>
													</clipPath>
													<clipPath id="SVGID_121_" clip-path="url(#SVGID_120_)">
														<use xlink:href="#SVGID_114_"  overflow="visible"/>
													</clipPath>
													<clipPath id="SVGID_122_" clip-path="url(#SVGID_121_)">
														<use xlink:href="#SVGID_115_"  overflow="visible"/>
													</clipPath>
													<clipPath id="SVGID_123_" clip-path="url(#SVGID_122_)">
														<use xlink:href="#SVGID_116_"  overflow="visible"/>
													</clipPath>
													<clipPath id="SVGID_124_" clip-path="url(#SVGID_123_)">
														<use xlink:href="#SVGID_117_"  overflow="visible"/>
													</clipPath>
													<path clip-path="url(#SVGID_124_)" fill="#FFE36C" d="M744.32,564.168c13.771-49.82,65.318-79.043,115.141-65.271
														c49.819,13.77,79.043,65.318,65.272,115.141c-5.489,19.859-16.985,36.439-31.979,48.334
														c-18.239,15.844-57.751,28.504-61.379,41.627l-4.145,14.994c-0.827,2.994-3.926,4.75-6.918,3.922l-14.496-4.008
														l-13.322-3.68l-14.497-4.01c-2.993-0.826-4.748-3.924-3.921-6.918l4.144-14.992
														c3.629-13.123-23.772-44.279-31.287-67.242C740.179,604.159,738.831,584.028,744.32,564.168"/>
													<path clip-path="url(#SVGID_124_)" fill="#FFFFFF" d="M908.284,615.061c-2.858-0.789-4.535-3.748-3.745-6.605
														c8.872-32.098-5.113-66.008-34.012-82.463c-2.576-1.467-3.477-4.744-2.01-7.324c1.469-2.576,4.746-3.479,7.324-2.008
														c33.174,18.891,49.231,57.813,39.047,94.656C914.1,614.174,911.142,615.85,908.284,615.061"/>
													<path clip-path="url(#SVGID_124_)" fill="#F4C914" d="M923.085,619.323c-15.202,35.611-55.65,65.65-110.843,50.395
														c-55.189-15.254-72.858-63.287-69.224-100.166c-3.882,18.092-2.229,36.225,3.915,52.514
														c7.513,22.963,34.915,54.117,31.287,67.24l-4.145,14.996c-0.827,2.992,0.928,6.088,3.921,6.916l14.497,4.008
														l13.32,3.682l14.497,4.008c2.994,0.828,6.091-0.928,6.917-3.922l4.146-14.994c3.628-13.123,43.14-25.781,61.379-41.627
														C906.395,651.551,917.124,636.84,923.085,619.323"/>
													<path clip-path="url(#SVGID_124_)" fill="#868D93" d="M831.738,710.991L774.32,695.12l-7.564,27.365
														c-1.236,4.469-1.173,9.195,0.178,13.631c2.558,8.383,9.224,14.877,17.668,17.211l8.418,2.328
														c8.447,2.334,17.501,0.188,23.999-5.693c3.438-3.111,5.919-7.137,7.155-11.604L831.738,710.991z"/>
													<path clip-path="url(#SVGID_124_)" fill="#868D93" d="M769.215,713.573c0.162,0.051,0.329,0.09,0.502,0.119
														l59.063,9.92c2.018,0.338,3.873-1.045,4.146-3.09c0.271-2.047-1.145-3.98-3.157-4.314l-59.063-9.92
														c-2.015-0.338-3.87,1.045-4.144,3.09C766.31,711.249,767.471,713.024,769.215,713.573"/>
													<path clip-path="url(#SVGID_124_)" fill="#868D93" d="M765.753,726.096c0.162,0.053,0.329,0.092,0.502,0.119
														l59.063,9.92c2.018,0.338,3.873-1.045,4.146-3.09c0.271-2.045-1.146-3.975-3.157-4.314l-59.063-9.92
														c-2.016-0.338-3.871,1.045-4.144,3.09C762.847,723.772,764.01,725.547,765.753,726.096"/>
													<path clip-path="url(#SVGID_124_)" fill="#868D93" d="M764.619,739.127c0.163,0.051,0.33,0.09,0.502,0.119
														l55.982,9.402c2.018,0.338,3.871-1.045,4.146-3.092c0.271-2.045-1.147-3.979-3.157-4.314l-55.984-9.4
														c-2.017-0.338-3.871,1.045-4.145,3.09C761.714,736.801,762.876,738.581,764.619,739.127"/>
												</g>
											</g>
										</g>
									</g>
								</g>
							</g>
						</g>
					</g>
				</g>
			</g>
		</g>
	</g>
</g>
</svg>
