<?xml version="1.0" encoding="utf-8"?>
<!-- Generator: Adobe Illustrator 15.0.0, SVG Export Plug-In . SVG Version: 6.00 Build 0)  -->
<!DOCTYPE svg PUBLIC "-//W3C//DTD SVG 1.1//EN" "http://www.w3.org/Graphics/SVG/1.1/DTD/svg11.dtd">
<svg version="1.1" id="Layer_1" xmlns="http://www.w3.org/2000/svg" xmlns:xlink="http://www.w3.org/1999/xlink" x="0px" y="0px"
	 width="1000px" height="638px" viewBox="0 128.053 1000 638" enable-background="new 0 128.053 1000 638" xml:space="preserve">
<g>
	<g>
		<defs>
			<rect id="SVGID_1_" width="1000" height="821.106"/>
		</defs>
		<clipPath id="SVGID_2_">
			<use xlink:href="#SVGID_1_"  overflow="visible"/>
		</clipPath>
		<g clip-path="url(#SVGID_2_)">
			<g>
				<defs>
					<rect id="SVGID_3_" width="1000" height="821.106"/>
				</defs>
				<clipPath id="SVGID_4_">
					<use xlink:href="#SVGID_3_"  overflow="visible"/>
				</clipPath>
				<g clip-path="url(#SVGID_4_)">
					<g opacity="0.5">
						<g>
							<defs>
								<rect id="SVGID_5_" x="528.974" y="272.475" width="160.959" height="89.894"/>
							</defs>
							<clipPath id="SVGID_6_">
								<use xlink:href="#SVGID_5_"  overflow="visible"/>
							</clipPath>
							<path clip-path="url(#SVGID_6_)" fill="#868D93" d="M609.359,362.326c-16.516,0-33.029-0.044-49.543,0.019
								c-8.498,0.032-15.806-2.624-21.916-8.179c-14.111-12.824-11.049-35.738,6.055-44.755c2.53-1.334,5.38-2.153,8.137-3.062
								c0.901-0.296,1.26-0.65,1.463-1.508c3.813-16.118,14.047-26.905,30.954-30.953c17.157-4.107,31.759,0.834,43.268,13.612
								c0.659,0.732,1.187,0.862,2.156,0.687c7.354-1.324,14.335-0.383,20.898,3.149c5.957,3.205,10.229,7.788,12.882,13.729
								c0.31,0.693,0.79,0.868,1.453,0.995c10.661,2.032,18.273,7.745,22.456,17.203c8.199,18.543-6.441,39.095-27.746,39.105
								c-14.76,0.007-29.52-0.02-44.279-0.031c-2.079-0.001-4.157,0-6.236,0L609.359,362.326L609.359,362.326z"/>
						</g>
					</g>
					<g>
						<defs>
							<rect id="SVGID_7_" width="1000" height="821.106"/>
						</defs>
						<clipPath id="SVGID_8_">
							<use xlink:href="#SVGID_7_"  overflow="visible"/>
						</clipPath>
						<g clip-path="url(#SVGID_8_)">
							<g opacity="0.5">
								<g>
									<defs>
										<rect id="SVGID_9_" x="111.216" y="690.317" width="102.965" height="74.043"/>
									</defs>
									<defs>
										<rect id="SVGID_10_" x="111.216" y="690.317" width="102.965" height="74.043"/>
									</defs>
									<defs>
										<rect id="SVGID_11_" x="111.216" y="690.317" width="102.965" height="74.043"/>
									</defs>
									<defs>
										<rect id="SVGID_12_" x="111.216" y="690.317" width="102.965" height="74.043"/>
									</defs>
									<defs>
										<rect id="SVGID_13_" x="111.216" y="690.317" width="102.965" height="74.043"/>
									</defs>
									<defs>
										<rect id="SVGID_14_" x="111.216" y="690.317" width="102.965" height="74.043"/>
									</defs>
									<defs>
										<rect id="SVGID_15_" x="111.216" y="690.317" width="102.965" height="74.043"/>
									</defs>
									<clipPath id="SVGID_16_">
										<use xlink:href="#SVGID_9_"  overflow="visible"/>
									</clipPath>
									<clipPath id="SVGID_17_" clip-path="url(#SVGID_16_)">
										<use xlink:href="#SVGID_10_"  overflow="visible"/>
									</clipPath>
									<clipPath id="SVGID_18_" clip-path="url(#SVGID_17_)">
										<use xlink:href="#SVGID_11_"  overflow="visible"/>
									</clipPath>
									<clipPath id="SVGID_19_" clip-path="url(#SVGID_18_)">
										<use xlink:href="#SVGID_12_"  overflow="visible"/>
									</clipPath>
									<clipPath id="SVGID_20_" clip-path="url(#SVGID_19_)">
										<use xlink:href="#SVGID_13_"  overflow="visible"/>
									</clipPath>
									<clipPath id="SVGID_21_" clip-path="url(#SVGID_20_)">
										<use xlink:href="#SVGID_14_"  overflow="visible"/>
									</clipPath>
									<clipPath id="SVGID_22_" clip-path="url(#SVGID_21_)">
										<use xlink:href="#SVGID_15_"  overflow="visible"/>
									</clipPath>
									<path clip-path="url(#SVGID_22_)" fill="#E59A2E" d="M158.826,762.803c-19.587,5.848-40.206-5.291-46.054-24.879
										c-5.847-19.586,5.29-40.205,24.878-46.053c7.808-2.332,15.779-1.961,22.913,0.564c9.141,2.785,21.681,13.367,26.841,11.826
										l5.895-1.76c1.176-0.35,2.416,0.318,2.766,1.494l1.702,5.701l1.564,5.236l1.702,5.699c0.351,1.178-0.318,2.416-1.495,2.77
										l-5.896,1.758c-5.16,1.541-9.845,17.268-15.962,24.605C173.097,755.792,166.635,760.471,158.826,762.803"/>
									<path clip-path="url(#SVGID_22_)" fill="#FFFFFF" d="M174.311,721.047c-1.124,0.334-2.307-0.305-2.643-1.428
										c-3.767-12.621-15.575-21.047-28.714-20.492c-1.172,0.049-2.163-0.861-2.211-2.033c-0.05-1.172,0.859-2.162,2.032-2.211
										c15.084-0.637,28.64,9.035,32.964,23.521C176.073,719.53,175.435,720.711,174.311,721.047"/>
									<path clip-path="url(#SVGID_22_)" fill="#E28130" d="M139.768,691.313c15.127-2.385,33.688,4.861,40.166,26.563
										c6.479,21.699-5.907,37.709-19.03,44.234c6.878-2.5,12.607-6.859,16.776-12.342c6.117-7.34,10.803-23.063,15.963-24.604
										l5.896-1.762c1.176-0.352,1.845-1.59,1.495-2.768l-1.703-5.699l-1.563-5.236L196.065,704
										c-0.351-1.178-1.59-1.848-2.767-1.496l-5.894,1.76c-5.16,1.541-17.7-9.041-26.841-11.826
										C154.074,690.139,146.891,689.631,139.768,691.313"/>
									<path clip-path="url(#SVGID_22_)" fill="#868D93" d="M189.671,702.674l6.739,22.574l10.76-3.211
										c1.757-0.525,3.328-1.539,4.53-2.924c2.273-2.617,3.049-6.213,2.057-9.535l-0.987-3.309
										c-0.993-3.322-3.614-5.904-6.949-6.848c-1.764-0.5-3.634-0.484-5.391,0.039L189.671,702.674z"/>
									<path clip-path="url(#SVGID_22_)" fill="#868D93" d="M203.666,723.084c-0.017-0.063-0.038-0.129-0.065-0.193l-9.08-21.875
										c-0.309-0.746-1.163-1.076-1.905-0.74c-0.743,0.338-1.094,1.219-0.783,1.965l9.079,21.875
										c0.311,0.748,1.163,1.078,1.906,0.742C203.497,724.547,203.849,723.786,203.666,723.084"/>
									<path clip-path="url(#SVGID_22_)" fill="#868D93" d="M208.591,721.616c-0.018-0.064-0.039-0.129-0.065-0.193l-9.081-21.877
										c-0.309-0.744-1.163-1.076-1.905-0.74c-0.742,0.34-1.092,1.221-0.783,1.967l9.08,21.875c0.31,0.746,1.163,1.078,1.905,0.74
										C208.422,723.077,208.773,722.315,208.591,721.616"/>
									<path clip-path="url(#SVGID_22_)" fill="#868D93" d="M213.195,719.258c-0.017-0.064-0.038-0.131-0.065-0.191l-8.607-20.736
										c-0.309-0.748-1.163-1.078-1.905-0.74c-0.742,0.338-1.093,1.219-0.783,1.963l8.606,20.736
										c0.311,0.746,1.163,1.078,1.906,0.74C213.026,720.719,213.378,719.958,213.195,719.258"/>
								</g>
							</g>
							<g>
								<defs>
									<rect id="SVGID_23_" width="1000" height="821.106"/>
								</defs>
								<defs>
									<rect id="SVGID_24_" width="1000" height="821.106"/>
								</defs>
								<defs>
									<rect id="SVGID_25_" width="1000" height="821.106"/>
								</defs>
								<defs>
									<rect id="SVGID_26_" width="1000" height="821.106"/>
								</defs>
								<clipPath id="SVGID_27_">
									<use xlink:href="#SVGID_23_"  overflow="visible"/>
								</clipPath>
								<clipPath id="SVGID_28_" clip-path="url(#SVGID_27_)">
									<use xlink:href="#SVGID_24_"  overflow="visible"/>
								</clipPath>
								<clipPath id="SVGID_29_" clip-path="url(#SVGID_28_)">
									<use xlink:href="#SVGID_25_"  overflow="visible"/>
								</clipPath>
								<clipPath id="SVGID_30_" clip-path="url(#SVGID_29_)">
									<use xlink:href="#SVGID_26_"  overflow="visible"/>
								</clipPath>
								<path clip-path="url(#SVGID_30_)" fill="#FFE67E" d="M690,203.926c0-5.24,0.024-10.479-0.015-15.718
									c-0.014-1.721,0.261-2.373,2.188-1.464c9.533,4.492,19.145,8.82,28.684,13.298c2.018,0.947,3.211,0.746,4.129-1.422
									c4.049-9.557,8.204-19.069,12.271-28.618c1.096-2.572,1.476-2.725,3.325-0.643c7.048,7.933,14.102,15.861,21.06,23.87
									c1.164,1.341,2.066,1.323,3.206,0.279c5.871-5.38,11.731-10.774,17.592-16.167c2.188-2.016,4.365-4.047,6.55-6.069
									c1.138-1.05,1.861-0.956,2.354,0.658c2.134,6.993,4.337,13.964,6.502,20.948c1.045,3.369,2.065,6.746,3.087,10.122
									c0.509,1.675,1.364,2.308,3.224,1.649c8.266-2.924,16.566-5.745,24.863-8.577c2.056-0.701,4.141-1.314,6.219-1.947
									c1.709-0.521,1.727,0.609,1.59,1.74c-0.664,5.504-1.39,11-2.034,16.507c-0.605,5.19-1.121,10.393-1.713,15.585
									c-0.225,1.969,0.596,2.662,2.555,2.827c10.744,0.904,21.478,1.956,32.22,2.891c1.66,0.144,1.672,0.706,0.944,1.933
									c-3.557,6.012-7.073,12.047-10.609,18.071c-1.951,3.321-3.846,6.677-5.896,9.935c-1.156,1.836-0.676,2.805,1.114,3.8
									c9.272,5.154,18.479,10.43,27.751,15.585c1.682,0.936,2.024,1.513,0.253,2.749c-7.783,5.43-15.467,11.002-23.271,16.401
									c-5.291,3.662-5.349,3.567-1.518,8.691c5.632,7.533,11.258,15.07,16.882,22.609c1.46,1.957,1.182,2.552-1.308,3.042
									c-10.574,2.084-21.139,4.223-31.726,6.243c-1.479,0.284-1.659,0.924-1.386,2.14c2.018,8.938,3.987,17.886,6.058,26.811
									c0.415,1.792,0.594,3.627,1.26,5.386c0.591,1.563-0.263,2.271-1.878,1.912c-3.688-0.821-7.369-1.676-11.058-2.504
									c-5.549-1.243-11.093-2.511-16.655-3.688c-1.561-0.33-3.043-0.911-4.682-1.041c-1.356-0.108-1.976,0.185-2.177,1.486
									c-1.482,9.533-3.93,18.869-5.713,28.341c-1.112,5.908-1.033,5.809-5.947,2.438c-7.95-5.452-15.541-11.388-23.296-17.102
									c-1.536-1.132-2.252-0.765-3.236,0.644c-6.076,8.684-12.197,17.338-18.378,25.95c-1.719,2.396-1.857,2.328-3.236-0.146
									c-4.659-8.365-9.298-16.742-13.943-25.114c-0.078-0.141-0.146-0.288-0.232-0.424c-2.887-4.493-2.845-4.365-7.616-1.449
									c-8.428,5.15-16.831,10.344-25.491,15.106c-1.235,0.68-1.572,0.651-1.707-0.833c-0.909-10.099-1.968-20.185-2.809-30.29
									c-0.395-4.744-0.933-5.175-5.596-4.532c-7.335,1.014-14.708,1.75-22.062,2.629c-2.395,0.286-4.774,0.67-7.165,0.974
									c-2.128,0.27-2.581-0.219-1.936-2.132c3.348-9.906,6.703-19.81,10.08-29.705c0.975-2.854,0.72-3.347-2.024-4.185
									c-10.067-3.074-20.12-6.196-30.186-9.283c-1.548-0.475-1.938-1.058-0.78-2.505c3.125-3.907,6.842-7.257,10.128-11.012
									c3.757-4.29,7.685-8.429,11.523-12.648c1.206-1.325,1.416-2.56-0.139-3.908c-6.437-5.585-12.819-11.229-19.213-16.863
									c-1.689-1.488-3.29-3.083-5.03-4.507c-1.435-1.174-0.903-1.918,0.439-2.333c4.664-1.438,8.941-3.762,13.386-5.703
									c5.852-2.553,11.65-5.224,17.501-7.784c1.271-0.556,0.897-1.281,0.508-2.123c-3.011-6.485-6.02-12.973-9.031-19.459
									c-1.693-3.644-3.405-7.281-5.086-10.931c-0.812-1.763,0.49-1.654,1.551-1.647c7.091,0.046,14.183,0.108,21.271,0.174
									c3.62,0.034,7.242,0.024,10.857,0.159c2.145,0.08,2.867-0.938,2.857-2.908c-0.029-5.4-0.011-10.801-0.011-16.202
									C690.13,203.926,690.064,203.926,690,203.926 M671.968,291.873c-0.108,47.093,37.878,85.771,85.479,86.538
									c48.988,0.789,87.737-38.694,88.378-85.489c0.666-48.808-38.772-87.859-85.786-88.41
									C711.594,203.942,671.484,243.394,671.968,291.873"/>
								<path clip-path="url(#SVGID_30_)" fill="#FFFFFF" d="M671.967,291.873c-0.481-48.478,39.627-87.93,88.071-87.361
									c47.013,0.552,86.453,39.603,85.786,88.41c-0.641,46.795-39.39,86.278-88.377,85.489
									C709.846,377.644,671.858,338.965,671.967,291.873 M760.32,370.593c8.066,0.252,16.504-1.456,24.654-4.351
									c13.482-4.787,25.104-12.461,34.445-23.397c4.607-5.394,8.646-11.242,11.534-17.693c2.881-6.432,5.056-13.167,6.146-20.206
									c1.415-9.142,1.563-18.26-0.082-27.387c-0.824-4.578-2.122-9.014-3.888-13.314c-2.125-5.176-4.069-10.428-7.46-14.995
									c-1.815-2.447-4.099-4.536-5.816-6.956c-1.77-2.489-4.002-4.553-5.701-7.114c-2.133-3.214-5.582-5.299-8.695-7.565
									c-9.563-6.96-20.143-11.617-31.801-13.833c-9.041-1.718-18.15-1.932-27.158-0.456c-12.626,2.07-24.215,6.814-34.59,14.557
									c-7.717,5.76-14.249,12.582-19.471,20.551c-4.453,6.798-7.677,14.223-9.843,22.169c-5.331,19.552-3.262,38.369,5.496,56.386
									c6.087,12.523,15.271,22.648,26.893,30.373C728.485,366.335,743.405,370.762,760.32,370.593"/>
								<path clip-path="url(#SVGID_30_)" fill="#FFE67E" d="M760.32,370.593c-16.915,0.169-31.835-4.258-45.337-13.231
									c-11.622-7.725-20.806-17.85-26.893-30.373c-8.758-18.017-10.827-36.834-5.496-56.386c2.166-7.946,5.39-15.371,9.844-22.169
									c5.221-7.969,11.753-14.791,19.47-20.551c10.375-7.743,21.964-12.487,34.59-14.557c9.008-1.476,18.117-1.262,27.158,0.456
									c11.658,2.216,22.236,6.873,31.801,13.833c3.113,2.266,6.563,4.351,8.695,7.565c1.7,2.561,3.933,4.625,5.701,7.114
									c1.719,2.42,4.001,4.509,5.816,6.956c3.391,4.567,5.335,9.819,7.46,14.995c1.766,4.3,3.063,8.736,3.889,13.314
									c1.644,9.127,1.497,18.245,0.081,27.387c-1.09,7.039-3.265,13.773-6.146,20.206c-2.89,6.451-6.927,12.299-11.534,17.693
									c-9.342,10.937-20.963,18.61-34.445,23.397C776.824,369.137,768.388,370.845,760.32,370.593"/>
								<g clip-path="url(#SVGID_30_)">
									<g opacity="0.75">
										<g>
											<defs>
												<rect id="SVGID_31_" x="183.552" y="338.305" width="383.272" height="333.719"/>
											</defs>
											<defs>
												<rect id="SVGID_32_" x="183.552" y="338.305" width="383.272" height="333.719"/>
											</defs>
											<defs>
												<rect id="SVGID_33_" x="183.552" y="338.305" width="383.272" height="333.719"/>
											</defs>
											<defs>
												<rect id="SVGID_34_" x="183.552" y="338.305" width="383.272" height="333.719"/>
											</defs>
											<defs>
												<rect id="SVGID_35_" x="183.552" y="338.305" width="383.272" height="333.719"/>
											</defs>
											<defs>
												<rect id="SVGID_36_" x="183.552" y="338.305" width="383.272" height="333.719"/>
											</defs>
											<defs>
												<rect id="SVGID_37_" x="183.552" y="338.305" width="383.272" height="333.719"/>
											</defs>
											<defs>
												<rect id="SVGID_38_" x="183.552" y="338.305" width="383.272" height="333.719"/>
											</defs>
											<defs>
												<rect id="SVGID_39_" x="183.552" y="338.305" width="383.272" height="333.719"/>
											</defs>
											<defs>
												<rect id="SVGID_40_" x="183.552" y="338.305" width="383.272" height="333.719"/>
											</defs>
											<defs>
												<rect id="SVGID_41_" x="183.552" y="338.305" width="383.272" height="333.719"/>
											</defs>
											<defs>
												<rect id="SVGID_42_" x="183.552" y="338.305" width="383.272" height="333.719"/>
											</defs>
											<defs>
												<rect id="SVGID_43_" x="183.552" y="338.305" width="383.272" height="333.719"/>
											</defs>
											<defs>
												<rect id="SVGID_44_" x="183.552" y="338.305" width="383.272" height="333.719"/>
											</defs>
											<clipPath id="SVGID_45_">
												<use xlink:href="#SVGID_31_"  overflow="visible"/>
											</clipPath>
											<clipPath id="SVGID_46_" clip-path="url(#SVGID_45_)">
												<use xlink:href="#SVGID_32_"  overflow="visible"/>
											</clipPath>
											<clipPath id="SVGID_47_" clip-path="url(#SVGID_46_)">
												<use xlink:href="#SVGID_33_"  overflow="visible"/>
											</clipPath>
											<clipPath id="SVGID_48_" clip-path="url(#SVGID_47_)">
												<use xlink:href="#SVGID_34_"  overflow="visible"/>
											</clipPath>
											<clipPath id="SVGID_49_" clip-path="url(#SVGID_48_)">
												<use xlink:href="#SVGID_35_"  overflow="visible"/>
											</clipPath>
											<clipPath id="SVGID_50_" clip-path="url(#SVGID_49_)">
												<use xlink:href="#SVGID_36_"  overflow="visible"/>
											</clipPath>
											<clipPath id="SVGID_51_" clip-path="url(#SVGID_50_)">
												<use xlink:href="#SVGID_37_"  overflow="visible"/>
											</clipPath>
											<clipPath id="SVGID_52_" clip-path="url(#SVGID_51_)">
												<use xlink:href="#SVGID_38_"  overflow="visible"/>
											</clipPath>
											<clipPath id="SVGID_53_" clip-path="url(#SVGID_52_)">
												<use xlink:href="#SVGID_39_"  overflow="visible"/>
											</clipPath>
											<clipPath id="SVGID_54_" clip-path="url(#SVGID_53_)">
												<use xlink:href="#SVGID_40_"  overflow="visible"/>
											</clipPath>
											<clipPath id="SVGID_55_" clip-path="url(#SVGID_54_)">
												<use xlink:href="#SVGID_41_"  overflow="visible"/>
											</clipPath>
											<clipPath id="SVGID_56_" clip-path="url(#SVGID_55_)">
												<use xlink:href="#SVGID_42_"  overflow="visible"/>
											</clipPath>
											<clipPath id="SVGID_57_" clip-path="url(#SVGID_56_)">
												<use xlink:href="#SVGID_43_"  overflow="visible"/>
											</clipPath>
											<clipPath id="SVGID_58_" clip-path="url(#SVGID_57_)">
												<use xlink:href="#SVGID_44_"  overflow="visible"/>
											</clipPath>
											<path clip-path="url(#SVGID_58_)" fill="#F4C914" d="M566.502,452.749c4.538-48.508-39.403-92.287-98.146-97.782
												c-58.741-5.495-110.039,29.375-114.577,77.883c-1.801,19.26,4.046,37.771,15.422,53.439
												c3.524,6.717,6.728,13.123,9.648,19.232v-0.002c0,0,0.01,0.021,0.016,0.033c1.121,2.348,2.204,4.652,3.242,6.91
												c9.937,20.648,40.604,80.389,63.794,82.561c23.179,2.168,64.368-50.799,77.979-69.27
												c1.451-2.043,2.955-4.127,4.506-6.242l0.003-0.004l0,0c4.002-5.461,8.339-11.16,13.048-17.107
												C555.521,489.116,564.7,472.008,566.502,452.749"/>
											<path clip-path="url(#SVGID_58_)" fill="#E28130" d="M412.045,605.528c9.934,7.461,32.063,8.658,32.063,8.658
												s21.969,2.928,33.113-2.563c2.496-1.229,4.318-3.502,4.959-6.209c2.007-8.48,10.335-35.486,41.7-79.658
												c-13.612,18.469-54.801,71.436-77.979,69.268c-23.189-2.17-53.857-61.91-63.793-82.559
												c22.641,49.242,25.816,77.334,26.216,86.041C408.451,601.286,409.82,603.858,412.045,605.528"/>
											<path clip-path="url(#SVGID_58_)" fill="#FFFFFF" d="M547.64,452.344c-3.396,0.635-6.667-1.605-7.301-5.004
												c-7.12-38.16-39.11-66.527-77.794-68.985c-3.45-0.22-6.069-3.195-5.85-6.645c0.219-3.45,3.192-6.071,6.643-5.848
												c44.411,2.822,81.134,35.383,89.307,79.182C553.278,448.442,551.037,451.709,547.64,452.344"/>
											<path clip-path="url(#SVGID_58_)" fill="#868D93" d="M482.381,607.508l-74.643-6.98l-3.327,35.572
												c-0.544,5.811,0.577,11.652,3.232,16.85c5.017,9.82,14.71,16.395,25.69,17.422l10.943,1.021
												c10.98,1.027,21.724-3.633,28.476-12.354c3.571-4.613,5.757-10.146,6.301-15.955L482.381,607.508z"/>
											<path clip-path="url(#SVGID_58_)" fill="#868D93" d="M405.489,624.514c0.212,0.027,0.428,0.041,0.647,0.037l75.366-0.754
												c2.572-0.025,4.565-2.148,4.452-4.744c-0.113-2.594-2.296-4.678-4.864-4.646l-75.367,0.756
												c-2.571,0.025-4.565,2.148-4.451,4.742C401.376,622.276,403.208,624.221,405.489,624.514"/>
											<path clip-path="url(#SVGID_58_)" fill="#868D93" d="M403.966,640.795c0.213,0.027,0.429,0.041,0.648,0.039l75.366-0.756
												c2.572-0.025,4.565-2.148,4.452-4.742s-2.297-4.674-4.863-4.648l-75.368,0.756c-2.571,0.023-4.566,2.146-4.452,4.742
												C399.853,638.557,401.685,640.502,403.966,640.795"/>
											<path clip-path="url(#SVGID_58_)" fill="#868D93" d="M405.439,657.192c0.213,0.025,0.429,0.041,0.646,0.037l71.438-0.717
												c2.571-0.025,4.564-2.148,4.451-4.742c-0.112-2.594-2.299-4.68-4.863-4.648l-71.438,0.717
												c-2.572,0.025-4.565,2.148-4.452,4.744C401.327,654.954,403.159,656.899,405.439,657.192"/>
											<path clip-path="url(#SVGID_58_)" fill="#FFE36C" d="M183.552,456.083c0-65.047,52.731-117.778,117.779-117.778
												S419.11,391.035,419.11,456.083c0,25.932-8.386,49.896-22.583,69.354h0.001c-16.813,25.334-60.496,53.936-60.496,71.07
												v19.578c0,3.908-3.168,7.076-7.076,7.076h-18.927h-17.396h-18.928c-3.908,0-7.076-3.168-7.076-7.076v-19.578
												c0-17.137-43.683-45.736-60.495-71.07C191.938,505.981,183.552,482.014,183.552,456.083"/>
											<path clip-path="url(#SVGID_58_)" fill="#FFFFFF" d="M399.501,462.84c-3.731,0-6.757-3.023-6.757-6.758
												c0-41.908-28.334-78.351-68.902-88.622c-3.618-0.916-5.81-4.592-4.894-8.21c0.917-3.618,4.591-5.811,8.21-4.891
												c46.573,11.79,79.101,53.622,79.101,101.723C406.259,459.817,403.233,462.84,399.501,462.84"/>
											<path clip-path="url(#SVGID_58_)" fill="#FFE36C" d="M418.883,463.047c-6.5,48.293-45.491,98.293-117.552,98.293
												c-72.06,0-109.596-52.338-117.552-98.293c1.358,23.248,9.44,44.689,22.356,62.389
												c16.811,25.332,60.495,53.936,60.495,71.07v19.578c0,3.908,3.168,7.076,7.076,7.076h18.928h17.396h18.927
												c3.908,0,7.076-3.168,7.076-7.076v-19.578c0-17.137,43.683-45.738,60.496-71.07h-0.001
												C409.444,507.737,417.526,486.295,418.883,463.047"/>
											<path clip-path="url(#SVGID_58_)" fill="#868D93" d="M338.814,604.868h-74.968v35.729c0,5.834,1.66,11.549,4.787,16.475
												c5.91,9.313,16.173,14.953,27.202,14.953h10.991c11.029,0,21.291-5.641,27.202-14.953
												c3.126-4.926,4.786-10.641,4.786-16.475V604.868z"/>
											<path clip-path="url(#SVGID_58_)" fill="#868D93" d="M263.841,628.959c0.214,0.008,0.431,0,0.649-0.02l74.968-7.773
												c2.559-0.264,4.346-2.563,3.991-5.137c-0.355-2.57-2.722-4.443-5.276-4.174l-74.969,7.77
												c-2.558,0.266-4.345,2.566-3.991,5.137C259.537,627.116,261.542,628.879,263.841,628.959"/>
											<path clip-path="url(#SVGID_58_)" fill="#868D93" d="M263.841,645.315c0.214,0.006,0.431,0,0.649-0.023l74.968-7.771
												c2.559-0.266,4.346-2.563,3.991-5.137c-0.355-2.57-2.722-4.438-5.276-4.174l-74.969,7.77
												c-2.558,0.268-4.345,2.564-3.991,5.139C259.537,643.467,261.542,645.233,263.841,645.315"/>
											<path clip-path="url(#SVGID_58_)" fill="#868D93" d="M266.835,661.5c0.214,0.006,0.431,0,0.648-0.021l71.06-7.369
												c2.56-0.266,4.346-2.564,3.992-5.137c-0.355-2.57-2.725-4.443-5.276-4.176l-71.061,7.367
												c-2.558,0.266-4.345,2.564-3.991,5.137C262.531,659.655,264.536,661.418,266.835,661.5"/>
										</g>
									</g>
									<g>
										<defs>
											<rect id="SVGID_59_" width="1000" height="821.106"/>
										</defs>
										<defs>
											<rect id="SVGID_60_" width="1000" height="821.106"/>
										</defs>
										<defs>
											<rect id="SVGID_61_" width="1000" height="821.106"/>
										</defs>
										<defs>
											<rect id="SVGID_62_" width="1000" height="821.106"/>
										</defs>
										<defs>
											<rect id="SVGID_63_" width="1000" height="821.106"/>
										</defs>
										<defs>
											<rect id="SVGID_64_" width="1000" height="821.106"/>
										</defs>
										<defs>
											<rect id="SVGID_65_" width="1000" height="821.106"/>
										</defs>
										<defs>
											<rect id="SVGID_66_" width="1000" height="821.106"/>
										</defs>
										<defs>
											<rect id="SVGID_67_" width="1000" height="821.106"/>
										</defs>
										<defs>
											<rect id="SVGID_68_" width="1000" height="821.106"/>
										</defs>
										<defs>
											<rect id="SVGID_69_" width="1000" height="821.106"/>
										</defs>
										<defs>
											<rect id="SVGID_70_" width="1000" height="821.106"/>
										</defs>
										<defs>
											<rect id="SVGID_71_" width="1000" height="821.106"/>
										</defs>
										<defs>
											<rect id="SVGID_72_" width="1000" height="821.106"/>
										</defs>
										<defs>
											<rect id="SVGID_73_" width="1000" height="821.106"/>
										</defs>
										<defs>
											<rect id="SVGID_74_" width="1000" height="821.106"/>
										</defs>
										<defs>
											<rect id="SVGID_75_" width="1000" height="821.106"/>
										</defs>
										<defs>
											<rect id="SVGID_76_" width="1000" height="821.106"/>
										</defs>
										<defs>
											<rect id="SVGID_77_" width="1000" height="821.106"/>
										</defs>
										<clipPath id="SVGID_78_">
											<use xlink:href="#SVGID_59_"  overflow="visible"/>
										</clipPath>
										<clipPath id="SVGID_79_" clip-path="url(#SVGID_78_)">
											<use xlink:href="#SVGID_60_"  overflow="visible"/>
										</clipPath>
										<clipPath id="SVGID_80_" clip-path="url(#SVGID_79_)">
											<use xlink:href="#SVGID_61_"  overflow="visible"/>
										</clipPath>
										<clipPath id="SVGID_81_" clip-path="url(#SVGID_80_)">
											<use xlink:href="#SVGID_62_"  overflow="visible"/>
										</clipPath>
										<clipPath id="SVGID_82_" clip-path="url(#SVGID_81_)">
											<use xlink:href="#SVGID_63_"  overflow="visible"/>
										</clipPath>
										<clipPath id="SVGID_83_" clip-path="url(#SVGID_82_)">
											<use xlink:href="#SVGID_64_"  overflow="visible"/>
										</clipPath>
										<clipPath id="SVGID_84_" clip-path="url(#SVGID_83_)">
											<use xlink:href="#SVGID_65_"  overflow="visible"/>
										</clipPath>
										<clipPath id="SVGID_85_" clip-path="url(#SVGID_84_)">
											<use xlink:href="#SVGID_66_"  overflow="visible"/>
										</clipPath>
										<clipPath id="SVGID_86_" clip-path="url(#SVGID_85_)">
											<use xlink:href="#SVGID_67_"  overflow="visible"/>
										</clipPath>
										<clipPath id="SVGID_87_" clip-path="url(#SVGID_86_)">
											<use xlink:href="#SVGID_68_"  overflow="visible"/>
										</clipPath>
										<clipPath id="SVGID_88_" clip-path="url(#SVGID_87_)">
											<use xlink:href="#SVGID_69_"  overflow="visible"/>
										</clipPath>
										<clipPath id="SVGID_89_" clip-path="url(#SVGID_88_)">
											<use xlink:href="#SVGID_70_"  overflow="visible"/>
										</clipPath>
										<clipPath id="SVGID_90_" clip-path="url(#SVGID_89_)">
											<use xlink:href="#SVGID_71_"  overflow="visible"/>
										</clipPath>
										<clipPath id="SVGID_91_" clip-path="url(#SVGID_90_)">
											<use xlink:href="#SVGID_72_"  overflow="visible"/>
										</clipPath>
										<clipPath id="SVGID_92_" clip-path="url(#SVGID_91_)">
											<use xlink:href="#SVGID_73_"  overflow="visible"/>
										</clipPath>
										<clipPath id="SVGID_93_" clip-path="url(#SVGID_92_)">
											<use xlink:href="#SVGID_74_"  overflow="visible"/>
										</clipPath>
										<clipPath id="SVGID_94_" clip-path="url(#SVGID_93_)">
											<use xlink:href="#SVGID_75_"  overflow="visible"/>
										</clipPath>
										<clipPath id="SVGID_95_" clip-path="url(#SVGID_94_)">
											<use xlink:href="#SVGID_76_"  overflow="visible"/>
										</clipPath>
										<clipPath id="SVGID_96_" clip-path="url(#SVGID_95_)">
											<use xlink:href="#SVGID_77_"  overflow="visible"/>
										</clipPath>
										<path clip-path="url(#SVGID_96_)" fill="#FFFFFF" d="M381.498,512.965l-0.001,0.002c0.007,0.01,0.013,0.021,0.02,0.031
											C381.51,512.987,381.498,512.965,381.498,512.965"/>
										<polygon clip-path="url(#SVGID_96_)" fill="#FFFFFF" points="531.688,512.969 531.69,512.965 531.69,512.965 										
											"/>
										<path clip-path="url(#SVGID_96_)" fill="#E59A2E" d="M509.852,565.639c4.084-43.656-35.464-83.057-88.33-88.002
											c-52.867-4.945-99.035,26.438-103.119,70.096c-1.622,17.334,3.64,33.994,13.879,48.096
											c3.173,6.045,6.055,11.811,8.683,17.309l0,0c0,0,0.009,0.021,0.014,0.029c1.011,2.113,1.984,4.189,2.919,6.221
											c8.942,18.582,36.545,72.35,57.414,74.303c20.861,1.949,57.932-45.719,70.183-62.342c1.305-1.84,2.66-3.715,4.055-5.617
											l0.002-0.004l0,0c3.604-4.914,7.504-10.047,11.742-15.396C499.969,598.372,508.229,582.975,509.852,565.639"/>
										<path clip-path="url(#SVGID_96_)" fill="#E28130" d="M370.84,703.141c8.94,6.715,28.857,7.793,28.857,7.793
											s19.771,2.635,29.802-2.305c2.246-1.105,3.887-3.152,4.463-5.59c1.808-7.631,9.302-31.938,37.53-71.693
											c-12.251,16.623-49.32,64.293-70.182,62.342c-20.869-1.951-48.472-55.719-57.414-74.303
											c20.378,44.318,23.235,69.6,23.595,77.439C367.606,699.325,368.838,701.637,370.84,703.141"/>
										<path clip-path="url(#SVGID_96_)" fill="#FFFFFF" d="M492.876,565.278c-3.059,0.57-6.001-1.445-6.571-4.504
											c-6.408-34.344-35.199-59.875-70.015-62.088c-3.105-0.197-5.463-2.875-5.266-5.979c0.198-3.107,2.874-5.465,5.979-5.266
											c39.969,2.539,73.021,31.846,80.376,71.266C497.95,561.764,495.934,564.708,492.876,565.278"/>
										<path clip-path="url(#SVGID_96_)" fill="#868D93" d="M434.143,704.924l-67.179-6.285l-2.994,32.02
											c-0.488,5.227,0.521,10.486,2.908,15.162c4.516,8.84,13.24,14.756,23.122,15.68l9.849,0.922
											c9.884,0.924,19.553-3.27,25.629-11.119c3.215-4.15,5.182-9.133,5.671-14.359L434.143,704.924z"/>
										<path clip-path="url(#SVGID_96_)" fill="#868D93" d="M364.939,720.231c0.19,0.023,0.386,0.035,0.584,0.033l67.828-0.68
											c2.316-0.023,4.108-1.936,4.008-4.27c-0.104-2.334-2.066-4.209-4.378-4.184l-67.83,0.68
											c-2.315,0.021-4.109,1.936-4.008,4.27C361.237,718.215,362.887,719.965,364.939,720.231"/>
										<path clip-path="url(#SVGID_96_)" fill="#868D93" d="M363.568,734.883c0.19,0.025,0.386,0.035,0.584,0.033l67.829-0.68
											c2.315-0.021,4.108-1.934,4.007-4.27c-0.103-2.334-2.066-4.205-4.378-4.184l-67.829,0.68
											c-2.316,0.023-4.11,1.938-4.008,4.271C359.867,732.87,361.516,734.62,363.568,734.883"/>
										<path clip-path="url(#SVGID_96_)" fill="#868D93" d="M364.896,749.639c0.189,0.023,0.385,0.035,0.582,0.033l64.294-0.645
											c2.314-0.023,4.108-1.936,4.007-4.27c-0.103-2.334-2.069-4.211-4.378-4.184l-64.293,0.645
											c-2.316,0.023-4.11,1.936-4.008,4.271C361.193,747.625,362.841,749.375,364.896,749.639"/>
										<path clip-path="url(#SVGID_96_)" fill="#FFE36C" d="M558.524,573.127c-47.284-117.752-82.894-106.695-82.894-106.695
											s-35.606,11.059-7.873,134.883c0,0,17.969,68.896,47.332,106.162c2.905,3.688,7.782,5.201,12.268,3.811l22.175-6.887
											l22.175-6.887c4.484-1.393,7.645-5.402,7.95-10.09C582.744,640.083,558.524,573.127,558.524,573.127"/>
										<path clip-path="url(#SVGID_96_)" fill="#868D93" d="M580.947,691.813l-64.438,20.01l9.537,30.711
											c1.559,5.014,4.51,9.482,8.513,12.883c7.564,6.424,17.893,8.533,27.37,5.59l9.447-2.934
											c9.479-2.943,16.794-10.529,19.389-20.111c1.372-5.068,1.274-10.422-0.281-15.438L580.947,691.813z"/>
										<path clip-path="url(#SVGID_96_)" fill="#868D93" d="M522.938,732.534c0.187-0.051,0.37-0.115,0.553-0.191l62.36-26.689
											c2.13-0.912,3.051-3.365,2.061-5.48c-0.992-2.115-3.526-3.094-5.649-2.182L519.9,724.68
											c-2.128,0.912-3.052,3.365-2.061,5.48C518.745,732.096,520.94,733.079,522.938,732.534"/>
										<path clip-path="url(#SVGID_96_)" fill="#868D93" d="M527.302,746.588c0.188-0.051,0.37-0.115,0.552-0.191l62.361-26.691
											c2.129-0.91,3.051-3.363,2.061-5.479c-0.991-2.115-3.524-3.09-5.649-2.182l-62.362,26.689
											c-2.128,0.912-3.051,3.365-2.059,5.48C523.11,746.153,525.305,747.133,527.302,746.588"/>
										<path clip-path="url(#SVGID_96_)" fill="#868D93" d="M534.196,759.702c0.186-0.051,0.37-0.113,0.551-0.191l59.11-25.299
											c2.129-0.912,3.051-3.363,2.06-5.48c-0.992-2.115-3.527-3.092-5.649-2.182l-59.109,25.299
											c-2.129,0.912-3.051,3.365-2.061,5.48C530.004,759.264,532.199,760.247,534.196,759.702"/>
										<path clip-path="url(#SVGID_96_)" fill="#FFFFFF" d="M501.692,506.083c-2.104-2.289-4.339-4.441-6.695-6.453
											c-4.729-4.029-9.481-8.029-14.11-12.174c-3.938-3.527,0.367-9.84,5.059-7.402c20.908,10.863,37.125,30.016,43.831,53.922
											c0.877,3.115-1.053,6.354-4.272,7.035c-2.933,0.619-5.813-1.305-6.631-4.188c-3.324-11.732-9.288-22.137-17.122-30.678
											l0.01-0.002L501.692,506.083z"/>
										<path clip-path="url(#SVGID_96_)" fill="#FFFFFF" d="M507.493,514.096l-0.005,0.01c0.014,0.023,0.026,0.051,0.041,0.072
											L507.493,514.096z"/>
										<path clip-path="url(#SVGID_96_)" fill="#F4C914" d="M157.323,600.821c11.966-41.129,55.009-64.771,96.138-52.805
											c41.13,11.967,64.771,55.01,52.804,96.139c-4.769,16.396-14.479,30.008-27.037,39.695h0.001
											c-15.291,12.928-48.174,22.977-51.326,33.813l-3.601,12.377c-0.719,2.473-3.305,3.893-5.776,3.174l-11.968-3.482
											l-10.999-3.199l-11.967-3.48c-2.471-0.721-3.892-3.307-3.172-5.775l3.6-12.381c3.153-10.834-19.206-36.955-25.176-56.066
											C153.446,633.915,152.552,617.217,157.323,600.821"/>
										<path clip-path="url(#SVGID_96_)" fill="#FFFFFF" d="M292.624,644.821c-2.359-0.688-3.716-3.156-3.029-5.518
											c7.71-26.498-3.502-54.754-27.264-68.711c-2.119-1.244-2.828-3.971-1.584-6.09c1.245-2.121,3.972-2.83,6.091-1.582
											c27.28,16.021,40.151,48.455,31.303,78.869C297.454,644.151,294.984,645.506,292.624,644.821"/>
										<g clip-path="url(#SVGID_96_)">
											<g opacity="0.55">
												<g>
													<defs>
														<rect id="SVGID_97_" x="154.228" y="605.266" width="150.614" height="128.133"/>
													</defs>
													<clipPath id="SVGID_98_">
														<use xlink:href="#SVGID_97_"  overflow="visible"/>
													</clipPath>
													<path clip-path="url(#SVGID_98_)" fill="#FFC043" d="M304.842,648.516c-12.994,29.342-46.846,53.781-92.41,40.525
														s-59.67-53.254-56.246-83.775c-3.419,14.949-2.252,29.992,2.659,43.563c5.97,19.109,28.328,45.23,25.176,56.064
														l-3.601,12.381c-0.72,2.471,0.701,5.057,3.172,5.773l11.968,3.484l10.999,3.197l11.968,3.482
														c2.47,0.719,5.056-0.701,5.775-3.174l3.602-12.377c3.152-10.836,36.035-20.885,51.326-33.813h-0.001
														C290.653,675.038,299.706,662.965,304.842,648.516"/>
												</g>
											</g>
											<g>
												<defs>
													<rect id="SVGID_99_" width="1000" height="821.106"/>
												</defs>
												<defs>
													<rect id="SVGID_100_" width="1000" height="821.106"/>
												</defs>
												<defs>
													<rect id="SVGID_101_" width="1000" height="821.106"/>
												</defs>
												<defs>
													<rect id="SVGID_102_" width="1000" height="821.106"/>
												</defs>
												<defs>
													<rect id="SVGID_103_" width="1000" height="821.106"/>
												</defs>
												<defs>
													<rect id="SVGID_104_" width="1000" height="821.106"/>
												</defs>
												<defs>
													<rect id="SVGID_105_" width="1000" height="821.106"/>
												</defs>
												<defs>
													<rect id="SVGID_106_" width="1000" height="821.106"/>
												</defs>
												<defs>
													<rect id="SVGID_107_" width="1000" height="821.106"/>
												</defs>
												<defs>
													<rect id="SVGID_108_" width="1000" height="821.106"/>
												</defs>
												<defs>
													<rect id="SVGID_109_" width="1000" height="821.106"/>
												</defs>
												<defs>
													<rect id="SVGID_110_" width="1000" height="821.106"/>
												</defs>
												<defs>
													<rect id="SVGID_111_" width="1000" height="821.106"/>
												</defs>
												<defs>
													<rect id="SVGID_112_" width="1000" height="821.106"/>
												</defs>
												<defs>
													<rect id="SVGID_113_" width="1000" height="821.106"/>
												</defs>
												<defs>
													<rect id="SVGID_114_" width="1000" height="821.106"/>
												</defs>
												<clipPath id="SVGID_115_">
													<use xlink:href="#SVGID_99_"  overflow="visible"/>
												</clipPath>
												<clipPath id="SVGID_116_" clip-path="url(#SVGID_115_)">
													<use xlink:href="#SVGID_100_"  overflow="visible"/>
												</clipPath>
												<clipPath id="SVGID_117_" clip-path="url(#SVGID_116_)">
													<use xlink:href="#SVGID_101_"  overflow="visible"/>
												</clipPath>
												<clipPath id="SVGID_118_" clip-path="url(#SVGID_117_)">
													<use xlink:href="#SVGID_102_"  overflow="visible"/>
												</clipPath>
												<clipPath id="SVGID_119_" clip-path="url(#SVGID_118_)">
													<use xlink:href="#SVGID_103_"  overflow="visible"/>
												</clipPath>
												<clipPath id="SVGID_120_" clip-path="url(#SVGID_119_)">
													<use xlink:href="#SVGID_104_"  overflow="visible"/>
												</clipPath>
												<clipPath id="SVGID_121_" clip-path="url(#SVGID_120_)">
													<use xlink:href="#SVGID_105_"  overflow="visible"/>
												</clipPath>
												<clipPath id="SVGID_122_" clip-path="url(#SVGID_121_)">
													<use xlink:href="#SVGID_106_"  overflow="visible"/>
												</clipPath>
												<clipPath id="SVGID_123_" clip-path="url(#SVGID_122_)">
													<use xlink:href="#SVGID_107_"  overflow="visible"/>
												</clipPath>
												<clipPath id="SVGID_124_" clip-path="url(#SVGID_123_)">
													<use xlink:href="#SVGID_108_"  overflow="visible"/>
												</clipPath>
												<clipPath id="SVGID_125_" clip-path="url(#SVGID_124_)">
													<use xlink:href="#SVGID_109_"  overflow="visible"/>
												</clipPath>
												<clipPath id="SVGID_126_" clip-path="url(#SVGID_125_)">
													<use xlink:href="#SVGID_110_"  overflow="visible"/>
												</clipPath>
												<clipPath id="SVGID_127_" clip-path="url(#SVGID_126_)">
													<use xlink:href="#SVGID_111_"  overflow="visible"/>
												</clipPath>
												<clipPath id="SVGID_128_" clip-path="url(#SVGID_127_)">
													<use xlink:href="#SVGID_112_"  overflow="visible"/>
												</clipPath>
												<clipPath id="SVGID_129_" clip-path="url(#SVGID_128_)">
													<use xlink:href="#SVGID_113_"  overflow="visible"/>
												</clipPath>
												<clipPath id="SVGID_130_" clip-path="url(#SVGID_129_)">
													<use xlink:href="#SVGID_114_"  overflow="visible"/>
												</clipPath>
												<path clip-path="url(#SVGID_130_)" fill="#868D93" d="M228.125,723.459l-47.402-13.793l-6.573,22.594
													c-1.073,3.688-1.075,7.607-0.004,11.297c2.025,6.975,7.476,12.43,14.45,14.459l6.949,2.021
													c6.974,2.029,14.5,0.35,19.95-4.449c2.883-2.541,4.984-5.848,6.058-9.537L228.125,723.459z"/>
												<path clip-path="url(#SVGID_130_)" fill="#868D93" d="M176.287,724.901c0.134,0.045,0.272,0.08,0.415,0.105
													l48.831,8.877c1.667,0.305,3.22-0.822,3.469-2.514c0.249-1.693-0.903-3.313-2.569-3.611l-48.832-8.877
													c-1.666-0.303-3.219,0.822-3.467,2.516C173.905,722.944,174.849,724.428,176.287,724.901"/>
												<path clip-path="url(#SVGID_130_)" fill="#868D93" d="M173.278,735.241c0.135,0.045,0.272,0.08,0.415,0.105
													l48.832,8.877c1.667,0.305,3.22-0.822,3.469-2.514c0.248-1.691-0.904-3.309-2.569-3.611l-48.832-8.877
													c-1.667-0.303-3.219,0.822-3.468,2.514C170.896,733.284,171.84,734.766,173.278,735.241"/>
												<path clip-path="url(#SVGID_130_)" fill="#868D93" d="M172.194,746.028c0.134,0.043,0.272,0.078,0.414,0.104
													l46.286,8.414c1.667,0.303,3.22-0.822,3.469-2.514c0.249-1.693-0.905-3.313-2.567-3.609l-46.288-8.416
													c-1.666-0.303-3.219,0.822-3.467,2.514C169.813,744.069,170.756,745.553,172.194,746.028"/>
												<path clip-path="url(#SVGID_130_)" fill="#F4C914" d="M652.511,388.472c-3.237,0-5.861,2.625-5.861,5.862v34.586
													c0,3.24,2.624,5.863,5.861,5.863s5.862-2.623,5.862-5.863v-34.586C658.373,391.097,655.748,388.472,652.511,388.472"/>
												<path clip-path="url(#SVGID_130_)" fill="#F4C914" d="M584.396,410.968c-1.581-2.825-5.153-3.833-7.979-2.251
													c-2.825,1.583-3.833,5.155-2.25,7.981l16.896,30.178c1.074,1.918,3.067,2.998,5.12,2.998
													c0.971,0,1.953-0.24,2.859-0.748c2.824-1.582,3.832-5.154,2.25-7.979L584.396,410.968z"/>
												<path clip-path="url(#SVGID_130_)" fill="#F4C914" d="M750.038,490.581c1.026,0,2.065-0.271,3.011-0.836l29.66-17.793
													c2.776-1.666,3.677-5.268,2.011-8.043c-1.666-2.777-5.267-3.678-8.043-2.012l-29.66,17.793
													c-2.775,1.666-3.677,5.266-2.011,8.043C746.104,489.565,748.047,490.581,750.038,490.581"/>
												<path clip-path="url(#SVGID_130_)" fill="#F4C914" d="M728.691,408.717c-2.824-1.58-6.396-0.573-7.979,2.251
													l-16.899,30.181c-1.58,2.822-0.572,6.395,2.252,7.979c0.905,0.506,1.89,0.748,2.858,0.748c2.053,0,4.046-1.08,5.12-3
													l16.898-30.178C732.524,413.874,731.517,410.3,728.691,408.717"/>
												<path clip-path="url(#SVGID_130_)" fill="#FFE36C" d="M303.059,260.438c-3.539,0-6.408,2.869-6.408,6.408v37.809
													c0,3.539,2.869,6.408,6.408,6.408c3.539,0,6.408-2.869,6.408-6.408v-37.809
													C309.467,263.307,306.598,260.438,303.059,260.438"/>
												<path clip-path="url(#SVGID_130_)" fill="#FFE36C" d="M160.831,351.692l32.423,19.45
													c1.032,0.619,2.168,0.914,3.291,0.914c2.177,0,4.3-1.11,5.501-3.113c1.82-3.035,0.836-6.971-2.198-8.792l-32.423-19.45
													c-3.035-1.821-6.972-0.836-8.792,2.199C156.811,345.935,157.796,349.871,160.831,351.692"/>
												<path clip-path="url(#SVGID_130_)" fill="#FFE36C" d="M228.602,285.03c-1.729-3.089-5.635-4.19-8.723-2.461
													c-3.088,1.73-4.189,5.635-2.46,8.723l18.473,32.989c1.175,2.098,3.353,3.278,5.598,3.278
													c1.059,0,2.133-0.263,3.125-0.818c3.088-1.729,4.189-5.635,2.46-8.723L228.602,285.03z"/>
												<path clip-path="url(#SVGID_130_)" fill="#FFE36C" d="M386.335,282.569c-3.088-1.728-6.993-0.627-8.722,2.461
													l-18.473,32.988c-1.729,3.088-0.628,6.993,2.46,8.723c0.991,0.555,2.065,0.818,3.125,0.818
													c2.245,0,4.423-1.18,5.598-3.278l18.473-32.989C390.524,288.204,389.424,284.298,386.335,282.569"/>
												<path clip-path="url(#SVGID_130_)" fill="#FFE36C" d="M442.479,202.897c69.791,0,78.896-72.825,78.896-72.825
													s9.104,72.826,78.896,72.826c-69.791,0-78.896,72.825-78.896,72.825S512.271,202.897,442.479,202.897"/>
												<path clip-path="url(#SVGID_130_)" fill="#FFE36C" d="M416.877,272.878c30.533,0,34.516-31.861,34.516-31.861
													s3.982,31.861,34.517,31.861c-30.534,0-34.517,31.861-34.517,31.861S447.41,272.878,416.877,272.878"/>
												<path clip-path="url(#SVGID_130_)" fill="#F4C914" d="M271.822,696.924c0,20.584,21.48,23.271,21.48,23.271
													s-21.48,2.684-21.48,23.27c0-20.586-21.48-23.27-21.48-23.27S271.822,717.508,271.822,696.924"/>
												<g clip-path="url(#SVGID_130_)">
													<g opacity="0.75">
														<g>
															<defs>
																<rect id="SVGID_131_" x="95.314" y="495.639" width="118.672" height="164.594"/>
															</defs>
															<defs>
																<rect id="SVGID_132_" x="95.314" y="495.639" width="118.672" height="164.594"/>
															</defs>
															<defs>
																<rect id="SVGID_133_" x="95.314" y="495.639" width="118.672" height="164.594"/>
															</defs>
															<defs>
																<rect id="SVGID_134_" x="95.314" y="495.639" width="118.672" height="164.594"/>
															</defs>
															<defs>
																<rect id="SVGID_135_" x="95.314" y="495.639" width="118.672" height="164.594"/>
															</defs>
															<defs>
																<rect id="SVGID_136_" x="95.314" y="495.639" width="118.672" height="164.594"/>
															</defs>
															<defs>
																<rect id="SVGID_137_" x="95.314" y="495.639" width="118.672" height="164.594"/>
															</defs>
															<defs>
																<rect id="SVGID_138_" x="95.314" y="495.639" width="118.672" height="164.594"/>
															</defs>
															<defs>
																<rect id="SVGID_139_" x="95.314" y="495.639" width="118.672" height="164.594"/>
															</defs>
															<defs>
																<rect id="SVGID_140_" x="95.314" y="495.639" width="118.672" height="164.594"/>
															</defs>
															<defs>
																<rect id="SVGID_141_" x="95.314" y="495.639" width="118.672" height="164.594"/>
															</defs>
															<clipPath id="SVGID_142_">
																<use xlink:href="#SVGID_131_"  overflow="visible"/>
															</clipPath>
															<clipPath id="SVGID_143_" clip-path="url(#SVGID_142_)">
																<use xlink:href="#SVGID_132_"  overflow="visible"/>
															</clipPath>
															<clipPath id="SVGID_144_" clip-path="url(#SVGID_143_)">
																<use xlink:href="#SVGID_133_"  overflow="visible"/>
															</clipPath>
															<clipPath id="SVGID_145_" clip-path="url(#SVGID_144_)">
																<use xlink:href="#SVGID_134_"  overflow="visible"/>
															</clipPath>
															<clipPath id="SVGID_146_" clip-path="url(#SVGID_145_)">
																<use xlink:href="#SVGID_135_"  overflow="visible"/>
															</clipPath>
															<clipPath id="SVGID_147_" clip-path="url(#SVGID_146_)">
																<use xlink:href="#SVGID_136_"  overflow="visible"/>
															</clipPath>
															<clipPath id="SVGID_148_" clip-path="url(#SVGID_147_)">
																<use xlink:href="#SVGID_137_"  overflow="visible"/>
															</clipPath>
															<clipPath id="SVGID_149_" clip-path="url(#SVGID_148_)">
																<use xlink:href="#SVGID_138_"  overflow="visible"/>
															</clipPath>
															<clipPath id="SVGID_150_" clip-path="url(#SVGID_149_)">
																<use xlink:href="#SVGID_139_"  overflow="visible"/>
															</clipPath>
															<clipPath id="SVGID_151_" clip-path="url(#SVGID_150_)">
																<use xlink:href="#SVGID_140_"  overflow="visible"/>
															</clipPath>
															<clipPath id="SVGID_152_" clip-path="url(#SVGID_151_)">
																<use xlink:href="#SVGID_141_"  overflow="visible"/>
															</clipPath>
															<path clip-path="url(#SVGID_152_)" fill="#FFE36C" d="M120.172,588.592c-7.567-25.352,6.848-52.037,32.198-59.604
																c25.35-7.57,52.035,6.846,59.604,32.195c3.016,10.105,2.537,20.424-0.733,29.654h0.001
																c-3.605,11.83-17.301,28.061-15.307,34.738l2.278,7.629c0.454,1.523-0.412,3.125-1.935,3.58l-7.377,2.203
																l-6.778,2.021l-7.377,2.203c-1.523,0.455-3.126-0.412-3.581-1.934l-2.277-7.629
																c-1.994-6.682-22.346-12.744-31.846-20.662C129.245,607.063,123.19,598.698,120.172,588.592"/>
															<path clip-path="url(#SVGID_152_)" fill="#FFFFFF" d="M205.118,566.1c-1.454,0.436-2.985-0.393-3.42-1.848
																c-4.876-16.332-20.158-27.238-37.163-26.52c-1.517,0.063-2.798-1.113-2.862-2.631s1.113-2.801,2.63-2.861
																c19.522-0.824,37.066,11.693,42.663,30.439C207.399,564.135,206.572,565.667,205.118,566.1"/>
															<path clip-path="url(#SVGID_152_)" fill="#FFE36C" d="M212.696,563.926c3.085,19.576-6.293,43.6-34.377,51.982
																c-28.083,8.385-48.801-7.646-57.248-24.629c3.233,8.9,8.878,16.316,15.971,21.711
																c9.5,7.918,29.851,13.98,31.845,20.662l2.278,7.629c0.455,1.521,2.057,2.389,3.581,1.934l7.377-2.203l6.778-2.021
																l7.377-2.203c1.522-0.455,2.389-2.057,1.935-3.58l-2.279-7.629c-1.994-6.678,11.702-22.908,15.308-34.738h-0.001
																C214.216,582.442,214.871,573.143,212.696,563.926"/>
															<path clip-path="url(#SVGID_152_)" fill="#868D93" d="M197.992,628.51l-29.217,8.725l4.157,13.924
																c0.679,2.273,1.991,4.307,3.783,5.863c3.386,2.939,8.043,3.945,12.34,2.662l4.284-1.277
																c4.298-1.283,7.641-4.676,8.861-8.992c0.646-2.285,0.628-4.705-0.051-6.979L197.992,628.51z"/>
															<path clip-path="url(#SVGID_152_)" fill="#868D93" d="M171.576,646.625c0.084-0.021,0.168-0.051,0.25-0.086
																l28.312-11.75c0.967-0.4,1.396-1.506,0.959-2.467c-0.438-0.961-1.579-1.414-2.542-1.014l-28.313,11.752
																c-0.967,0.4-1.395,1.506-0.958,2.467C169.684,646.407,170.671,646.86,171.576,646.625"/>
															<path clip-path="url(#SVGID_152_)" fill="#868D93" d="M173.479,652.999c0.085-0.021,0.168-0.051,0.251-0.086
																l28.311-11.75c0.967-0.4,1.396-1.506,0.959-2.467c-0.438-0.961-1.578-1.414-2.542-1.014l-28.313,11.752
																c-0.966,0.4-1.395,1.504-0.958,2.465C171.586,652.78,172.573,653.233,173.479,652.999"/>
															<path clip-path="url(#SVGID_152_)" fill="#868D93" d="M176.529,658.958c0.084-0.021,0.167-0.051,0.25-0.084
																l26.836-11.139c0.967-0.402,1.395-1.506,0.958-2.467c-0.438-0.961-1.579-1.414-2.542-1.014l-26.837,11.141
																c-0.966,0.398-1.394,1.504-0.957,2.465C174.636,658.739,175.625,659.194,176.529,658.958"/>
															<path clip-path="url(#SVGID_152_)" fill="#FFE36C" d="M142.734,496.782c-1.398,0.418-2.194,1.891-1.776,3.289
																l4.46,14.938c0.417,1.398,1.888,2.193,3.287,1.775c1.398-0.418,2.194-1.889,1.776-3.287l-4.46-14.939
																C145.604,497.161,144.131,496.366,142.734,496.782"/>
															<path clip-path="url(#SVGID_152_)" fill="#FFE36C" d="M97.304,549.614l15.104,3.859
																c0.481,0.123,0.964,0.105,1.408-0.025c0.86-0.258,1.568-0.947,1.806-1.879c0.362-1.414-0.491-2.854-1.905-3.217
																l-15.104-3.859c-1.414-0.359-2.854,0.492-3.215,1.906C95.036,547.813,95.89,549.252,97.304,549.614"/>
															<path clip-path="url(#SVGID_152_)" fill="#FFE36C" d="M116.217,515.282c-1.048-1.018-2.721-0.99-3.736,0.057
																c-1.017,1.047-0.992,2.721,0.056,3.736l11.19,10.854c0.712,0.691,1.712,0.9,2.598,0.637
																c0.418-0.125,0.812-0.355,1.138-0.691c1.017-1.049,0.991-2.721-0.057-3.736L116.217,515.282z"/>
															<path clip-path="url(#SVGID_152_)" fill="#FFE36C" d="M178.247,495.704c-1.424-0.318-2.837,0.576-3.155,2.002
																l-3.408,15.213c-0.319,1.424,0.577,2.836,2.001,3.156c0.457,0.102,0.913,0.078,1.332-0.047
																c0.886-0.264,1.607-0.988,1.824-1.955l3.407-15.213C180.567,497.434,179.672,496.022,178.247,495.704"/>
														</g>
													</g>
													<g>
														<defs>
															<rect id="SVGID_153_" width="1000" height="821.106"/>
														</defs>
														<defs>
															<rect id="SVGID_154_" width="1000" height="821.106"/>
														</defs>
														<defs>
															<rect id="SVGID_155_" width="1000" height="821.106"/>
														</defs>
														<defs>
															<rect id="SVGID_156_" width="1000" height="821.106"/>
														</defs>
														<defs>
															<rect id="SVGID_157_" width="1000" height="821.106"/>
														</defs>
														<clipPath id="SVGID_158_">
															<use xlink:href="#SVGID_153_"  overflow="visible"/>
														</clipPath>
														<clipPath id="SVGID_159_" clip-path="url(#SVGID_158_)">
															<use xlink:href="#SVGID_154_"  overflow="visible"/>
														</clipPath>
														<clipPath id="SVGID_160_" clip-path="url(#SVGID_159_)">
															<use xlink:href="#SVGID_155_"  overflow="visible"/>
														</clipPath>
														<clipPath id="SVGID_161_" clip-path="url(#SVGID_160_)">
															<use xlink:href="#SVGID_156_"  overflow="visible"/>
														</clipPath>
														<clipPath id="SVGID_162_" clip-path="url(#SVGID_161_)">
															<use xlink:href="#SVGID_157_"  overflow="visible"/>
														</clipPath>
														<path clip-path="url(#SVGID_162_)" fill="#F4C914" d="M102.826,337.023c58.561,0,66.199-61.107,66.199-61.107
															s7.639,61.108,66.199,61.108c-58.56,0-66.199,61.106-66.199,61.106S161.387,337.023,102.826,337.023"/>
														<path clip-path="url(#SVGID_162_)" fill="#F4C914" d="M81.343,395.744c25.62,0,28.962-26.734,28.962-26.734
															s3.342,26.734,28.962,26.734c-25.62,0-28.962,26.733-28.962,26.733S106.963,395.744,81.343,395.744"/>
														<path clip-path="url(#SVGID_162_)" fill="#E59A2E" d="M826.604,577.286c0-32.131,33.528-36.322,33.528-36.322
															s-33.528-4.189-33.528-36.322c0,32.133-33.527,36.322-33.527,36.322S826.604,545.155,826.604,577.286"/>
														<path clip-path="url(#SVGID_162_)" fill="#E59A2E" d="M874.713,573.18c-14.058,0-15.891-14.668-15.891-14.668
															s-1.834,14.668-15.893,14.668c14.059,0,15.893,14.67,15.893,14.67S860.655,573.18,874.713,573.18"/>
														<g clip-path="url(#SVGID_162_)">
															<g opacity="0.75">
																<g>
																	<defs>
																		<rect id="SVGID_163_" x="695.706" y="568.76" width="222.675" height="193.502"/>
																	</defs>
																	<defs>
																		<rect id="SVGID_164_" x="695.706" y="568.76" width="222.675" height="193.502"/>
																	</defs>
																	<defs>
																		<rect id="SVGID_165_" x="695.706" y="568.76" width="222.675" height="193.502"/>
																	</defs>
																	<defs>
																		<rect id="SVGID_166_" x="695.706" y="568.76" width="222.675" height="193.502"/>
																	</defs>
																	<defs>
																		<rect id="SVGID_167_" x="695.706" y="568.76" width="222.675" height="193.502"/>
																	</defs>
																	<defs>
																		<rect id="SVGID_168_" x="695.706" y="568.76" width="222.675" height="193.502"/>
																	</defs>
																	<defs>
																		<rect id="SVGID_169_" x="695.706" y="568.76" width="222.675" height="193.502"/>
																	</defs>
																	<defs>
																		<rect id="SVGID_170_" x="695.706" y="568.76" width="222.675" height="193.502"/>
																	</defs>
																	<defs>
																		<rect id="SVGID_171_" x="695.706" y="568.76" width="222.675" height="193.502"/>
																	</defs>
																	<defs>
																		<rect id="SVGID_172_" x="695.706" y="568.76" width="222.675" height="193.502"/>
																	</defs>
																	<defs>
																		<rect id="SVGID_173_" x="695.706" y="568.76" width="222.675" height="193.502"/>
																	</defs>
																	<defs>
																		<rect id="SVGID_174_" x="695.706" y="568.76" width="222.675" height="193.502"/>
																	</defs>
																	<defs>
																		<rect id="SVGID_175_" x="695.706" y="568.76" width="222.675" height="193.502"/>
																	</defs>
																	<defs>
																		<rect id="SVGID_176_" x="695.706" y="568.76" width="222.675" height="193.502"/>
																	</defs>
																	<clipPath id="SVGID_177_">
																		<use xlink:href="#SVGID_163_"  overflow="visible"/>
																	</clipPath>
																	<clipPath id="SVGID_178_" clip-path="url(#SVGID_177_)">
																		<use xlink:href="#SVGID_164_"  overflow="visible"/>
																	</clipPath>
																	<clipPath id="SVGID_179_" clip-path="url(#SVGID_178_)">
																		<use xlink:href="#SVGID_165_"  overflow="visible"/>
																	</clipPath>
																	<clipPath id="SVGID_180_" clip-path="url(#SVGID_179_)">
																		<use xlink:href="#SVGID_166_"  overflow="visible"/>
																	</clipPath>
																	<clipPath id="SVGID_181_" clip-path="url(#SVGID_180_)">
																		<use xlink:href="#SVGID_167_"  overflow="visible"/>
																	</clipPath>
																	<clipPath id="SVGID_182_" clip-path="url(#SVGID_181_)">
																		<use xlink:href="#SVGID_168_"  overflow="visible"/>
																	</clipPath>
																	<clipPath id="SVGID_183_" clip-path="url(#SVGID_182_)">
																		<use xlink:href="#SVGID_169_"  overflow="visible"/>
																	</clipPath>
																	<clipPath id="SVGID_184_" clip-path="url(#SVGID_183_)">
																		<use xlink:href="#SVGID_170_"  overflow="visible"/>
																	</clipPath>
																	<clipPath id="SVGID_185_" clip-path="url(#SVGID_184_)">
																		<use xlink:href="#SVGID_171_"  overflow="visible"/>
																	</clipPath>
																	<clipPath id="SVGID_186_" clip-path="url(#SVGID_185_)">
																		<use xlink:href="#SVGID_172_"  overflow="visible"/>
																	</clipPath>
																	<clipPath id="SVGID_187_" clip-path="url(#SVGID_186_)">
																		<use xlink:href="#SVGID_173_"  overflow="visible"/>
																	</clipPath>
																	<clipPath id="SVGID_188_" clip-path="url(#SVGID_187_)">
																		<use xlink:href="#SVGID_174_"  overflow="visible"/>
																	</clipPath>
																	<clipPath id="SVGID_189_" clip-path="url(#SVGID_188_)">
																		<use xlink:href="#SVGID_175_"  overflow="visible"/>
																	</clipPath>
																	<clipPath id="SVGID_190_" clip-path="url(#SVGID_189_)">
																		<use xlink:href="#SVGID_176_"  overflow="visible"/>
																	</clipPath>
																	<path clip-path="url(#SVGID_190_)" fill="#E59A2E" d="M696.342,646.506c-5.111-37.475,21.124-71.998,58.601-77.109
																		c37.475-5.111,71.997,21.125,77.108,58.6c2.038,14.938-0.91,29.406-7.561,41.729v-0.002
																		c-7.694,15.918-30.613,35.828-29.268,45.701l1.538,11.279c0.309,2.25-1.269,4.324-3.521,4.631l-10.904,1.488
																		l-10.021,1.367l-10.904,1.486c-2.252,0.309-4.325-1.27-4.633-3.521l-1.538-11.277
																		c-1.348-9.873-28.763-22.918-40.438-36.193C705.095,674.594,698.38,661.446,696.342,646.506"/>
																	<path clip-path="url(#SVGID_190_)" fill="#FFFFFF" d="M821.285,633.43c-2.15,0.293-4.131-1.213-4.424-3.361
																		c-3.294-24.146-22.481-42.912-46.66-45.643c-2.156-0.244-3.708-2.188-3.464-4.346
																		c0.243-2.158,2.188-3.709,4.345-3.463c27.759,3.131,49.785,24.674,53.564,52.387
																		C824.94,631.157,823.435,633.135,821.285,633.43"/>
																	<path clip-path="url(#SVGID_190_)" fill="#E28130" d="M832.468,632.026c0.05,28.334-18.483,60.203-60,65.865
																		c-41.515,5.662-67.253-21.541-75.446-47.389c2.607,13.285,8.949,25.002,17.781,34.184
																		c11.676,13.275,39.091,26.32,40.438,36.193l1.538,11.277c0.308,2.252,2.381,3.828,4.633,3.52l10.904-1.486
																		l10.021-1.365l10.903-1.488c2.253-0.307,3.829-2.381,3.521-4.633l-1.538-11.279
																		c-1.347-9.871,21.572-29.783,29.268-45.699l0,0C830.541,658.512,833.512,645.526,832.468,632.026"/>
																	<path clip-path="url(#SVGID_190_)" fill="#868D93" d="M797.483,720.022l-43.19,5.893l2.809,20.584
																		c0.458,3.361,1.863,6.521,4.053,9.115c4.138,4.898,10.492,7.344,16.847,6.477l6.332-0.863
																		c6.354-0.867,11.822-4.924,14.496-10.752c1.414-3.084,1.922-6.508,1.463-9.867L797.483,720.022z"/>
																	<path clip-path="url(#SVGID_190_)" fill="#868D93" d="M756.184,739.793c0.124-0.012,0.248-0.033,0.372-0.063
																		l42.579-10.369c1.454-0.354,2.303-1.818,1.896-3.273c-0.407-1.453-1.917-2.346-3.368-1.99l-42.579,10.369
																		c-1.453,0.354-2.303,1.818-1.896,3.273C753.559,739.071,754.854,739.928,756.184,739.793"/>
																	<path clip-path="url(#SVGID_190_)" fill="#868D93" d="M757.469,749.215c0.124-0.012,0.248-0.033,0.372-0.063
																		l42.579-10.371c1.453-0.354,2.302-1.818,1.896-3.271c-0.407-1.455-1.917-2.344-3.368-1.99l-42.58,10.367
																		c-1.452,0.354-2.302,1.818-1.896,3.273C754.844,748.491,756.138,749.35,757.469,749.215"/>
																	<path clip-path="url(#SVGID_190_)" fill="#868D93" d="M760.466,758.305c0.123-0.012,0.247-0.033,0.371-0.063
																		l40.36-9.828c1.453-0.354,2.302-1.82,1.896-3.273s-1.919-2.346-3.368-1.99l-40.358,9.828
																		c-1.453,0.354-2.304,1.818-1.896,3.271C757.841,757.581,759.135,758.44,760.466,758.305"/>
																	<path clip-path="url(#SVGID_190_)" fill="#FFC043" d="M849.624,626.12c23.82-11.512,52.463-1.533,63.974,22.287
																		c11.513,23.818,1.534,52.461-22.284,63.973c-9.496,4.59-19.758,5.76-29.395,4.004
																		c-12.253-1.674-30.457-12.607-36.73-9.576l-7.171,3.467c-1.432,0.689-3.151,0.092-3.844-1.34l-3.35-6.932
																		l-3.078-6.369l-3.35-6.932c-0.691-1.432-0.094-3.152,1.339-3.844l7.169-3.465c6.274-3.033,9.019-24.09,15.32-34.73
																		C832.837,638.02,840.129,630.708,849.624,626.12"/>
																	<path clip-path="url(#SVGID_190_)" fill="#FFFFFF" d="M831.599,677.497c1.452-0.441,2.988,0.377,3.431,1.83
																		c4.963,16.307,20.302,27.131,37.304,26.324c1.517-0.072,2.804,1.098,2.875,2.615
																		c0.072,1.516-1.098,2.805-2.614,2.875c-19.518,0.928-37.127-11.498-42.822-30.215
																		C829.327,679.475,830.146,677.938,831.599,677.497"/>
																	<path clip-path="url(#SVGID_190_)" fill="#FFC043" d="M888.721,713.53c-18.835,6.166-44.045,0.734-56.797-25.652
																		c-12.753-26.389-0.229-49.395,15.19-60.443c-8.273,4.613-14.693,11.367-18.891,19.229
																		c-6.302,10.641-9.045,31.699-15.319,34.732l-7.169,3.465c-1.433,0.691-2.03,2.412-1.339,3.842l3.35,6.934
																		l3.078,6.369l3.35,6.932c0.691,1.432,2.412,2.029,3.844,1.338l7.169-3.465c6.275-3.031,24.479,7.902,36.732,9.576
																		C870.686,717.981,879.968,717.147,888.721,713.53"/>
																	<path clip-path="url(#SVGID_190_)" fill="#868D93" d="M822.618,709.305l-13.269-27.451l-13.084,6.322
																		c-2.137,1.031-3.936,2.65-5.186,4.668c-2.364,3.814-2.613,8.568-0.662,12.607l1.945,4.023
																		c1.951,4.039,5.834,6.799,10.289,7.314c2.356,0.273,4.744-0.129,6.88-1.162L822.618,709.305z"/>
																	<path clip-path="url(#SVGID_190_)" fill="#868D93" d="M800.526,686.116c0.034,0.08,0.075,0.158,0.123,0.232
																		l16.112,26.078c0.55,0.891,1.708,1.139,2.587,0.553s1.146-1.783,0.597-2.672l-16.113-26.078
																		c-0.55-0.889-1.708-1.137-2.587-0.553C800.44,684.211,800.148,685.26,800.526,686.116"/>
																	<path clip-path="url(#SVGID_190_)" fill="#868D93" d="M794.538,689.008c0.035,0.08,0.076,0.158,0.123,0.234
																		l16.113,26.078c0.55,0.889,1.708,1.137,2.587,0.551c0.879-0.584,1.145-1.781,0.596-2.67l-16.113-26.078
																		c-0.55-0.889-1.708-1.137-2.587-0.553C794.452,687.108,794.16,688.155,794.538,689.008"/>
																	<path clip-path="url(#SVGID_190_)" fill="#868D93" d="M789.141,692.969c0.035,0.08,0.076,0.158,0.123,0.234
																		l15.273,24.717c0.55,0.891,1.707,1.139,2.587,0.553c0.879-0.584,1.146-1.783,0.596-2.67l-15.272-24.719
																		c-0.551-0.889-1.708-1.137-2.587-0.553C789.055,691.067,788.763,692.116,789.141,692.969"/>
																</g>
															</g>
															<g>
																<defs>
																	<rect id="SVGID_191_" width="1000" height="821.106"/>
																</defs>
																<defs>
																	<rect id="SVGID_192_" width="1000" height="821.106"/>
																</defs>
																<defs>
																	<rect id="SVGID_193_" width="1000" height="821.106"/>
																</defs>
																<clipPath id="SVGID_194_">
																	<use xlink:href="#SVGID_191_"  overflow="visible"/>
																</clipPath>
																<clipPath id="SVGID_195_" clip-path="url(#SVGID_194_)">
																	<use xlink:href="#SVGID_192_"  overflow="visible"/>
																</clipPath>
																<clipPath id="SVGID_196_" clip-path="url(#SVGID_195_)">
																	<use xlink:href="#SVGID_193_"  overflow="visible"/>
																</clipPath>
																<path clip-path="url(#SVGID_196_)" fill="#F4C914" d="M544.356,567.112c0-58.543,47.458-106.002,106.001-106.002
																	s106.001,47.459,106.001,106.002c0,23.336-7.548,44.906-20.325,62.416h0.001
																	c-15.131,22.801-54.447,48.543-54.447,63.965v17.619c0,3.52-2.85,6.369-6.367,6.369h-17.035H642.53h-17.036
																	c-3.518,0-6.367-2.852-6.367-6.369v-17.619c0-15.422-39.314-41.164-54.446-63.965
																	C551.903,612.018,544.356,590.448,544.356,567.112"/>
																<path clip-path="url(#SVGID_196_)" fill="#FFFFFF" d="M738.711,573.194c-3.359,0-6.082-2.725-6.082-6.082
																	c0-37.719-25.501-70.518-62.012-79.762c-3.258-0.822-5.229-4.131-4.404-7.387c0.825-3.258,4.132-5.23,7.389-4.404
																	c41.916,10.613,71.19,48.26,71.19,91.553C744.792,570.469,742.068,573.194,738.711,573.194"/>
																<g clip-path="url(#SVGID_196_)">
																	<g opacity="0.55">
																		<g>
																			<defs>
																				<rect id="SVGID_197_" x="544.56" y="573.379" width="211.596" height="144.102"/>
																			</defs>
																			<clipPath id="SVGID_198_">
																				<use xlink:href="#SVGID_197_"  overflow="visible"/>
																			</clipPath>
																			<path clip-path="url(#SVGID_198_)" fill="#FFC043" d="M756.154,573.379
																				c-5.852,43.463-40.942,88.463-105.797,88.463c-64.855,0-98.638-47.104-105.798-88.463
																				c1.223,20.922,8.496,40.219,20.12,56.146c15.131,22.801,54.446,48.543,54.446,63.967v17.619
																				c0,3.518,2.851,6.369,6.367,6.369h17.036h15.653h17.035c3.519,0,6.368-2.854,6.368-6.369v-17.619
																				c0-15.424,39.315-41.166,54.446-63.967h-0.001C747.658,613.598,754.933,594.301,756.154,573.379"/>
																		</g>
																	</g>
																	<g>
																		<defs>
																			<rect id="SVGID_199_" width="1000" height="821.106"/>
																		</defs>
																		<defs>
																			<rect id="SVGID_200_" width="1000" height="821.106"/>
																		</defs>
																		<defs>
																			<rect id="SVGID_201_" width="1000" height="821.106"/>
																		</defs>
																		<defs>
																			<rect id="SVGID_202_" width="1000" height="821.106"/>
																		</defs>
																		<clipPath id="SVGID_203_">
																			<use xlink:href="#SVGID_199_"  overflow="visible"/>
																		</clipPath>
																		<clipPath id="SVGID_204_" clip-path="url(#SVGID_203_)">
																			<use xlink:href="#SVGID_200_"  overflow="visible"/>
																		</clipPath>
																		<clipPath id="SVGID_205_" clip-path="url(#SVGID_204_)">
																			<use xlink:href="#SVGID_201_"  overflow="visible"/>
																		</clipPath>
																		<clipPath id="SVGID_206_" clip-path="url(#SVGID_205_)">
																			<use xlink:href="#SVGID_202_"  overflow="visible"/>
																		</clipPath>
																		<path clip-path="url(#SVGID_206_)" fill="#868D93" d="M684.093,701.016h-67.472v32.156
																			c0,5.252,1.494,10.395,4.309,14.826c5.319,8.381,14.557,13.459,24.481,13.459h9.892
																			c9.928,0,19.162-5.078,24.482-13.459c2.813-4.432,4.308-9.574,4.308-14.826V701.016L684.093,701.016z"/>
																		<path clip-path="url(#SVGID_206_)" fill="#868D93" d="M616.616,722.702c0.191,0.006,0.388,0,0.584-0.021
																			l67.471-6.994c2.304-0.238,3.912-2.309,3.593-4.623c-0.318-2.314-2.449-3.998-4.75-3.758l-67.471,6.994
																			c-2.302,0.238-3.911,2.309-3.592,4.623C612.742,721.04,614.548,722.627,616.616,722.702"/>
																		<path clip-path="url(#SVGID_206_)" fill="#868D93" d="M616.616,737.418c0.191,0.006,0.388,0,0.584-0.021
																			l67.471-6.994c2.304-0.238,3.912-2.309,3.593-4.623c-0.318-2.314-2.449-3.996-4.75-3.758l-67.471,6.992
																			c-2.302,0.24-3.911,2.311-3.592,4.625C612.742,735.756,614.548,737.346,616.616,737.418"/>
																		<path clip-path="url(#SVGID_206_)" fill="#868D93" d="M619.311,751.987c0.193,0.006,0.389,0,0.584-0.021
																			l63.954-6.629c2.304-0.24,3.911-2.311,3.593-4.625c-0.319-2.313-2.452-3.998-4.748-3.758l-63.954,6.631
																			c-2.304,0.238-3.912,2.307-3.593,4.623C615.438,750.325,617.242,751.915,619.311,751.987"/>
																	</g>
																</g>
															</g>
														</g>
													</g>
												</g>
											</g>
										</g>
									</g>
								</g>
							</g>
						</g>
					</g>
				</g>
			</g>
		</g>
	</g>
</g>
</svg>
