<?xml version="1.0" encoding="utf-8"?>
<!-- Generator: Adobe Illustrator 15.0.0, SVG Export Plug-In . SVG Version: 6.00 Build 0)  -->
<!DOCTYPE svg PUBLIC "-//W3C//DTD SVG 1.1//EN" "http://www.w3.org/Graphics/SVG/1.1/DTD/svg11.dtd">
<svg version="1.1" id="Layer_1" xmlns="http://www.w3.org/2000/svg" xmlns:xlink="http://www.w3.org/1999/xlink" x="0px" y="0px"
	 width="1000px" height="556px" viewBox="0 210.053 1000 556" enable-background="new 0 210.053 1000 556" xml:space="preserve">
<g>
	<g>
		<defs>
			<rect id="SVGID_1_" width="1000" height="821.106"/>
		</defs>
		<clipPath id="SVGID_2_">
			<use xlink:href="#SVGID_1_"  overflow="visible"/>
		</clipPath>
	</g>
	<g>
		<defs>
			<rect id="SVGID_3_" width="1000" height="821.106"/>
		</defs>
		<clipPath id="SVGID_4_">
			<use xlink:href="#SVGID_3_"  overflow="visible"/>
		</clipPath>
		<g clip-path="url(#SVGID_4_)">
			<g>
				<defs>
					<rect id="SVGID_5_" width="1000" height="821.106"/>
				</defs>
				<defs>
					<rect id="SVGID_6_" width="1000" height="821.106"/>
				</defs>
				<defs>
					<rect id="SVGID_7_" width="1000" height="821.106"/>
				</defs>
				<defs>
					<rect id="SVGID_8_" width="1000" height="821.106"/>
				</defs>
				<defs>
					<rect id="SVGID_9_" width="1000" height="821.106"/>
				</defs>
				<defs>
					<rect id="SVGID_10_" width="1000" height="821.106"/>
				</defs>
				<defs>
					<rect id="SVGID_11_" width="1000" height="821.106"/>
				</defs>
				<defs>
					<rect id="SVGID_12_" width="1000" height="821.106"/>
				</defs>
				<defs>
					<rect id="SVGID_13_" width="1000" height="821.106"/>
				</defs>
				<defs>
					<rect id="SVGID_14_" width="1000" height="821.106"/>
				</defs>
				<defs>
					<rect id="SVGID_15_" width="1000" height="821.106"/>
				</defs>
				<defs>
					<rect id="SVGID_16_" width="1000" height="821.106"/>
				</defs>
				<defs>
					<rect id="SVGID_17_" width="1000" height="821.106"/>
				</defs>
				<defs>
					<rect id="SVGID_18_" width="1000" height="821.106"/>
				</defs>
				<defs>
					<rect id="SVGID_19_" width="1000" height="821.106"/>
				</defs>
				<defs>
					<rect id="SVGID_20_" width="1000" height="821.106"/>
				</defs>
				<defs>
					<rect id="SVGID_21_" width="1000" height="821.106"/>
				</defs>
				<defs>
					<rect id="SVGID_22_" width="1000" height="821.106"/>
				</defs>
				<defs>
					<rect id="SVGID_23_" width="1000" height="821.106"/>
				</defs>
				<defs>
					<rect id="SVGID_24_" width="1000" height="821.106"/>
				</defs>
				<clipPath id="SVGID_25_">
					<use xlink:href="#SVGID_5_"  overflow="visible"/>
				</clipPath>
				<clipPath id="SVGID_26_" clip-path="url(#SVGID_25_)">
					<use xlink:href="#SVGID_6_"  overflow="visible"/>
				</clipPath>
				<clipPath id="SVGID_27_" clip-path="url(#SVGID_26_)">
					<use xlink:href="#SVGID_7_"  overflow="visible"/>
				</clipPath>
				<clipPath id="SVGID_28_" clip-path="url(#SVGID_27_)">
					<use xlink:href="#SVGID_8_"  overflow="visible"/>
				</clipPath>
				<clipPath id="SVGID_29_" clip-path="url(#SVGID_28_)">
					<use xlink:href="#SVGID_9_"  overflow="visible"/>
				</clipPath>
				<clipPath id="SVGID_30_" clip-path="url(#SVGID_29_)">
					<use xlink:href="#SVGID_10_"  overflow="visible"/>
				</clipPath>
				<clipPath id="SVGID_31_" clip-path="url(#SVGID_30_)">
					<use xlink:href="#SVGID_11_"  overflow="visible"/>
				</clipPath>
				<clipPath id="SVGID_32_" clip-path="url(#SVGID_31_)">
					<use xlink:href="#SVGID_12_"  overflow="visible"/>
				</clipPath>
				<clipPath id="SVGID_33_" clip-path="url(#SVGID_32_)">
					<use xlink:href="#SVGID_13_"  overflow="visible"/>
				</clipPath>
				<clipPath id="SVGID_34_" clip-path="url(#SVGID_33_)">
					<use xlink:href="#SVGID_14_"  overflow="visible"/>
				</clipPath>
				<clipPath id="SVGID_35_" clip-path="url(#SVGID_34_)">
					<use xlink:href="#SVGID_15_"  overflow="visible"/>
				</clipPath>
				<clipPath id="SVGID_36_" clip-path="url(#SVGID_35_)">
					<use xlink:href="#SVGID_16_"  overflow="visible"/>
				</clipPath>
				<clipPath id="SVGID_37_" clip-path="url(#SVGID_36_)">
					<use xlink:href="#SVGID_17_"  overflow="visible"/>
				</clipPath>
				<clipPath id="SVGID_38_" clip-path="url(#SVGID_37_)">
					<use xlink:href="#SVGID_18_"  overflow="visible"/>
				</clipPath>
				<clipPath id="SVGID_39_" clip-path="url(#SVGID_38_)">
					<use xlink:href="#SVGID_19_"  overflow="visible"/>
				</clipPath>
				<clipPath id="SVGID_40_" clip-path="url(#SVGID_39_)">
					<use xlink:href="#SVGID_20_"  overflow="visible"/>
				</clipPath>
				<clipPath id="SVGID_41_" clip-path="url(#SVGID_40_)">
					<use xlink:href="#SVGID_21_"  overflow="visible"/>
				</clipPath>
				<clipPath id="SVGID_42_" clip-path="url(#SVGID_41_)">
					<use xlink:href="#SVGID_22_"  overflow="visible"/>
				</clipPath>
				<clipPath id="SVGID_43_" clip-path="url(#SVGID_42_)">
					<use xlink:href="#SVGID_23_"  overflow="visible"/>
				</clipPath>
				<clipPath id="SVGID_44_" clip-path="url(#SVGID_43_)">
					<use xlink:href="#SVGID_24_"  overflow="visible"/>
				</clipPath>
				<path clip-path="url(#SVGID_44_)" fill="#FFE36C" d="M475.162,318.552c0,21.813-17.684,39.497-39.497,39.497
					c-21.814,0-39.497-17.684-39.497-39.497s17.683-39.497,39.497-39.497C457.479,279.055,475.162,296.738,475.162,318.552"/>
				<path clip-path="url(#SVGID_44_)" fill="#868D93" d="M205.209,572.422c1.614,1.191,3.195,0.686,4.654,0.688
					c46.644,0.029,93.288,0.025,139.932,0.02c5.908,0,6.186-0.412,3.475-5.6c-2.849-5.449-7.018-9.768-12.063-13.203
					c-2.115-1.441-3.544-2.637-2.019-5.541c1.083-2.063,0.187-4.254-1.735-5.662c-3.328-2.436-7.088-3.988-11.112-4.846
					c-1.361-0.293-3.235-0.293-3.77,0.9c-2.766,6.188-7.235,3.102-11.165,2.158c-6.251-1.498-12.563-2.727-18.954-2.992
					c-3.353-0.139-4.547-1.662-5.859-4.326c-7.393-15.008-9.289-31.563-13.488-47.451c-4.858-18.379-8.98-36.953-13.519-55.418
					c-2.653-10.791-5.503-21.535-8.243-32.304c-0.231-0.905-0.769-2.317-0.378-2.708c4.389-4.374,5.121-9.661,4.81-15.541
					c-0.079-1.5,1.832-3.304,3.155-4.649c27.104-27.56,54.159-55.172,81.507-82.491c3.934-3.93,4.518-9.597,8.888-13.243
					c2.862-2.386,4.113-1.753,5.841,0.578c3.113,4.197,3.318,9.099,2.899,13.952c-2.198,25.447,9.946,45.597,23.824,65.131
					c0.199,0.281,0.668,0.37,1.007,0.541c5.033,9.372,5.479,9.533,14.518,5.196c1.892-0.909,3.775-1.833,5.663-2.75
					c33.39-20.782,60.372-47.792,78.741-82.729c6.334-12.046,5.423-9.518-4.328-16.174c-15.652-10.685-32.471-18.954-51.317-22.517
					c-5.021-0.95-10.04-1.069-15.088-0.629c-7.376,0.641-13.7-0.892-18.733-7.001c-3.563-4.326-7.836-8.099-12.005-11.886
					c-9.54-8.666-20.438-10.611-32.382-5.785c-2.381,0.962-3.92,1.291-6.048-0.759c-3.51-3.382-6.04-0.092-8.258,2.193
					c-2.185,2.25-5.775,4.81-2.484,8.258c2.468,2.586,1.7,4.46,0.752,7.122c-4.162,11.679-1.799,22.093,6.423,31.327
					c1.561,1.753,5.209,3.077,4.069,5.541c-1.29,2.791-3.779,5.987-6.93,6.643c-3.467,0.722-5.39,2.845-7.515,5.013
					c-27.072,27.614-54.143,55.228-81.121,82.932c-2.312,2.374-4.471,3.546-7.963,3.457c-7.42-0.187-13.503,4.774-15.489,11.781
					c-2.095,7.398,0.56,14.225,7.295,18.408c2.581,1.603,4.136,3.607,4.875,6.702c9.463,39.589,19.037,79.156,28.653,118.71
					c0.901,3.707,0.203,7.334,0.195,11.004c-0.007,3.457-1.63,4.441-4.93,4.9c-13.574,1.889-26.558,5.76-38.141,13.344
					C213.948,557.565,207.651,563.446,205.209,572.422"/>
				<path clip-path="url(#SVGID_44_)" fill="#F4C914" d="M362.122,650.399c0,22.873,23.867,25.855,23.867,25.855
					s-23.867,2.984-23.867,25.857c0-22.873-23.867-25.857-23.867-25.857S362.122,673.272,362.122,650.399"/>
				<path clip-path="url(#SVGID_44_)" fill="#E59A2E" d="M411.457,520.149c5.064-54.135-43.973-102.988-109.526-109.122
					c-65.554-6.133-122.801,32.78-127.865,86.915c-2.01,21.494,4.515,42.152,17.21,59.641c3.934,7.494,7.508,14.643,10.767,21.461
					l0.001-0.002c0,0,0.011,0.023,0.017,0.039c1.251,2.619,2.459,5.191,3.618,7.711c11.089,23.043,45.313,89.711,71.192,92.131
					c25.866,2.42,71.831-56.688,87.022-77.301c1.619-2.279,3.298-4.604,5.029-6.965l0.003-0.004
					c4.466-6.096,9.305-12.457,14.56-19.094C399.203,560.733,409.447,541.643,411.457,520.149"/>
				<path clip-path="url(#SVGID_44_)" fill="#E28130" d="M239.088,690.645c11.086,8.324,35.783,9.662,35.783,9.662
					s24.516,3.268,36.953-2.857c2.785-1.371,4.818-3.908,5.534-6.932c2.239-9.465,11.532-39.602,46.536-88.895
					c-15.192,20.611-61.158,79.719-87.023,77.299c-25.879-2.42-60.103-69.088-71.192-92.131
					c25.267,54.951,28.812,86.301,29.257,96.018C235.078,685.913,236.607,688.782,239.088,690.645"/>
				<path clip-path="url(#SVGID_44_)" fill="#FFFFFF" d="M390.408,519.698c-3.792,0.709-7.44-1.793-8.147-5.584
					c-7.946-42.584-43.646-74.242-86.817-76.986c-3.849-0.242-6.772-3.563-6.528-7.414c0.245-3.85,3.563-6.775,7.414-6.527
					c49.559,3.15,90.542,39.486,99.663,88.365C396.701,515.342,394.2,518.991,390.408,519.698"/>
				<path clip-path="url(#SVGID_44_)" fill="#868D93" d="M317.581,692.856l-83.298-7.793l-3.714,39.699
					c-0.606,6.484,0.645,13.006,3.608,18.805c5.598,10.959,16.415,18.295,28.669,19.439l12.213,1.145
					c12.253,1.145,24.243-4.057,31.778-13.787c3.985-5.148,6.425-11.324,7.031-17.809L317.581,692.856z"/>
				<path clip-path="url(#SVGID_44_)" fill="#868D93" d="M231.772,711.834c0.237,0.029,0.479,0.043,0.724,0.041l84.104-0.844
					c2.871-0.027,5.096-2.398,4.97-5.293c-0.127-2.895-2.563-5.219-5.43-5.188l-84.105,0.844c-2.87,0.027-5.096,2.396-4.969,5.293
					C227.182,709.334,229.227,711.506,231.772,711.834"/>
				<path clip-path="url(#SVGID_44_)" fill="#868D93" d="M230.072,730.002c0.237,0.031,0.479,0.045,0.724,0.043l84.105-0.844
					c2.871-0.027,5.096-2.396,4.97-5.293c-0.127-2.895-2.564-5.215-5.429-5.188l-84.106,0.844c-2.87,0.027-5.097,2.396-4.969,5.293
					C225.482,727.506,227.527,729.674,230.072,730.002"/>
				<path clip-path="url(#SVGID_44_)" fill="#868D93" d="M231.717,748.299c0.237,0.031,0.479,0.045,0.724,0.043l79.72-0.801
					c2.871-0.027,5.096-2.398,4.97-5.293c-0.128-2.895-2.564-5.219-5.429-5.188l-79.721,0.801c-2.871,0.027-5.097,2.396-4.969,5.293
					C227.127,745.801,229.172,747.971,231.717,748.299"/>
				<path clip-path="url(#SVGID_44_)" fill="#FFE36C" d="M471.811,529.43C413.18,383.423,369.026,397.135,369.026,397.135
					s-44.153,13.711-9.763,167.247c0,0,22.281,85.432,58.689,131.637c3.603,4.574,9.648,6.453,15.21,4.727l27.496-8.539
					l27.496-8.539c5.56-1.727,9.478-6.699,9.856-12.508C501.842,612.456,471.811,529.43,471.811,529.43"/>
				<path clip-path="url(#SVGID_44_)" fill="#868D93" d="M499.613,676.596l-79.897,24.814l11.825,38.08
					c1.93,6.217,5.592,11.756,10.554,15.971c9.381,7.969,22.186,10.584,33.939,6.936l11.714-3.639
					c11.754-3.65,20.824-13.059,24.042-24.938c1.701-6.285,1.58-12.926-0.351-19.145L499.613,676.596z"/>
				<path clip-path="url(#SVGID_44_)" fill="#868D93" d="M427.684,727.088c0.23-0.061,0.459-0.143,0.686-0.238l77.325-33.094
					c2.64-1.131,3.781-4.174,2.553-6.797c-1.229-2.623-4.37-3.834-7.004-2.703l-77.328,33.094c-2.638,1.131-3.782,4.174-2.552,6.797
					C422.485,726.545,425.207,727.764,427.684,727.088"/>
				<path clip-path="url(#SVGID_44_)" fill="#868D93" d="M433.096,744.516c0.23-0.061,0.459-0.143,0.686-0.238l77.325-33.094
					c2.64-1.129,3.782-4.172,2.553-6.797c-1.229-2.623-4.369-3.83-7.004-2.703l-77.327,33.096c-2.639,1.129-3.783,4.174-2.553,6.797
					C427.898,743.975,430.619,745.194,433.096,744.516"/>
				<path clip-path="url(#SVGID_44_)" fill="#868D93" d="M441.645,760.778c0.23-0.063,0.459-0.143,0.684-0.238l73.294-31.369
					c2.64-1.131,3.782-4.174,2.554-6.797s-4.374-3.834-7.005-2.703l-73.295,31.369c-2.639,1.131-3.783,4.172-2.553,6.795
					C436.446,760.235,439.167,761.454,441.645,760.778"/>
				<path clip-path="url(#SVGID_44_)" fill="#FFFFFF" d="M401.342,446.297c-2.607-2.838-5.381-5.51-8.303-8
					c-5.862-4.998-11.756-9.959-17.495-15.096c-4.885-4.373,0.454-12.202,6.272-9.178c25.925,13.467,46.032,37.215,54.348,66.857
					c1.088,3.865-1.304,7.881-5.297,8.727c-3.637,0.766-7.209-1.619-8.223-5.195c-4.121-14.547-11.517-27.449-21.231-38.039
					l0.012-0.002L401.342,446.297z"/>
				<path clip-path="url(#SVGID_44_)" fill="#FFFFFF" d="M408.533,456.237l-0.006,0.01c0.018,0.031,0.032,0.063,0.051,0.094
					L408.533,456.237z"/>
				<path clip-path="url(#SVGID_44_)" fill="#F4C914" d="M454.242,521.971c0-72.592,58.847-131.436,131.437-131.436
					c72.593,0,131.438,58.844,131.438,131.436c0,28.938-9.358,55.686-25.202,77.396c-18.762,28.27-67.51,60.188-67.51,79.313v21.85
					c0,4.359-3.535,7.895-7.896,7.895h-21.123h-19.411h-21.124c-4.359,0-7.896-3.535-7.896-7.895v-21.85
					c0-19.125-48.75-51.043-67.511-79.313C463.599,577.657,454.242,550.909,454.242,521.971"/>
				<path clip-path="url(#SVGID_44_)" fill="#FFFFFF" d="M695.234,529.512c-4.164,0-7.541-3.375-7.541-7.541
					c0-46.768-31.62-87.438-76.894-98.896c-4.038-1.023-6.481-5.125-5.461-9.164c1.023-4.038,5.123-6.485,9.162-5.458
					c51.975,13.16,88.273,59.839,88.273,113.521C702.775,526.137,699.399,529.512,695.234,529.512"/>
				<g clip-path="url(#SVGID_44_)">
					<g opacity="0.55">
						<g>
							<defs>
								<rect id="SVGID_45_" x="454.495" y="529.745" width="262.369" height="178.68"/>
							</defs>
							<clipPath id="SVGID_46_">
								<use xlink:href="#SVGID_45_"  overflow="visible"/>
							</clipPath>
							<path clip-path="url(#SVGID_46_)" fill="#FFC043" d="M716.864,529.745c-7.254,53.895-50.768,109.689-131.186,109.689
								c-80.417,0-122.305-58.406-131.185-109.689c1.515,25.943,10.535,49.869,24.949,69.621
								c18.761,28.271,67.511,60.189,67.511,79.314v21.848c0,4.361,3.535,7.896,7.896,7.896h21.124h19.411h21.124
								c4.36,0,7.896-3.535,7.896-7.896V678.68c0-19.125,48.748-51.043,67.51-79.314
								C706.329,579.614,715.349,555.688,716.864,529.745"/>
						</g>
					</g>
					<g>
						<defs>
							<rect id="SVGID_47_" width="1000" height="821.106"/>
						</defs>
						<defs>
							<rect id="SVGID_48_" width="1000" height="821.106"/>
						</defs>
						<defs>
							<rect id="SVGID_49_" width="1000" height="821.106"/>
						</defs>
						<defs>
							<rect id="SVGID_50_" width="1000" height="821.106"/>
						</defs>
						<defs>
							<rect id="SVGID_51_" width="1000" height="821.106"/>
						</defs>
						<defs>
							<rect id="SVGID_52_" width="1000" height="821.106"/>
						</defs>
						<defs>
							<rect id="SVGID_53_" width="1000" height="821.106"/>
						</defs>
						<defs>
							<rect id="SVGID_54_" width="1000" height="821.106"/>
						</defs>
						<defs>
							<rect id="SVGID_55_" width="1000" height="821.106"/>
						</defs>
						<defs>
							<rect id="SVGID_56_" width="1000" height="821.106"/>
						</defs>
						<defs>
							<rect id="SVGID_57_" width="1000" height="821.106"/>
						</defs>
						<defs>
							<rect id="SVGID_58_" width="1000" height="821.106"/>
						</defs>
						<defs>
							<rect id="SVGID_59_" width="1000" height="821.106"/>
						</defs>
						<defs>
							<rect id="SVGID_60_" width="1000" height="821.106"/>
						</defs>
						<defs>
							<rect id="SVGID_61_" width="1000" height="821.106"/>
						</defs>
						<defs>
							<rect id="SVGID_62_" width="1000" height="821.106"/>
						</defs>
						<defs>
							<rect id="SVGID_63_" width="1000" height="821.106"/>
						</defs>
						<clipPath id="SVGID_64_">
							<use xlink:href="#SVGID_47_"  overflow="visible"/>
						</clipPath>
						<clipPath id="SVGID_65_" clip-path="url(#SVGID_64_)">
							<use xlink:href="#SVGID_48_"  overflow="visible"/>
						</clipPath>
						<clipPath id="SVGID_66_" clip-path="url(#SVGID_65_)">
							<use xlink:href="#SVGID_49_"  overflow="visible"/>
						</clipPath>
						<clipPath id="SVGID_67_" clip-path="url(#SVGID_66_)">
							<use xlink:href="#SVGID_50_"  overflow="visible"/>
						</clipPath>
						<clipPath id="SVGID_68_" clip-path="url(#SVGID_67_)">
							<use xlink:href="#SVGID_51_"  overflow="visible"/>
						</clipPath>
						<clipPath id="SVGID_69_" clip-path="url(#SVGID_68_)">
							<use xlink:href="#SVGID_52_"  overflow="visible"/>
						</clipPath>
						<clipPath id="SVGID_70_" clip-path="url(#SVGID_69_)">
							<use xlink:href="#SVGID_53_"  overflow="visible"/>
						</clipPath>
						<clipPath id="SVGID_71_" clip-path="url(#SVGID_70_)">
							<use xlink:href="#SVGID_54_"  overflow="visible"/>
						</clipPath>
						<clipPath id="SVGID_72_" clip-path="url(#SVGID_71_)">
							<use xlink:href="#SVGID_55_"  overflow="visible"/>
						</clipPath>
						<clipPath id="SVGID_73_" clip-path="url(#SVGID_72_)">
							<use xlink:href="#SVGID_56_"  overflow="visible"/>
						</clipPath>
						<clipPath id="SVGID_74_" clip-path="url(#SVGID_73_)">
							<use xlink:href="#SVGID_57_"  overflow="visible"/>
						</clipPath>
						<clipPath id="SVGID_75_" clip-path="url(#SVGID_74_)">
							<use xlink:href="#SVGID_58_"  overflow="visible"/>
						</clipPath>
						<clipPath id="SVGID_76_" clip-path="url(#SVGID_75_)">
							<use xlink:href="#SVGID_59_"  overflow="visible"/>
						</clipPath>
						<clipPath id="SVGID_77_" clip-path="url(#SVGID_76_)">
							<use xlink:href="#SVGID_60_"  overflow="visible"/>
						</clipPath>
						<clipPath id="SVGID_78_" clip-path="url(#SVGID_77_)">
							<use xlink:href="#SVGID_61_"  overflow="visible"/>
						</clipPath>
						<clipPath id="SVGID_79_" clip-path="url(#SVGID_78_)">
							<use xlink:href="#SVGID_62_"  overflow="visible"/>
						</clipPath>
						<clipPath id="SVGID_80_" clip-path="url(#SVGID_79_)">
							<use xlink:href="#SVGID_63_"  overflow="visible"/>
						</clipPath>
						<path clip-path="url(#SVGID_80_)" fill="#868D93" d="M627.511,688.008h-83.662v39.873c0,6.512,1.854,12.889,5.344,18.385
							c6.596,10.393,18.048,16.688,30.354,16.688h12.266c12.308,0,23.761-6.295,30.356-16.688
							c3.487-5.496,5.342-11.873,5.342-18.385V688.008z"/>
						<path clip-path="url(#SVGID_80_)" fill="#868D93" d="M543.842,714.897c0.239,0.01,0.48,0,0.726-0.023l83.66-8.674
							c2.856-0.295,4.852-2.863,4.455-5.732c-0.396-2.871-3.038-4.959-5.889-4.66l-83.662,8.674
							c-2.854,0.295-4.851,2.861-4.454,5.732C539.039,712.836,541.276,714.807,543.842,714.897"/>
						<path clip-path="url(#SVGID_80_)" fill="#868D93" d="M543.842,733.147c0.239,0.008,0.48,0,0.726-0.025l83.66-8.674
							c2.856-0.295,4.852-2.861,4.455-5.732c-0.396-2.869-3.038-4.953-5.889-4.658l-83.662,8.674
							c-2.854,0.295-4.851,2.861-4.454,5.73C539.039,731.086,541.276,733.057,543.842,733.147"/>
						<path clip-path="url(#SVGID_80_)" fill="#868D93" d="M547.184,751.209c0.239,0.008,0.48,0,0.725-0.025l79.3-8.221
							c2.856-0.297,4.851-2.861,4.455-5.732c-0.396-2.869-3.041-4.957-5.889-4.66l-79.302,8.223
							c-2.854,0.295-4.85,2.861-4.453,5.732C542.381,749.151,544.618,751.122,547.184,751.209"/>
						<path clip-path="url(#SVGID_80_)" fill="#F4C914" d="M583.094,297.415c-4.004,0-7.25,3.247-7.25,7.251v42.776
							c0,4.004,3.246,7.25,7.25,7.25s7.25-3.246,7.25-7.25v-42.776C590.344,300.662,587.098,297.415,583.094,297.415"/>
						<path clip-path="url(#SVGID_80_)" fill="#F4C914" d="M422.18,400.659l36.684,22.005c1.169,0.701,2.454,1.035,3.723,1.035
							c2.463,0,4.865-1.258,6.224-3.521c2.061-3.436,0.946-7.889-2.486-9.948l-36.684-22.005c-3.434-2.059-7.887-0.946-9.946,2.488
							C417.633,394.145,418.746,398.598,422.18,400.659"/>
						<path clip-path="url(#SVGID_80_)" fill="#F4C914" d="M498.854,325.238c-1.957-3.494-6.375-4.74-9.867-2.784
							c-3.494,1.957-4.74,6.375-2.784,9.869l20.899,37.323c1.329,2.373,3.793,3.709,6.332,3.709c1.199,0,2.415-0.298,3.536-0.925
							c3.493-1.957,4.738-6.376,2.783-9.869L498.854,325.238z"/>
						<path clip-path="url(#SVGID_80_)" fill="#F4C914" d="M703.712,423.7c1.271,0,2.556-0.334,3.724-1.035l36.684-22.005
							c3.434-2.062,4.547-6.514,2.486-9.947c-2.061-3.435-6.514-4.549-9.946-2.488l-36.684,22.004
							c-3.434,2.061-4.547,6.514-2.486,9.948C698.848,422.442,701.249,423.7,703.712,423.7"/>
						<path clip-path="url(#SVGID_80_)" fill="#F4C914" d="M677.313,322.454c-3.493-1.954-7.911-0.709-9.868,2.784l-20.899,37.323
							c-1.956,3.494-0.71,7.913,2.784,9.87c1.12,0.627,2.336,0.924,3.535,0.924c2.539,0,5.004-1.336,6.333-3.709l20.898-37.323
							C682.052,328.829,680.806,324.411,677.313,322.454"/>
						<path clip-path="url(#SVGID_80_)" fill="#FFE36C" d="M672.065,588.5c12.117-43.842,57.482-69.559,101.323-57.438
							c43.842,12.115,69.559,57.479,57.439,101.32c-4.83,17.479-14.947,32.068-28.141,42.535l0,0
							c-16.051,13.943-50.82,25.082-54.014,36.633l-3.646,13.195c-0.729,2.633-3.453,4.178-6.088,3.449l-12.758-3.525l-11.724-3.24
							l-12.757-3.525c-2.634-0.729-4.18-3.453-3.451-6.088l3.646-13.193c3.192-11.551-20.921-38.967-27.531-59.174
							C668.422,623.694,667.235,605.979,672.065,588.5"/>
						<path clip-path="url(#SVGID_80_)" fill="#FFFFFF" d="M816.354,633.286c-2.515-0.695-3.99-3.297-3.296-5.813
							c7.809-28.246-4.5-58.088-29.929-72.566c-2.269-1.291-3.06-4.178-1.769-6.445c1.292-2.268,4.177-3.063,6.443-1.768
							c29.194,16.623,43.323,50.877,34.362,83.297C821.473,632.506,818.87,633.981,816.354,633.286"/>
						<path clip-path="url(#SVGID_80_)" fill="#F4C914" d="M829.379,637.036c-13.378,31.34-48.972,57.773-97.54,44.35
							c-48.567-13.424-64.116-55.691-60.918-88.146c-3.415,15.922-1.962,31.877,3.446,46.213
							c6.611,20.207,30.725,47.623,27.533,59.172l-3.648,13.195c-0.727,2.633,0.817,5.357,3.451,6.086l12.757,3.527l11.724,3.238
							l12.758,3.527c2.635,0.729,5.358-0.816,6.088-3.451l3.646-13.195c3.192-11.549,37.963-22.688,54.015-36.631h-0.001
							C814.69,665.397,824.133,652.452,829.379,637.036"/>
						<path clip-path="url(#SVGID_80_)" fill="#868D93" d="M748.994,717.706l-50.528-13.967l-6.657,24.082
							c-1.086,3.932-1.03,8.092,0.158,11.994c2.249,7.377,8.115,13.092,15.548,15.146l7.408,2.047
							c7.434,2.055,15.4,0.164,21.119-5.01c3.024-2.736,5.208-6.279,6.295-10.213L748.994,717.706z"/>
						<path clip-path="url(#SVGID_80_)" fill="#868D93" d="M693.974,719.975c0.144,0.047,0.29,0.08,0.44,0.105l51.977,8.729
							c1.772,0.299,3.406-0.92,3.646-2.719c0.241-1.799-1.006-3.502-2.777-3.797l-51.976-8.729c-1.773-0.299-3.407,0.92-3.646,2.721
							C691.416,717.93,692.439,719.495,693.974,719.975"/>
						<path clip-path="url(#SVGID_80_)" fill="#868D93" d="M690.927,730.999c0.144,0.045,0.29,0.08,0.441,0.104l51.976,8.73
							c1.774,0.297,3.407-0.92,3.647-2.719c0.239-1.801-1.008-3.5-2.778-3.797l-51.975-8.73c-1.775-0.297-3.408,0.92-3.648,2.719
							C688.37,728.952,689.393,730.516,690.927,730.999"/>
						<path clip-path="url(#SVGID_80_)" fill="#868D93" d="M689.93,742.463c0.144,0.045,0.29,0.08,0.441,0.105l49.266,8.273
							c1.773,0.297,3.407-0.92,3.646-2.719c0.24-1.801-1.008-3.504-2.777-3.797l-49.267-8.273c-1.773-0.299-3.407,0.918-3.646,2.721
							C687.372,740.418,688.396,741.983,689.93,742.463"/>
						<g clip-path="url(#SVGID_80_)">
							<g opacity="0.75">
								<g>
									<defs>
										<rect id="SVGID_81_" x="96.781" y="670.94" width="114.405" height="82.27"/>
									</defs>
									<defs>
										<rect id="SVGID_82_" x="96.781" y="670.94" width="114.405" height="82.27"/>
									</defs>
									<defs>
										<rect id="SVGID_83_" x="96.781" y="670.94" width="114.405" height="82.27"/>
									</defs>
									<defs>
										<rect id="SVGID_84_" x="96.781" y="670.94" width="114.405" height="82.27"/>
									</defs>
									<defs>
										<rect id="SVGID_85_" x="96.781" y="670.94" width="114.405" height="82.27"/>
									</defs>
									<defs>
										<rect id="SVGID_86_" x="96.781" y="670.94" width="114.405" height="82.27"/>
									</defs>
									<defs>
										<rect id="SVGID_87_" x="96.781" y="670.94" width="114.405" height="82.27"/>
									</defs>
									<clipPath id="SVGID_88_">
										<use xlink:href="#SVGID_81_"  overflow="visible"/>
									</clipPath>
									<clipPath id="SVGID_89_" clip-path="url(#SVGID_88_)">
										<use xlink:href="#SVGID_82_"  overflow="visible"/>
									</clipPath>
									<clipPath id="SVGID_90_" clip-path="url(#SVGID_89_)">
										<use xlink:href="#SVGID_83_"  overflow="visible"/>
									</clipPath>
									<clipPath id="SVGID_91_" clip-path="url(#SVGID_90_)">
										<use xlink:href="#SVGID_84_"  overflow="visible"/>
									</clipPath>
									<clipPath id="SVGID_92_" clip-path="url(#SVGID_91_)">
										<use xlink:href="#SVGID_85_"  overflow="visible"/>
									</clipPath>
									<clipPath id="SVGID_93_" clip-path="url(#SVGID_92_)">
										<use xlink:href="#SVGID_86_"  overflow="visible"/>
									</clipPath>
									<clipPath id="SVGID_94_" clip-path="url(#SVGID_93_)">
										<use xlink:href="#SVGID_87_"  overflow="visible"/>
									</clipPath>
									<path clip-path="url(#SVGID_94_)" fill="#E59A2E" d="M149.682,751.481c-21.764,6.498-44.674-5.879-51.171-27.643
										c-6.498-21.764,5.878-44.674,27.642-51.17c8.675-2.592,17.532-2.18,25.46,0.627c10.155,3.094,24.089,14.854,29.822,13.143
										l6.55-1.955c1.307-0.393,2.684,0.354,3.074,1.66l1.891,6.332l1.737,5.82l1.891,6.332c0.39,1.309-0.353,2.686-1.661,3.074
										l-6.549,1.955c-5.735,1.713-10.941,19.186-17.738,27.342C165.539,743.692,158.357,748.891,149.682,751.481"/>
									<path clip-path="url(#SVGID_94_)" fill="#FFFFFF" d="M166.887,705.084c-1.249,0.373-2.563-0.338-2.937-1.586
										c-4.185-14.021-17.305-23.385-31.905-22.768c-1.302,0.053-2.402-0.957-2.457-2.26c-0.055-1.303,0.955-2.402,2.258-2.457
										c16.761-0.707,31.822,10.039,36.627,26.135C168.846,703.399,168.135,704.711,166.887,705.084"/>
									<path clip-path="url(#SVGID_94_)" fill="#E28130" d="M128.506,672.047c16.808-2.646,37.431,5.402,44.628,29.516
										c7.198,24.107-6.564,41.895-21.145,49.146c7.643-2.777,14.009-7.623,18.641-13.713c6.797-8.154,12.003-25.627,17.737-27.34
										l6.55-1.955c1.308-0.391,2.051-1.766,1.661-3.074l-1.891-6.332l-1.738-5.818l-1.89-6.334
										c-0.39-1.309-1.767-2.053-3.074-1.66l-6.55,1.955c-5.734,1.713-19.667-10.049-29.823-13.143
										C144.401,670.743,136.42,670.18,128.506,672.047"/>
									<path clip-path="url(#SVGID_94_)" fill="#868D93" d="M183.953,684.67l7.488,25.084l11.955-3.568
										c1.953-0.582,3.699-1.711,5.035-3.246c2.524-2.908,3.386-6.906,2.285-10.598l-1.098-3.676
										c-1.102-3.689-4.014-6.561-7.72-7.609c-1.961-0.553-4.038-0.535-5.99,0.047L183.953,684.67z"/>
									<path clip-path="url(#SVGID_94_)" fill="#868D93" d="M199.504,707.35c-0.019-0.072-0.043-0.145-0.072-0.217l-10.089-24.305
										c-0.344-0.83-1.292-1.199-2.117-0.824c-0.826,0.377-1.215,1.355-0.87,2.184l10.088,24.309
										c0.344,0.83,1.292,1.197,2.118,0.82C199.317,708.973,199.706,708.125,199.504,707.35"/>
									<path clip-path="url(#SVGID_94_)" fill="#868D93" d="M204.976,705.715c-0.02-0.072-0.044-0.145-0.073-0.215l-10.088-24.305
										c-0.345-0.832-1.292-1.199-2.117-0.824c-0.826,0.375-1.214,1.354-0.87,2.184l10.087,24.309
										c0.345,0.828,1.293,1.195,2.118,0.82C204.788,707.34,205.178,706.495,204.976,705.715"/>
									<path clip-path="url(#SVGID_94_)" fill="#868D93" d="M210.092,703.096c-0.019-0.07-0.043-0.143-0.072-0.213l-9.563-23.041
										c-0.344-0.83-1.293-1.195-2.118-0.82c-0.825,0.375-1.214,1.354-0.87,2.182l9.563,23.041c0.344,0.83,1.292,1.197,2.118,0.82
										C209.905,704.721,210.295,703.875,210.092,703.096"/>
								</g>
							</g>
							<g>
								<defs>
									<rect id="SVGID_95_" width="1000" height="821.106"/>
								</defs>
								<clipPath id="SVGID_96_">
									<use xlink:href="#SVGID_95_"  overflow="visible"/>
								</clipPath>
								<g clip-path="url(#SVGID_96_)">
									<g opacity="0.75">
										<g>
											<defs>
												<rect id="SVGID_97_" x="79.113" y="454.631" width="131.858" height="182.881"/>
											</defs>
											<defs>
												<rect id="SVGID_98_" x="79.113" y="454.631" width="131.858" height="182.881"/>
											</defs>
											<defs>
												<rect id="SVGID_99_" x="79.113" y="454.631" width="131.858" height="182.881"/>
											</defs>
											<defs>
												<rect id="SVGID_100_" x="79.113" y="454.631" width="131.858" height="182.881"/>
											</defs>
											<defs>
												<rect id="SVGID_101_" x="79.113" y="454.631" width="131.858" height="182.881"/>
											</defs>
											<defs>
												<rect id="SVGID_102_" x="79.113" y="454.631" width="131.858" height="182.881"/>
											</defs>
											<defs>
												<rect id="SVGID_103_" x="79.113" y="454.631" width="131.858" height="182.881"/>
											</defs>
											<defs>
												<rect id="SVGID_104_" x="79.113" y="454.631" width="131.858" height="182.881"/>
											</defs>
											<defs>
												<rect id="SVGID_105_" x="79.113" y="454.631" width="131.858" height="182.881"/>
											</defs>
											<defs>
												<rect id="SVGID_106_" x="79.113" y="454.631" width="131.858" height="182.881"/>
											</defs>
											<defs>
												<rect id="SVGID_107_" x="79.113" y="454.631" width="131.858" height="182.881"/>
											</defs>
											<clipPath id="SVGID_108_">
												<use xlink:href="#SVGID_97_"  overflow="visible"/>
											</clipPath>
											<clipPath id="SVGID_109_" clip-path="url(#SVGID_108_)">
												<use xlink:href="#SVGID_98_"  overflow="visible"/>
											</clipPath>
											<clipPath id="SVGID_110_" clip-path="url(#SVGID_109_)">
												<use xlink:href="#SVGID_99_"  overflow="visible"/>
											</clipPath>
											<clipPath id="SVGID_111_" clip-path="url(#SVGID_110_)">
												<use xlink:href="#SVGID_100_"  overflow="visible"/>
											</clipPath>
											<clipPath id="SVGID_112_" clip-path="url(#SVGID_111_)">
												<use xlink:href="#SVGID_101_"  overflow="visible"/>
											</clipPath>
											<clipPath id="SVGID_113_" clip-path="url(#SVGID_112_)">
												<use xlink:href="#SVGID_102_"  overflow="visible"/>
											</clipPath>
											<clipPath id="SVGID_114_" clip-path="url(#SVGID_113_)">
												<use xlink:href="#SVGID_103_"  overflow="visible"/>
											</clipPath>
											<clipPath id="SVGID_115_" clip-path="url(#SVGID_114_)">
												<use xlink:href="#SVGID_104_"  overflow="visible"/>
											</clipPath>
											<clipPath id="SVGID_116_" clip-path="url(#SVGID_115_)">
												<use xlink:href="#SVGID_105_"  overflow="visible"/>
											</clipPath>
											<clipPath id="SVGID_117_" clip-path="url(#SVGID_116_)">
												<use xlink:href="#SVGID_106_"  overflow="visible"/>
											</clipPath>
											<clipPath id="SVGID_118_" clip-path="url(#SVGID_117_)">
												<use xlink:href="#SVGID_107_"  overflow="visible"/>
											</clipPath>
											<path clip-path="url(#SVGID_118_)" fill="#FFE36C" d="M106.732,557.913c-8.409-28.166,7.608-57.816,35.775-66.227
												c28.167-8.408,57.818,7.607,66.227,35.775c3.352,11.229,2.819,22.689-0.814,32.949
												c-4.004,13.145-19.222,31.176-17.007,38.596l2.531,8.479c0.505,1.693-0.457,3.475-2.149,3.979l-8.197,2.447l-7.532,2.248
												l-8.196,2.447c-1.693,0.506-3.474-0.457-3.979-2.148l-2.531-8.479c-2.215-7.42-24.828-14.158-35.383-22.955
												C116.814,578.434,110.085,569.141,106.732,557.913"/>
											<path clip-path="url(#SVGID_118_)" fill="#FFFFFF" d="M201.117,532.922c-1.616,0.482-3.317-0.438-3.8-2.053
												c-5.418-18.148-22.398-30.266-41.293-29.469c-1.684,0.07-3.108-1.236-3.179-2.922c-0.072-1.688,1.236-3.111,2.921-3.182
												c21.693-0.914,41.185,12.994,47.404,33.824C203.652,530.739,202.733,532.442,201.117,532.922"/>
											<path clip-path="url(#SVGID_118_)" fill="#FFE36C" d="M209.536,530.506c3.429,21.752-6.991,48.443-38.195,57.758
												c-31.204,9.316-54.224-8.494-63.61-27.363c3.593,9.891,9.865,18.129,17.746,24.125
												c10.555,8.795,33.168,15.533,35.383,22.953l2.531,8.479c0.505,1.693,2.287,2.654,3.979,2.15l8.196-2.449l7.533-2.248
												l8.196-2.447c1.692-0.504,2.654-2.285,2.149-3.977l-2.531-8.48c-2.215-7.42,13.003-25.453,17.008-38.596
												C211.225,551.077,211.954,540.749,209.536,530.506"/>
											<path clip-path="url(#SVGID_118_)" fill="#868D93" d="M193.199,602.266l-32.463,9.691l4.619,15.473
												c0.754,2.527,2.212,4.787,4.202,6.516c3.763,3.268,8.937,4.385,13.712,2.959l4.759-1.422
												c4.776-1.426,8.49-5.193,9.847-9.99c0.717-2.537,0.697-5.227-0.057-7.752L193.199,602.266z"/>
											<path clip-path="url(#SVGID_118_)" fill="#868D93" d="M163.849,622.393c0.094-0.023,0.186-0.057,0.277-0.094
												l31.458-13.057c1.075-0.445,1.551-1.674,1.065-2.74c-0.487-1.068-1.753-1.572-2.824-1.127l-31.458,13.057
												c-1.075,0.445-1.551,1.674-1.065,2.74C161.746,622.151,162.843,622.657,163.849,622.393"/>
											<path clip-path="url(#SVGID_118_)" fill="#868D93" d="M165.962,629.473c0.094-0.021,0.187-0.055,0.278-0.094
												l31.458-13.055c1.075-0.447,1.551-1.674,1.065-2.742c-0.487-1.068-1.753-1.57-2.824-1.125l-31.459,13.057
												c-1.074,0.445-1.55,1.672-1.064,2.74C163.86,629.231,164.956,629.737,165.962,629.473"/>
											<path clip-path="url(#SVGID_118_)" fill="#868D93" d="M169.352,636.096c0.094-0.023,0.187-0.057,0.277-0.094
												l29.819-12.377c1.074-0.445,1.55-1.672,1.064-2.74c-0.486-1.066-1.754-1.57-2.824-1.127l-29.818,12.377
												c-1.075,0.445-1.551,1.672-1.065,2.74C167.249,635.854,168.346,636.36,169.352,636.096"/>
											<path clip-path="url(#SVGID_118_)" fill="#FFE36C" d="M131.801,455.903c-1.554,0.463-2.437,2.1-1.973,3.652l4.955,16.598
												c0.464,1.555,2.1,2.438,3.654,1.975c1.553-0.465,2.436-2.1,1.972-3.654l-4.955-16.596
												C134.99,456.323,133.355,455.438,131.801,455.903"/>
											<path clip-path="url(#SVGID_118_)" fill="#FFE36C" d="M81.322,514.604l16.783,4.287c0.534,0.139,1.072,0.117,1.565-0.027
												c0.956-0.285,1.742-1.053,2.006-2.088c0.403-1.57-0.545-3.17-2.117-3.57l-16.783-4.291
												c-1.57-0.402-3.17,0.547-3.571,2.117C78.803,512.602,79.752,514.204,81.322,514.604"/>
											<path clip-path="url(#SVGID_118_)" fill="#FFE36C" d="M102.337,476.456c-1.164-1.129-3.022-1.1-4.151,0.063
												c-1.129,1.166-1.101,3.023,0.063,4.152l12.433,12.063c0.791,0.766,1.902,1,2.887,0.705
												c0.465-0.141,0.903-0.396,1.265-0.77c1.129-1.164,1.101-3.021-0.063-4.15L102.337,476.456z"/>
											<path clip-path="url(#SVGID_118_)" fill="#FFE36C" d="M171.261,454.704c-1.582-0.355-3.152,0.643-3.507,2.225
												l-3.786,16.902c-0.354,1.582,0.642,3.152,2.224,3.506c0.507,0.113,1.013,0.09,1.478-0.051
												c0.986-0.293,1.787-1.098,2.029-2.172l3.786-16.904C173.838,456.627,172.843,455.057,171.261,454.704"/>
										</g>
									</g>
									<g>
										<defs>
											<rect id="SVGID_119_" width="1000" height="821.106"/>
										</defs>
										<defs>
											<rect id="SVGID_120_" width="1000" height="821.106"/>
										</defs>
										<defs>
											<rect id="SVGID_121_" width="1000" height="821.106"/>
										</defs>
										<defs>
											<rect id="SVGID_122_" width="1000" height="821.106"/>
										</defs>
										<defs>
											<rect id="SVGID_123_" width="1000" height="821.106"/>
										</defs>
										<clipPath id="SVGID_124_">
											<use xlink:href="#SVGID_119_"  overflow="visible"/>
										</clipPath>
										<clipPath id="SVGID_125_" clip-path="url(#SVGID_124_)">
											<use xlink:href="#SVGID_120_"  overflow="visible"/>
										</clipPath>
										<clipPath id="SVGID_126_" clip-path="url(#SVGID_125_)">
											<use xlink:href="#SVGID_121_"  overflow="visible"/>
										</clipPath>
										<clipPath id="SVGID_127_" clip-path="url(#SVGID_126_)">
											<use xlink:href="#SVGID_122_"  overflow="visible"/>
										</clipPath>
										<clipPath id="SVGID_128_" clip-path="url(#SVGID_127_)">
											<use xlink:href="#SVGID_123_"  overflow="visible"/>
										</clipPath>
										<path clip-path="url(#SVGID_128_)" fill="#F4C914" d="M126.996,337.551c65.068,0,73.555-67.897,73.555-67.897
											s8.487,67.898,73.555,67.898c-65.068,0-73.555,67.896-73.555,67.896S192.064,337.551,126.996,337.551"/>
										<path clip-path="url(#SVGID_128_)" fill="#F4C914" d="M103.126,402.796c28.467,0,32.18-29.705,32.18-29.705
											s3.713,29.706,32.18,29.706c-28.467,0-32.18,29.704-32.18,29.704S131.593,402.796,103.126,402.796"/>
										<path clip-path="url(#SVGID_128_)" fill="#E59A2E" d="M803.661,443.487c0,35.699-37.254,40.357-37.254,40.357
											s37.254,4.656,37.254,40.357c0-35.701,37.254-40.357,37.254-40.357S803.661,479.188,803.661,443.487"/>
										<path clip-path="url(#SVGID_128_)" fill="#E59A2E" d="M750.206,448.045c15.619,0,17.656,16.299,17.656,16.299
											s2.037-16.299,17.656-16.299c-15.619,0-17.656-16.299-17.656-16.299S765.825,448.045,750.206,448.045"/>
										<g clip-path="url(#SVGID_128_)">
											<g opacity="0.75">
												<g>
													<defs>
														<rect id="SVGID_129_" x="780.66" y="649.09" width="143.783" height="108.283"/>
													</defs>
													<defs>
														<rect id="SVGID_130_" x="780.66" y="649.09" width="143.783" height="108.283"/>
													</defs>
													<defs>
														<rect id="SVGID_131_" x="780.66" y="649.09" width="143.783" height="108.283"/>
													</defs>
													<defs>
														<rect id="SVGID_132_" x="780.66" y="649.09" width="143.783" height="108.283"/>
													</defs>
													<defs>
														<rect id="SVGID_133_" x="780.66" y="649.09" width="143.783" height="108.283"/>
													</defs>
													<defs>
														<rect id="SVGID_134_" x="780.66" y="649.09" width="143.783" height="108.283"/>
													</defs>
													<defs>
														<rect id="SVGID_135_" x="780.66" y="649.09" width="143.783" height="108.283"/>
													</defs>
													<clipPath id="SVGID_136_">
														<use xlink:href="#SVGID_129_"  overflow="visible"/>
													</clipPath>
													<clipPath id="SVGID_137_" clip-path="url(#SVGID_136_)">
														<use xlink:href="#SVGID_130_"  overflow="visible"/>
													</clipPath>
													<clipPath id="SVGID_138_" clip-path="url(#SVGID_137_)">
														<use xlink:href="#SVGID_131_"  overflow="visible"/>
													</clipPath>
													<clipPath id="SVGID_139_" clip-path="url(#SVGID_138_)">
														<use xlink:href="#SVGID_132_"  overflow="visible"/>
													</clipPath>
													<clipPath id="SVGID_140_" clip-path="url(#SVGID_139_)">
														<use xlink:href="#SVGID_133_"  overflow="visible"/>
													</clipPath>
													<clipPath id="SVGID_141_" clip-path="url(#SVGID_140_)">
														<use xlink:href="#SVGID_134_"  overflow="visible"/>
													</clipPath>
													<clipPath id="SVGID_142_" clip-path="url(#SVGID_141_)">
														<use xlink:href="#SVGID_135_"  overflow="visible"/>
													</clipPath>
													<path clip-path="url(#SVGID_142_)" fill="#FFC043" d="M857.057,752.059c-26.467,12.791-58.291,1.703-71.081-24.764
														c-12.791-26.465-1.703-58.291,24.764-71.082c10.549-5.098,21.95-6.398,32.658-4.447
														c13.612,1.857,33.841,14.01,40.813,10.639l7.966-3.85c1.59-0.768,3.502-0.102,4.271,1.488l3.722,7.701l3.421,7.078
														l3.723,7.701c0.768,1.59,0.102,3.5-1.488,4.27l-7.965,3.85c-6.974,3.369-10.021,26.77-17.023,38.59
														C875.71,738.834,867.607,746.959,857.057,752.059"/>
													<path clip-path="url(#SVGID_142_)" fill="#FFFFFF" d="M877.085,694.973c-1.613,0.49-3.319-0.42-3.811-2.033
														c-5.515-18.117-22.559-30.146-41.448-29.248c-1.686,0.08-3.115-1.223-3.195-2.904c-0.08-1.688,1.22-3.117,2.905-3.197
														c21.687-1.029,41.253,12.777,47.581,33.572C879.608,692.776,878.698,694.483,877.085,694.973"/>
													<path clip-path="url(#SVGID_142_)" fill="#FFC043" d="M813.616,654.938c20.928-6.854,48.938-0.818,63.107,28.502
														c14.17,29.318,0.257,54.885-16.88,67.156c9.193-5.123,16.328-12.627,20.989-21.363
														c7.002-11.82,10.051-35.221,17.023-38.59l7.965-3.85c1.591-0.77,2.257-2.68,1.487-4.27l-3.722-7.703l-3.421-7.076
														l-3.722-7.701c-0.77-1.59-2.682-2.256-4.271-1.488l-7.966,3.85c-6.973,3.371-27.2-8.779-40.813-10.639
														C833.655,649.991,823.343,650.918,813.616,654.938"/>
													<path clip-path="url(#SVGID_142_)" fill="#868D93" d="M887.064,659.627l14.74,30.504l14.538-7.023
														c2.374-1.148,4.372-2.947,5.763-5.189c2.626-4.236,2.902-9.52,0.734-14.008l-2.161-4.471
														c-2.169-4.488-6.481-7.557-11.433-8.129c-2.619-0.305-5.271,0.145-7.645,1.293L887.064,659.627z"/>
													<path clip-path="url(#SVGID_142_)" fill="#868D93" d="M911.61,685.397c-0.039-0.09-0.085-0.176-0.138-0.26
														l-17.902-28.975c-0.611-0.99-1.898-1.266-2.875-0.615c-0.978,0.65-1.273,1.982-0.661,2.969l17.902,28.977
														c0.609,0.988,1.898,1.264,2.875,0.613C911.706,687.51,912.029,686.348,911.61,685.397"/>
													<path clip-path="url(#SVGID_142_)" fill="#868D93" d="M918.264,682.18c-0.039-0.088-0.084-0.174-0.137-0.26
														l-17.903-28.973c-0.609-0.99-1.897-1.266-2.875-0.615c-0.977,0.65-1.271,1.98-0.661,2.967l17.903,28.977
														c0.61,0.988,1.898,1.264,2.875,0.613C918.359,684.295,918.684,683.131,918.264,682.18"/>
													<path clip-path="url(#SVGID_142_)" fill="#868D93" d="M924.262,677.78c-0.039-0.088-0.085-0.174-0.138-0.258
														l-16.97-27.467c-0.611-0.988-1.898-1.264-2.875-0.613c-0.978,0.65-1.272,1.982-0.662,2.969l16.971,27.465
														c0.61,0.988,1.898,1.264,2.875,0.613C924.356,679.893,924.681,678.731,924.262,677.78"/>
												</g>
											</g>
										</g>
									</g>
								</g>
							</g>
						</g>
					</g>
				</g>
			</g>
		</g>
	</g>
</g>
</svg>
