<?xml version="1.0" encoding="utf-8"?>
<!-- Generator: Adobe Illustrator 15.0.0, SVG Export Plug-In . SVG Version: 6.00 Build 0)  -->
<!DOCTYPE svg PUBLIC "-//W3C//DTD SVG 1.1//EN" "http://www.w3.org/Graphics/SVG/1.1/DTD/svg11.dtd">
<svg version="1.1" id="Layer_1" xmlns="http://www.w3.org/2000/svg" xmlns:xlink="http://www.w3.org/1999/xlink" x="0px" y="0px"
	 width="1000px" height="568px" viewBox="0 0 1000 568" enable-background="new 0 0 1000 568" xml:space="preserve">
<g>
	<defs>
		<rect id="SVGID_1_" x="20.255" y="85.341" width="979.745" height="537.659"/>
	</defs>
	<clipPath id="SVGID_2_">
		<use xlink:href="#SVGID_1_"  overflow="visible"/>
	</clipPath>
</g>
<g opacity="0.75">
	<g>
		<defs>
			<rect id="SVGID_3_" x="667.815" y="299.24" width="187.224" height="261.089"/>
		</defs>
		<clipPath id="SVGID_4_">
			<use xlink:href="#SVGID_3_"  overflow="visible"/>
		</clipPath>
		<path clip-path="url(#SVGID_4_)" fill="#FFE36C" d="M671.219,367.918c13.771-49.818,65.321-79.043,115.142-65.271
			c49.818,13.77,79.043,65.32,65.271,115.14c-5.488,19.86-16.984,36.441-31.978,48.335h0.001
			c-18.24,15.844-57.752,28.503-61.38,41.628l-4.145,14.994c-0.828,2.993-3.925,4.748-6.918,3.921l-14.496-4.007l-13.322-3.682
			l-14.497-4.008c-2.992-0.827-4.748-3.924-3.921-6.917l4.145-14.994c3.627-13.125-23.775-44.279-31.287-67.241
			C667.078,407.909,665.73,387.777,671.219,367.918"/>
		<path clip-path="url(#SVGID_4_)" fill="#FFFFFF" d="M835.184,418.811c-2.858-0.79-4.535-3.747-3.745-6.604
			c8.872-32.099-5.113-66.009-34.01-82.463c-2.578-1.468-3.478-4.746-2.01-7.324c1.468-2.577,4.745-3.479,7.322-2.008
			c33.176,18.889,49.232,57.813,39.048,94.654C841,417.925,838.042,419.601,835.184,418.811"/>
		<path clip-path="url(#SVGID_4_)" fill="#FFE36C" d="M849.984,423.072c-15.202,35.612-55.65,65.651-110.841,50.396
			c-55.191-15.255-72.86-63.287-69.226-100.167c-3.881,18.092-2.229,36.224,3.916,52.514c7.513,22.962,34.914,54.116,31.287,67.241
			l-4.145,14.995c-0.827,2.992,0.928,6.089,3.921,6.916l14.497,4.007l13.322,3.683l14.496,4.007
			c2.993,0.827,6.091-0.928,6.918-3.921l4.145-14.994c3.628-13.125,43.14-25.783,61.379-41.628
			C833.294,455.301,844.023,440.591,849.984,423.072"/>
		<path clip-path="url(#SVGID_4_)" fill="#868D93" d="M758.637,514.74l-57.418-15.871l-7.563,27.366
			c-1.235,4.468-1.173,9.196,0.179,13.631c2.555,8.383,9.221,14.876,17.668,17.211l8.418,2.326
			c8.447,2.335,17.501,0.188,23.999-5.693c3.438-3.11,5.919-7.136,7.154-11.604L758.637,514.74z"/>
		<path clip-path="url(#SVGID_4_)" fill="#868D93" d="M696.114,517.322c0.162,0.051,0.33,0.091,0.502,0.119l59.063,9.919
			c2.017,0.339,3.872-1.045,4.145-3.089c0.273-2.045-1.144-3.979-3.157-4.315l-59.063-9.919c-2.016-0.338-3.871,1.045-4.145,3.09
			C693.208,514.997,694.37,516.773,696.114,517.322"/>
		<path clip-path="url(#SVGID_4_)" fill="#868D93" d="M692.652,529.847c0.162,0.051,0.33,0.091,0.502,0.119l59.062,9.919
			c2.018,0.34,3.872-1.044,4.146-3.089s-1.146-3.977-3.157-4.315l-59.063-9.919c-2.016-0.338-3.871,1.045-4.145,3.09
			C689.746,527.521,690.908,529.298,692.652,529.847"/>
		<path clip-path="url(#SVGID_4_)" fill="#868D93" d="M691.519,542.878c0.163,0.051,0.33,0.091,0.502,0.119l55.984,9.402
			c2.016,0.338,3.871-1.044,4.144-3.09c0.273-2.045-1.146-3.98-3.157-4.315l-55.983-9.401c-2.017-0.339-3.872,1.044-4.145,3.09
			C688.613,540.553,689.775,542.329,691.519,542.878"/>
	</g>
</g>
<g opacity="0.75">
	<g>
		<defs>
			<rect id="SVGID_5_" x="165.039" y="461.599" width="130.005" height="93.49"/>
		</defs>
		<clipPath id="SVGID_6_">
			<use xlink:href="#SVGID_5_"  overflow="visible"/>
		</clipPath>
		<path clip-path="url(#SVGID_6_)" fill="#E59A2E" d="M225.153,553.123c-24.732,7.384-50.766-6.68-58.149-31.411
			c-7.384-24.731,6.68-50.766,31.411-58.149c9.859-2.943,19.923-2.476,28.931,0.715v-0.001c11.54,3.517,27.374,16.879,33.89,14.934
			l7.442-2.222c1.486-0.443,3.051,0.402,3.494,1.887l2.148,7.196l1.975,6.615l2.149,7.195c0.443,1.485-0.402,3.051-1.888,3.493
			l-7.443,2.224c-6.516,1.943-12.432,21.799-20.156,31.066C243.172,544.271,235.011,550.182,225.153,553.123"/>
		<path clip-path="url(#SVGID_6_)" fill="#FFFFFF" d="M244.704,500.4c-1.419,0.424-2.913-0.383-3.336-1.802
			c-4.757-15.935-19.666-26.574-36.256-25.874c-1.48,0.063-2.73-1.087-2.793-2.566c-0.062-1.479,1.086-2.73,2.566-2.792
			c19.046-0.804,36.161,11.409,41.621,29.698C246.93,498.483,246.123,499.977,244.704,500.4"/>
		<path clip-path="url(#SVGID_6_)" fill="#E28130" d="M201.089,462.858c19.1-3.011,42.535,6.14,50.715,33.537
			c8.179,27.399-7.459,47.61-24.028,55.853c8.684-3.156,15.918-8.662,21.182-15.582c7.723-9.269,13.64-29.123,20.155-31.068
			l7.444-2.222c1.486-0.444,2.33-2.009,1.887-3.494l-2.148-7.196l-1.975-6.614l-2.149-7.195c-0.443-1.486-2.007-2.33-3.493-1.888
			l-7.443,2.223c-6.516,1.944-22.349-11.417-33.889-14.935v0.001C219.151,461.376,210.082,460.735,201.089,462.858"/>
		<path clip-path="url(#SVGID_6_)" fill="#868D93" d="M264.098,477.203l8.509,28.504l13.585-4.056
			c2.218-0.662,4.202-1.942,5.72-3.69c2.87-3.304,3.85-7.847,2.598-12.039l-1.247-4.179c-1.252-4.192-4.562-7.455-8.773-8.645
			c-2.228-0.63-4.589-0.613-6.807,0.049L264.098,477.203z"/>
		<path clip-path="url(#SVGID_6_)" fill="#868D93" d="M281.769,502.974c-0.021-0.082-0.049-0.163-0.083-0.244l-11.464-27.621
			c-0.391-0.942-1.468-1.36-2.406-0.935c-0.937,0.427-1.38,1.54-0.988,2.481l11.464,27.62c0.391,0.943,1.469,1.361,2.406,0.935
			C281.556,504.82,281.999,503.857,281.769,502.974"/>
		<path clip-path="url(#SVGID_6_)" fill="#868D93" d="M287.986,501.118c-0.021-0.083-0.049-0.164-0.083-0.244l-11.463-27.621
			c-0.392-0.943-1.469-1.361-2.407-0.935c-0.937,0.427-1.379,1.538-0.988,2.479l11.464,27.622c0.391,0.942,1.469,1.361,2.406,0.934
			C287.773,502.964,288.216,502.001,287.986,501.118"/>
		<path clip-path="url(#SVGID_6_)" fill="#868D93" d="M293.801,498.143c-0.021-0.083-0.049-0.164-0.083-0.244l-10.866-26.182
			c-0.391-0.942-1.468-1.361-2.406-0.935s-1.38,1.54-0.989,2.48l10.867,26.181c0.391,0.943,1.468,1.362,2.406,0.935
			C293.588,499.988,294.031,499.025,293.801,498.143"/>
	</g>
</g>
<path fill="#E59A2E" d="M741.992,288.651c5.755-61.516-49.969-117.033-124.462-124.001c-74.492-6.969-139.545,37.251-145.3,98.768
	c-2.285,24.425,5.13,47.9,19.556,67.771c4.47,8.518,8.532,16.642,12.235,24.389l0.001-0.002c0,0,0.013,0.027,0.02,0.044
	c1.423,2.976,2.795,5.899,4.111,8.763c12.602,26.185,51.492,101.944,80.9,104.695c29.394,2.749,81.626-64.419,98.89-87.842
	c1.84-2.591,3.747-5.231,5.714-7.916l0.003-0.005c5.076-6.925,10.574-14.154,16.546-21.694
	C728.067,334.77,739.708,313.077,741.992,288.651"/>
<path fill="#E28130" d="M546.119,482.398c12.597,9.46,40.661,10.979,40.661,10.979s27.859,3.712,41.993-3.248
	c3.164-1.559,5.476-4.442,6.287-7.875c2.546-10.754,13.106-45.002,52.883-101.02c-17.263,23.423-69.496,90.591-98.89,87.842
	c-29.408-2.751-68.299-78.511-80.9-104.695c28.714,62.445,32.74,98.068,33.247,109.112
	C541.562,477.018,543.298,480.279,546.119,482.398"/>
<path fill="#FFFFFF" d="M718.073,288.14c-4.31,0.804-8.455-2.037-9.259-6.347c-9.03-48.391-49.599-84.365-98.654-87.483
	c-4.375-0.277-7.696-4.05-7.419-8.425c0.279-4.376,4.049-7.7,8.425-7.418c56.318,3.579,102.889,44.871,113.254,100.414
	C725.225,283.19,722.382,287.336,718.073,288.14"/>
<path fill="#868D93" d="M635.315,484.909l-94.657-8.854l-4.22,45.113c-0.689,7.366,0.731,14.777,4.099,21.366
	c6.362,12.455,18.654,20.79,32.579,22.092l13.877,1.3c13.926,1.302,27.55-4.609,36.112-15.667c4.529-5.852,7.301-12.87,7.99-20.236
	L635.315,484.909z"/>
<path fill="#868D93" d="M537.805,506.477c0.271,0.034,0.543,0.051,0.822,0.048l95.575-0.958c3.262-0.031,5.79-2.727,5.646-6.015
	c-0.144-3.289-2.911-5.932-6.168-5.896l-95.575,0.958c-3.263,0.032-5.791,2.726-5.646,6.015
	C532.589,503.638,534.912,506.104,537.805,506.477"/>
<path fill="#868D93" d="M535.873,527.123c0.271,0.035,0.543,0.052,0.823,0.048l95.574-0.958c3.263-0.03,5.79-2.725,5.646-6.014
	c-0.144-3.289-2.911-5.927-6.168-5.895l-95.575,0.957c-3.262,0.032-5.791,2.726-5.646,6.015
	C530.657,524.285,532.98,526.751,535.873,527.123"/>
<path fill="#868D93" d="M537.742,547.915c0.271,0.034,0.543,0.051,0.821,0.047l90.593-0.907c3.263-0.033,5.79-2.726,5.647-6.016
	c-0.146-3.289-2.916-5.933-6.169-5.895l-90.593,0.908c-3.263,0.032-5.791,2.725-5.646,6.015
	C532.526,545.076,534.85,547.542,537.742,547.915"/>
<path fill="#F4C914" d="M256.357,292.881c0-82.489,66.872-149.36,149.361-149.36c82.49,0,149.361,66.871,149.361,149.36
	c0,32.883-10.635,63.276-28.64,87.947c-21.319,32.127-76.715,68.399-76.715,90.131v24.826c0,4.956-4.017,8.974-8.973,8.974h-24.004
	h-22.058h-24.004c-4.955,0-8.973-4.018-8.973-8.974v-24.826c0-21.731-55.397-58.004-76.716-90.131
	C266.991,356.157,256.357,325.764,256.357,292.881"/>
<path fill="#FFFFFF" d="M530.212,301.451c-4.732,0-8.569-3.837-8.569-8.57c0-53.146-35.932-99.361-87.378-112.385
	c-4.589-1.162-7.367-5.823-6.205-10.411c1.162-4.589,5.821-7.37,10.41-6.204c59.062,14.951,100.312,67.999,100.312,129
	C538.781,297.614,534.944,301.451,530.212,301.451"/>
<g opacity="0.55">
	<g>
		<defs>
			<rect id="SVGID_7_" x="256.644" y="301.713" width="298.147" height="203.046"/>
		</defs>
		<clipPath id="SVGID_8_">
			<use xlink:href="#SVGID_7_"  overflow="visible"/>
		</clipPath>
		<path clip-path="url(#SVGID_8_)" fill="#FFC043" d="M554.791,301.713c-8.244,61.243-57.689,124.648-149.073,124.648
			c-91.384,0-138.984-66.371-149.073-124.648c1.721,29.481,11.971,56.67,28.351,79.115c21.319,32.127,76.716,68.399,76.716,90.131
			v24.826c0,4.956,4.017,8.974,8.973,8.974h24.004h22.058h24.003c4.957,0,8.974-4.018,8.974-8.974v-24.826
			c0-21.731,55.396-58.004,76.716-90.131h-0.001C542.82,358.383,553.069,331.194,554.791,301.713"/>
	</g>
</g>
<path fill="#868D93" d="M453.253,481.56h-95.07v45.312c0,7.398,2.105,14.645,6.07,20.892c7.496,11.808,20.51,18.962,34.496,18.962
	h13.938c13.986,0,27-7.154,34.496-18.962c3.964-6.247,6.07-13.493,6.07-20.892V481.56z"/>
<path fill="#868D93" d="M358.175,512.114c0.272,0.01,0.546,0,0.823-0.028l95.07-9.855c3.246-0.336,5.511-3.253,5.062-6.514
	c-0.45-3.262-3.452-5.636-6.691-5.295l-95.071,9.854c-3.244,0.336-5.512,3.253-5.061,6.514
	C352.717,509.773,355.26,512.013,358.175,512.114"/>
<path fill="#868D93" d="M358.175,532.852c0.272,0.01,0.546,0,0.823-0.028l95.07-9.855c3.246-0.336,5.511-3.253,5.062-6.514
	c-0.45-3.262-3.452-5.63-6.691-5.294l-95.071,9.854c-3.244,0.336-5.512,3.253-5.061,6.515
	C352.717,530.512,355.26,532.75,358.175,532.852"/>
<path fill="#868D93" d="M361.972,553.379c0.271,0.01,0.546,0,0.822-0.029l90.114-9.342c3.246-0.337,5.511-3.253,5.062-6.515
	c-0.45-3.26-3.455-5.635-6.691-5.295l-90.114,9.342c-3.245,0.337-5.512,3.253-5.062,6.515
	C356.514,551.038,359.057,553.277,361.972,553.379"/>
<path fill="#FFFFFF" d="M507.381,365.016v0.002c0.008,0.014,0.016,0.026,0.023,0.04
	C507.396,365.042,507.381,365.016,507.381,365.016"/>
<path fill="#FFFFFF" d="M697.844,365.021c0.001-0.001,0.002-0.003,0.004-0.005L697.844,365.021z"/>
<path fill="#F4C914" d="M405.655,37.703c-4.55,0-8.239,3.688-8.239,8.238v48.611c0,4.549,3.689,8.238,8.239,8.238
	s8.239-3.689,8.239-8.238V45.941C413.894,41.391,410.205,37.703,405.655,37.703"/>
<path fill="#F4C914" d="M222.798,155.024l41.685,25.007c1.327,0.796,2.788,1.176,4.231,1.176c2.798,0,5.528-1.428,7.072-4.002
	c2.341-3.903,1.075-8.964-2.826-11.304l-41.685-25.007c-3.902-2.341-8.962-1.075-11.304,2.826
	C217.631,147.624,218.896,152.685,222.798,155.024"/>
<path fill="#F4C914" d="M309.928,69.319c-2.224-3.971-7.245-5.387-11.214-3.163c-3.97,2.224-5.386,7.244-3.163,11.214l23.75,42.413
	c1.51,2.697,4.31,4.215,7.196,4.215c1.362,0,2.744-0.339,4.017-1.052c3.971-2.224,5.387-7.244,3.164-11.214L309.928,69.319z"/>
<path fill="#F4C914" d="M512.721,66.156c-3.97-2.222-8.991-0.807-11.214,3.163l-23.749,42.413c-2.224,3.97-0.808,8.99,3.163,11.214
	c1.274,0.713,2.655,1.052,4.018,1.052c2.885,0,5.686-1.518,7.196-4.215l23.75-42.413C518.107,73.4,516.69,68.38,512.721,66.156"/>
<path fill="#F4C914" d="M761.428,29.699c0,73.94,77.155,83.585,77.155,83.585s-77.156,9.645-77.156,83.585
	c0-73.94-77.156-83.585-77.156-83.585S761.428,103.639,761.428,29.699"/>
<path fill="#F4C914" d="M687.285,2.573c0,32.35,33.755,36.568,33.755,36.568s-33.755,4.22-33.755,36.569
	c0-32.349-33.756-36.569-33.756-36.569S687.285,34.923,687.285,2.573"/>
<path fill="#F4C914" d="M497.828,432.217c0,25.991,27.122,29.382,27.122,29.382s-27.122,3.391-27.122,29.382
	c0-25.991-27.122-29.382-27.122-29.382S497.828,458.208,497.828,432.217"/>
<g opacity="0.75">
	<g>
		<defs>
			<rect id="SVGID_9_" x="144.961" y="215.794" width="149.839" height="207.82"/>
		</defs>
		<clipPath id="SVGID_10_">
			<use xlink:href="#SVGID_9_"  overflow="visible"/>
		</clipPath>
		<path clip-path="url(#SVGID_10_)" fill="#FFE36C" d="M176.347,333.159c-9.556-32.008,8.646-65.702,40.653-75.258
			c32.009-9.555,65.702,8.646,75.258,40.654c3.809,12.759,3.204,25.784-0.925,37.442h0.001
			c-4.551,14.936-21.845,35.429-19.327,43.859l2.876,9.634c0.574,1.923-0.52,3.947-2.443,4.522l-9.314,2.779l-8.559,2.556
			l-9.314,2.78c-1.923,0.574-3.947-0.52-4.521-2.442l-2.876-9.633c-2.517-8.433-28.215-16.09-40.209-26.085
			C187.803,356.479,180.156,345.918,176.347,333.159"/>
		<path clip-path="url(#SVGID_10_)" fill="#FFFFFF" d="M283.602,304.761c-1.836,0.548-3.77-0.496-4.318-2.332
			c-6.156-20.622-25.452-34.393-46.923-33.485c-1.915,0.079-3.533-1.407-3.614-3.322s1.405-3.534,3.321-3.613
			c24.649-1.04,46.8,14.766,53.867,38.437C286.483,302.28,285.438,304.213,283.602,304.761"/>
		<path clip-path="url(#SVGID_10_)" fill="#FFE36C" d="M293.17,302.016c3.896,24.719-7.946,55.049-43.405,65.635
			s-61.617-9.653-72.283-31.098c4.083,11.24,11.21,20.604,20.166,27.415c11.994,9.996,37.691,17.653,40.209,26.085l2.875,9.634
			c0.574,1.923,2.599,3.018,4.521,2.442l9.314-2.78l8.56-2.556l9.314-2.78c1.922-0.574,3.016-2.599,2.442-4.521l-2.876-9.635
			c-2.518-8.432,14.776-28.924,19.327-43.859C295.089,325.392,295.917,313.655,293.17,302.016"/>
		<path clip-path="url(#SVGID_10_)" fill="#868D93" d="M274.604,383.563l-36.889,11.014l5.248,17.581
			c0.857,2.871,2.514,5.438,4.776,7.403c4.277,3.714,10.155,4.981,15.582,3.361l5.408-1.614c5.427-1.62,9.648-5.903,11.189-11.353
			c0.814-2.885,0.792-5.94-0.065-8.811L274.604,383.563z"/>
		<path clip-path="url(#SVGID_10_)" fill="#868D93" d="M241.251,406.433c0.107-0.027,0.212-0.063,0.316-0.105l35.748-14.838
			c1.22-0.507,1.762-1.901,1.209-3.114c-0.552-1.213-1.992-1.787-3.209-1.28l-35.749,14.838c-1.219,0.506-1.761,1.9-1.209,3.113
			C238.862,406.157,240.108,406.73,241.251,406.433"/>
		<path clip-path="url(#SVGID_10_)" fill="#868D93" d="M243.653,414.479c0.106-0.028,0.212-0.063,0.316-0.106l35.748-14.838
			c1.22-0.506,1.762-1.9,1.209-3.114c-0.552-1.212-1.991-1.784-3.209-1.279l-35.749,14.837c-1.219,0.507-1.761,1.901-1.209,3.114
			C241.264,414.203,242.51,414.777,243.653,414.479"/>
		<path clip-path="url(#SVGID_10_)" fill="#868D93" d="M247.505,422.004c0.106-0.026,0.211-0.063,0.315-0.105l33.885-14.064
			c1.22-0.507,1.761-1.899,1.209-3.114c-0.552-1.214-1.993-1.785-3.209-1.278l-33.885,14.063c-1.22,0.507-1.762,1.9-1.209,3.114
			C245.116,421.729,246.362,422.303,247.505,422.004"/>
		<path clip-path="url(#SVGID_10_)" fill="#FFE36C" d="M204.834,217.237c-1.766,0.527-2.77,2.386-2.242,4.151l5.631,18.863
			c0.527,1.765,2.385,2.769,4.151,2.241c1.766-0.526,2.77-2.386,2.242-4.151l-5.631-18.861
			C208.459,217.716,206.6,216.712,204.834,217.237"/>
		<path clip-path="url(#SVGID_10_)" fill="#FFE36C" d="M147.472,283.943l19.071,4.875c0.608,0.155,1.218,0.133,1.778-0.034
			c1.086-0.323,1.98-1.194,2.281-2.372c0.456-1.785-0.621-3.603-2.406-4.059l-19.072-4.875c-1.785-0.456-3.602,0.621-4.058,2.406
			C144.61,281.671,145.687,283.487,147.472,283.943"/>
		<path clip-path="url(#SVGID_10_)" fill="#FFE36C" d="M171.353,240.595c-1.323-1.283-3.435-1.251-4.718,0.071
			c-1.283,1.324-1.251,3.436,0.072,4.718l14.128,13.706c0.899,0.872,2.162,1.137,3.281,0.803c0.529-0.157,1.026-0.449,1.438-0.874
			c1.283-1.321,1.251-3.435-0.072-4.718L171.353,240.595z"/>
		<path clip-path="url(#SVGID_10_)" fill="#FFE36C" d="M249.674,215.876c-1.798-0.401-3.582,0.729-3.985,2.526l-4.302,19.208
			c-0.403,1.798,0.728,3.582,2.526,3.985c0.577,0.13,1.153,0.101,1.681-0.058c1.12-0.334,2.031-1.248,2.304-2.469l4.302-19.209
			C252.604,218.063,251.472,216.278,249.674,215.876"/>
	</g>
</g>
<rect y="-198.106" fill="none" width="1000" height="821.106"/>
<rect y="-198.106" fill="none" width="1000" height="821.106"/>
</svg>
