<?xml version="1.0" encoding="utf-8"?>
<!-- Generator: Adobe Illustrator 15.0.0, SVG Export Plug-In . SVG Version: 6.00 Build 0)  -->
<!DOCTYPE svg PUBLIC "-//W3C//DTD SVG 1.1//EN" "http://www.w3.org/Graphics/SVG/1.1/DTD/svg11.dtd">
<svg version="1.1" id="Layer_1" xmlns="http://www.w3.org/2000/svg" xmlns:xlink="http://www.w3.org/1999/xlink" x="0px" y="0px"
	 width="1000px" height="642px" viewBox="0 123.053 1000 642" enable-background="new 0 123.053 1000 642" xml:space="preserve">
<g>
	<g>
		<defs>
			<rect id="SVGID_1_" width="1000" height="821.106"/>
		</defs>
		<clipPath id="SVGID_2_">
			<use xlink:href="#SVGID_1_"  overflow="visible"/>
		</clipPath>
	</g>
	<g>
		<defs>
			<rect id="SVGID_3_" width="1000" height="821.106"/>
		</defs>
		<clipPath id="SVGID_4_">
			<use xlink:href="#SVGID_3_"  overflow="visible"/>
		</clipPath>
		<g clip-path="url(#SVGID_4_)">
			<g>
				<defs>
					<rect id="SVGID_5_" width="1000" height="821.106"/>
				</defs>
				<defs>
					<rect id="SVGID_6_" width="1000" height="821.106"/>
				</defs>
				<defs>
					<rect id="SVGID_7_" width="1000" height="821.106"/>
				</defs>
				<defs>
					<rect id="SVGID_8_" width="1000" height="821.106"/>
				</defs>
				<defs>
					<rect id="SVGID_9_" width="1000" height="821.106"/>
				</defs>
				<defs>
					<rect id="SVGID_10_" width="1000" height="821.106"/>
				</defs>
				<defs>
					<rect id="SVGID_11_" width="1000" height="821.106"/>
				</defs>
				<defs>
					<rect id="SVGID_12_" width="1000" height="821.106"/>
				</defs>
				<clipPath id="SVGID_13_">
					<use xlink:href="#SVGID_5_"  overflow="visible"/>
				</clipPath>
				<clipPath id="SVGID_14_" clip-path="url(#SVGID_13_)">
					<use xlink:href="#SVGID_6_"  overflow="visible"/>
				</clipPath>
				<clipPath id="SVGID_15_" clip-path="url(#SVGID_14_)">
					<use xlink:href="#SVGID_7_"  overflow="visible"/>
				</clipPath>
				<clipPath id="SVGID_16_" clip-path="url(#SVGID_15_)">
					<use xlink:href="#SVGID_8_"  overflow="visible"/>
				</clipPath>
				<clipPath id="SVGID_17_" clip-path="url(#SVGID_16_)">
					<use xlink:href="#SVGID_9_"  overflow="visible"/>
				</clipPath>
				<clipPath id="SVGID_18_" clip-path="url(#SVGID_17_)">
					<use xlink:href="#SVGID_10_"  overflow="visible"/>
				</clipPath>
				<clipPath id="SVGID_19_" clip-path="url(#SVGID_18_)">
					<use xlink:href="#SVGID_11_"  overflow="visible"/>
				</clipPath>
				<clipPath id="SVGID_20_" clip-path="url(#SVGID_19_)">
					<use xlink:href="#SVGID_12_"  overflow="visible"/>
				</clipPath>
				<path clip-path="url(#SVGID_20_)" fill="#606060" d="M619.583,208.774c16.001,0,31.371,0.034,46.74-0.036
					c2.341-0.011,2.98,0.973,2.978,3.121c-0.054,25.865-0.058,51.73-0.076,77.597c-0.001,1.456-0.071,3.066-2.048,2.927
					c-2.275-0.16-4.968,1.293-6.7-1.425c-0.373-0.586-0.669-1.224-0.98-1.848c-12.95-25.91-25.9-51.821-38.843-77.736
					C620.354,210.774,620.139,210.133,619.583,208.774"/>
				<path clip-path="url(#SVGID_20_)" fill="#606060" d="M731.371,208.727c-8.494,16.95-16.55,33.006-24.588,49.071
					c-5.157,10.308-10.43,20.564-15.349,30.986c-1.473,3.123-3.427,3.82-6.539,3.717c-2.466-0.081-3.374-0.804-3.368-3.323
					c0.041-25.714,0.021-51.428-0.062-77.141c-0.008-2.454,0.738-3.369,3.279-3.354
					C699.958,208.772,715.171,208.727,731.371,208.727"/>
				<path clip-path="url(#SVGID_20_)" fill="#606060" d="M660.476,290.958c1.733,2.719,4.426,1.266,6.701,1.426
					c1.977,0.138,2.047-1.473,2.048-2.928c0.02-25.866,0.021-51.731,0.076-77.597c0.004-2.148-0.637-3.131-2.978-3.121
					c-15.369,0.071-30.739,0.036-46.74,0.036c0.556,1.36,0.771,2,1.069,2.6c12.941,25.915,25.893,51.826,38.843,77.736
					C659.808,289.734,660.104,290.372,660.476,290.958"/>
				<path clip-path="url(#SVGID_20_)" fill="#606060" d="M684.746,208.683c-2.541-0.015-3.287,0.9-3.279,3.354
					c0.082,25.713,0.103,51.427,0.062,77.141c-0.005,2.52,0.902,3.242,3.368,3.323c3.112,0.103,5.066-0.594,6.539-3.717
					c4.92-10.422,10.19-20.678,15.349-30.986c8.038-16.065,16.094-32.121,24.588-49.071
					C715.171,208.727,699.959,208.772,684.746,208.683"/>
				<path clip-path="url(#SVGID_20_)" fill="#FFE36C" d="M660.476,290.958c1.733,2.719,4.426,1.266,6.701,1.426
					c1.977,0.138,2.047-1.473,2.048-2.928c0.02-25.866,0.021-51.731,0.076-77.597c0.004-2.148-0.637-3.131-2.978-3.121
					c-15.369,0.071-30.739,0.036-46.74,0.036c0.556,1.36,0.771,2,1.069,2.6c12.941,25.915,25.893,51.826,38.843,77.736
					C659.808,289.734,660.104,290.372,660.476,290.958"/>
				<path clip-path="url(#SVGID_20_)" fill="#FFE36C" d="M684.746,208.683c-2.541-0.015-3.287,0.9-3.279,3.354
					c0.082,25.713,0.103,51.427,0.062,77.141c-0.005,2.52,0.902,3.242,3.368,3.323c3.112,0.103,5.066-0.594,6.539-3.717
					c4.92-10.422,10.19-20.678,15.349-30.986c8.038-16.065,16.094-32.121,24.588-49.071
					C715.171,208.727,699.959,208.772,684.746,208.683"/>
				<path clip-path="url(#SVGID_20_)" fill="#868D93" d="M756.044,197.281c-2.088-0.124-4.18-0.207-6.263-0.382
					c-2.867-0.243-5.789,0.654-8.494-1.523c-10.324-8.31-20.801-16.432-31.22-24.625c-4.322-3.391-8.646-6.784-12.967-10.177
					c-3.086-1.089-4.076-3.25-3.874-6.479c0.251-3.999,0.188-8.034-0.008-12.041c-0.462-9.512-8.462-17.032-17.891-16.992
					c-9.448,0.04-17.346,7.587-17.764,17.118c-0.168,3.835-0.248,7.694,0.003,11.518c0.204,3.108-0.836,5.074-3.35,6.979
					c-11.82,8.962-23.514,18.094-35.167,27.274c-6.403,5.046-12.297,10.759-21.672,9.145c-3.439-0.593-5.477,2.332-5.525,5.632
					c-0.049,3.331,1.951,5.556,5.427,5.922c1.9,0.2,3.844,0.163,5.756,0.046c1.933-0.117,3.213,0.369,4.127,2.294
					c4.475,9.429,9.088,18.791,13.651,28.177c2.351,4.56,4.699,9.119,7.051,13.679c6.563,13.011,13.105,26.032,19.712,39.021
					c0.903,1.777,1.032,2.887-0.845,4.314c-6.533,4.963-8.158,11.746-6.545,19.529c1.41,4.543,4.761,7.544,8.277,10.411
					c2.678,0.783,5.354,1.566,8.031,2.348c0.775-0.084,0.986,0.311,0.847,1.001c-0.018,20.995-0.037,41.991-0.055,62.987
					c0.018,6.663,0.036,13.326,0.055,19.989c0,5.248,0,10.496,0,15.74c0.12,0.686,0.062,1.248-0.836,1.26
					c-1.211,0.107-2.42,0.268-3.634,0.314c-9.644,0.375-16.064,4.77-18.445,12.646c-2.507,8.287,0.252,15.26,8.705,20.9
					c1.844,1.229,2.066,2.479,1.984,4.285c-0.497,11.006-0.961,22.016-1.438,33.021c-0.305,7.008-0.607,14.018-0.911,21.023
					c-1,26.006-2.018,52.008-2.967,78.014c-0.071,1.992-0.426,3.225-2.725,3.559c-8.211,1.191-12.775,6.521-15.361,13.965
					c0.032,0.346,0.098,0.691,0.091,1.035c-0.02,0.979-0.035,1.848-0.063,2.623h11.817h65.877h17.979h11.872
					c-0.298-5.008-2.272-9.328-5.57-13.109c-3.043-1.984-6-4.186-9.821-4.42c-2.128-0.131-2.903-1.141-2.972-3.313
					c-0.546-17.719-1.199-35.434-1.821-53.146c-0.322-6.311-0.646-12.617-0.97-18.928c-0.812-19.908-1.63-39.813-2.425-59.721
					c-0.073-1.848-0.452-3.574,1.897-4.832c7.705-4.125,10.168-11.045,9.558-19.383c-1.44-3.791-3.381-7.283-6.147-10.279
					c-5.013-3.643-10.879-3.93-16.733-4.256c-0.896-0.01-0.956-0.574-0.836-1.26c0.017-18.197,0.032-36.393,0.049-54.588
					c-0.016-6.871-0.03-13.742-0.046-20.612c-0.001-7.839-0.002-15.678-0.003-23.516c-0.14-0.691,0.071-1.085,0.847-1.001
					c7.996-1.427,14.117-5.316,16.252-13.547c1.99-7.671-0.421-14.147-6.748-18.953c-1.728-1.312-1.424-2.429-0.638-3.968
					c7.91-15.502,15.792-31.018,23.681-46.531c5.631-11.521,11.282-23.032,16.859-34.579c0.798-1.653,1.864-2.346,3.666-2.176
					c1.211,0.114,2.444-0.024,3.664,0.032c3.144,0.148,5.937-0.36,7.421-3.616C759.979,201.79,758.178,199.487,756.044,197.281
					 M669.225,289.456c-0.002,1.455-0.071,3.067-2.048,2.928c-2.275-0.16-4.968,1.293-6.701-1.426
					c-0.372-0.586-0.668-1.223-0.979-1.847c-12.95-25.911-25.9-51.822-38.843-77.737c-0.3-0.599-0.515-1.24-1.069-2.599
					c16.001,0,31.371,0.034,46.74-0.037c2.341-0.01,2.98,0.973,2.978,3.122C669.247,237.725,669.243,263.589,669.225,289.456
					 M706.783,257.798c-5.157,10.308-10.43,20.563-15.348,30.985c-1.474,3.123-3.428,3.821-6.539,3.718
					c-2.468-0.081-3.374-0.805-3.369-3.323c0.041-25.714,0.021-51.428-0.062-77.142c-0.008-2.453,0.738-3.368,3.279-3.353
					c15.213,0.089,30.425,0.044,46.625,0.044C722.877,225.677,714.821,241.733,706.783,257.798"/>
				<g clip-path="url(#SVGID_20_)">
					<g opacity="0.75">
						<g>
							<defs>
								<rect id="SVGID_21_" x="183.45" y="288.62" width="426.668" height="371.503"/>
							</defs>
							<defs>
								<rect id="SVGID_22_" x="183.45" y="288.62" width="426.668" height="371.503"/>
							</defs>
							<defs>
								<rect id="SVGID_23_" x="183.45" y="288.62" width="426.668" height="371.503"/>
							</defs>
							<defs>
								<rect id="SVGID_24_" x="183.45" y="288.62" width="426.668" height="371.503"/>
							</defs>
							<defs>
								<rect id="SVGID_25_" x="183.45" y="288.62" width="426.668" height="371.503"/>
							</defs>
							<defs>
								<rect id="SVGID_26_" x="183.45" y="288.62" width="426.668" height="371.503"/>
							</defs>
							<defs>
								<rect id="SVGID_27_" x="183.45" y="288.62" width="426.668" height="371.503"/>
							</defs>
							<defs>
								<rect id="SVGID_28_" x="183.45" y="288.62" width="426.668" height="371.503"/>
							</defs>
							<defs>
								<rect id="SVGID_29_" x="183.45" y="288.62" width="426.668" height="371.503"/>
							</defs>
							<defs>
								<rect id="SVGID_30_" x="183.45" y="288.62" width="426.668" height="371.503"/>
							</defs>
							<defs>
								<rect id="SVGID_31_" x="183.45" y="288.62" width="426.668" height="371.503"/>
							</defs>
							<defs>
								<rect id="SVGID_32_" x="183.45" y="288.62" width="426.668" height="371.503"/>
							</defs>
							<defs>
								<rect id="SVGID_33_" x="183.45" y="288.62" width="426.668" height="371.503"/>
							</defs>
							<defs>
								<rect id="SVGID_34_" x="183.45" y="288.62" width="426.668" height="371.503"/>
							</defs>
							<defs>
								<rect id="SVGID_35_" x="183.45" y="288.62" width="426.668" height="371.503"/>
							</defs>
							<defs>
								<rect id="SVGID_36_" x="183.45" y="288.62" width="426.668" height="371.503"/>
							</defs>
							<clipPath id="SVGID_37_">
								<use xlink:href="#SVGID_21_"  overflow="visible"/>
							</clipPath>
							<clipPath id="SVGID_38_" clip-path="url(#SVGID_37_)">
								<use xlink:href="#SVGID_22_"  overflow="visible"/>
							</clipPath>
							<clipPath id="SVGID_39_" clip-path="url(#SVGID_38_)">
								<use xlink:href="#SVGID_23_"  overflow="visible"/>
							</clipPath>
							<clipPath id="SVGID_40_" clip-path="url(#SVGID_39_)">
								<use xlink:href="#SVGID_24_"  overflow="visible"/>
							</clipPath>
							<clipPath id="SVGID_41_" clip-path="url(#SVGID_40_)">
								<use xlink:href="#SVGID_25_"  overflow="visible"/>
							</clipPath>
							<clipPath id="SVGID_42_" clip-path="url(#SVGID_41_)">
								<use xlink:href="#SVGID_26_"  overflow="visible"/>
							</clipPath>
							<clipPath id="SVGID_43_" clip-path="url(#SVGID_42_)">
								<use xlink:href="#SVGID_27_"  overflow="visible"/>
							</clipPath>
							<clipPath id="SVGID_44_" clip-path="url(#SVGID_43_)">
								<use xlink:href="#SVGID_28_"  overflow="visible"/>
							</clipPath>
							<clipPath id="SVGID_45_" clip-path="url(#SVGID_44_)">
								<use xlink:href="#SVGID_29_"  overflow="visible"/>
							</clipPath>
							<clipPath id="SVGID_46_" clip-path="url(#SVGID_45_)">
								<use xlink:href="#SVGID_30_"  overflow="visible"/>
							</clipPath>
							<clipPath id="SVGID_47_" clip-path="url(#SVGID_46_)">
								<use xlink:href="#SVGID_31_"  overflow="visible"/>
							</clipPath>
							<clipPath id="SVGID_48_" clip-path="url(#SVGID_47_)">
								<use xlink:href="#SVGID_32_"  overflow="visible"/>
							</clipPath>
							<clipPath id="SVGID_49_" clip-path="url(#SVGID_48_)">
								<use xlink:href="#SVGID_33_"  overflow="visible"/>
							</clipPath>
							<clipPath id="SVGID_50_" clip-path="url(#SVGID_49_)">
								<use xlink:href="#SVGID_34_"  overflow="visible"/>
							</clipPath>
							<clipPath id="SVGID_51_" clip-path="url(#SVGID_50_)">
								<use xlink:href="#SVGID_35_"  overflow="visible"/>
							</clipPath>
							<clipPath id="SVGID_52_" clip-path="url(#SVGID_51_)">
								<use xlink:href="#SVGID_36_"  overflow="visible"/>
							</clipPath>
							<path clip-path="url(#SVGID_52_)" fill="#F4C914" d="M609.759,416.022c5.052-54.001-43.864-102.736-109.257-108.854
								c-65.392-6.117-122.499,32.702-127.55,86.702c-2.005,21.441,4.503,42.048,17.167,59.492
								c3.924,7.479,7.491,14.607,10.741,21.41l0.001-0.004c0,0,0.01,0.025,0.016,0.039c1.249,2.613,2.454,5.18,3.61,7.693
								c11.061,22.984,45.202,89.49,71.017,91.904c25.803,2.414,71.654-56.549,86.809-77.111c1.615-2.273,3.29-4.592,5.018-6.947
								l0.003-0.006v0.002c4.455-6.08,9.28-12.426,14.522-19.045C597.535,456.506,607.754,437.463,609.759,416.022"/>
							<path clip-path="url(#SVGID_52_)" fill="#E28130" d="M437.813,586.098c11.06,8.307,35.694,9.641,35.694,9.641
								s24.456,3.258,36.864-2.854c2.777-1.367,4.807-3.898,5.52-6.912c2.234-9.439,11.506-39.504,46.422-88.68
								c-15.153,20.564-61.006,79.525-86.809,77.113c-25.814-2.416-59.956-68.922-71.017-91.906
								c25.205,54.816,28.739,86.088,29.185,95.783C433.813,581.375,435.337,584.241,437.813,586.098"/>
							<path clip-path="url(#SVGID_52_)" fill="#FFFFFF" d="M588.762,415.573c-3.783,0.705-7.422-1.789-8.128-5.572
								c-7.927-42.479-43.539-74.059-86.601-76.796c-3.841-0.244-6.757-3.555-6.514-7.396c0.244-3.841,3.555-6.759,7.396-6.511
								c49.438,3.141,90.32,39.389,99.418,88.147C595.039,411.227,592.544,414.868,588.762,415.573"/>
							<path clip-path="url(#SVGID_52_)" fill="#868D93" d="M516.114,588.303l-83.095-7.771l-3.704,39.602
								c-0.604,6.467,0.644,12.975,3.599,18.758c5.585,10.936,16.375,18.25,28.599,19.395l12.183,1.139
								c12.225,1.145,24.184-4.045,31.699-13.752c3.977-5.137,6.409-11.297,7.015-17.764L516.114,588.303z"/>
							<path clip-path="url(#SVGID_52_)" fill="#868D93" d="M430.516,607.237c0.236,0.029,0.479,0.045,0.723,0.041l83.898-0.84
								c2.863-0.029,5.082-2.393,4.956-5.281c-0.126-2.887-2.557-5.207-5.415-5.174l-83.898,0.84
								c-2.864,0.027-5.084,2.393-4.956,5.281C425.938,604.745,427.977,606.909,430.516,607.237"/>
							<path clip-path="url(#SVGID_52_)" fill="#868D93" d="M428.82,625.362c0.235,0.029,0.477,0.045,0.722,0.041l83.898-0.84
								c2.863-0.027,5.083-2.393,4.956-5.279c-0.127-2.889-2.556-5.203-5.414-5.176l-83.9,0.84
								c-2.863,0.029-5.083,2.393-4.956,5.281C424.241,622.87,426.28,625.034,428.82,625.362"/>
							<path clip-path="url(#SVGID_52_)" fill="#868D93" d="M430.461,643.614c0.236,0.029,0.477,0.043,0.721,0.041l79.525-0.797
								c2.864-0.029,5.083-2.393,4.957-5.281c-0.127-2.887-2.561-5.207-5.415-5.174l-79.526,0.797
								c-2.863,0.027-5.083,2.393-4.956,5.279C425.882,641.122,427.921,643.286,430.461,643.614"/>
							<path clip-path="url(#SVGID_52_)" fill="#FFE36C" d="M183.45,419.735c0-72.413,58.702-131.115,131.114-131.115
								c72.412,0,131.114,58.702,131.114,131.115c0,28.863-9.335,55.545-25.14,77.203c-18.716,28.201-67.345,60.043-67.345,79.119
								v21.793c0,4.352-3.526,7.879-7.877,7.879h-21.071h-19.363h-21.072c-4.35,0-7.877-3.527-7.877-7.879v-21.793
								c0-19.076-48.629-50.918-67.344-79.119C192.785,475.28,183.45,448.598,183.45,419.735"/>
							<path clip-path="url(#SVGID_52_)" fill="#FFFFFF" d="M423.851,427.256c-4.154,0-7.522-3.367-7.522-7.52
								c0-46.656-31.542-87.226-76.704-98.658c-4.028-1.019-6.466-5.111-5.447-9.139c1.021-4.029,5.111-6.47,9.14-5.447
								c51.848,13.126,88.057,59.693,88.057,113.244C431.373,423.889,428.004,427.256,423.851,427.256"/>
							<path clip-path="url(#SVGID_52_)" fill="#FFE36C" d="M445.427,427.487c-7.235,53.762-50.643,109.422-130.861,109.422
								c-80.22,0-122.005-58.262-130.863-109.422c1.512,25.881,10.51,49.748,24.888,69.451
								c18.716,28.201,67.345,60.043,67.345,79.119v21.793c0,4.352,3.526,7.879,7.877,7.879h21.071h19.363h21.072
								c4.35,0,7.877-3.527,7.877-7.879v-21.793c0-19.076,48.628-50.918,67.344-79.119
								C434.918,477.235,443.915,453.368,445.427,427.487"/>
							<path clip-path="url(#SVGID_52_)" fill="#868D93" d="M356.293,585.364h-83.457v39.775c0,6.494,1.849,12.855,5.33,18.34
								c6.579,10.365,18.004,16.645,30.281,16.645h12.234c12.278,0,23.702-6.279,30.282-16.645c3.48-5.484,5.329-11.846,5.329-18.34
								V585.364z"/>
							<path clip-path="url(#SVGID_52_)" fill="#868D93" d="M272.83,612.184c0.238,0.01,0.479,0,0.723-0.023l83.455-8.652
								c2.85-0.295,4.838-2.854,4.443-5.717s-3.03-4.947-5.873-4.648l-83.457,8.65c-2.848,0.295-4.839,2.855-4.443,5.719
								C268.038,610.129,270.27,612.096,272.83,612.184"/>
							<path clip-path="url(#SVGID_52_)" fill="#868D93" d="M272.83,630.389c0.238,0.01,0.479,0,0.723-0.023l83.455-8.652
								c2.85-0.295,4.838-2.854,4.443-5.719c-0.395-2.863-3.03-4.941-5.873-4.648l-83.457,8.652
								c-2.848,0.295-4.839,2.854-4.443,5.719C268.038,628.334,270.27,630.299,272.83,630.389"/>
							<path clip-path="url(#SVGID_52_)" fill="#868D93" d="M276.163,648.409c0.238,0.01,0.479,0,0.722-0.023l79.105-8.203
								c2.849-0.293,4.838-2.854,4.443-5.719c-0.395-2.861-3.033-4.945-5.874-4.646l-79.105,8.201
								c-2.849,0.295-4.838,2.854-4.442,5.719C271.372,646.354,273.604,648.321,276.163,648.409"/>
							<path clip-path="url(#SVGID_52_)" fill="#FFFFFF" d="M403.808,483.057L403.808,483.057c0.008,0.014,0.016,0.023,0.021,0.035
								C403.822,483.081,403.808,483.057,403.808,483.057"/>
							<path clip-path="url(#SVGID_52_)" fill="#FFFFFF" d="M571.004,483.061c0.001-0.002,0.002-0.004,0.003-0.004L571.004,483.061z
								"/>
						</g>
					</g>
					<g>
						<defs>
							<rect id="SVGID_53_" width="1000" height="821.106"/>
						</defs>
						<defs>
							<rect id="SVGID_54_" width="1000" height="821.106"/>
						</defs>
						<defs>
							<rect id="SVGID_55_" width="1000" height="821.106"/>
						</defs>
						<defs>
							<rect id="SVGID_56_" width="1000" height="821.106"/>
						</defs>
						<defs>
							<rect id="SVGID_57_" width="1000" height="821.106"/>
						</defs>
						<defs>
							<rect id="SVGID_58_" width="1000" height="821.106"/>
						</defs>
						<defs>
							<rect id="SVGID_59_" width="1000" height="821.106"/>
						</defs>
						<defs>
							<rect id="SVGID_60_" width="1000" height="821.106"/>
						</defs>
						<defs>
							<rect id="SVGID_61_" width="1000" height="821.106"/>
						</defs>
						<defs>
							<rect id="SVGID_62_" width="1000" height="821.106"/>
						</defs>
						<defs>
							<rect id="SVGID_63_" width="1000" height="821.106"/>
						</defs>
						<defs>
							<rect id="SVGID_64_" width="1000" height="821.106"/>
						</defs>
						<defs>
							<rect id="SVGID_65_" width="1000" height="821.106"/>
						</defs>
						<defs>
							<rect id="SVGID_66_" width="1000" height="821.106"/>
						</defs>
						<defs>
							<rect id="SVGID_67_" width="1000" height="821.106"/>
						</defs>
						<defs>
							<rect id="SVGID_68_" width="1000" height="821.106"/>
						</defs>
						<defs>
							<rect id="SVGID_69_" width="1000" height="821.106"/>
						</defs>
						<clipPath id="SVGID_70_">
							<use xlink:href="#SVGID_53_"  overflow="visible"/>
						</clipPath>
						<clipPath id="SVGID_71_" clip-path="url(#SVGID_70_)">
							<use xlink:href="#SVGID_54_"  overflow="visible"/>
						</clipPath>
						<clipPath id="SVGID_72_" clip-path="url(#SVGID_71_)">
							<use xlink:href="#SVGID_55_"  overflow="visible"/>
						</clipPath>
						<clipPath id="SVGID_73_" clip-path="url(#SVGID_72_)">
							<use xlink:href="#SVGID_56_"  overflow="visible"/>
						</clipPath>
						<clipPath id="SVGID_74_" clip-path="url(#SVGID_73_)">
							<use xlink:href="#SVGID_57_"  overflow="visible"/>
						</clipPath>
						<clipPath id="SVGID_75_" clip-path="url(#SVGID_74_)">
							<use xlink:href="#SVGID_58_"  overflow="visible"/>
						</clipPath>
						<clipPath id="SVGID_76_" clip-path="url(#SVGID_75_)">
							<use xlink:href="#SVGID_59_"  overflow="visible"/>
						</clipPath>
						<clipPath id="SVGID_77_" clip-path="url(#SVGID_76_)">
							<use xlink:href="#SVGID_60_"  overflow="visible"/>
						</clipPath>
						<clipPath id="SVGID_78_" clip-path="url(#SVGID_77_)">
							<use xlink:href="#SVGID_61_"  overflow="visible"/>
						</clipPath>
						<clipPath id="SVGID_79_" clip-path="url(#SVGID_78_)">
							<use xlink:href="#SVGID_62_"  overflow="visible"/>
						</clipPath>
						<clipPath id="SVGID_80_" clip-path="url(#SVGID_79_)">
							<use xlink:href="#SVGID_63_"  overflow="visible"/>
						</clipPath>
						<clipPath id="SVGID_81_" clip-path="url(#SVGID_80_)">
							<use xlink:href="#SVGID_64_"  overflow="visible"/>
						</clipPath>
						<clipPath id="SVGID_82_" clip-path="url(#SVGID_81_)">
							<use xlink:href="#SVGID_65_"  overflow="visible"/>
						</clipPath>
						<clipPath id="SVGID_83_" clip-path="url(#SVGID_82_)">
							<use xlink:href="#SVGID_66_"  overflow="visible"/>
						</clipPath>
						<clipPath id="SVGID_84_" clip-path="url(#SVGID_83_)">
							<use xlink:href="#SVGID_67_"  overflow="visible"/>
						</clipPath>
						<clipPath id="SVGID_85_" clip-path="url(#SVGID_84_)">
							<use xlink:href="#SVGID_68_"  overflow="visible"/>
						</clipPath>
						<clipPath id="SVGID_86_" clip-path="url(#SVGID_85_)">
							<use xlink:href="#SVGID_69_"  overflow="visible"/>
						</clipPath>
						<path clip-path="url(#SVGID_86_)" fill="#E59A2E" d="M546.694,541.696c4.546-48.602-39.479-92.463-98.332-97.969
							c-58.854-5.504-110.248,29.432-114.795,78.031c-1.806,19.297,4.054,37.844,15.45,53.543c3.531,6.73,6.74,13.148,9.666,19.27
							l0.001-0.002c0,0,0.011,0.021,0.016,0.035c1.124,2.352,2.209,4.66,3.249,6.924c9.955,20.688,40.682,80.541,63.915,82.715
							c23.223,2.172,64.488-50.896,78.128-69.4c1.454-2.045,2.961-4.133,4.514-6.254l0.003-0.004l0,0
							c4.011-5.471,8.354-11.184,13.072-17.141C535.692,578.131,544.89,560.993,546.694,541.696"/>
						<path clip-path="url(#SVGID_86_)" fill="#E28130" d="M391.943,694.766c9.951,7.475,32.125,8.674,32.125,8.674
							s22.011,2.934,33.177-2.564c2.5-1.232,4.325-3.51,4.968-6.223c2.01-8.496,10.354-35.555,41.779-79.813
							c-13.64,18.506-54.905,71.572-78.128,69.402c-23.233-2.176-53.96-62.029-63.915-82.717
							c22.684,49.336,25.866,77.479,26.266,86.205C388.342,690.514,389.714,693.092,391.943,694.766"/>
						<path clip-path="url(#SVGID_86_)" fill="#FFFFFF" d="M527.797,541.292c-3.405,0.635-6.68-1.607-7.314-5.014
							c-7.135-38.232-39.187-66.654-77.941-69.117c-3.457-0.219-6.081-3.199-5.861-6.656c0.221-3.457,3.198-6.082,6.656-5.859
							c44.494,2.826,81.287,35.449,89.477,79.332C533.446,537.381,531.201,540.657,527.797,541.292"/>
						<path clip-path="url(#SVGID_86_)" fill="#868D93" d="M462.413,696.75l-74.784-6.996l-3.334,35.645
							c-0.544,5.818,0.579,11.674,3.238,16.879c5.026,9.842,14.738,16.426,25.739,17.455l10.964,1.025
							c11.002,1.027,21.766-3.641,28.53-12.379c3.579-4.621,5.769-10.166,6.313-15.986L462.413,696.75z"/>
						<path clip-path="url(#SVGID_86_)" fill="#868D93" d="M385.375,713.79c0.213,0.027,0.43,0.039,0.649,0.037l75.51-0.756
							c2.577-0.025,4.574-2.154,4.461-4.752c-0.114-2.6-2.301-4.688-4.874-4.658l-75.51,0.758c-2.577,0.025-4.575,2.152-4.461,4.752
							C381.254,711.545,383.09,713.495,385.375,713.79"/>
						<path clip-path="url(#SVGID_86_)" fill="#868D93" d="M383.85,730.1c0.214,0.027,0.43,0.041,0.649,0.039l75.509-0.758
							c2.577-0.023,4.574-2.152,4.461-4.752c-0.113-2.598-2.301-4.682-4.874-4.656l-75.51,0.758
							c-2.576,0.023-4.574,2.152-4.46,4.752C379.729,727.86,381.563,729.807,383.85,730.1"/>
						<path clip-path="url(#SVGID_86_)" fill="#868D93" d="M385.325,746.528c0.213,0.027,0.43,0.041,0.648,0.037l71.574-0.719
							c2.577-0.023,4.574-2.152,4.461-4.752c-0.114-2.598-2.304-4.686-4.874-4.656l-71.574,0.719
							c-2.576,0.023-4.574,2.15-4.46,4.752C381.205,744.286,383.04,746.233,385.325,746.528"/>
						<path clip-path="url(#SVGID_86_)" fill="#FFE36C" d="M600.878,550.03c-52.638-131.084-92.277-118.773-92.277-118.773
							s-39.64,12.311-8.765,150.152c0,0,20.004,76.697,52.689,118.184c3.234,4.104,8.664,5.791,13.654,4.24l24.688-7.666
							l24.686-7.666c4.992-1.549,8.51-6.016,8.852-11.23C627.84,624.567,600.878,550.03,600.878,550.03"/>
						<path clip-path="url(#SVGID_86_)" fill="#868D93" d="M625.84,682.155l-71.73,22.273l10.615,34.189
							c1.734,5.582,5.021,10.557,9.478,14.34c8.422,7.152,19.917,9.502,30.47,6.225l10.516-3.266
							c10.553-3.277,18.696-11.725,21.586-22.391c1.526-5.643,1.419-11.602-0.315-17.186L625.84,682.155z"/>
						<path clip-path="url(#SVGID_86_)" fill="#868D93" d="M561.262,727.485c0.207-0.057,0.412-0.127,0.614-0.215l69.422-29.713
							c2.37-1.012,3.396-3.744,2.293-6.1c-1.103-2.357-3.925-3.443-6.289-2.428l-69.423,29.711
							c-2.369,1.016-3.396,3.746-2.292,6.102C556.596,726.999,559.039,728.09,561.262,727.485"/>
						<path clip-path="url(#SVGID_86_)" fill="#868D93" d="M566.121,743.131c0.207-0.057,0.412-0.129,0.614-0.215l69.422-29.713
							c2.37-1.012,3.396-3.744,2.293-6.102c-1.104-2.354-3.924-3.438-6.289-2.426l-69.423,29.711
							c-2.369,1.016-3.396,3.746-2.293,6.102C561.454,742.645,563.896,743.739,566.121,743.131"/>
						<path clip-path="url(#SVGID_86_)" fill="#868D93" d="M573.796,757.729c0.207-0.057,0.411-0.129,0.613-0.215l65.803-28.164
							c2.37-1.014,3.397-3.744,2.293-6.1c-1.104-2.357-3.927-3.443-6.289-2.428l-65.804,28.162
							c-2.369,1.016-3.396,3.746-2.292,6.102C569.129,757.243,571.572,758.334,573.796,757.729"/>
						<path clip-path="url(#SVGID_86_)" fill="#FFFFFF" d="M537.612,475.393c-2.343-2.547-4.83-4.943-7.454-7.184
							c-5.264-4.486-10.555-8.938-15.707-13.551c-4.385-3.928,0.408-10.953,5.631-8.242c23.275,12.094,41.328,33.414,48.793,60.025
							c0.977,3.471-1.171,7.074-4.755,7.834c-3.267,0.688-6.474-1.451-7.382-4.664c-3.701-13.061-10.34-24.643-19.063-34.15
							l0.013-0.002L537.612,475.393z"/>
						<path clip-path="url(#SVGID_86_)" fill="#FFFFFF" d="M544.069,484.317l-0.005,0.008c0.015,0.027,0.028,0.057,0.045,0.084
							L544.069,484.317z"/>
						<path clip-path="url(#SVGID_86_)" fill="#F4C914" d="M585.105,543.333c0-65.17,52.832-118.002,118.003-118.002
							c65.172,0,118.003,52.832,118.003,118.002c0,25.98-8.401,49.992-22.626,69.484h0.001
							c-16.846,25.381-60.609,54.039-60.609,71.207v19.615c0,3.914-3.175,7.09-7.091,7.09h-18.964h-17.428H675.43
							c-3.915,0-7.089-3.176-7.089-7.09v-19.615c0-17.168-43.767-45.826-60.608-71.207
							C593.507,593.325,585.105,569.313,585.105,543.333"/>
						<path clip-path="url(#SVGID_86_)" fill="#FFFFFF" d="M801.466,550.104c-3.739,0-6.771-3.031-6.771-6.771
							c0-41.988-28.388-78.5-69.032-88.791c-3.625-0.918-5.819-4.6-4.902-8.225c0.918-3.625,4.601-5.822,8.227-4.902
							c46.662,11.813,79.251,53.725,79.251,101.918C808.236,547.073,805.205,550.104,801.466,550.104"/>
						<g clip-path="url(#SVGID_86_)">
							<g opacity="0.55">
								<g>
									<defs>
										<rect id="SVGID_87_" x="585.333" y="550.311" width="235.552" height="160.416"/>
									</defs>
									<clipPath id="SVGID_88_">
										<use xlink:href="#SVGID_87_"  overflow="visible"/>
									</clipPath>
									<path clip-path="url(#SVGID_88_)" fill="#FFC043" d="M820.885,550.309c-6.513,48.387-45.578,98.48-117.775,98.48
										s-109.805-52.438-117.775-98.48c1.36,23.293,9.459,44.773,22.399,62.508c16.843,25.383,60.608,54.039,60.608,71.207v19.613
										c0,3.916,3.174,7.09,7.089,7.09h18.966h17.427h18.964c3.916,0,7.09-3.174,7.09-7.09v-19.613
										c0-17.168,43.766-45.824,60.61-71.207h-0.001C811.427,595.083,819.524,573.602,820.885,550.309"/>
								</g>
							</g>
							<g>
								<defs>
									<rect id="SVGID_89_" width="1000" height="821.106"/>
								</defs>
								<defs>
									<rect id="SVGID_90_" width="1000" height="821.106"/>
								</defs>
								<defs>
									<rect id="SVGID_91_" width="1000" height="821.106"/>
								</defs>
								<defs>
									<rect id="SVGID_92_" width="1000" height="821.106"/>
								</defs>
								<defs>
									<rect id="SVGID_93_" width="1000" height="821.106"/>
								</defs>
								<defs>
									<rect id="SVGID_94_" width="1000" height="821.106"/>
								</defs>
								<defs>
									<rect id="SVGID_95_" width="1000" height="821.106"/>
								</defs>
								<defs>
									<rect id="SVGID_96_" width="1000" height="821.106"/>
								</defs>
								<defs>
									<rect id="SVGID_97_" width="1000" height="821.106"/>
								</defs>
								<defs>
									<rect id="SVGID_98_" width="1000" height="821.106"/>
								</defs>
								<clipPath id="SVGID_99_">
									<use xlink:href="#SVGID_89_"  overflow="visible"/>
								</clipPath>
								<clipPath id="SVGID_100_" clip-path="url(#SVGID_99_)">
									<use xlink:href="#SVGID_90_"  overflow="visible"/>
								</clipPath>
								<clipPath id="SVGID_101_" clip-path="url(#SVGID_100_)">
									<use xlink:href="#SVGID_91_"  overflow="visible"/>
								</clipPath>
								<clipPath id="SVGID_102_" clip-path="url(#SVGID_101_)">
									<use xlink:href="#SVGID_92_"  overflow="visible"/>
								</clipPath>
								<clipPath id="SVGID_103_" clip-path="url(#SVGID_102_)">
									<use xlink:href="#SVGID_93_"  overflow="visible"/>
								</clipPath>
								<clipPath id="SVGID_104_" clip-path="url(#SVGID_103_)">
									<use xlink:href="#SVGID_94_"  overflow="visible"/>
								</clipPath>
								<clipPath id="SVGID_105_" clip-path="url(#SVGID_104_)">
									<use xlink:href="#SVGID_95_"  overflow="visible"/>
								</clipPath>
								<clipPath id="SVGID_106_" clip-path="url(#SVGID_105_)">
									<use xlink:href="#SVGID_96_"  overflow="visible"/>
								</clipPath>
								<clipPath id="SVGID_107_" clip-path="url(#SVGID_106_)">
									<use xlink:href="#SVGID_97_"  overflow="visible"/>
								</clipPath>
								<clipPath id="SVGID_108_" clip-path="url(#SVGID_107_)">
									<use xlink:href="#SVGID_98_"  overflow="visible"/>
								</clipPath>
								<path clip-path="url(#SVGID_108_)" fill="#868D93" d="M740.664,692.399h-75.11v35.799c0,5.846,1.663,11.568,4.796,16.506
									c5.923,9.328,16.204,14.979,27.255,14.979h11.011c11.05,0,21.332-5.65,27.254-14.979c3.132-4.938,4.796-10.66,4.796-16.506
									L740.664,692.399L740.664,692.399z"/>
								<path clip-path="url(#SVGID_108_)" fill="#868D93" d="M665.548,716.54c0.214,0.008,0.431,0,0.65-0.021l75.109-7.787
									c2.563-0.266,4.354-2.57,3.999-5.146c-0.354-2.576-2.728-4.451-5.287-4.184l-75.109,7.787
									c-2.563,0.266-4.354,2.568-3.999,5.145C661.236,714.69,663.244,716.458,665.548,716.54"/>
								<path clip-path="url(#SVGID_108_)" fill="#868D93" d="M665.548,732.922c0.214,0.008,0.431,0,0.65-0.021l75.109-7.787
									c2.563-0.266,4.354-2.57,3.999-5.146c-0.354-2.576-2.728-4.447-5.287-4.184l-75.109,7.787
									c-2.563,0.266-4.354,2.568-3.999,5.145C661.236,731.075,663.244,732.842,665.548,732.922"/>
								<path clip-path="url(#SVGID_108_)" fill="#868D93" d="M668.548,749.139c0.214,0.008,0.431,0,0.649-0.021l71.193-7.381
									c2.564-0.268,4.354-2.57,4-5.146s-2.729-4.453-5.287-4.184l-71.193,7.381c-2.564,0.266-4.355,2.57-3.999,5.145
									C664.236,747.292,666.244,749.059,668.548,749.139"/>
								<path clip-path="url(#SVGID_108_)" fill="#F4C914" d="M704.102,341.188c-3.604,0-6.525,2.923-6.525,6.526v38.504
									c0,3.604,2.923,6.526,6.525,6.526c3.604,0,6.525-2.922,6.525-6.526v-38.504
									C710.627,344.111,707.705,341.188,704.102,341.188"/>
								<path clip-path="url(#SVGID_108_)" fill="#F4C914" d="M628.276,366.232c-1.763-3.145-5.738-4.267-8.884-2.506
									c-3.145,1.762-4.267,5.738-2.505,8.883l18.813,33.595c1.196,2.136,3.414,3.339,5.7,3.339c1.078,0,2.174-0.268,3.183-0.832
									c3.146-1.762,4.267-5.74,2.505-8.883L628.276,366.232z"/>
								<path clip-path="url(#SVGID_108_)" fill="#F4C914" d="M812.672,454.858c1.144,0,2.3-0.301,3.352-0.932l33.019-19.809
									c3.091-1.854,4.093-5.861,2.239-8.951c-1.854-3.092-5.863-4.096-8.954-2.24l-33.02,19.809
									c-3.09,1.854-4.093,5.861-2.238,8.953C808.293,453.727,810.455,454.858,812.672,454.858"/>
								<path clip-path="url(#SVGID_108_)" fill="#F4C914" d="M788.908,363.726c-3.146-1.76-7.122-0.639-8.883,2.506l-18.813,33.596
									c-1.761,3.143-0.64,7.121,2.505,8.882c1.009,0.565,2.104,0.832,3.184,0.832c2.286,0,4.504-1.202,5.699-3.338l18.813-33.595
									C793.175,369.464,792.053,365.488,788.908,363.726"/>
								<path clip-path="url(#SVGID_108_)" fill="#F4C914" d="M281.592,684.438c0,22.873,23.867,25.855,23.867,25.855
									s-23.868,2.984-23.868,25.857c0-22.873-23.867-25.857-23.867-25.857S281.592,707.311,281.592,684.438"/>
								<g clip-path="url(#SVGID_108_)">
									<g opacity="0.75">
										<g>
											<defs>
												<rect id="SVGID_109_" x="103.14" y="677.096" width="114.405" height="82.271"/>
											</defs>
											<defs>
												<rect id="SVGID_110_" x="103.14" y="677.096" width="114.405" height="82.271"/>
											</defs>
											<defs>
												<rect id="SVGID_111_" x="103.14" y="677.096" width="114.405" height="82.271"/>
											</defs>
											<defs>
												<rect id="SVGID_112_" x="103.14" y="677.096" width="114.405" height="82.271"/>
											</defs>
											<defs>
												<rect id="SVGID_113_" x="103.14" y="677.096" width="114.405" height="82.271"/>
											</defs>
											<defs>
												<rect id="SVGID_114_" x="103.14" y="677.096" width="114.405" height="82.271"/>
											</defs>
											<defs>
												<rect id="SVGID_115_" x="103.14" y="677.096" width="114.405" height="82.271"/>
											</defs>
											<clipPath id="SVGID_116_">
												<use xlink:href="#SVGID_109_"  overflow="visible"/>
											</clipPath>
											<clipPath id="SVGID_117_" clip-path="url(#SVGID_116_)">
												<use xlink:href="#SVGID_110_"  overflow="visible"/>
											</clipPath>
											<clipPath id="SVGID_118_" clip-path="url(#SVGID_117_)">
												<use xlink:href="#SVGID_111_"  overflow="visible"/>
											</clipPath>
											<clipPath id="SVGID_119_" clip-path="url(#SVGID_118_)">
												<use xlink:href="#SVGID_112_"  overflow="visible"/>
											</clipPath>
											<clipPath id="SVGID_120_" clip-path="url(#SVGID_119_)">
												<use xlink:href="#SVGID_113_"  overflow="visible"/>
											</clipPath>
											<clipPath id="SVGID_121_" clip-path="url(#SVGID_120_)">
												<use xlink:href="#SVGID_114_"  overflow="visible"/>
											</clipPath>
											<clipPath id="SVGID_122_" clip-path="url(#SVGID_121_)">
												<use xlink:href="#SVGID_115_"  overflow="visible"/>
											</clipPath>
											<path clip-path="url(#SVGID_122_)" fill="#E59A2E" d="M156.04,757.637c-21.764,6.496-44.674-5.879-51.171-27.643
												s5.878-44.674,27.643-51.17c8.674-2.592,17.531-2.18,25.459,0.627c10.155,3.094,24.089,14.854,29.822,13.141l6.55-1.955
												c1.307-0.391,2.684,0.355,3.074,1.662l1.891,6.332l1.737,5.82l1.891,6.332c0.39,1.309-0.353,2.684-1.661,3.074
												l-6.549,1.955c-5.735,1.713-10.941,19.186-17.738,27.342C171.897,749.846,164.716,755.047,156.04,757.637"/>
											<path clip-path="url(#SVGID_122_)" fill="#FFFFFF" d="M173.245,711.241c-1.249,0.373-2.563-0.336-2.937-1.586
												c-4.185-14.021-17.305-23.385-31.905-22.768c-1.302,0.055-2.402-0.957-2.457-2.26c-0.055-1.303,0.955-2.402,2.258-2.457
												c16.761-0.705,31.822,10.039,36.627,26.135C175.204,709.553,174.493,710.87,173.245,711.241"/>
											<path clip-path="url(#SVGID_122_)" fill="#E28130" d="M134.864,678.204c16.808-2.646,37.431,5.402,44.629,29.514
												c7.197,24.109-6.565,41.896-21.146,49.148c7.643-2.775,14.009-7.621,18.641-13.711
												c6.797-8.156,12.003-25.629,17.737-27.34l6.55-1.955c1.308-0.391,2.051-1.768,1.661-3.074l-1.891-6.334l-1.738-5.82
												l-1.89-6.332c-0.39-1.307-1.767-2.051-3.074-1.66l-6.55,1.955c-5.734,1.713-19.667-10.047-29.823-13.141
												C150.759,676.899,142.778,676.336,134.864,678.204"/>
											<path clip-path="url(#SVGID_122_)" fill="#868D93" d="M190.312,690.829l7.488,25.082l11.955-3.568
												c1.953-0.582,3.699-1.709,5.035-3.246c2.524-2.908,3.386-6.904,2.285-10.596l-1.098-3.678
												c-1.102-3.689-4.014-6.561-7.72-7.607c-1.961-0.555-4.038-0.537-5.99,0.043L190.312,690.829z"/>
											<path clip-path="url(#SVGID_122_)" fill="#868D93" d="M205.862,713.504c-0.019-0.072-0.043-0.143-0.072-0.215
												l-10.089-24.305c-0.344-0.83-1.292-1.199-2.117-0.824c-0.826,0.377-1.215,1.354-0.87,2.184l10.088,24.309
												c0.344,0.83,1.292,1.195,2.118,0.82C205.675,715.129,206.065,714.284,205.862,713.504"/>
											<path clip-path="url(#SVGID_122_)" fill="#868D93" d="M211.334,711.874c-0.02-0.072-0.043-0.146-0.073-0.215
												l-10.088-24.307c-0.345-0.832-1.292-1.199-2.117-0.822c-0.826,0.375-1.214,1.354-0.87,2.182l10.087,24.309
												c0.345,0.828,1.293,1.197,2.118,0.82C211.147,713.497,211.536,712.651,211.334,711.874"/>
											<path clip-path="url(#SVGID_122_)" fill="#868D93" d="M216.45,709.252c-0.019-0.072-0.043-0.143-0.072-0.213L206.815,686
												c-0.344-0.83-1.293-1.197-2.118-0.822c-0.824,0.375-1.214,1.355-0.87,2.184l9.563,23.039
												c0.344,0.83,1.292,1.197,2.118,0.82C216.263,710.877,216.653,710.032,216.45,709.252"/>
										</g>
									</g>
									<g>
										<defs>
											<rect id="SVGID_123_" width="1000" height="821.106"/>
										</defs>
										<clipPath id="SVGID_124_">
											<use xlink:href="#SVGID_123_"  overflow="visible"/>
										</clipPath>
										<g clip-path="url(#SVGID_124_)">
											<g opacity="0.75">
												<g>
													<defs>
														<rect id="SVGID_125_" x="85.472" y="460.788" width="131.858" height="182.883"/>
													</defs>
													<defs>
														<rect id="SVGID_126_" x="85.472" y="460.788" width="131.858" height="182.883"/>
													</defs>
													<defs>
														<rect id="SVGID_127_" x="85.472" y="460.788" width="131.858" height="182.883"/>
													</defs>
													<defs>
														<rect id="SVGID_128_" x="85.472" y="460.788" width="131.858" height="182.883"/>
													</defs>
													<defs>
														<rect id="SVGID_129_" x="85.472" y="460.788" width="131.858" height="182.883"/>
													</defs>
													<defs>
														<rect id="SVGID_130_" x="85.472" y="460.788" width="131.858" height="182.883"/>
													</defs>
													<defs>
														<rect id="SVGID_131_" x="85.472" y="460.788" width="131.858" height="182.883"/>
													</defs>
													<defs>
														<rect id="SVGID_132_" x="85.472" y="460.788" width="131.858" height="182.883"/>
													</defs>
													<defs>
														<rect id="SVGID_133_" x="85.472" y="460.788" width="131.858" height="182.883"/>
													</defs>
													<defs>
														<rect id="SVGID_134_" x="85.472" y="460.788" width="131.858" height="182.883"/>
													</defs>
													<defs>
														<rect id="SVGID_135_" x="85.472" y="460.788" width="131.858" height="182.883"/>
													</defs>
													<clipPath id="SVGID_136_">
														<use xlink:href="#SVGID_125_"  overflow="visible"/>
													</clipPath>
													<clipPath id="SVGID_137_" clip-path="url(#SVGID_136_)">
														<use xlink:href="#SVGID_126_"  overflow="visible"/>
													</clipPath>
													<clipPath id="SVGID_138_" clip-path="url(#SVGID_137_)">
														<use xlink:href="#SVGID_127_"  overflow="visible"/>
													</clipPath>
													<clipPath id="SVGID_139_" clip-path="url(#SVGID_138_)">
														<use xlink:href="#SVGID_128_"  overflow="visible"/>
													</clipPath>
													<clipPath id="SVGID_140_" clip-path="url(#SVGID_139_)">
														<use xlink:href="#SVGID_129_"  overflow="visible"/>
													</clipPath>
													<clipPath id="SVGID_141_" clip-path="url(#SVGID_140_)">
														<use xlink:href="#SVGID_130_"  overflow="visible"/>
													</clipPath>
													<clipPath id="SVGID_142_" clip-path="url(#SVGID_141_)">
														<use xlink:href="#SVGID_131_"  overflow="visible"/>
													</clipPath>
													<clipPath id="SVGID_143_" clip-path="url(#SVGID_142_)">
														<use xlink:href="#SVGID_132_"  overflow="visible"/>
													</clipPath>
													<clipPath id="SVGID_144_" clip-path="url(#SVGID_143_)">
														<use xlink:href="#SVGID_133_"  overflow="visible"/>
													</clipPath>
													<clipPath id="SVGID_145_" clip-path="url(#SVGID_144_)">
														<use xlink:href="#SVGID_134_"  overflow="visible"/>
													</clipPath>
													<clipPath id="SVGID_146_" clip-path="url(#SVGID_145_)">
														<use xlink:href="#SVGID_135_"  overflow="visible"/>
													</clipPath>
													<path clip-path="url(#SVGID_146_)" fill="#FFE36C" d="M113.091,564.069c-8.409-28.166,7.608-57.816,35.775-66.227
														s57.818,7.607,66.227,35.773c3.352,11.229,2.819,22.689-0.814,32.951c-4.004,13.145-19.222,31.176-17.007,38.596
														l2.531,8.479c0.505,1.691-0.457,3.475-2.149,3.979l-8.197,2.447l-7.532,2.248l-8.196,2.447
														c-1.693,0.504-3.474-0.457-3.979-2.148l-2.531-8.479c-2.215-7.42-24.828-14.158-35.383-22.955
														C123.173,584.59,116.444,575.297,113.091,564.069"/>
													<path clip-path="url(#SVGID_146_)" fill="#FFFFFF" d="M207.476,539.079c-1.616,0.482-3.317-0.438-3.8-2.053
														c-5.418-18.146-22.398-30.266-41.293-29.469c-1.684,0.07-3.108-1.236-3.179-2.922c-0.072-1.686,1.236-3.109,2.921-3.18
														c21.693-0.916,41.185,12.992,47.404,33.822C210.011,536.895,209.092,538.596,207.476,539.079"/>
													<path clip-path="url(#SVGID_146_)" fill="#FFE36C" d="M215.896,536.663c3.428,21.752-6.992,48.443-38.196,57.76
														c-31.204,9.314-54.224-8.496-63.61-27.365c3.593,9.891,9.865,18.129,17.746,24.125
														c10.555,8.797,33.168,15.533,35.383,22.953l2.531,8.479c0.505,1.693,2.287,2.654,3.979,2.15l8.196-2.447l7.533-2.248
														l8.196-2.447c1.692-0.506,2.654-2.287,2.149-3.98l-2.531-8.477c-2.215-7.422,13.003-25.453,17.008-38.598
														C217.583,557.233,218.313,546.905,215.896,536.663"/>
													<path clip-path="url(#SVGID_146_)" fill="#868D93" d="M199.558,608.422l-32.463,9.691l4.619,15.473
														c0.754,2.527,2.212,4.787,4.202,6.516c3.764,3.268,8.937,4.385,13.712,2.957l4.759-1.42
														c4.776-1.426,8.491-5.193,9.847-9.99c0.717-2.537,0.697-5.229-0.057-7.752L199.558,608.422z"/>
													<path clip-path="url(#SVGID_146_)" fill="#868D93" d="M170.207,628.549c0.094-0.023,0.186-0.057,0.277-0.094
														l31.458-13.057c1.075-0.445,1.551-1.674,1.065-2.74c-0.486-1.068-1.753-1.572-2.824-1.127l-31.458,13.057
														c-1.075,0.445-1.551,1.674-1.065,2.74C168.104,628.305,169.201,628.813,170.207,628.549"/>
													<path clip-path="url(#SVGID_146_)" fill="#868D93" d="M172.32,635.629c0.094-0.021,0.187-0.055,0.278-0.094
														l31.458-13.055c1.075-0.447,1.551-1.676,1.065-2.742c-0.487-1.068-1.753-1.57-2.824-1.125l-31.459,13.057
														c-1.074,0.445-1.55,1.672-1.064,2.74C170.218,635.387,171.314,635.893,172.32,635.629"/>
													<path clip-path="url(#SVGID_146_)" fill="#868D93" d="M175.71,642.252c0.094-0.023,0.187-0.057,0.277-0.094
														l29.819-12.377c1.074-0.445,1.55-1.672,1.064-2.74c-0.486-1.068-1.754-1.572-2.824-1.127l-29.818,12.377
														c-1.075,0.445-1.551,1.672-1.065,2.74C173.607,642.008,174.704,642.514,175.71,642.252"/>
													<path clip-path="url(#SVGID_146_)" fill="#FFE36C" d="M138.159,462.057c-1.554,0.465-2.437,2.102-1.973,3.654
														l4.955,16.598c0.464,1.555,2.1,2.438,3.654,1.975c1.553-0.465,2.436-2.102,1.972-3.654l-4.955-16.598
														C141.348,462.477,139.713,461.594,138.159,462.057"/>
													<path clip-path="url(#SVGID_146_)" fill="#FFE36C" d="M87.681,520.758l16.783,4.289
														c0.534,0.137,1.072,0.117,1.565-0.029c0.956-0.283,1.742-1.051,2.006-2.088c0.403-1.568-0.545-3.17-2.117-3.568
														l-16.783-4.291c-1.57-0.402-3.17,0.547-3.571,2.117C85.162,518.758,86.111,520.36,87.681,520.758"/>
													<path clip-path="url(#SVGID_146_)" fill="#FFE36C" d="M108.695,482.612c-1.163-1.129-3.022-1.102-4.151,0.063
														c-1.129,1.166-1.101,3.023,0.063,4.152l12.433,12.061c0.791,0.768,1.902,1,2.887,0.705
														c0.465-0.139,0.903-0.395,1.265-0.768c1.129-1.164,1.101-3.023-0.063-4.15L108.695,482.612z"/>
													<path clip-path="url(#SVGID_146_)" fill="#FFE36C" d="M177.619,460.86c-1.582-0.355-3.152,0.643-3.507,2.225
														l-3.786,16.902c-0.354,1.582,0.642,3.15,2.224,3.506c0.507,0.113,1.013,0.09,1.479-0.051
														c0.986-0.293,1.786-1.098,2.028-2.174l3.786-16.902C180.197,462.784,179.201,461.213,177.619,460.86"/>
												</g>
											</g>
											<g>
												<defs>
													<rect id="SVGID_147_" width="1000" height="821.106"/>
												</defs>
												<defs>
													<rect id="SVGID_148_" width="1000" height="821.106"/>
												</defs>
												<defs>
													<rect id="SVGID_149_" width="1000" height="821.106"/>
												</defs>
												<defs>
													<rect id="SVGID_150_" width="1000" height="821.106"/>
												</defs>
												<defs>
													<rect id="SVGID_151_" width="1000" height="821.106"/>
												</defs>
												<clipPath id="SVGID_152_">
													<use xlink:href="#SVGID_147_"  overflow="visible"/>
												</clipPath>
												<clipPath id="SVGID_153_" clip-path="url(#SVGID_152_)">
													<use xlink:href="#SVGID_148_"  overflow="visible"/>
												</clipPath>
												<clipPath id="SVGID_154_" clip-path="url(#SVGID_153_)">
													<use xlink:href="#SVGID_149_"  overflow="visible"/>
												</clipPath>
												<clipPath id="SVGID_155_" clip-path="url(#SVGID_154_)">
													<use xlink:href="#SVGID_150_"  overflow="visible"/>
												</clipPath>
												<clipPath id="SVGID_156_" clip-path="url(#SVGID_155_)">
													<use xlink:href="#SVGID_151_"  overflow="visible"/>
												</clipPath>
												<path clip-path="url(#SVGID_156_)" fill="#F4C914" d="M93.817,284.547c65.067,0,73.555-67.896,73.555-67.896
													s8.487,67.897,73.555,67.897c-65.068,0-73.555,67.896-73.555,67.896S158.884,284.547,93.817,284.547"/>
												<path clip-path="url(#SVGID_156_)" fill="#F4C914" d="M69.946,349.793c28.468,0,32.181-29.705,32.181-29.705
													s3.713,29.705,32.18,29.705c-28.467,0-32.18,29.705-32.18,29.705S98.414,349.793,69.946,349.793"/>
												<path clip-path="url(#SVGID_156_)" fill="#E59A2E" d="M882.63,568.163c0,35.701-37.254,40.359-37.254,40.359
													s37.254,4.656,37.254,40.355c0-35.699,37.254-40.355,37.254-40.355S882.63,603.864,882.63,568.163"/>
												<path clip-path="url(#SVGID_156_)" fill="#E59A2E" d="M829.175,572.721c15.619,0,17.656,16.301,17.656,16.301
													s2.037-16.301,17.657-16.301c-15.62,0-17.657-16.299-17.657-16.299S844.794,572.721,829.175,572.721"/>
												<g clip-path="url(#SVGID_156_)">
													<g opacity="0.75">
														<g>
															<defs>
																<rect id="SVGID_157_" x="787.019" y="655.247" width="143.782" height="108.283"/>
															</defs>
															<defs>
																<rect id="SVGID_158_" x="787.019" y="655.247" width="143.782" height="108.283"/>
															</defs>
															<defs>
																<rect id="SVGID_159_" x="787.019" y="655.247" width="143.782" height="108.283"/>
															</defs>
															<defs>
																<rect id="SVGID_160_" x="787.019" y="655.247" width="143.782" height="108.283"/>
															</defs>
															<defs>
																<rect id="SVGID_161_" x="787.019" y="655.247" width="143.782" height="108.283"/>
															</defs>
															<defs>
																<rect id="SVGID_162_" x="787.019" y="655.247" width="143.782" height="108.283"/>
															</defs>
															<defs>
																<rect id="SVGID_163_" x="787.019" y="655.247" width="143.782" height="108.283"/>
															</defs>
															<clipPath id="SVGID_164_">
																<use xlink:href="#SVGID_157_"  overflow="visible"/>
															</clipPath>
															<clipPath id="SVGID_165_" clip-path="url(#SVGID_164_)">
																<use xlink:href="#SVGID_158_"  overflow="visible"/>
															</clipPath>
															<clipPath id="SVGID_166_" clip-path="url(#SVGID_165_)">
																<use xlink:href="#SVGID_159_"  overflow="visible"/>
															</clipPath>
															<clipPath id="SVGID_167_" clip-path="url(#SVGID_166_)">
																<use xlink:href="#SVGID_160_"  overflow="visible"/>
															</clipPath>
															<clipPath id="SVGID_168_" clip-path="url(#SVGID_167_)">
																<use xlink:href="#SVGID_161_"  overflow="visible"/>
															</clipPath>
															<clipPath id="SVGID_169_" clip-path="url(#SVGID_168_)">
																<use xlink:href="#SVGID_162_"  overflow="visible"/>
															</clipPath>
															<clipPath id="SVGID_170_" clip-path="url(#SVGID_169_)">
																<use xlink:href="#SVGID_163_"  overflow="visible"/>
															</clipPath>
															<path clip-path="url(#SVGID_170_)" fill="#FFC043" d="M863.415,758.215c-26.467,12.789-58.291,1.703-71.081-24.764
																c-12.791-26.467-1.704-58.291,24.763-71.082c10.55-5.098,21.95-6.398,32.658-4.447
																c13.613,1.857,33.841,14.008,40.813,10.639l7.966-3.85c1.59-0.768,3.502-0.102,4.271,1.488l3.723,7.701l3.421,7.076
																l3.722,7.701c0.768,1.592,0.102,3.502-1.488,4.271l-7.965,3.85c-6.973,3.369-10.021,26.77-17.022,38.59
																C882.068,744.993,873.966,753.118,863.415,758.215"/>
															<path clip-path="url(#SVGID_170_)" fill="#FFFFFF" d="M883.443,701.127c-1.613,0.492-3.319-0.418-3.812-2.031
																c-5.514-18.117-22.558-30.146-41.448-29.25c-1.685,0.08-3.114-1.221-3.194-2.904s1.22-3.115,2.905-3.195
																c21.687-1.029,41.253,12.777,47.58,33.572C885.967,698.932,885.057,700.637,883.443,701.127"/>
															<path clip-path="url(#SVGID_170_)" fill="#FFC043" d="M819.975,661.092c20.929-6.852,48.938-0.816,63.108,28.502
																c14.17,29.32,0.256,54.887-16.88,67.158c9.193-5.123,16.328-12.627,20.989-21.363
																c7.002-11.82,10.051-35.221,17.022-38.59l7.965-3.85c1.592-0.77,2.258-2.68,1.488-4.271l-3.722-7.701l-3.421-7.076
																l-3.723-7.701c-0.769-1.59-2.681-2.256-4.271-1.488l-7.966,3.85c-6.974,3.369-27.2-8.779-40.813-10.639
																C840.014,656.147,829.701,657.075,819.975,661.092"/>
															<path clip-path="url(#SVGID_170_)" fill="#868D93" d="M893.423,665.786l14.741,30.504l14.538-7.025
																c2.374-1.146,4.372-2.947,5.762-5.188c2.627-4.236,2.903-9.521,0.735-14.01l-2.161-4.471
																c-2.169-4.488-6.482-7.555-11.433-8.129c-2.619-0.305-5.271,0.145-7.646,1.293L893.423,665.786z"/>
															<path clip-path="url(#SVGID_170_)" fill="#868D93" d="M917.969,691.553c-0.039-0.09-0.085-0.176-0.137-0.26
																l-17.903-28.975c-0.61-0.99-1.897-1.266-2.875-0.615c-0.978,0.648-1.271,1.98-0.661,2.969l17.903,28.977
																c0.609,0.986,1.898,1.264,2.875,0.611C918.064,693.667,918.388,692.504,917.969,691.553"/>
															<path clip-path="url(#SVGID_170_)" fill="#868D93" d="M924.622,688.336c-0.039-0.088-0.084-0.174-0.137-0.26
																l-17.903-28.975c-0.61-0.988-1.898-1.264-2.875-0.613c-0.977,0.648-1.271,1.979-0.661,2.967l17.903,28.977
																c0.61,0.988,1.897,1.264,2.875,0.613C924.718,690.452,925.042,689.29,924.622,688.336"/>
															<path clip-path="url(#SVGID_170_)" fill="#868D93" d="M930.62,683.936c-0.039-0.088-0.085-0.176-0.138-0.26
																l-16.971-27.465c-0.61-0.988-1.897-1.264-2.875-0.613c-0.977,0.65-1.271,1.982-0.661,2.969l16.971,27.465
																c0.609,0.988,1.897,1.264,2.875,0.613C930.715,686.049,931.039,684.887,930.62,683.936"/>
														</g>
													</g>
												</g>
											</g>
										</g>
									</g>
								</g>
							</g>
						</g>
					</g>
				</g>
			</g>
		</g>
	</g>
</g>
</svg>
