<?xml version="1.0" encoding="utf-8"?>
<!-- Generator: Adobe Illustrator 15.0.0, SVG Export Plug-In . SVG Version: 6.00 Build 0)  -->
<!DOCTYPE svg PUBLIC "-//W3C//DTD SVG 1.1//EN" "http://www.w3.org/Graphics/SVG/1.1/DTD/svg11.dtd">
<svg version="1.1" id="Layer_1" xmlns="http://www.w3.org/2000/svg" xmlns:xlink="http://www.w3.org/1999/xlink" x="0px" y="0px"
	 width="144px" height="90px" viewBox="312 467 144 90" enable-background="new 312 467 144 90" xml:space="preserve">
<g id="E-Com">
	<g id="CVC_5_">
	</g>
	<g id="Mastercard_5_">
	</g>
	<g id="Visa_6_">
	</g>
	<g id="Discover">
	</g>
	<g id="Amex_3_">
		<g id="Amex">
			<g>
				<path fill="#3498D8" d="M447,467H321c-4.95,0-9,3.857-9,8.571v72.857c0,4.714,4.05,8.571,9,8.571h126c4.95,0,9-3.857,9-8.571
					v-72.857C456,470.857,451.95,467,447,467z"/>
			</g>
		</g>
		<g id="Amex_1_">
			<g>
				<path fill="#FFFFFF" d="M342.15,513.285h7.2l-3.6-8.571L342.15,513.285z M442.5,497h-18.45l-4.5,4.714L415.5,497h-39.15
					l-3.6,7.714l-3.6-7.714H353.4v3.428L351.6,497h-13.5l-13.05,30h15.75l1.8-4.715h4.5l1.8,4.715h17.55v-3.429L367.8,527h9
					l1.35-3.857V527h36l4.5-4.715L422.7,527h18.45l-11.7-15L442.5,497z M388.05,522.714h-4.95V506l-7.65,16.714h-4.5L363.3,506
					v16.714h-10.35l-1.8-4.714h-10.8l-1.8,4.714h-5.85l9.45-21.428h7.65l8.55,20.142v-20.142h8.55l6.75,14.572l6.3-14.572h8.55
					v21.428H388.05z M432.6,522.714h-6.75l-5.85-7.286l-6.75,7.286H393v-21.428h20.7l6.3,6.857l6.75-6.857h6.3L423.15,512
					L432.6,522.714z M397.95,505.571v3.857h11.25v4.286h-11.25V518h12.6l5.851-6.429l-5.4-6H397.95z"/>
			</g>
		</g>
	</g>
	<g id="Bitcoin_3_">
	</g>
	<g id="Google_Wallet_5_">
	</g>
	<g id="PayPal_3_">
	</g>
	<g id="Square_Payment_1_">
	</g>
	<g id="Shop_5_">
	</g>
	<g id="Postage">
	</g>
	<g id="Package_7_">
	</g>
	<g id="Discount_3_">
	</g>
	<g id="Earth_3_">
	</g>
	<g id="Barcode_3_">
	</g>
	<g id="Cart_Plus_6_">
	</g>
	<g id="Cart_Minus_6_">
	</g>
	<g id="Cart_4_">
	</g>
	<g id="Receipt_5_">
	</g>
	<g id="Truck_9_">
	</g>
	<g id="Calculator_6_">
	</g>
	<g id="Euro_Symbol">
	</g>
	<g id="Cent_Symbol">
	</g>
	<g id="Dollar_Symbol">
	</g>
	<g id="Pound_Symbol">
	</g>
	<g id="Bank_5_">
	</g>
	<g id="Wallet_3_">
	</g>
	<g id="Coins_6_">
	</g>
	<g id="Bills_6_">
	</g>
	<g id="Dollar_Alt">
	</g>
	<g id="Dollar">
	</g>
</g>
<g id="Lockup">
</g>
</svg>
