<?xml version="1.0" encoding="utf-8"?>
<!-- Generator: Adobe Illustrator 15.0.0, SVG Export Plug-In . SVG Version: 6.00 Build 0)  -->
<!DOCTYPE svg PUBLIC "-//W3C//DTD SVG 1.1//EN" "http://www.w3.org/Graphics/SVG/1.1/DTD/svg11.dtd">
<svg version="1.1" id="Layer_1" xmlns="http://www.w3.org/2000/svg" xmlns:xlink="http://www.w3.org/1999/xlink" x="0px" y="0px"
	 width="144px" height="90px" viewBox="312 467 144 90" enable-background="new 312 467 144 90" xml:space="preserve">
<g>
	<g>
		<path id="SVGID_1_" fill="#FFFFFF" d="M312,473.75c0-3.712,3.038-6.75,6.75-6.75h130.5c3.713,0,6.75,3.038,6.75,6.75v76.5
			c0,3.713-3.037,6.75-6.75,6.75h-130.5c-3.712,0-6.75-3.037-6.75-6.75V473.75z"/>
	</g>
	<g>
		<defs>
			<path id="SVGID_2_" d="M312,473.75c0-3.712,3.038-6.75,6.75-6.75h130.5c3.713,0,6.75,3.038,6.75,6.75v76.5
				c0,3.713-3.037,6.75-6.75,6.75h-130.5c-3.712,0-6.75-3.037-6.75-6.75V473.75z"/>
		</defs>
		<clipPath id="SVGID_3_">
			<use xlink:href="#SVGID_2_"  overflow="visible"/>
		</clipPath>
		<path clip-path="url(#SVGID_3_)" fill="#FFFFFF" stroke="#CBCBCB" stroke-width="2" stroke-miterlimit="10" d="M312,473.75
			c0-3.712,3.038-6.75,6.75-6.75h130.5c3.713,0,6.75,3.038,6.75,6.75v76.5c0,3.713-3.037,6.75-6.75,6.75h-130.5
			c-3.712,0-6.75-3.037-6.75-6.75V473.75z"/>
	</g>
</g>
<g>
	<g>
		<defs>
			<path id="SVGID_4_" d="M341.138,529.775c0,1.574,1.125,1.688,2.025,1.688c4.275,0,5.737-3.263,5.737-6.188
				c0-3.713-2.362-6.413-6.188-6.413c-0.788,0-1.237,0.112-1.575,0.112V529.775L341.138,529.775z M339.112,520.438
				c0-1.8-0.9-1.688-1.8-1.688v-0.563c0.788,0,1.575,0,2.362,0c0.788,0,1.913,0,3.488,0c5.175,0,7.987,3.487,7.987,6.975
				c0,1.913-1.125,6.863-8.212,6.863c-1.013,0-1.913,0-2.925,0c-0.9,0-1.8,0-2.7,0v-0.563c1.237-0.113,1.8-0.113,1.8-1.463V520.438
				L339.112,520.438z"/>
		</defs>
		<clipPath id="SVGID_5_">
			<use xlink:href="#SVGID_4_"  overflow="visible"/>
		</clipPath>
		<rect x="331.688" y="512.563" clip-path="url(#SVGID_5_)" fill="#1A1919" width="24.975" height="25.088"/>
	</g>
</g>
<g>
	<g>
		<defs>
			<path id="SVGID_6_" d="M353.85,519.987c-0.563,0-1.013-0.45-1.013-1.013c0-0.449,0.45-0.899,1.013-0.899s1.012,0.45,1.012,0.899
				C354.862,519.537,354.413,519.987,353.85,519.987z M351.712,531.575h0.337c0.563,0,0.9,0,0.9-0.675v-5.4
				c0-0.9-0.338-1.013-1.013-1.35v-0.338c0.9-0.225,2.025-0.675,2.138-0.675c0.112-0.112,0.225-0.112,0.337-0.112
				c0.112,0,0.112,0.112,0.112,0.225v7.65c0,0.675,0.45,0.675,1.013,0.675h0.337v0.563c-0.675,0-1.35,0-2.138,0
				c-0.675,0-1.462,0-2.137,0v-0.563H351.712z"/>
		</defs>
		<clipPath id="SVGID_7_">
			<use xlink:href="#SVGID_6_"  overflow="visible"/>
		</clipPath>
		<rect x="346.087" y="512.337" clip-path="url(#SVGID_7_)" fill="#1A1919" width="15.525" height="25.313"/>
	</g>
</g>
<g>
	<g>
		<defs>
			<path id="SVGID_8_" d="M357.9,525.612c0-0.787-0.225-0.899-1.125-1.35v-0.338c0.9-0.225,1.688-0.563,2.587-0.899
				c0.113,0,0.113,0,0.113,0.225v1.237c1.125-0.787,2.137-1.462,3.487-1.462c1.688,0,2.25,1.237,2.25,2.813v5.175
				c0,0.675,0.45,0.675,1.013,0.675h0.337v0.563c-0.675,0-1.35,0-2.138,0c-0.675,0-1.462,0-2.137,0v-0.563h0.337
				c0.563,0,0.9,0,0.9-0.675v-5.175c0-1.125-0.675-1.688-1.8-1.688c-0.675,0-1.688,0.563-2.363,0.899v5.851
				c0,0.675,0.45,0.675,1.013,0.675h0.337v0.563c-0.675,0-1.35,0-2.137,0c-0.675,0-1.463,0-2.138,0v-0.563h0.337
				c0.563,0,0.9,0,0.9-0.675v-5.288"/>
		</defs>
		<clipPath id="SVGID_9_">
			<use xlink:href="#SVGID_8_"  overflow="visible"/>
		</clipPath>
		<rect x="350.925" y="517.4" clip-path="url(#SVGID_9_)" fill="#1A1919" width="21.263" height="20.362"/>
	</g>
</g>
<g>
	<g>
		<defs>
			<path id="SVGID_10_" d="M371.625,525.95c0.45,0,0.563-0.226,0.563-0.45c0-1.013-0.563-1.8-1.688-1.8
				c-1.237,0-2.025,0.899-2.25,2.362h3.375V525.95z M368.025,526.625c0,0.225,0,0.45,0,1.125c0.113,1.912,1.35,3.487,2.925,3.487
				c1.125,0,1.912-0.563,2.7-1.35l0.225,0.225c-0.9,1.237-2.025,2.25-3.712,2.25c-3.15,0-3.825-3.037-3.825-4.274
				c0-3.938,2.588-5.063,4.05-5.063c1.575,0,3.375,1.012,3.375,3.149c0,0.112,0,0.226,0,0.338l-0.113,0.112H368.025z"/>
		</defs>
		<clipPath id="SVGID_11_">
			<use xlink:href="#SVGID_10_"  overflow="visible"/>
		</clipPath>
		<rect x="360.825" y="517.4" clip-path="url(#SVGID_11_)" fill="#1A1919" width="18.675" height="20.587"/>
	</g>
</g>
<g>
	<g>
		<defs>
			<path id="SVGID_12_" d="M374.325,531.575h0.563c0.563,0,0.9,0,0.9-0.675v-5.625c0-0.563-0.788-0.788-1.013-0.9v-0.338
				c1.463-0.563,2.25-1.125,2.475-1.125c0.112,0,0.225,0.113,0.225,0.226v1.8l0,0c0.45-0.787,1.35-2.025,2.587-2.025
				c0.45,0,1.125,0.338,1.125,1.013c0,0.563-0.337,1.013-0.9,1.013s-0.563-0.45-1.35-0.45c-0.337,0-1.462,0.45-1.462,1.688v4.612
				c0,0.676,0.45,0.676,0.9,0.676h1.125v0.563c-1.125,0-1.913,0-2.813,0c-0.788,0-1.688,0-2.363,0V531.575"/>
		</defs>
		<clipPath id="SVGID_13_">
			<use xlink:href="#SVGID_12_"  overflow="visible"/>
		</clipPath>
		<rect x="368.7" y="517.4" clip-path="url(#SVGID_13_)" fill="#1A1919" width="18" height="20.362"/>
	</g>
</g>
<g>
	<g>
		<defs>
			<path id="SVGID_14_" d="M381.975,529.325c0.225,1.35,1.012,2.475,2.475,2.475c1.125,0,1.576-0.675,1.576-1.462
				c0-2.363-4.275-1.575-4.275-4.838c0-1.125,0.9-2.588,3.037-2.588c0.676,0,1.463,0.226,2.25,0.563l0.113,2.025h-0.45
				c-0.226-1.237-0.9-1.912-2.138-1.912c-0.788,0-1.575,0.449-1.575,1.35c0,2.362,4.612,1.575,4.612,4.725
				c0,1.351-1.012,2.7-3.375,2.7c-0.788,0-1.688-0.225-2.475-0.675l-0.225-2.25L381.975,529.325"/>
		</defs>
		<clipPath id="SVGID_15_">
			<use xlink:href="#SVGID_14_"  overflow="visible"/>
		</clipPath>
		<rect x="375.9" y="517.4" clip-path="url(#SVGID_15_)" fill="#1A1919" width="17.325" height="20.587"/>
	</g>
</g>
<g>
	<g>
		<defs>
			<path id="SVGID_16_" d="M405.6,521.787h-0.449c-0.338-2.362-2.025-3.262-4.275-3.262s-5.625,1.574-5.625,6.3
				c0,4.05,2.813,6.862,5.963,6.862c1.912,0,3.6-1.35,3.938-3.487l0.449,0.112l-0.449,2.925c-0.788,0.563-3.038,1.013-4.388,1.013
				c-4.612,0-7.538-3.037-7.538-7.425c0-4.05,3.601-6.976,7.538-6.976c1.575,0,3.149,0.563,4.725,1.013L405.6,521.787"/>
		</defs>
		<clipPath id="SVGID_17_">
			<use xlink:href="#SVGID_16_"  overflow="visible"/>
		</clipPath>
		<rect x="387.487" y="512.337" clip-path="url(#SVGID_17_)" fill="#1A1919" width="23.737" height="25.762"/>
	</g>
</g>
<g>
	<g>
		<defs>
			<path id="SVGID_18_" d="M406.275,531.575h0.337c0.563,0,0.9,0,0.9-0.675v-11.025c0-1.237-0.338-1.35-1.013-1.575v-0.337
				c0.787-0.226,1.575-0.563,2.025-0.9c0.225-0.112,0.337-0.225,0.449-0.225c0.113,0,0.113,0.112,0.113,0.225v13.725
				c0,0.676,0.449,0.676,1.012,0.676h0.338v0.563c-0.675,0-1.35,0-2.138,0c-0.675,0-1.462,0-2.138,0v-0.45"/>
		</defs>
		<clipPath id="SVGID_19_">
			<use xlink:href="#SVGID_18_"  overflow="visible"/>
		</clipPath>
		<rect x="400.65" y="511.325" clip-path="url(#SVGID_19_)" fill="#1A1919" width="15.524" height="26.438"/>
	</g>
</g>
<g>
	<g>
		<defs>
			<path id="SVGID_20_" d="M418.987,531.013c0,0.337,0.225,0.337,0.563,0.337c0.226,0,0.563,0,0.788,0v0.45
				c-0.9,0.112-2.476,0.45-2.813,0.563l-0.113-0.112v-1.575c-1.237,1.013-2.137,1.688-3.487,1.688c-1.125,0-2.138-0.675-2.138-2.362
				v-5.063c0-0.563-0.112-1.013-1.237-1.125v-0.338c0.675,0,2.25-0.112,2.588-0.112c0.225,0,0.225,0.112,0.225,0.563v5.175
				c0,0.563,0,2.25,1.688,2.25c0.675,0,1.575-0.563,2.362-1.237v-5.399c0-0.45-0.899-0.563-1.688-0.788v-0.337
				c1.801-0.113,2.926-0.226,3.15-0.226c0.112,0,0.112,0.112,0.112,0.338V531.013"/>
		</defs>
		<clipPath id="SVGID_21_">
			<use xlink:href="#SVGID_20_"  overflow="visible"/>
		</clipPath>
		<rect x="404.925" y="517.625" clip-path="url(#SVGID_21_)" fill="#1A1919" width="21.15" height="20.362"/>
	</g>
</g>
<g>
	<g>
		<defs>
			<path id="SVGID_22_" d="M423.037,529.888c0,0.787,0.675,2.024,2.025,2.024c2.138,0,3.037-2.137,3.037-3.824
				c0-2.138-1.575-3.938-3.149-3.938c-0.788,0-1.351,0.449-1.913,0.899V529.888z M423.037,524.487
				c0.788-0.675,1.913-1.462,2.926-1.462c2.249,0,3.712,2.024,3.712,4.162c0,2.588-1.912,5.175-4.725,5.175
				c-1.463,0-2.25-0.45-2.813-0.675l-0.563,0.45l-0.45-0.226c0.225-1.125,0.225-2.362,0.225-3.487v-8.55
				c0-1.237-0.337-1.35-1.012-1.575v-0.337c0.787-0.226,1.574-0.563,2.024-0.9c0.226-0.112,0.338-0.225,0.45-0.225
				s0.112,0.112,0.112,0.225v7.425H423.037z"/>
		</defs>
		<clipPath id="SVGID_23_">
			<use xlink:href="#SVGID_22_"  overflow="visible"/>
		</clipPath>
		<rect x="414.713" y="511.325" clip-path="url(#SVGID_23_)" fill="#1A1919" width="20.587" height="26.774"/>
	</g>
</g>
<g>
	<g>
		<defs>
			<path id="SVGID_24_" d="M337.313,543.612h0.112c0.338,0,0.788,0,0.788-0.563v-5.625c0-0.563-0.45-0.563-0.788-0.563h-0.112
				v-0.337c0.45,0,1.125,0,1.575,0c0.563,0,1.237,0,1.688,0v0.225h-0.113c-0.337,0-0.788,0-0.788,0.563v5.625
				c0,0.563,0.45,0.563,0.788,0.563h0.113v0.338c-0.563,0-1.125,0-1.688,0s-1.125,0-1.575,0V543.612"/>
		</defs>
		<clipPath id="SVGID_25_">
			<use xlink:href="#SVGID_24_"  overflow="visible"/>
		</clipPath>
		<rect x="331.688" y="530.787" clip-path="url(#SVGID_25_)" fill="#1A1919" width="14.513" height="18.788"/>
	</g>
</g>
<g>
	<g>
		<defs>
			<path id="SVGID_26_" d="M340.575,543.95v-0.226h-0.113c-0.337,0-0.9-0.112-0.9-0.675v-5.625c0-0.563,0.45-0.675,0.9-0.675h0.113
				v-0.225c-0.45,0-1.125,0-1.688,0s-1.125,0-1.575,0v0.225h0.112c0.338,0,0.9,0.112,0.9,0.675v5.625c0,0.563-0.45,0.675-0.9,0.675
				h-0.112v0.226c0.45,0,1.013,0,1.575,0C339.45,543.838,340.013,543.95,340.575,543.95z M340.575,543.95c-0.563,0-1.125,0-1.688,0
				s-1.125,0-1.575,0l0,0v-0.45h0.225c0.337,0,0.788,0,0.788-0.563v-5.625c0-0.563-0.338-0.563-0.788-0.563h-0.225v-0.45l0,0
				c0.45,0,1.125,0,1.575,0c0.563,0,1.237,0,1.688,0l0,0v0.45h-0.225c-0.337,0-0.788,0-0.788,0.563v5.625
				c0,0.563,0.337,0.563,0.788,0.563h0.225V543.95L340.575,543.95z"/>
		</defs>
		<clipPath id="SVGID_27_">
			<use xlink:href="#SVGID_26_"  overflow="visible"/>
		</clipPath>
		<rect x="331.688" y="530.787" clip-path="url(#SVGID_27_)" fill="#1A1919" width="14.625" height="18.9"/>
	</g>
</g>
<g>
	<g>
		<defs>
			<path id="SVGID_28_" d="M348,541.813L348,541.813v-4.05c0-0.9-0.563-1.013-0.9-1.013h-0.225v-0.338c0.563,0,1.013,0,1.462,0
				c0.45,0,0.9,0,1.35,0v0.338h-0.112c-0.45,0-1.013,0.112-1.013,1.35v4.95c0,0.338,0,0.788,0.112,1.125h-0.45l-5.513-6.3v4.5
				c0,0.9,0.225,1.237,1.013,1.237h0.225v0.338c-0.45,0-0.9,0-1.35,0c-0.45,0-1.013,0-1.462,0v-0.338h0.112
				c0.788,0,1.013-0.563,1.013-1.35v-4.5c0-0.563-0.45-1.013-1.013-1.013h-0.112v-0.338c0.45,0,0.787,0,1.237,0
				c0.337,0,0.675,0,1.013,0L348,541.813"/>
		</defs>
		<clipPath id="SVGID_29_">
			<use xlink:href="#SVGID_28_"  overflow="visible"/>
		</clipPath>
		<rect x="335.4" y="530.787" clip-path="url(#SVGID_29_)" fill="#1A1919" width="19.913" height="19.013"/>
	</g>
</g>
<g>
	<g>
		<defs>
			<path id="SVGID_30_" d="M348,541.813L348,541.813L348,541.813L348,541.813z M348,541.813L348,541.813L348,541.813z
				 M348.225,544.063h0.337c0-0.338-0.112-0.675-0.112-1.013v-4.95c0-1.35,0.563-1.462,1.012-1.462h0.113v-0.226
				c-0.45,0-0.9,0-1.238,0c-0.45,0-1.012,0-1.462,0v0.226h0.225c0.337,0,1.013,0.112,1.013,1.013v4.05l0,0l0,0l-4.838-5.4
				c-0.337,0-0.675,0-1.012,0c-0.45,0-0.788,0-1.238,0v0.226h0.113c0.563,0,1.012,0.337,1.012,1.012v4.5
				c0,0.9-0.225,1.463-1.012,1.463h-0.113v0.225c0.45,0,0.9,0,1.462,0c0.45,0,0.9,0,1.35,0V543.5h-0.112
				c-0.9,0-1.013-0.338-1.013-1.35v-4.613L348.225,544.063z M348.675,544.175h-0.45l-5.513-6.075v4.275
				c0,0.9,0.113,1.237,1.013,1.237h0.225v0.45l0,0c-0.45,0-0.9,0-1.35,0c-0.45,0-1.013,0-1.462,0l0,0v-0.45h0.225
				c0.675,0,0.9-0.45,0.9-1.35v-4.5c0-0.563-0.45-0.9-0.9-0.9h-0.225v-0.45l0,0c0.45,0,0.787,0,1.237,0c0.337,0,0.675,0,1.013,0
				l4.725,5.4v-3.938c0-0.9-0.563-1.013-0.9-1.013h-0.337v-0.45l0,0c0.563,0,1.013,0,1.462,0c0.45,0,0.9,0,1.35,0l0,0v0.338h-0.225
				c-0.45,0-0.9,0-0.9,1.35v4.95C348.675,543.388,348.675,543.838,348.675,544.175L348.675,544.175L348.675,544.175z"/>
		</defs>
		<clipPath id="SVGID_31_">
			<use xlink:href="#SVGID_30_"  overflow="visible"/>
		</clipPath>
		<rect x="335.288" y="530.787" clip-path="url(#SVGID_31_)" fill="#1A1919" width="20.025" height="19.013"/>
	</g>
</g>
<g>
	<g>
		<defs>
			<path id="SVGID_32_" d="M351.375,536.975c-0.788,0-0.788,0.226-1.013,1.013h-0.337c0-0.337,0.113-0.563,0.113-0.899
				c0-0.338,0.112-0.563,0.112-0.9h0.225c0.112,0.338,0.337,0.338,0.675,0.338h5.625c0.337,0,0.563,0,0.563-0.338h0.225
				c0,0.338-0.112,0.563-0.112,0.9c0,0.337,0,0.563,0,0.899l-0.338,0.112c0-0.449-0.112-1.012-0.787-1.012h-1.8v5.737
				c0,0.787,0.337,0.899,0.9,0.899h0.225v0.338c-0.45,0-1.125,0-1.8,0s-1.462,0-1.8,0v-0.338h0.225c0.563,0,0.9,0,0.9-0.899v-5.737
				h-1.8"/>
		</defs>
		<clipPath id="SVGID_33_">
			<use xlink:href="#SVGID_32_"  overflow="visible"/>
		</clipPath>
		<rect x="344.4" y="530.45" clip-path="url(#SVGID_33_)" fill="#1A1919" width="18.788" height="19.125"/>
	</g>
</g>
<g>
	<g>
		<defs>
			<path id="SVGID_34_" d="M355.538,543.95c-0.45,0-1.238,0-1.8,0c-0.675,0-1.35,0-1.8,0l0,0v-0.45h0.225c0.563,0,0.788,0,0.9-0.9
				v-5.737h-1.688v-0.112h1.8v5.85c0,0.9-0.338,0.9-0.9,0.9h-0.112v0.225c0.45,0,1.125,0,1.8,0
				C354.413,543.838,355.087,543.95,355.538,543.95v-0.338h-0.112c-0.563,0-0.9-0.112-0.9-1.013v-5.85h1.8
				c0.675,0,0.787,0.675,0.787,1.013l0.225-0.112c0-0.338,0-0.563,0-0.9c0-0.225,0.113-0.563,0.113-0.787h-0.113
				c0,0.337-0.337,0.337-0.675,0.337h-5.625c-0.225,0-0.563,0-0.675-0.337h-0.112c0,0.337,0,0.563-0.112,0.899
				c0,0.338-0.113,0.563-0.113,0.9h0.225c0.112-0.788,0.225-1.013,1.013-1.013v0.112c-0.788,0-0.788,0.112-1.013,0.9l0,0h-0.45l0,0
				c0-0.338,0.113-0.563,0.113-0.9c0-0.337,0.112-0.563,0.112-0.899l0,0h0.337l0,0c0.113,0.225,0.225,0.225,0.563,0.225h5.625
				c0.338,0,0.563,0,0.563-0.338l0,0l0,0h0.338l0,0c0,0.338-0.113,0.563-0.113,0.9s0,0.563,0,0.9l0,0l0,0L357,538.1v-0.112
				c0-0.45-0.112-1.013-0.788-1.013h-1.688v5.738c0,0.787,0.337,0.899,0.9,0.899h0.225L355.538,543.95L355.538,543.95"/>
		</defs>
		<clipPath id="SVGID_35_">
			<use xlink:href="#SVGID_34_"  overflow="visible"/>
		</clipPath>
		<rect x="344.288" y="530.45" clip-path="url(#SVGID_35_)" fill="#1A1919" width="18.9" height="19.237"/>
	</g>
</g>
<g>
	<g>
		<defs>
			<path id="SVGID_36_" d="M357.9,543.612h0.113c0.337,0,0.787,0,0.787-0.563v-5.625c0-0.563-0.45-0.563-0.787-0.563H357.9v-0.337
				c0.675,0,1.8,0,2.7,0s2.025,0,2.813,0c0,0.449,0,1.125,0,1.688l-0.337,0.112c0-0.675-0.225-1.237-1.35-1.237h-1.462v2.813h1.237
				c0.675,0,0.788-0.338,0.9-0.9h0.225c0,0.45,0,0.787,0,1.237s0,0.788,0,1.237l-0.337,0.113c-0.113-0.676-0.113-1.125-0.788-1.125
				h-1.35v2.475c0,0.675,0.675,0.675,1.35,0.675c1.35,0,1.913-0.112,2.25-1.35l0.337,0.112c-0.112,0.563-0.225,1.125-0.337,1.688
				c-0.675,0-1.913,0-2.925,0c-1.013,0-2.25,0-2.925,0V543.612"/>
		</defs>
		<clipPath id="SVGID_37_">
			<use xlink:href="#SVGID_36_"  overflow="visible"/>
		</clipPath>
		<rect x="352.275" y="530.787" clip-path="url(#SVGID_37_)" fill="#1A1919" width="17.438" height="18.788"/>
	</g>
</g>
<g>
	<g>
		<defs>
			<path id="SVGID_38_" d="M363.638,543.95c0.112-0.563,0.225-1.125,0.337-1.688h-0.225c-0.337,1.237-0.9,1.35-2.25,1.35
				c-0.675,0-1.35,0-1.35-0.787v-2.588h1.35c0.788,0,0.788,0.45,0.9,1.013h0.225c0-0.45,0-0.787,0-1.237s0-0.788,0-1.237H362.4
				c-0.112,0.563-0.225,1.012-0.9,0.899h-1.35v-2.925h1.575c1.125,0,1.35,0.563,1.35,1.237l0.225-0.112c0-0.338,0-0.675,0-1.013
				c0-0.225,0-0.337,0-0.563c-0.787,0-1.8,0-2.7,0s-2.025,0-2.587,0v0.226h0.112c0.337,0,0.9,0.112,0.9,0.675v5.625
				c0,0.563-0.45,0.675-0.9,0.675h-0.112v0.225c0.675,0,1.912,0,2.813,0C361.725,543.838,362.962,543.95,363.638,543.95z
				 M363.638,543.95c-0.675,0-1.913,0-2.925,0c-1.012,0-2.25,0-2.925,0l0,0v-0.45h0.225c0.337,0,0.787,0,0.787-0.563v-5.625
				c0-0.563-0.337-0.563-0.787-0.563h-0.225v-0.45l0,0c0.675,0,1.8,0,2.7,0c0.9,0,2.025,0,2.812,0l0,0l0,0c0,0.112,0,0.338,0,0.563
				c0,0.338,0,0.788,0,1.125l0,0l0,0l-0.337,0.112l0,0c-0.112-0.675-0.112-1.237-1.237-1.237h-1.462v2.7h1.237
				c0.675,0,0.788-0.338,0.788-0.9l0,0h0.45l0,0c0,0.45,0,0.788,0,1.238c0,0.449,0,0.787,0,1.237l0,0l0,0l-0.338,0.112l0,0
				c-0.112-0.675-0.112-1.013-0.788-1.013h-1.237v2.476c0,0.675,0.563,0.675,1.237,0.675c1.35,0,1.8-0.112,2.138-1.237l0,0l0,0
				l0.337,0.112l0,0C363.975,542.825,363.75,543.388,363.638,543.95L363.638,543.95L363.638,543.95z"/>
		</defs>
		<clipPath id="SVGID_39_">
			<use xlink:href="#SVGID_38_"  overflow="visible"/>
		</clipPath>
		<rect x="352.163" y="530.787" clip-path="url(#SVGID_39_)" fill="#1A1919" width="17.55" height="18.9"/>
	</g>
</g>
<g>
	<g>
		<defs>
			<path id="SVGID_40_" d="M366.9,540.013h0.563c1.125,0,1.688-0.45,1.688-1.688c0-1.013-0.563-1.575-1.575-1.575
				c-0.337,0-0.45,0-0.563,0v3.263H366.9z M365.438,537.537c0-0.787-0.45-0.787-0.788-0.787h-0.225v-0.338c0.338,0,1.013,0,1.688,0
				c0.675,0,1.125,0,1.688,0c1.35,0,2.588,0.338,2.588,1.913c0,1.013-0.675,1.575-1.462,1.912l1.8,2.813
				c0.337,0.45,0.563,0.563,1.013,0.675v0.338c-0.338,0-0.675,0-1.013,0s-0.675,0-1.013,0c-0.787-1.125-1.575-2.25-2.25-3.487
				h-0.675v2.362c0,0.787,0.337,0.9,0.9,0.9h0.225v0.337c-0.563,0-1.238,0-1.913,0c-0.563,0-1.013,0-1.575,0v-0.337h0.225
				c0.45,0,0.788-0.226,0.788-0.563V537.537L365.438,537.537z"/>
		</defs>
		<clipPath id="SVGID_41_">
			<use xlink:href="#SVGID_40_"  overflow="visible"/>
		</clipPath>
		<rect x="358.913" y="530.787" clip-path="url(#SVGID_41_)" fill="#1A1919" width="18.675" height="18.788"/>
	</g>
</g>
<g>
	<g>
		<defs>
			<path id="SVGID_42_" d="M367.35,540.013c1.125,0,1.575-0.338,1.575-1.688c0-0.9-0.563-1.575-1.575-1.575c-0.338,0-0.45,0-0.563,0
				v3.15h0.563V540.013z M366.9,540.125L366.9,540.125v-3.263l0,0c0.112,0,0.338,0,0.675,0c1.012,0,1.575,0.675,1.575,1.575
				c0,1.237-0.675,1.688-1.688,1.688H366.9z M366.9,540.463h0.788l0,0c0.675,1.237,1.462,2.362,2.25,3.487c0.337,0,0.675,0,1.013,0
				c0.337,0,0.675,0,1.012,0v-0.226c-0.563-0.112-0.788-0.225-1.012-0.675l-1.913-2.813l0,0c0.9-0.337,1.462-0.899,1.462-1.912
				c0-1.463-1.125-1.8-2.475-1.8c-0.563,0-1.125,0-1.688,0c-0.675,0-1.237,0-1.575,0v0.225h0.112c0.337,0,0.788,0.112,0.788,0.9
				v5.512c0,0.45-0.45,0.676-0.788,0.676h-0.112v0.225c0.563,0,1.012,0,1.575,0s1.238,0,1.8,0v-0.225h-0.113
				c-0.45,0-0.9-0.113-0.9-0.9L366.9,540.463L366.9,540.463z M371.85,543.95c-0.338,0-0.675,0-1.013,0s-0.675,0-1.013,0
				c-0.787-1.125-1.575-2.25-2.25-3.487H366.9v2.25c0,0.787,0.338,0.787,0.788,0.787h0.225v0.45l0,0c-0.563,0-1.238,0-1.913,0
				c-0.563,0-1.013,0-1.575,0l0,0v-0.45h0.225c0.337,0,0.675-0.225,0.675-0.563v-5.513c0-0.787-0.338-0.787-0.675-0.787h-0.225
				v-0.45l0,0c0.338,0,1.013,0,1.688,0c0.675,0,1.125,0,1.688,0c1.35,0,2.588,0.338,2.588,1.912c0,1.013-0.675,1.575-1.463,1.913
				l1.8,2.7c0.337,0.449,0.45,0.563,1.013,0.675l0,0L371.85,543.95L371.85,543.95z"/>
		</defs>
		<clipPath id="SVGID_43_">
			<use xlink:href="#SVGID_42_"  overflow="visible"/>
		</clipPath>
		<rect x="358.8" y="530.787" clip-path="url(#SVGID_43_)" fill="#1A1919" width="18.675" height="18.9"/>
	</g>
</g>
<g>
	<g>
		<defs>
			<path id="SVGID_44_" d="M379.275,541.813L379.275,541.813v-4.05c0-0.9-0.563-1.013-0.9-1.013h-0.225v-0.338
				c0.563,0,1.013,0,1.462,0c0.45,0,0.9,0,1.35,0v0.338h-0.112c-0.45,0-1.013,0.112-1.013,1.35v4.95c0,0.338,0,0.788,0.113,1.125
				h-0.45l-5.625-6.3v4.5c0,0.9,0.225,1.237,1.013,1.237h0.225v0.338c-0.45,0-0.9,0-1.35,0c-0.45,0-1.013,0-1.463,0v-0.338h0.113
				c0.788,0,1.012-0.563,1.012-1.35v-4.5c0-0.563-0.45-1.013-1.012-1.013H372.3v-0.338c0.45,0,0.788,0,1.238,0
				c0.337,0,0.675,0,1.013,0L379.275,541.813"/>
		</defs>
		<clipPath id="SVGID_45_">
			<use xlink:href="#SVGID_44_"  overflow="visible"/>
		</clipPath>
		<rect x="366.563" y="530.787" clip-path="url(#SVGID_45_)" fill="#1A1919" width="19.912" height="19.013"/>
	</g>
</g>
<g>
	<g>
		<defs>
			<path id="SVGID_46_" d="M379.163,541.813L379.163,541.813L379.163,541.813L379.163,541.813z M379.275,541.813L379.275,541.813
				L379.275,541.813z M379.5,544.063h0.337c0-0.338-0.112-0.675-0.112-1.013v-4.95c0-1.35,0.563-1.462,1.012-1.462h0.113v-0.226
				c-0.45,0-0.9,0-1.238,0c-0.45,0-1.012,0-1.462,0v0.226h0.225c0.337,0,1.013,0.112,1.013,1.013v4.05l0,0l0,0l-4.837-5.4
				c-0.338,0-0.675,0-1.013,0c-0.45,0-0.788,0-1.238,0v0.226h0.113c0.563,0,1.012,0.337,1.012,1.012v4.5
				c0,0.9-0.225,1.463-1.012,1.463H372.3v0.225c0.45,0,0.9,0,1.463,0c0.45,0,0.9,0,1.35,0V543.5H375c-0.9,0-1.013-0.338-1.013-1.35
				v-4.613L379.5,544.063z M379.837,544.175h-0.45l-5.513-6.188v4.388c0,0.9,0.112,1.237,1.013,1.237h0.225v0.45l0,0
				c-0.45,0-0.9,0-1.35,0c-0.45,0-1.013,0-1.463,0l0,0v-0.45h0.225c0.675,0,0.9-0.45,0.9-1.35v-4.5c0-0.563-0.45-0.9-0.9-0.9H372.3
				v-0.45l0,0c0.45,0,0.788,0,1.238,0c0.337,0,0.675,0,1.013,0l4.725,5.4v-3.938c0-0.9-0.563-1.013-0.9-1.013h-0.337v-0.45l0,0
				c0.563,0,1.013,0,1.462,0c0.45,0,0.9,0,1.35,0l0,0v0.338h-0.225c-0.45,0-0.9,0-0.9,1.35v4.95
				C379.837,543.388,379.837,543.725,379.837,544.175L379.837,544.175L379.837,544.175z"/>
		</defs>
		<clipPath id="SVGID_47_">
			<use xlink:href="#SVGID_46_"  overflow="visible"/>
		</clipPath>
		<rect x="366.563" y="530.787" clip-path="url(#SVGID_47_)" fill="#1A1919" width="20.025" height="19.013"/>
	</g>
</g>
<g>
	<g>
		<defs>
			<path id="SVGID_48_" d="M384.225,537.65L384.225,537.65l-1.013,3.037h2.025L384.225,537.65z M382.65,542.375
				c-0.112,0.338-0.225,0.675-0.225,0.787c0,0.338,0.45,0.338,0.788,0.338h0.113v0.338c-0.45,0-0.9,0-1.35,0
				c-0.338,0-0.788,0-1.125,0V543.5h0.112c0.45,0,0.788-0.225,0.9-0.675l1.688-4.95c0.112-0.45,0.337-0.9,0.45-1.35
				c0.337-0.113,0.787-0.338,1.013-0.45c0,0,0,0,0.112,0c0,0,0,0,0.112,0c0,0.112,0.113,0.225,0.113,0.225l2.024,5.625
				c0.112,0.338,0.225,0.788,0.45,1.125c0.112,0.338,0.337,0.45,0.675,0.45h0.112v0.338c-0.45,0-1.013,0-1.462,0
				c-0.563,0-1.125,0-1.575,0V543.5h0.112c0.225,0,0.675,0,0.675-0.338c0-0.112-0.112-0.449-0.225-0.787l-0.675-1.125h-2.476
				L382.65,542.375z"/>
		</defs>
		<clipPath id="SVGID_49_">
			<use xlink:href="#SVGID_48_"  overflow="visible"/>
		</clipPath>
		<rect x="375.225" y="530.563" clip-path="url(#SVGID_49_)" fill="#1A1919" width="18.788" height="19.013"/>
	</g>
</g>
<g>
	<g>
		<defs>
			<path id="SVGID_50_" d="M384.225,537.65L384.225,537.65L384.225,537.65z M383.325,540.688h1.8l-0.9-2.925L383.325,540.688z
				 M383.1,540.688l1.012-3.15h0.113l0,0l0,0l0,0l0,0l0,0l1.012,3.15H383.1z M385.35,543.95c0.563,0,1.013,0,1.575,0
				c0.45,0,1.013,0,1.463,0v-0.226l0,0c-0.338,0-0.675-0.112-0.788-0.449c-0.112-0.338-0.225-0.676-0.449-1.125l-2.025-5.625
				c0-0.113-0.112-0.226-0.112-0.226l0,0l0,0c0,0,0,0-0.112,0c-0.226,0.112-0.675,0.338-1.013,0.45c-0.113,0.45-0.225,0.9-0.45,1.35
				l-1.688,4.95c-0.113,0.45-0.563,0.788-1.013,0.788l0,0v0.225c0.338,0,0.788,0,1.125,0c0.45,0,0.9,0,1.237,0v-0.225h-0.113
				c-0.337,0-0.9,0-0.9-0.45c0-0.226,0.113-0.45,0.225-0.9l0,0l0,0l0.337-1.125h2.475l0.45,1.237
				c0.112,0.338,0.225,0.676,0.225,0.788c0,0.337-0.45,0.337-0.675,0.337h-0.112v0.226H385.35z M388.388,543.95
				c-0.45,0-1.013,0-1.463,0c-0.563,0-1.125,0-1.575,0l0,0v-0.45h0.113c0.225,0,0.675,0,0.675-0.225c0-0.113-0.112-0.45-0.226-0.788
				l-0.449-1.237H383.1l-0.337,1.125c-0.113,0.338-0.225,0.675-0.225,0.787c0,0.226,0.45,0.338,0.788,0.338h0.112v0.45l0,0
				c-0.45,0-0.9,0-1.35,0c-0.337,0-0.788,0-1.125,0l0,0v-0.45h0.113c0.45,0,0.788-0.225,0.9-0.675l1.688-4.95
				c0.112-0.45,0.337-0.9,0.45-1.35c0.337-0.113,0.788-0.338,1.013-0.45h0.112c0,0,0.112,0,0.112,0.112s0.113,0.225,0.113,0.225
				l2.024,5.625c0.112,0.338,0.226,0.788,0.45,1.125c0.112,0.338,0.338,0.45,0.675,0.45H388.5L388.388,543.95L388.388,543.95z"/>
		</defs>
		<clipPath id="SVGID_51_">
			<use xlink:href="#SVGID_50_"  overflow="visible"/>
		</clipPath>
		<rect x="375.225" y="530.45" clip-path="url(#SVGID_51_)" fill="#1A1919" width="18.9" height="19.125"/>
	</g>
</g>
<g>
	<g>
		<defs>
			<path id="SVGID_52_" d="M388.838,536.975c-0.788,0-0.788,0.226-1.013,1.013h-0.338c0-0.337,0.112-0.563,0.112-0.899
				c0-0.338,0.113-0.563,0.113-0.9h0.225c0.112,0.338,0.338,0.338,0.675,0.338h5.625c0.338,0,0.563,0,0.563-0.338h0.226
				c0,0.338-0.113,0.563-0.113,0.9c0,0.337,0,0.563,0,0.899l-0.337,0.112c0-0.449-0.112-1.012-0.788-1.012h-1.8v5.737
				c0,0.787,0.338,0.899,0.9,0.899h0.225v0.338c-0.45,0-1.125,0-1.8,0s-1.35,0-1.8,0v-0.338h0.225c0.563,0,0.9,0,0.9-0.899v-5.737
				h-1.8"/>
		</defs>
		<clipPath id="SVGID_53_">
			<use xlink:href="#SVGID_52_"  overflow="visible"/>
		</clipPath>
		<rect x="381.975" y="530.45" clip-path="url(#SVGID_53_)" fill="#1A1919" width="18.788" height="19.125"/>
	</g>
</g>
<g>
	<g>
		<defs>
			<path id="SVGID_54_" d="M393.112,543.95c-0.45,0-1.237,0-1.8,0c-0.675,0-1.35,0-1.8,0l0,0v-0.45h0.225c0.563,0,0.788,0,0.9-0.9
				v-5.737h-1.688v-0.112h1.8v5.85c0,0.9-0.338,0.9-0.9,0.9h-0.225v0.225c0.45,0,1.125,0,1.8,0
				C391.987,543.838,392.662,543.95,393.112,543.95v-0.338H393c-0.563,0-0.9-0.112-0.9-1.013v-5.85h1.801
				c0.675,0,0.787,0.675,0.787,1.013l0.225-0.112c0-0.338,0-0.563,0-0.9c0-0.225,0.113-0.563,0.113-0.787h-0.113
				c0,0.337-0.337,0.337-0.675,0.337h-5.625c-0.225,0-0.563,0-0.675-0.337h-0.225c0,0.337,0,0.563-0.113,0.899
				c0,0.338-0.112,0.563-0.112,0.9h0.226c0.112-0.788,0.225-1.013,1.012-1.013v0.112c-0.787,0-0.787,0.112-1.012,0.9l0,0h-0.45l0,0
				c0-0.338,0.112-0.563,0.112-0.9c0-0.337,0.112-0.563,0.112-0.899l0,0h0.338l0,0c0.112,0.225,0.225,0.225,0.563,0.225h5.625
				c0.337,0,0.563,0,0.563-0.338l0,0l0,0h0.337l0,0c0,0.338-0.112,0.563-0.112,0.9s0,0.563,0,0.9l0,0l0,0l-0.337,0.112v-0.112
				c0-0.45-0.113-1.013-0.788-1.013h-1.688v5.737c0,0.787,0.338,0.9,0.9,0.9h0.225V543.95L393.112,543.95"/>
		</defs>
		<clipPath id="SVGID_55_">
			<use xlink:href="#SVGID_54_"  overflow="visible"/>
		</clipPath>
		<rect x="381.863" y="530.45" clip-path="url(#SVGID_55_)" fill="#1A1919" width="18.9" height="19.237"/>
	</g>
</g>
<g>
	<g>
		<defs>
			<path id="SVGID_56_" d="M395.475,543.612h0.113c0.337,0,0.787,0,0.787-0.563v-5.625c0-0.563-0.45-0.563-0.787-0.563h-0.113
				v-0.337c0.45,0,1.125,0,1.575,0c0.563,0,1.237,0,1.688,0v0.225h-0.112c-0.338,0-0.787,0-0.787,0.563v5.625
				c0,0.563,0.449,0.563,0.787,0.563h0.112v0.338c-0.563,0-1.125,0-1.688,0s-1.125,0-1.575,0V543.612"/>
		</defs>
		<clipPath id="SVGID_57_">
			<use xlink:href="#SVGID_56_"  overflow="visible"/>
		</clipPath>
		<rect x="389.85" y="530.787" clip-path="url(#SVGID_57_)" fill="#1A1919" width="14.513" height="18.788"/>
	</g>
</g>
<g>
	<g>
		<defs>
			<path id="SVGID_58_" d="M398.737,543.95v-0.226h-0.112c-0.338,0-0.9-0.112-0.9-0.675v-5.625c0-0.563,0.45-0.675,0.9-0.675h0.112
				v-0.225c-0.45,0-1.125,0-1.688,0s-1.125,0-1.575,0v0.225h0.113c0.337,0,0.899,0.112,0.899,0.675v5.625
				c0,0.563-0.45,0.675-0.899,0.675h-0.113v0.226c0.45,0,1.013,0,1.575,0C397.612,543.838,398.175,543.95,398.737,543.95z
				 M398.737,543.95c-0.563,0-1.125,0-1.688,0s-1.125,0-1.575,0l0,0v-0.45h0.226c0.337,0,0.787,0,0.787-0.563v-5.625
				c0-0.563-0.337-0.563-0.787-0.563h-0.226v-0.45l0,0c0.45,0,1.125,0,1.575,0c0.563,0,1.237,0,1.688,0l0,0v0.45h-0.112
				c-0.45,0-0.787,0-0.787,0.563v5.625c0,0.563,0.337,0.563,0.787,0.563h0.225L398.737,543.95L398.737,543.95z"/>
		</defs>
		<clipPath id="SVGID_59_">
			<use xlink:href="#SVGID_58_"  overflow="visible"/>
		</clipPath>
		<rect x="389.85" y="530.787" clip-path="url(#SVGID_59_)" fill="#1A1919" width="14.625" height="18.9"/>
	</g>
</g>
<g>
	<g>
		<defs>
			<path id="SVGID_60_" d="M403.237,543.612c2.138,0,2.476-1.8,2.476-3.375s-0.9-3.487-2.7-3.487c-1.913,0-2.476,1.688-2.476,3.15
				C400.65,541.813,401.55,543.612,403.237,543.612 M403.125,536.3c2.25,0,4.162,1.463,4.162,3.713c0,2.475-1.8,4.162-4.05,4.162
				s-4.05-1.575-4.05-3.825C399.075,537.987,400.875,536.3,403.125,536.3"/>
		</defs>
		<clipPath id="SVGID_61_">
			<use xlink:href="#SVGID_60_"  overflow="visible"/>
		</clipPath>
		<rect x="393.45" y="530.675" clip-path="url(#SVGID_61_)" fill="#1A1919" width="19.35" height="19.125"/>
	</g>
</g>
<g>
	<g>
		<defs>
			<path id="SVGID_62_" d="M400.537,539.9c0-1.463,0.563-3.15,2.476-3.15c1.8,0,2.7,1.912,2.7,3.487s-0.338,3.487-2.476,3.487
				v-0.112c2.025,0,2.362-1.8,2.362-3.375s-0.787-3.487-2.587-3.487S400.65,538.438,400.537,539.9
				c0.113,1.912,1.013,3.712,2.7,3.712v0.112C401.438,543.725,400.537,541.813,400.537,539.9 M399.075,540.237
				c0-2.25,1.8-4.05,4.05-4.05v0.112C400.875,536.3,399.188,537.987,399.075,540.237c0.112,2.25,1.8,3.825,4.05,3.825
				s4.05-1.575,4.05-4.05c0-2.25-1.8-3.713-4.05-3.713v-0.112c2.362,0,4.162,1.463,4.162,3.825c0,2.475-1.8,4.162-4.162,4.162
				C400.875,544.175,399.075,542.6,399.075,540.237"/>
		</defs>
		<clipPath id="SVGID_63_">
			<use xlink:href="#SVGID_62_"  overflow="visible"/>
		</clipPath>
		<rect x="393.45" y="530.563" clip-path="url(#SVGID_63_)" fill="#1A1919" width="19.462" height="19.237"/>
	</g>
</g>
<g>
	<g>
		<defs>
			<path id="SVGID_64_" d="M414.487,541.813L414.487,541.813v-4.05c0-0.9-0.563-1.013-0.899-1.013h-0.226v-0.338
				c0.563,0,1.013,0,1.463,0s0.899,0,1.35,0v0.338h-0.112c-0.45,0-1.013,0.112-1.013,1.35v4.95c0,0.338,0,0.788,0.112,1.125h-0.449
				l-5.513-6.188v4.5c0,0.9,0.225,1.237,1.013,1.237h0.225v0.338c-0.45,0-0.9,0-1.351,0c-0.449,0-1.012,0-1.462,0v-0.338l0,0
				c0.787,0,1.013-0.563,1.013-1.35v-4.5c0-0.563-0.45-1.013-1.013-1.013h-0.112v-0.337c0.45,0,0.787,0,1.237,0
				c0.338,0,0.675,0,1.013,0L414.487,541.813"/>
		</defs>
		<clipPath id="SVGID_65_">
			<use xlink:href="#SVGID_64_"  overflow="visible"/>
		</clipPath>
		<rect x="401.888" y="530.787" clip-path="url(#SVGID_65_)" fill="#1A1919" width="19.912" height="19.013"/>
	</g>
</g>
<g>
	<g>
		<defs>
			<path id="SVGID_66_" d="M414.487,541.813L414.487,541.813L414.487,541.813L414.487,541.813z M414.487,541.813L414.487,541.813
				L414.487,541.813z M414.713,544.063h0.337c0-0.338-0.112-0.675-0.112-1.013v-4.95c0-1.35,0.563-1.462,1.013-1.462h0.112v-0.226
				c-0.45,0-0.9,0-1.237,0c-0.45,0-1.013,0-1.463,0v0.226h0.226c0.337,0,1.012,0.112,1.012,1.013v4.05l0,0l0,0l-4.837-5.4
				c-0.338,0-0.675,0-1.013,0c-0.45,0-0.787,0-1.237,0v0.226h0.112c0.563,0,1.013,0.337,1.013,1.012v4.5
				c0,0.9-0.226,1.463-1.013,1.463h-0.112v0.225c0.45,0,0.899,0,1.462,0c0.45,0,0.9,0,1.351,0V543.5h-0.112
				c-0.9,0-1.013-0.338-1.013-1.35v-4.613L414.713,544.063z M415.162,544.175h-0.449L409.2,538.1v4.275
				c0,0.9,0.112,1.237,1.013,1.237h0.225v0.45l0,0c-0.45,0-0.9,0-1.351,0c-0.449,0-1.012,0-1.462,0l0,0v-0.45l0,0
				c0.675,0,0.9-0.45,0.9-1.35v-4.5c0-0.563-0.45-0.9-0.9-0.9H407.4v-0.45l0,0c0.449,0,0.787,0,1.237,0c0.337,0,0.675,0,1.013,0
				l4.725,5.4v-3.938c0-0.9-0.563-1.013-0.9-1.013h-0.337v-0.45l0,0c0.563,0,1.013,0,1.462,0c0.45,0,0.9,0,1.351,0l0,0v0.338h-0.226
				c-0.449,0-0.899,0-0.899,1.35v4.95C415.162,543.388,415.162,543.838,415.162,544.175L415.162,544.175L415.162,544.175z"/>
		</defs>
		<clipPath id="SVGID_67_">
			<use xlink:href="#SVGID_66_"  overflow="visible"/>
		</clipPath>
		<rect x="401.775" y="530.787" clip-path="url(#SVGID_67_)" fill="#1A1919" width="20.024" height="19.013"/>
	</g>
</g>
<g>
	<g>
		<defs>
			<path id="SVGID_68_" d="M419.55,537.65L419.55,537.65l-1.013,3.037h2.025L419.55,537.65z M417.975,542.375
				c-0.112,0.338-0.225,0.675-0.225,0.787c0,0.338,0.45,0.338,0.787,0.338h0.113v0.338c-0.45,0-0.9,0-1.351,0
				c-0.337,0-0.787,0-1.125,0V543.5h0.112c0.45,0,0.788-0.225,0.9-0.675l1.688-4.95c0.112-0.45,0.338-0.9,0.45-1.35
				c0.337-0.113,0.787-0.338,1.013-0.45c0,0,0,0,0.112,0c0,0,0,0,0.112,0c0,0.112,0.112,0.225,0.112,0.225l2.025,5.625
				c0.112,0.338,0.225,0.788,0.45,1.125c0.112,0.338,0.337,0.45,0.675,0.45h0.112v0.338c-0.45,0-1.013,0-1.463,0
				c-0.563,0-1.125,0-1.574,0V543.5h0.112c0.225,0,0.675,0,0.675-0.338c0-0.112-0.112-0.449-0.225-0.787l-0.45-1.237h-2.476
				L417.975,542.375z"/>
		</defs>
		<clipPath id="SVGID_69_">
			<use xlink:href="#SVGID_68_"  overflow="visible"/>
		</clipPath>
		<rect x="410.55" y="530.563" clip-path="url(#SVGID_69_)" fill="#1A1919" width="18.788" height="19.013"/>
	</g>
</g>
<g>
	<g>
		<defs>
			<path id="SVGID_70_" d="M419.438,537.65L419.438,537.65L419.438,537.65z M418.537,540.688h1.913l-0.9-2.925L418.537,540.688z
				 M418.425,540.688l1.013-3.15l0,0l0,0l0,0l0,0l0,0l0,0l1.013,3.15H418.425z M420.675,543.95c0.563,0,1.013,0,1.575,0
				c0.45,0,1.013,0,1.463,0v-0.226l0,0c-0.338,0-0.676-0.112-0.788-0.449c-0.112-0.338-0.225-0.676-0.45-1.125l-2.024-5.625
				c0-0.113-0.112-0.226-0.112-0.226l0,0l0,0c0,0,0,0-0.113,0c-0.225,0.112-0.675,0.338-1.012,0.45c-0.113,0.45-0.226,0.9-0.45,1.35
				l-1.688,4.95c-0.112,0.45-0.563,0.788-1.013,0.788l0,0v0.225c0.338,0,0.787,0,1.125,0c0.45,0,0.9,0,1.237,0v-0.225h-0.112
				c-0.338,0-0.9,0-0.9-0.45c0-0.226,0.113-0.45,0.226-0.9l0,0l0,0l0.337-1.125h2.476l0.45,1.237
				c0.112,0.338,0.225,0.676,0.225,0.788c0,0.337-0.45,0.337-0.675,0.337h-0.112v0.226H420.675z M423.713,543.95
				c-0.45,0-1.013,0-1.463,0c-0.563,0-1.125,0-1.575,0l0,0v-0.45h0.112c0.226,0,0.676-0.112,0.676-0.225
				c0-0.113-0.113-0.45-0.226-0.788l-0.45-1.237h-2.362l-0.337,1.125c-0.113,0.338-0.226,0.675-0.226,0.787
				c0,0.226,0.45,0.338,0.788,0.338h0.112v0.45l0,0c-0.45,0-0.9,0-1.351,0c-0.337,0-0.787,0-1.125,0l0,0v-0.45h0.112
				c0.45,0,0.788-0.225,0.9-0.675l1.688-4.95c0.112-0.45,0.338-0.9,0.45-1.35c0.338-0.113,0.787-0.338,1.013-0.45h0.112
				c0,0,0.112,0,0.112,0.112s0.112,0.225,0.112,0.225l2.025,5.625c0.112,0.338,0.225,0.788,0.45,1.125
				c0.112,0.338,0.337,0.45,0.675,0.45h0.112L423.713,543.95L423.713,543.95z"/>
		</defs>
		<clipPath id="SVGID_71_">
			<use xlink:href="#SVGID_70_"  overflow="visible"/>
		</clipPath>
		<rect x="410.438" y="530.45" clip-path="url(#SVGID_71_)" fill="#1A1919" width="18.9" height="19.125"/>
	</g>
</g>
<g>
	<g>
		<defs>
			<path id="SVGID_72_" d="M426.412,542.938c0,0.45,0.338,0.563,0.676,0.563c0.449,0,0.899,0,1.462,0
				c0.45,0,0.788-0.338,1.013-0.563s0.225-0.563,0.338-0.787h0.337c-0.112,0.563-0.225,1.237-0.45,1.8c-0.899,0-1.912,0-2.813,0
				c-0.899,0-1.912,0-2.813,0v-0.338h0.113c0.337,0,0.787,0,0.787-0.675v-5.513c0-0.563-0.45-0.563-0.787-0.563h-0.113v-0.337
				c0.563,0,1.125,0,1.688,0s1.125,0,1.688,0v0.225h-0.225c-0.45,0-0.787,0-0.787,0.563v5.625"/>
		</defs>
		<clipPath id="SVGID_73_">
			<use xlink:href="#SVGID_72_"  overflow="visible"/>
		</clipPath>
		<rect x="418.425" y="530.787" clip-path="url(#SVGID_73_)" fill="#1A1919" width="17.325" height="18.788"/>
	</g>
</g>
<g>
	<g>
		<defs>
			<path id="SVGID_74_" d="M429.787,543.95c0.113-0.563,0.226-1.125,0.338-1.8H429.9c-0.113,0.225-0.113,0.563-0.338,0.787
				S429,543.5,428.438,543.5c-0.338,0-0.563,0-0.787,0c-0.226,0-0.45,0-0.563,0c-0.338,0-0.676-0.225-0.676-0.675V537.2
				c0-0.563,0.338-0.675,0.788-0.675h0.225V536.3c-0.563,0-1.013,0-1.575,0s-1.125,0-1.688,0v0.226h0.113
				c0.337,0,0.899,0.112,0.899,0.675v5.513c0,0.675-0.45,0.787-0.899,0.787h-0.113v0.225c0.9,0,1.913,0,2.813,0
				C427.875,543.838,428.775,543.95,429.787,543.95z M429.787,543.95c-0.899,0-1.912,0-2.813,0c-0.899,0-1.912,0-2.813,0l0,0v-0.45
				h0.226c0.337,0,0.787,0,0.787-0.675v-5.513c0-0.563-0.337-0.563-0.787-0.563h-0.226v-0.45l0,0c0.563,0,1.125,0,1.688,0
				s1.125,0,1.688,0l0,0v0.45H427.2c-0.45,0-0.676,0-0.676,0.563v5.625c0,0.45,0.226,0.563,0.563,0.563c0.225,0,0.337,0,0.563,0
				c0.225,0,0.562,0,0.787,0c0.45,0,0.787-0.338,1.013-0.563c0.112-0.225,0.225-0.563,0.337-0.787l0,0h0.45v0.112
				C430.125,542.713,429.9,543.388,429.787,543.95L429.787,543.95L429.787,543.95z"/>
		</defs>
		<clipPath id="SVGID_75_">
			<use xlink:href="#SVGID_74_"  overflow="visible"/>
		</clipPath>
		<rect x="418.425" y="530.787" clip-path="url(#SVGID_75_)" fill="#1A1919" width="17.438" height="18.9"/>
	</g>
</g>
<g>
	<g>
		<defs>
			<path id="SVGID_76_" d="M429.9,537.2h0.112c0.112,0,0.225-0.112,0.225-0.338c0-0.225-0.112-0.225-0.225-0.225H429.9V537.2z
				 M429.45,537.875L429.45,537.875c0.112-0.112,0.112-0.112,0.112-0.112v-0.788c0-0.112,0-0.112-0.112-0.112v-0.112h0.563
				c0.225,0,0.337,0.112,0.337,0.338c0,0.225-0.112,0.337-0.225,0.337l0.225,0.226c0.113,0.112,0.226,0.225,0.226,0.225l0,0h-0.226
				c-0.112,0-0.225-0.225-0.449-0.563h-0.113v0.338c0,0.112,0,0.112,0.113,0.112l0,0h-0.45V537.875z M430.013,538.213
				c0.563,0,0.899-0.45,0.899-0.9s-0.337-0.9-0.899-0.9s-0.9,0.45-0.9,0.9S429.563,538.213,430.013,538.213z M430.013,536.075
				c0.675,0,1.125,0.45,1.125,1.125s-0.45,1.125-1.125,1.125s-1.125-0.45-1.125-1.125
				C428.888,536.638,429.45,536.075,430.013,536.075z"/>
		</defs>
		<clipPath id="SVGID_77_">
			<use xlink:href="#SVGID_76_"  overflow="visible"/>
		</clipPath>
		<rect x="423.263" y="530.45" clip-path="url(#SVGID_77_)" fill="#1A1919" width="13.5" height="13.5"/>
	</g>
</g>
<g>
	<g>
		<defs>
			<path id="SVGID_78_" d="M362.513,498.275c0-10.125,8.212-18.337,18.337-18.337c10.125,0,18.337,8.212,18.337,18.337
				s-8.213,18.337-18.337,18.337C370.725,516.612,362.513,508.4,362.513,498.275"/>
		</defs>
		<clipPath id="SVGID_79_">
			<use xlink:href="#SVGID_78_"  overflow="visible"/>
		</clipPath>
		<rect x="356.888" y="474.313" clip-path="url(#SVGID_79_)" fill="#FFFFFE" width="47.813" height="47.813"/>
	</g>
</g>
<g>
	<g>
		<defs>
			<path id="SVGID_80_" d="M380.85,516.838c-10.462,0-19.125-8.438-19.125-18.788c0-11.25,8.663-19.125,19.125-19.125h4.95
				c10.351,0,19.8,7.762,19.8,19.125c0,10.35-9.449,18.788-19.8,18.788H380.85z M380.962,480.5c-9.563,0-17.325,7.763-17.325,17.325
				s7.762,17.325,17.325,17.325c9.563,0,17.325-7.763,17.325-17.325S390.525,480.5,380.962,480.5z M377.025,508.175v-20.587
				c-4.163,1.575-7.087,5.625-7.087,10.238C369.938,502.55,372.862,506.6,377.025,508.175z M391.875,497.938
				c0-4.725-2.925-8.663-7.088-10.238v20.588C388.95,506.6,391.875,502.55,391.875,497.938z"/>
		</defs>
		<clipPath id="SVGID_81_">
			<use xlink:href="#SVGID_80_"  overflow="visible"/>
		</clipPath>
		<rect x="356.1" y="473.3" clip-path="url(#SVGID_81_)" fill="#184977" width="55.125" height="49.163"/>
	</g>
</g>
</svg>
