<?xml version="1.0" encoding="utf-8"?>
<!-- Generator: Adobe Illustrator 15.0.0, SVG Export Plug-In . SVG Version: 6.00 Build 0)  -->
<!DOCTYPE svg PUBLIC "-//W3C//DTD SVG 1.1//EN" "http://www.w3.org/Graphics/SVG/1.1/DTD/svg11.dtd">
<svg version="1.1" id="Layer_1" xmlns="http://www.w3.org/2000/svg" xmlns:xlink="http://www.w3.org/1999/xlink" x="0px" y="0px"
	 width="144px" height="90px" viewBox="245 154 144 90" enable-background="new 245 154 144 90" xml:space="preserve">
<g>
	<g>
		<path id="SVGID_1_" fill="#E5E5E5" d="M245,160.75c0-3.712,3.038-6.75,6.75-6.75h130.5c3.713,0,6.75,3.038,6.75,6.75v76.5
			c0,3.713-3.037,6.75-6.75,6.75h-130.5c-3.713,0-6.75-3.037-6.75-6.75V160.75L245,160.75z"/>
	</g>
	<g>
		<g>
			<g>
				<path id="SVGID_2_" fill="#E5E5E5" d="M245,160.75c0-3.712,3.038-6.75,6.75-6.75h130.5c3.713,0,6.75,3.038,6.75,6.75v76.5
					c0,3.713-3.037,6.75-6.75,6.75h-130.5c-3.713,0-6.75-3.037-6.75-6.75V160.75L245,160.75z"/>
			</g>
			<g>
				<defs>
					<path id="SVGID_3_" d="M245,160.75c0-3.712,3.038-6.75,6.75-6.75h130.5c3.713,0,6.75,3.038,6.75,6.75v76.5
						c0,3.713-3.037,6.75-6.75,6.75h-130.5c-3.713,0-6.75-3.037-6.75-6.75V160.75L245,160.75z"/>
				</defs>
				<clipPath id="SVGID_5_">
					<use xlink:href="#SVGID_3_"  overflow="visible"/>
				</clipPath>
				<path clip-path="url(#SVGID_5_)" fill="#E5E5E5" d="M245,160.75c0-3.712,3.038-6.75,6.75-6.75h130.5
					c3.713,0,6.75,3.038,6.75,6.75v76.5c0,3.713-3.037,6.75-6.75,6.75h-130.5c-3.713,0-6.75-3.037-6.75-6.75V160.75L245,160.75z"/>
			</g>
		</g>
	</g>
</g>
<g>
	<g>
		<g>
			<g>
				<path id="SVGID_4_" d="M291.463,230.275V226c0-1.576-0.9-2.588-2.588-2.7c-0.9,0-1.687,0.226-2.362,1.237
					c-0.45-0.787-1.237-1.237-2.25-1.237c-0.675,0-1.462,0.226-2.025,1.013v-0.787h-1.35v6.75h1.35v-3.825
					c0-1.125,0.675-1.8,1.688-1.8c1.012,0,1.462,0.675,1.462,1.8v3.825h1.35v-3.825c0-1.125,0.675-1.8,1.688-1.8
					c1.013,0,1.575,0.675,1.575,1.8v3.825H291.463L291.463,230.275z M313.288,223.525h-2.475V221.5h-1.35v2.025H308v1.237h1.463
					v3.149c0,1.575,0.562,2.475,2.25,2.475c0.675,0,1.35-0.225,1.8-0.562l-0.45-1.237c-0.45,0.225-0.899,0.337-1.238,0.337
					c-0.674,0-1.012-0.45-1.012-1.125v-3.149h2.475V223.525L313.288,223.525z M325.775,223.412c-0.788,0-1.463,0.338-1.801,1.013
					v-0.787h-1.35v6.749h1.35v-3.824c0-1.125,0.563-1.8,1.463-1.8c0.338,0,0.563,0,0.9,0.225l0.449-1.237
					C326.45,223.412,326,223.412,325.775,223.412z M306.875,224.088c-0.675-0.45-1.688-0.676-2.7-0.676
					c-1.687,0-2.7,0.788-2.7,2.138c0,1.125,0.788,1.8,2.25,1.913l0.675,0.112c0.787,0.112,1.238,0.337,1.238,0.787
					c0,0.563-0.563,0.899-1.576,0.899c-1.012,0-1.688-0.337-2.25-0.674l-0.675,1.012c1.012,0.676,2.138,0.9,2.925,0.9
					c1.913,0,3.038-0.9,3.038-2.138c0-1.125-0.788-1.8-2.25-2.024l-0.675-0.113c-0.675-0.112-1.237-0.225-1.237-0.675
					s0.562-0.787,1.35-0.787c0.9,0,1.688,0.337,2.137,0.563L306.875,224.088z M327.237,226.9c0,2.024,1.351,3.486,3.487,3.486
					c1.014,0,1.688-0.225,2.363-0.787l-0.676-1.012c-0.563,0.338-1.125,0.563-1.799,0.563c-1.126,0-2.025-0.9-2.025-2.25
					c0-1.351,0.899-2.25,2.025-2.25c0.674,0,1.236,0.225,1.799,0.563l0.676-1.013c-0.676-0.563-1.35-0.788-2.363-0.788
					C328.588,223.412,327.237,224.875,327.237,226.9z M317.787,223.412c-1.912,0-3.262,1.463-3.262,3.488
					c0,2.137,1.35,3.486,3.375,3.486c1.012,0,1.912-0.225,2.699-0.899l-0.674-1.013c-0.563,0.451-1.238,0.676-1.914,0.676
					c-0.899,0-1.911-0.563-2.024-1.688h5.063c0-0.225,0-0.338,0-0.563C320.938,224.763,319.7,223.412,317.787,223.412z
					 M317.787,224.65c1.014,0,1.688,0.675,1.801,1.688h-3.6C316.101,225.325,316.775,224.65,317.787,224.65z M299.675,226.9v-3.375
					h-1.35v0.787c-0.45-0.563-1.238-1.013-2.138-1.013c-1.912,0-3.263,1.462-3.263,3.487s1.462,3.488,3.263,3.488
					c0.9,0,1.688-0.338,2.138-1.014v0.787h1.35V226.9z M294.163,226.9c0-1.238,0.787-2.25,2.138-2.25
					c1.237,0,2.025,1.012,2.025,2.25c0,1.35-0.788,2.25-2.025,2.25C295.063,229.15,294.163,228.138,294.163,226.9z M346.025,223.412
					c-0.787,0-1.463,0.338-1.801,1.013v-0.787h-1.35v6.749h1.35v-3.824c0-1.125,0.563-1.8,1.463-1.8c0.338,0,0.563,0,0.9,0.225
					l0.449-1.237C346.7,223.412,346.25,223.412,346.025,223.412z M356.824,229.263c0.113,0,0.226,0,0.226,0
					c0.112,0,0.112,0.112,0.225,0.112c0.112,0.112,0.112,0.112,0.112,0.225c0,0.113,0,0.113,0,0.226s0,0.224,0,0.224
					c0,0.113-0.112,0.113-0.112,0.227c-0.112,0.111-0.112,0.111-0.225,0.111s-0.226,0-0.226,0c-0.111,0-0.225,0-0.225,0
					c-0.112,0-0.112-0.111-0.225-0.111c-0.112-0.113-0.112-0.113-0.112-0.227c0-0.111,0-0.111,0-0.224s0-0.226,0-0.226
					c0-0.112,0.112-0.112,0.112-0.225c0.112-0.112,0.112-0.112,0.225-0.112C356.6,229.263,356.713,229.263,356.824,229.263z
					 M356.824,230.5c0.113,0,0.113,0,0.226,0s0.112-0.113,0.112-0.113l0.112-0.111c0-0.113,0-0.113,0-0.225c0-0.113,0-0.113,0-0.226
					s-0.112-0.112-0.112-0.112l-0.112-0.112c-0.112,0-0.112,0-0.226,0c-0.111,0-0.111,0-0.225,0c-0.112,0-0.112,0.112-0.112,0.112
					l-0.112,0.112c0,0.112,0,0.112,0,0.226c0,0.111,0,0.111,0,0.225c0,0.111,0.112,0.111,0.112,0.111l0.112,0.113
					C356.713,230.5,356.713,230.5,356.824,230.5z M356.824,229.6c0.113,0,0.113,0,0.226,0l0.112,0.113v0.112
					c0,0-0.112,0-0.112,0.112l0.225,0.225h-0.112l-0.225-0.225h-0.113v0.225h-0.111v-0.676h0.111V229.6z M356.713,229.713
					L356.713,229.713L356.713,229.713l0.225,0.112c0,0,0,0,0-0.112c0,0,0,0,0-0.113C356.938,229.6,356.938,229.6,356.713,229.713
					L356.713,229.713L356.713,229.713z M340.85,226.9v-3.375h-1.35v0.787c-0.449-0.563-1.238-1.013-2.137-1.013
					c-1.913,0-3.263,1.462-3.263,3.487s1.462,3.488,3.263,3.488c0.898,0,1.688-0.338,2.137-1.014v0.787h1.35V226.9z M335.449,226.9
					c0-1.238,0.788-2.25,2.139-2.25c1.236,0,2.024,1.012,2.024,2.25c0,1.35-0.788,2.25-2.024,2.25
					C336.237,229.15,335.449,228.138,335.449,226.9z M354.35,226.9v-6.075H353v3.487c-0.45-0.563-1.238-1.013-2.138-1.013
					c-1.913,0-3.263,1.463-3.263,3.487c0,2.025,1.463,3.488,3.263,3.488c0.899,0,1.688-0.338,2.138-1.013v0.787h1.35V226.9z
					 M348.949,226.9c0-1.238,0.788-2.25,2.139-2.25c1.236,0,2.025,1.012,2.025,2.25c0,1.35-0.789,2.25-2.025,2.25
					C349.737,229.15,348.949,228.138,348.949,226.9z"/>
			</g>
			<g>
				<defs>
					<path id="SVGID_6_" d="M291.463,230.275V226c0-1.576-0.9-2.588-2.588-2.7c-0.9,0-1.687,0.226-2.362,1.237
						c-0.45-0.787-1.237-1.237-2.25-1.237c-0.675,0-1.462,0.226-2.025,1.013v-0.787h-1.35v6.75h1.35v-3.825
						c0-1.125,0.675-1.8,1.688-1.8c1.012,0,1.462,0.675,1.462,1.8v3.825h1.35v-3.825c0-1.125,0.675-1.8,1.688-1.8
						c1.013,0,1.575,0.675,1.575,1.8v3.825H291.463L291.463,230.275z M313.288,223.525h-2.475V221.5h-1.35v2.025H308v1.237h1.463
						v3.149c0,1.575,0.562,2.475,2.25,2.475c0.675,0,1.35-0.225,1.8-0.562l-0.45-1.237c-0.45,0.225-0.899,0.337-1.238,0.337
						c-0.674,0-1.012-0.45-1.012-1.125v-3.149h2.475V223.525L313.288,223.525z M325.775,223.412c-0.788,0-1.463,0.338-1.801,1.013
						v-0.787h-1.35v6.749h1.35v-3.824c0-1.125,0.563-1.8,1.463-1.8c0.338,0,0.563,0,0.9,0.225l0.449-1.237
						C326.45,223.412,326,223.412,325.775,223.412z M306.875,224.088c-0.675-0.45-1.688-0.676-2.7-0.676
						c-1.687,0-2.7,0.788-2.7,2.138c0,1.125,0.788,1.8,2.25,1.913l0.675,0.112c0.787,0.112,1.238,0.337,1.238,0.787
						c0,0.563-0.563,0.899-1.576,0.899c-1.012,0-1.688-0.337-2.25-0.674l-0.675,1.012c1.012,0.676,2.138,0.9,2.925,0.9
						c1.913,0,3.038-0.9,3.038-2.138c0-1.125-0.788-1.8-2.25-2.024l-0.675-0.113c-0.675-0.112-1.237-0.225-1.237-0.675
						s0.562-0.787,1.35-0.787c0.9,0,1.688,0.337,2.137,0.563L306.875,224.088z M327.237,226.9c0,2.024,1.351,3.486,3.487,3.486
						c1.014,0,1.688-0.225,2.363-0.787l-0.676-1.012c-0.563,0.338-1.125,0.563-1.799,0.563c-1.126,0-2.025-0.9-2.025-2.25
						c0-1.351,0.899-2.25,2.025-2.25c0.674,0,1.236,0.225,1.799,0.563l0.676-1.013c-0.676-0.563-1.35-0.788-2.363-0.788
						C328.588,223.412,327.237,224.875,327.237,226.9z M317.787,223.412c-1.912,0-3.262,1.463-3.262,3.488
						c0,2.137,1.35,3.486,3.375,3.486c1.012,0,1.912-0.225,2.699-0.899l-0.674-1.013c-0.563,0.451-1.238,0.676-1.914,0.676
						c-0.899,0-1.911-0.563-2.024-1.688h5.063c0-0.225,0-0.338,0-0.563C320.938,224.763,319.7,223.412,317.787,223.412z
						 M317.787,224.65c1.014,0,1.688,0.675,1.801,1.688h-3.6C316.101,225.325,316.775,224.65,317.787,224.65z M299.675,226.9v-3.375
						h-1.35v0.787c-0.45-0.563-1.238-1.013-2.138-1.013c-1.912,0-3.263,1.462-3.263,3.487s1.462,3.488,3.263,3.488
						c0.9,0,1.688-0.338,2.138-1.014v0.787h1.35V226.9z M294.163,226.9c0-1.238,0.787-2.25,2.138-2.25
						c1.237,0,2.025,1.012,2.025,2.25c0,1.35-0.788,2.25-2.025,2.25C295.063,229.15,294.163,228.138,294.163,226.9z
						 M346.025,223.412c-0.787,0-1.463,0.338-1.801,1.013v-0.787h-1.35v6.749h1.35v-3.824c0-1.125,0.563-1.8,1.463-1.8
						c0.338,0,0.563,0,0.9,0.225l0.449-1.237C346.7,223.412,346.25,223.412,346.025,223.412z M356.824,229.263
						c0.113,0,0.226,0,0.226,0c0.112,0,0.112,0.112,0.225,0.112c0.112,0.112,0.112,0.112,0.112,0.225c0,0.113,0,0.113,0,0.226
						s0,0.224,0,0.224c0,0.113-0.112,0.113-0.112,0.227c-0.112,0.111-0.112,0.111-0.225,0.111s-0.226,0-0.226,0
						c-0.111,0-0.225,0-0.225,0c-0.112,0-0.112-0.111-0.225-0.111c-0.112-0.113-0.112-0.113-0.112-0.227c0-0.111,0-0.111,0-0.224
						s0-0.226,0-0.226c0-0.112,0.112-0.112,0.112-0.225c0.112-0.112,0.112-0.112,0.225-0.112
						C356.6,229.263,356.713,229.263,356.824,229.263z M356.824,230.5c0.113,0,0.113,0,0.226,0s0.112-0.113,0.112-0.113l0.112-0.111
						c0-0.113,0-0.113,0-0.225c0-0.113,0-0.113,0-0.226s-0.112-0.112-0.112-0.112l-0.112-0.112c-0.112,0-0.112,0-0.226,0
						c-0.111,0-0.111,0-0.225,0c-0.112,0-0.112,0.112-0.112,0.112l-0.112,0.112c0,0.112,0,0.112,0,0.226c0,0.111,0,0.111,0,0.225
						c0,0.111,0.112,0.111,0.112,0.111l0.112,0.113C356.713,230.5,356.713,230.5,356.824,230.5z M356.824,229.6
						c0.113,0,0.113,0,0.226,0l0.112,0.113v0.112c0,0-0.112,0-0.112,0.112l0.225,0.225h-0.112l-0.225-0.225h-0.113v0.225h-0.111
						v-0.676h0.111V229.6z M356.713,229.713L356.713,229.713L356.713,229.713l0.225,0.112c0,0,0,0,0-0.112c0,0,0,0,0-0.113
						C356.938,229.6,356.938,229.6,356.713,229.713L356.713,229.713L356.713,229.713z M340.85,226.9v-3.375h-1.35v0.787
						c-0.449-0.563-1.238-1.013-2.137-1.013c-1.913,0-3.263,1.462-3.263,3.487s1.462,3.488,3.263,3.488
						c0.898,0,1.688-0.338,2.137-1.014v0.787h1.35V226.9z M335.449,226.9c0-1.238,0.788-2.25,2.139-2.25
						c1.236,0,2.024,1.012,2.024,2.25c0,1.35-0.788,2.25-2.024,2.25C336.237,229.15,335.449,228.138,335.449,226.9z M354.35,226.9
						v-6.075H353v3.487c-0.45-0.563-1.238-1.013-2.138-1.013c-1.913,0-3.263,1.463-3.263,3.487c0,2.025,1.463,3.488,3.263,3.488
						c0.899,0,1.688-0.338,2.138-1.013v0.787h1.35V226.9z M348.949,226.9c0-1.238,0.788-2.25,2.139-2.25
						c1.236,0,2.025,1.012,2.025,2.25c0,1.35-0.789,2.25-2.025,2.25C349.737,229.15,348.949,228.138,348.949,226.9z"/>
				</defs>
				<clipPath id="SVGID_7_">
					<use xlink:href="#SVGID_6_"  overflow="visible"/>
				</clipPath>
				<rect x="275.263" y="215.199" clip-path="url(#SVGID_7_)" width="87.862" height="21.039"/>
			</g>
		</g>
	</g>
</g>
<g>
	<g>
		<g>
			<g>
				<defs>
					<rect id="SVGID_8_" x="305.3" y="172.563" width="24.3" height="39.713"/>
				</defs>
				<clipPath id="SVGID_9_">
					<use xlink:href="#SVGID_8_"  overflow="visible"/>
				</clipPath>
				<rect x="299.675" y="166.938" clip-path="url(#SVGID_9_)" fill="#FF5F00" width="35.549" height="50.963"/>
			</g>
		</g>
	</g>
</g>
<g>
	<g>
		<g>
			<g>
				<defs>
					<path id="SVGID_10_" d="M307.888,192.362c0-8.1,3.825-15.188,9.675-19.8c-4.275-3.375-9.675-5.4-15.637-5.4
						c-13.951,0-25.2,11.25-25.2,25.2c0,13.95,11.25,25.2,25.2,25.2c5.85,0,11.25-2.025,15.637-5.4
						C311.6,207.55,307.888,200.35,307.888,192.362"/>
				</defs>
				<clipPath id="SVGID_11_">
					<use xlink:href="#SVGID_10_"  overflow="visible"/>
				</clipPath>
				<rect x="270.987" y="161.538" clip-path="url(#SVGID_11_)" fill="#EB001B" width="52.088" height="61.762"/>
			</g>
		</g>
	</g>
</g>
<g>
	<g>
		<g>
			<g>
				<defs>
					<path id="SVGID_12_" d="M355.926,208v-0.787h0.337V207.1h-0.788v0.113h0.338L355.926,208L355.926,208z M357.5,208v-1.013
						h-0.225l-0.338,0.675l-0.338-0.675h-0.225V208h0.225v-0.787l0.225,0.675h0.226l0.225-0.675V208H357.5z"/>
				</defs>
				<clipPath id="SVGID_13_">
					<use xlink:href="#SVGID_12_"  overflow="visible"/>
				</clipPath>
				<rect x="349.737" y="201.363" clip-path="url(#SVGID_13_)" fill="#F79E1B" width="13.388" height="12.262"/>
			</g>
		</g>
	</g>
</g>
<g>
	<g>
		<g>
			<g>
				<defs>
					<path id="SVGID_14_" d="M358.287,192.362c0,13.95-11.25,25.2-25.199,25.2c-5.851,0-11.25-2.025-15.638-5.4
						c5.85-4.613,9.675-11.813,9.675-19.8c0-8.1-3.825-15.188-9.675-19.8c4.275-3.375,9.675-5.4,15.638-5.4
						C347.037,167.163,358.287,178.413,358.287,192.362"/>
				</defs>
				<clipPath id="SVGID_15_">
					<use xlink:href="#SVGID_14_"  overflow="visible"/>
				</clipPath>
				<rect x="311.825" y="161.538" clip-path="url(#SVGID_15_)" fill="#F79E1B" width="52.087" height="61.762"/>
			</g>
		</g>
	</g>
</g>
</svg>
