<?xml version="1.0" encoding="utf-8"?>
<!-- Generator: Adobe Illustrator 15.0.0, SVG Export Plug-In . SVG Version: 6.00 Build 0)  -->
<!DOCTYPE svg PUBLIC "-//W3C//DTD SVG 1.1//EN" "http://www.w3.org/Graphics/SVG/1.1/DTD/svg11.dtd">
<svg version="1.1" id="Layer_1" xmlns="http://www.w3.org/2000/svg" xmlns:xlink="http://www.w3.org/1999/xlink" x="0px" y="0px"
	 width="144px" height="36.799px" viewBox="-40 13.601 144 36.799" enable-background="new -40 13.601 144 36.799"
	 xml:space="preserve">
<g>
	<g>
		<path fill="#139AD6" d="M71.314,23.25h-7.772c-0.457,0-0.912,0.457-1.143,0.914l-3.198,20.115c0,0.456,0.228,0.686,0.685,0.686H64
			c0.458,0,0.686-0.229,0.686-0.686l0.915-5.714c0-0.458,0.457-0.915,1.143-0.915h2.514c5.257,0,8.229-2.514,8.915-7.542
			c0.458-2.058,0-3.886-0.915-5.029C75.886,23.936,73.828,23.25,71.314,23.25 M72.228,30.793c-0.455,2.743-2.514,2.743-4.571,2.743
			h-1.37l0.915-5.257c0-0.229,0.228-0.457,0.685-0.457h0.458c1.37,0,2.741,0,3.429,0.914C72.228,28.965,72.228,29.65,72.228,30.793"
			/>
	</g>
	<g>
		<path fill="#263B80" d="M15.315,23.25H7.542c-0.457,0-0.914,0.457-1.143,0.914L3.2,44.279c0,0.456,0.229,0.686,0.687,0.686h3.656
			c0.458,0,0.915-0.457,1.143-0.915l0.916-5.484c0-0.458,0.457-0.915,1.143-0.915h2.514c5.258,0,8.229-2.514,8.915-7.542
			c0.457-2.058,0-3.886-0.915-5.029C19.886,23.936,18.057,23.25,15.315,23.25 M16.229,30.793c-0.458,2.743-2.515,2.743-4.572,2.743
			h-1.143l0.914-5.257c0-0.229,0.229-0.457,0.685-0.457h0.458c1.372,0,2.744,0,3.429,0.914
			C16.229,28.965,16.458,29.65,16.229,30.793"/>
	</g>
	<g>
		<path fill="#263B80" d="M38.857,30.564h-3.656c-0.23,0-0.688,0.229-0.688,0.458l-0.228,1.143l-0.229-0.458
			c-0.915-1.143-2.515-1.599-4.343-1.599c-4.114,0-7.771,3.199-8.458,7.542c-0.457,2.285,0.229,4.344,1.372,5.714
			c1.143,1.371,2.743,1.828,4.8,1.828c3.428,0,5.257-2.056,5.257-2.056l-0.228,1.143c0,0.456,0.228,0.686,0.685,0.686h3.429
			c0.458,0,0.915-0.457,1.143-0.915l2.059-12.799C39.542,31.022,39.085,30.564,38.857,30.564 M33.601,37.878
			c-0.458,2.058-2.058,3.658-4.344,3.658c-1.143,0-2.057-0.457-2.514-0.915c-0.458-0.686-0.686-1.601-0.686-2.743
			c0.229-2.056,2.057-3.656,4.115-3.656c1.143,0,1.828,0.458,2.514,0.915C33.37,35.822,33.601,36.965,33.601,37.878"/>
	</g>
	<g>
		<path fill="#139AD6" d="M94.63,30.564h-3.659c-0.228,0-0.685,0.229-0.685,0.458l-0.229,1.143l-0.229-0.458
			c-0.913-1.143-2.514-1.599-4.342-1.599c-4.116,0-7.772,3.199-8.457,7.542c-0.458,2.285,0.228,4.344,1.37,5.714
			c1.143,1.371,2.743,1.828,4.802,1.828c3.429,0,5.257-2.056,5.257-2.056l-0.23,1.143c0,0.456,0.23,0.686,0.688,0.686h3.429
			c0.455,0,0.913-0.457,1.143-0.915l2.056-12.799C95.314,31.022,95.085,30.564,94.63,30.564 M89.37,37.878
			c-0.455,2.058-2.056,3.658-4.341,3.658c-1.144,0-2.059-0.457-2.516-0.915c-0.456-0.686-0.686-1.601-0.686-2.743
			c0.229-2.056,2.058-3.656,4.114-3.656c1.143,0,1.83,0.458,2.516,0.915C89.37,35.822,89.601,36.965,89.37,37.878"/>
	</g>
	<g>
		<g>
			<path fill="#263B80" d="M58.743,30.564h-3.886c-0.458,0-0.686,0.229-0.915,0.458l-5.027,7.771l-2.285-7.314
				c-0.23-0.457-0.458-0.686-1.144-0.686h-3.658c-0.458,0-0.686,0.458-0.686,0.914l4.114,12.115l-3.887,5.484
				c-0.228,0.457,0,1.143,0.458,1.143h3.658c0.456,0,0.686-0.228,0.913-0.455l12.571-18.058
				C59.656,31.25,59.201,30.564,58.743,30.564"/>
		</g>
		<g>
			<path fill="#139AD6" d="M98.971,23.936l-3.198,20.572c0,0.457,0.228,0.685,0.686,0.685h3.198c0.458,0,0.915-0.457,1.143-0.913
				L104,24.165c0-0.458-0.228-0.686-0.686-0.686h-3.658C99.429,23.25,99.201,23.479,98.971,23.936"/>
		</g>
		<g>
			<path fill="#263B80" d="M-13.714,16.394c-1.601-1.829-4.571-2.743-8.685-2.743h-11.429c-0.687,0-1.372,0.685-1.601,1.372
				L-40,44.965c0,0.686,0.458,1.143,0.914,1.143H-32l1.828-11.2v0.457c0.229-0.685,0.915-1.37,1.601-1.37h3.428
				c6.628,0,11.658-2.744,13.257-10.287c0-0.229,0-0.457,0-0.685c-0.228,0-0.228,0,0,0C-11.657,20.05-12.114,18.222-13.714,16.394"
				/>
		</g>
	</g>
	<g>
		<path fill="#139AD6" d="M-12.114,23.022L-12.114,23.022c0,0.229,0,0.457,0,0.685c-1.601,7.771-6.629,10.287-13.258,10.287H-28.8
			c-0.685,0-1.372,0.686-1.599,1.37l-2.286,13.942c0,0.457,0.228,0.915,0.914,0.915h5.943c0.685,0,1.371-0.458,1.371-1.143v-0.228
			l1.143-7.088v-0.457c0-0.686,0.687-1.143,1.372-1.143h0.914c5.714,0,10.286-2.286,11.428-9.142
			c0.458-2.743,0.229-5.258-1.143-6.857C-10.971,23.707-11.429,23.25-12.114,23.022"/>
	</g>
	<g>
		<path fill="#232C65" d="M-13.714,22.335c-0.229,0-0.458-0.228-0.685-0.228c-0.229,0-0.458,0-0.687-0.229
			C-16,21.65-16.914,21.65-18.057,21.65h-8.914c-0.229,0-0.458,0-0.686,0.229c-0.457,0.229-0.686,0.686-0.686,1.143l-1.829,11.885
			v0.457c0.229-0.685,0.915-1.37,1.601-1.37h3.428c6.628,0,11.658-2.744,13.257-10.287c0-0.229,0-0.457,0.229-0.685
			c-0.457-0.229-0.686-0.458-1.143-0.458C-13.485,22.335-13.485,22.335-13.714,22.335"/>
	</g>
</g>
</svg>
