<?xml version="1.0" encoding="utf-8"?>
<!-- Generator: Adobe Illustrator 15.0.0, SVG Export Plug-In . SVG Version: 6.00 Build 0)  -->
<!DOCTYPE svg PUBLIC "-//W3C//DTD SVG 1.1//EN" "http://www.w3.org/Graphics/SVG/1.1/DTD/svg11.dtd">
<svg version="1.1" id="Layer_1" xmlns="http://www.w3.org/2000/svg" xmlns:xlink="http://www.w3.org/1999/xlink" x="0px" y="0px"
	 width="144px" height="90px" viewBox="312 467 144 90" enable-background="new 312 467 144 90" xml:space="preserve">
<g>
	<path fill="#DFDFE0" d="M449.588,467H318.159c-2.559,0-4.162,0.39-5.034,1.198c-0.759,0.919-1.125,2.424-1.125,4.653v8.331v6.715
		v48.008v7.022v8.024c0,3.985,2.081,6.047,6.159,6.047h131.429c4.274,0,6.412-2.062,6.412-6.047v-8.024v-7.022V487.87v-6.715v-8.332
		C456,468.895,453.862,467,449.588,467z"/>
	<g>
		<path fill="#253D80" d="M372.244,510.467c-0.309,1.922-1.8,1.922-3.234,1.922h-0.815l0.563-3.622
			c0.028-0.223,0.225-0.39,0.45-0.39h0.366c0.984,0,1.913,0,2.391,0.557C372.272,509.297,372.356,509.799,372.244,510.467
			 M371.625,505.424h-5.428c-0.366,0-0.675,0.279-0.759,0.641l-2.194,13.82c-0.056,0.279,0.169,0.53,0.45,0.53h2.587
			c0.366,0,0.675-0.278,0.759-0.642l0.591-3.733c0.056-0.361,0.366-0.641,0.759-0.641h1.716c3.572,0,5.653-1.728,6.188-5.127
			c0.253-1.477,0-2.647-0.703-3.483C374.803,505.898,373.425,505.424,371.625,505.424"/>
		<path fill="#253D80" d="M384.225,515.427c-0.253,1.478-1.435,2.453-2.925,2.453c-0.759,0-1.35-0.251-1.744-0.697
			c-0.394-0.446-0.534-1.086-0.422-1.811c0.225-1.449,1.435-2.48,2.925-2.48c0.731,0,1.35,0.251,1.744,0.697
			C384.197,514.062,384.337,514.73,384.225,515.427 M387.854,510.412h-2.616c-0.225,0-0.422,0.167-0.45,0.39l-0.112,0.725
			l-0.169-0.251c-0.562-0.808-1.828-1.086-3.065-1.086c-2.869,0-5.344,2.146-5.822,5.183c-0.253,1.504,0.113,2.953,0.957,3.956
			c0.787,0.92,1.94,1.31,3.291,1.31c2.306,0,3.6-1.477,3.6-1.477l-0.113,0.724c-0.056,0.279,0.169,0.53,0.45,0.53h2.334
			c0.365,0,0.675-0.278,0.759-0.642l1.406-8.833C388.359,510.663,388.135,510.412,387.854,510.412"/>
		<path fill="#253D80" d="M401.719,510.412h-2.615c-0.254,0-0.479,0.111-0.619,0.334l-3.6,5.266l-1.52-5.071
			c-0.084-0.306-0.394-0.529-0.73-0.529h-2.56c-0.31,0-0.534,0.306-0.422,0.584l2.868,8.387l-2.699,3.79
			c-0.226,0.307,0,0.696,0.365,0.696h2.615c0.254,0,0.479-0.111,0.619-0.335l8.69-12.455
			C402.31,510.83,402.084,510.412,401.719,510.412"/>
		<path fill="#189BD7" d="M411.028,510.467c-0.31,1.922-1.8,1.922-3.234,1.922h-0.815l0.59-3.622c0.028-0.223,0.226-0.39,0.45-0.39
			h0.366c0.984,0,1.912,0,2.391,0.557C411.028,509.297,411.112,509.799,411.028,510.467 M410.381,505.424h-5.428
			c-0.365,0-0.675,0.279-0.731,0.641l-2.193,13.82c-0.057,0.279,0.169,0.53,0.45,0.53h2.784c0.253,0,0.478-0.195,0.534-0.446
			l0.619-3.9c0.056-0.363,0.365-0.642,0.759-0.642h1.716c3.572,0,5.653-1.727,6.188-5.126c0.253-1.477,0-2.647-0.703-3.483
			C413.588,505.898,412.209,505.424,410.381,505.424"/>
		<path fill="#189BD7" d="M423.01,515.427c-0.254,1.478-1.435,2.453-2.926,2.453c-0.759,0-1.35-0.251-1.743-0.697
			s-0.534-1.086-0.422-1.811c0.225-1.449,1.435-2.48,2.925-2.48c0.731,0,1.35,0.251,1.744,0.697
			C422.953,514.062,423.122,514.73,423.01,515.427 M426.638,510.412h-2.588c-0.225,0-0.422,0.167-0.45,0.39l-0.112,0.725
			l-0.196-0.251c-0.563-0.808-1.828-1.086-3.066-1.086c-2.868,0-5.344,2.146-5.821,5.183c-0.253,1.504,0.112,2.953,0.956,3.956
			c0.787,0.92,1.94,1.31,3.291,1.31c2.306,0,3.6-1.477,3.6-1.477l-0.112,0.724c-0.057,0.279,0.169,0.53,0.45,0.53h2.334
			c0.365,0,0.675-0.278,0.731-0.642l1.406-8.833C427.115,510.663,426.919,510.412,426.638,510.412"/>
		<path fill="#189BD7" d="M429.703,505.814l-2.222,14.07c-0.057,0.279,0.169,0.53,0.45,0.53h2.25c0.365,0,0.675-0.278,0.759-0.642
			l2.194-13.82c0.056-0.279-0.169-0.53-0.45-0.53h-2.503C429.928,505.424,429.731,505.591,429.703,505.814"/>
		<path fill="#253D80" d="M340.659,523.063l0.422-2.62l-0.928-0.027h-4.416l3.066-19.282c0-0.056,0.028-0.111,0.084-0.14
			c0.056-0.028,0.112-0.056,0.168-0.056h7.453c2.475,0,4.191,0.502,5.063,1.504c0.422,0.474,0.675,0.976,0.816,1.505
			c0.141,0.557,0.141,1.254,0,2.089v0.056v0.529l0.422,0.223c0.365,0.195,0.619,0.39,0.844,0.641
			c0.365,0.418,0.59,0.919,0.675,1.532c0.112,0.613,0.056,1.365-0.084,2.201c-0.197,0.975-0.506,1.812-0.928,2.508
			c-0.394,0.641-0.872,1.17-1.462,1.588c-0.563,0.39-1.209,0.696-1.94,0.864c-0.731,0.195-1.547,0.278-2.447,0.278h-0.591
			c-0.422,0-0.815,0.14-1.125,0.418s-0.534,0.641-0.591,1.059l-0.056,0.224l-0.731,4.598l-0.028,0.167
			c0,0.056-0.028,0.083-0.056,0.111c-0.028,0.028-0.056,0.028-0.084,0.028H340.659L340.659,523.063z"/>
		<path fill="#189BD7" d="M353.203,506.148c-0.028,0.14-0.056,0.279-0.084,0.446c-0.984,4.987-4.359,6.715-8.634,6.715h-2.194
			c-0.534,0-0.956,0.391-1.041,0.892l-1.125,7.05l-0.31,2.006c-0.056,0.335,0.197,0.642,0.563,0.642h3.881
			c0.45,0,0.844-0.335,0.928-0.781l0.028-0.194l0.731-4.598l0.056-0.251c0.084-0.445,0.45-0.78,0.928-0.78h0.591
			c3.769,0,6.694-1.504,7.565-5.879c0.366-1.838,0.169-3.344-0.788-4.43C353.991,506.65,353.625,506.372,353.203,506.148"/>
		<path fill="#242F65" d="M352.163,505.759c-0.141-0.056-0.31-0.084-0.478-0.112c-0.169-0.028-0.338-0.056-0.479-0.083
			c-0.59-0.083-1.237-0.14-1.94-0.14h-5.85c-0.141,0-0.281,0.028-0.394,0.084c-0.281,0.139-0.478,0.39-0.506,0.696l-1.237,7.803
			l-0.028,0.223c0.084-0.502,0.534-0.893,1.041-0.893h2.194c4.303,0,7.65-1.727,8.634-6.715c0.028-0.139,0.056-0.278,0.084-0.445
			c-0.253-0.14-0.506-0.251-0.815-0.335C352.331,505.786,352.247,505.759,352.163,505.759"/>
		<path fill="#253D80" d="M342.516,506.177c0.056-0.307,0.253-0.558,0.506-0.697c0.112-0.056,0.253-0.083,0.394-0.083h5.85
			c0.703,0,1.35,0.056,1.94,0.139c0.169,0.028,0.338,0.056,0.479,0.083c0.168,0.028,0.309,0.083,0.478,0.111
			c0.084,0.028,0.141,0.056,0.225,0.056c0.281,0.084,0.563,0.195,0.815,0.334c0.281-1.839,0-3.093-1.013-4.235
			c-1.125-1.254-3.122-1.783-5.681-1.783h-7.453c-0.534,0-0.984,0.39-1.041,0.892l-3.094,19.504
			c-0.056,0.391,0.225,0.725,0.619,0.725h4.584l1.153-7.272L342.516,506.177z"/>
	</g>
</g>
</svg>
