<?xml version="1.0" encoding="utf-8"?>
<!-- Generator: Adobe Illustrator 15.0.0, SVG Export Plug-In . SVG Version: 6.00 Build 0)  -->
<!DOCTYPE svg PUBLIC "-//W3C//DTD SVG 1.1//EN" "http://www.w3.org/Graphics/SVG/1.1/DTD/svg11.dtd">
<svg version="1.1" id="Layer_1" xmlns="http://www.w3.org/2000/svg" xmlns:xlink="http://www.w3.org/1999/xlink" x="0px" y="0px"
	 width="144px" height="90px" viewBox="312 467 144 90" enable-background="new 312 467 144 90" xml:space="preserve">
<g>
	<g>
		<path id="SVGID_1_" fill="#1A1F71" d="M312,473.75c0-3.712,3.038-6.75,6.75-6.75h130.5c3.713,0,6.75,3.038,6.75,6.75v76.5
			c0,3.713-3.037,6.75-6.75,6.75h-130.5c-3.712,0-6.75-3.037-6.75-6.75V473.75z"/>
	</g>
	<g>
		<defs>
			<path id="SVGID_2_" d="M312,473.75c0-3.712,3.038-6.75,6.75-6.75h130.5c3.713,0,6.75,3.038,6.75,6.75v76.5
				c0,3.713-3.037,6.75-6.75,6.75h-130.5c-3.712,0-6.75-3.037-6.75-6.75V473.75z"/>
		</defs>
		<use xlink:href="#SVGID_2_"  overflow="visible" fill="#1A1F71"/>
		<clipPath id="SVGID_3_">
			<use xlink:href="#SVGID_2_"  overflow="visible"/>
		</clipPath>
		<path clip-path="url(#SVGID_3_)" fill="#1A1F71" d="M312,473.75c0-3.712,3.038-6.75,6.75-6.75h130.5c3.713,0,6.75,3.038,6.75,6.75
			v76.5c0,3.713-3.037,6.75-6.75,6.75h-130.5c-3.712,0-6.75-3.037-6.75-6.75V473.75z"/>
	</g>
</g>
<g>
	<g>
		<defs>
			<path id="SVGID_4_" d="M384.225,496.138l-6.863,32.287h-8.325l6.862-32.287H384.225z M419.55,516.95l4.388-12.15l2.588,12.15
				H419.55z M428.888,528.425h7.763l-6.75-32.287h-7.2c-1.575,0-3.038,0.9-3.601,2.362l-12.6,29.925h8.775l1.688-4.837h10.8
				L428.888,528.425z M407.063,517.85c0-8.55-11.813-9-11.7-12.825c0-1.237,1.125-2.362,3.601-2.7
				c2.812-0.225,5.737,0.226,8.324,1.463l1.463-6.862c-2.475-1.013-5.175-1.463-7.875-1.463c-8.325,0-14.063,4.388-14.175,10.688
				c-0.112,4.725,4.162,7.2,7.313,8.775c3.149,1.575,4.388,2.7,4.388,4.05c0,2.138-2.7,3.15-5.063,3.15
				c-3.038,0.112-5.963-0.675-8.663-2.025l-1.575,7.088c2.925,1.237,6.075,1.8,9.337,1.688
				C401.213,528.987,406.95,524.6,407.063,517.85z M372.3,496.138l-13.5,32.287h-8.887l-6.638-25.875
				c-0.45-1.575-0.788-2.138-1.913-2.813c-2.587-1.238-5.4-2.138-8.325-2.7l0.225-0.9h14.287c1.913,0,3.6,1.462,3.825,3.375
				l3.375,18.563l8.663-22.05h8.887V496.138z"/>
		</defs>
		<use xlink:href="#SVGID_4_"  overflow="visible" fill="#FFFFFF"/>
		<clipPath id="SVGID_5_">
			<use xlink:href="#SVGID_4_"  overflow="visible"/>
		</clipPath>
		<rect x="327.413" y="489.837" clip-path="url(#SVGID_5_)" fill="#FFFFFF" width="114.863" height="44.663"/>
	</g>
</g>
</svg>
