<?xml version="1.0" encoding="utf-8"?>
<!-- Generator: Adobe Illustrator 15.0.0, SVG Export Plug-In . SVG Version: 6.00 Build 0)  -->
<!DOCTYPE svg PUBLIC "-//W3C//DTD SVG 1.1//EN" "http://www.w3.org/Graphics/SVG/1.1/DTD/svg11.dtd">
<svg version="1.1" id="Layer_1" xmlns="http://www.w3.org/2000/svg" xmlns:xlink="http://www.w3.org/1999/xlink" x="0px" y="0px"
	 width="600px" height="115.508px" viewBox="0 0 600 115.508" enable-background="new 0 0 600 115.508" xml:space="preserve">
<path fill="#FF0000" d="M-141.933,938.145c0,3.26-2.569,5.902-5.74,5.902h-358.851c-3.171,0-5.741-2.643-5.741-5.902V684.279
	c0-3.259,2.57-5.9,5.741-5.9h358.851c3.171,0,5.74,2.642,5.74,5.9V938.145z"/>
<g>
	<rect x="-492.599" y="699.379" fill="#FF9900" width="330" height="222"/>
</g>
<g>
	<path fill="#FF8A16" d="M-507.242,379.805c0,3.259-2.569,5.901-5.74,5.901h-318.851c-3.171,0-5.741-2.642-5.741-5.901V98.939
		c0-3.259,2.57-5.9,5.741-5.9h318.851c3.171,0,5.74,2.642,5.74,5.9V379.805z"/>
	<g>
		<rect x="-817.908" y="114.039" fill="#FF9900" width="290" height="250"/>
	</g>
	<path fill="#FF8A16" d="M-408.48-9.826h-360.851c-3.171,0-5.741,2.642-5.741,5.9v18.875v33.394v12.364V73.8
		c0,3.171,2.643,5.74,5.902,5.74h276.765v170.432c0,3.26,2.57,5.902,5.742,5.902h45.758h13.093c0.201,0,0.399-0.011,0.595-0.032
		h18.737c3.171,0,5.74-2.643,5.74-5.902V-3.925C-402.74-7.184-405.309-9.826-408.48-9.826z"/>
	<g>
		<polygon fill="#FF9900" points="-424.072,233.706 -471.905,233.706 -471.905,58.374 -754.072,59.374 -754.072,10.706 
			-424.072,10.706 		"/>
	</g>
	<path fill="#FFFFFF" d="M-649.661,231.21c14.898-7.703,25.089-23.242,25.089-41.171c0-25.589-20.744-46.333-46.333-46.333
		c-25.588,0-46.332,20.744-46.332,46.333c0,17.989,10.259,33.571,25.238,41.248c-61.841,16.927-56.905,81.42-56.905,81.42
		c19.667,28,78,26.333,78,26.333c56,0,79.667-26.333,79.667-26.333C-593.202,257.063-626.733,237.848-649.661,231.21z"/>
</g>
<g>
	<g>
		<path fill="#FF8A16" d="M96.632,113.799c0,0.944-0.744,1.708-1.662,1.708H2.662c-0.918,0-1.662-0.765-1.662-1.708V32.488
			c0-0.943,0.744-1.708,1.662-1.708h92.309c0.918,0,1.662,0.765,1.662,1.708V113.799z"/>
		<g>
			<rect x="6.693" y="36.859" fill="#FF9900" width="83.956" height="72.376"/>
		</g>
		<path fill="#FF8A16" d="M125.225,1H20.757c-0.918,0-1.662,0.765-1.662,1.708v5.464v9.667v3.58v3.791
			c0,0.918,0.765,1.662,1.708,1.662h80.125v49.34c0,0.944,0.745,1.708,1.663,1.708h13.247h3.791c0.058,0,0.116-0.003,0.172-0.009
			h5.424c0.917,0,1.662-0.765,1.662-1.709V2.708C126.886,1.765,126.142,1,125.225,1z"/>
		<g>
			<polygon fill="#FF9900" points="120.71,71.503 106.863,71.503 106.863,20.744 25.174,21.033 25.174,6.944 120.71,6.944 			"/>
		</g>
		<path fill="#FFFFFF" d="M55.401,70.781c4.313-2.23,7.264-6.729,7.264-11.919c0-7.408-6.006-13.414-13.414-13.414
			c-7.408,0-13.414,6.005-13.414,13.414c0,5.208,2.97,9.719,7.307,11.941C25.241,75.704,26.67,94.375,26.67,94.375
			c5.694,8.106,22.582,7.624,22.582,7.624c16.212,0,23.064-7.624,23.064-7.624C71.747,78.266,62.039,72.703,55.401,70.781z"/>
	</g>
	<g>
		<path fill="#FFFFFF" d="M149.222,73.111l12.094-1.176c0.728,4.06,2.205,7.041,4.43,8.944c2.226,1.904,5.228,2.855,9.007,2.855
			c4.003,0,7.019-0.846,9.049-2.541c2.029-1.693,3.044-3.674,3.044-5.942c0-1.455-0.427-2.694-1.281-3.716
			c-0.854-1.021-2.345-1.911-4.472-2.667c-1.456-0.504-4.773-1.399-9.952-2.688c-6.663-1.651-11.338-3.681-14.025-6.089
			c-3.779-3.387-5.669-7.517-5.669-12.388c0-3.135,0.888-6.068,2.667-8.797c1.777-2.729,4.339-4.808,7.685-6.236
			c3.345-1.428,7.383-2.142,12.115-2.142c7.727,0,13.542,1.694,17.448,5.081c3.905,3.388,5.956,7.909,6.152,13.563l-12.43,0.546
			c-0.532-3.163-1.673-5.438-3.422-6.824c-1.75-1.386-4.375-2.079-7.874-2.079c-3.611,0-6.439,0.742-8.482,2.226
			c-1.316,0.952-1.974,2.226-1.974,3.821c0,1.456,0.615,2.702,1.848,3.737c1.567,1.316,5.375,2.688,11.422,4.115
			s10.519,2.905,13.417,4.43c2.897,1.526,5.165,3.611,6.803,6.257s2.457,5.915,2.457,9.805c0,3.527-0.98,6.831-2.939,9.91
			c-1.96,3.08-4.731,5.369-8.314,6.866c-3.584,1.497-8.049,2.247-13.396,2.247c-7.783,0-13.76-1.798-17.931-5.396
			C152.524,85.24,150.033,79.998,149.222,73.111z"/>
		<path fill="#FFFFFF" d="M217.963,93.141l-14.109-44.596h11.464l8.356,29.227l7.685-29.227h11.38l7.433,29.227l8.524-29.227h11.631
			l-14.319,44.596H244.67l-7.685-28.681l-7.559,28.681H217.963z"/>
		<path fill="#FFFFFF" d="M276.542,42.499V31.581h11.8v10.918H276.542z M276.542,93.141V48.545h11.8v44.596H276.542z"/>
		<path fill="#FFFFFF" d="M320.885,48.545v9.406h-8.063v17.973c0,3.64,0.077,5.76,0.23,6.362c0.154,0.603,0.504,1.099,1.051,1.491
			c0.545,0.393,1.21,0.588,1.994,0.588c1.092,0,2.673-0.378,4.745-1.134l1.008,9.154c-2.744,1.176-5.852,1.764-9.322,1.764
			c-2.128,0-4.046-0.357-5.753-1.071c-1.708-0.714-2.961-1.638-3.758-2.771c-0.799-1.134-1.352-2.667-1.659-4.598
			c-0.252-1.371-0.378-4.143-0.378-8.314V57.952h-5.417v-9.406h5.417v-8.86l11.842-6.887v15.747H320.885z"/>
		<path fill="#FFFFFF" d="M367.958,61.731l-11.632,2.1c-0.393-2.323-1.281-4.073-2.666-5.249c-1.387-1.176-3.186-1.764-5.396-1.764
			c-2.939,0-5.284,1.015-7.033,3.044c-1.75,2.03-2.625,5.424-2.625,10.183c0,5.291,0.889,9.028,2.666,11.212
			c1.778,2.184,4.164,3.275,7.16,3.275c2.239,0,4.073-0.636,5.501-1.911c1.428-1.273,2.436-3.464,3.023-6.572l11.59,1.974
			c-1.204,5.319-3.514,9.337-6.929,12.052c-3.416,2.716-7.993,4.073-13.731,4.073c-6.523,0-11.723-2.058-15.601-6.173
			c-3.877-4.115-5.815-9.812-5.815-17.091c0-7.362,1.945-13.094,5.837-17.196c3.891-4.101,9.154-6.152,15.789-6.152
			c5.431,0,9.749,1.169,12.955,3.506C364.256,53.382,366.558,56.944,367.958,61.731z"/>
		<path fill="#FFFFFF" d="M388.662,31.581v22.634c3.807-4.451,8.356-6.677,13.647-6.677c2.715,0,5.165,0.504,7.349,1.512
			s3.828,2.296,4.935,3.863c1.105,1.568,1.861,3.304,2.268,5.207c0.405,1.904,0.608,4.857,0.608,8.86v26.161h-11.8V69.583
			c0-4.675-0.225-7.643-0.672-8.902c-0.448-1.26-1.238-2.26-2.373-3.002c-1.133-0.741-2.555-1.113-4.262-1.113
			c-1.96,0-3.71,0.477-5.249,1.428c-1.54,0.952-2.667,2.387-3.38,4.304c-0.715,1.918-1.071,4.752-1.071,8.503v22.34h-11.8V31.581
			H388.662z"/>
		<path fill="#FFFFFF" d="M429.435,42.499V31.581h11.8v10.918H429.435z M429.435,93.141V48.545h11.8v44.596H429.435z"/>
		<path fill="#FFFFFF" d="M494.23,93.141h-10.96V86.59c-1.82,2.548-3.969,4.445-6.445,5.69c-2.479,1.245-4.977,1.869-7.496,1.869
			c-5.123,0-9.512-2.064-13.164-6.194c-3.654-4.129-5.48-9.889-5.48-17.28c0-7.559,1.777-13.304,5.333-17.238
			c3.555-3.933,8.048-5.9,13.479-5.9c4.982,0,9.294,2.072,12.934,6.215V31.581h11.8V93.141z M462.736,69.877
			c0,4.76,0.657,8.203,1.974,10.33c1.903,3.08,4.563,4.619,7.979,4.619c2.715,0,5.024-1.155,6.929-3.464
			c1.903-2.31,2.855-5.759,2.855-10.351c0-5.123-0.924-8.811-2.771-11.065c-1.848-2.253-4.214-3.38-7.097-3.38
			c-2.8,0-5.145,1.113-7.033,3.338C463.68,62.13,462.736,65.455,462.736,69.877z"/>
		<path fill="#FFFFFF" d="M531.686,78.948l11.758,1.974c-1.512,4.312-3.898,7.594-7.16,9.847c-3.261,2.254-7.342,3.38-12.24,3.38
			c-7.755,0-13.494-2.533-17.217-7.601c-2.939-4.059-4.409-9.182-4.409-15.369c0-7.391,1.932-13.178,5.795-17.364
			c3.863-4.185,8.748-6.278,14.655-6.278c6.635,0,11.869,2.191,15.705,6.572c3.835,4.382,5.669,11.093,5.501,20.135h-29.563
			c0.084,3.5,1.035,6.222,2.855,8.167c1.819,1.946,4.087,2.918,6.803,2.918c1.848,0,3.401-0.504,4.661-1.512
			S531.042,81.188,531.686,78.948z M532.358,67.022c-0.084-3.415-0.966-6.011-2.646-7.79c-1.68-1.777-3.724-2.667-6.131-2.667
			c-2.576,0-4.703,0.938-6.383,2.813c-1.68,1.876-2.506,4.424-2.478,7.643H532.358z"/>
		<path fill="#FFFFFF" d="M562.509,62.151l-10.708-1.932c1.203-4.311,3.275-7.502,6.215-9.574c2.939-2.071,7.307-3.107,13.102-3.107
			c5.263,0,9.182,0.624,11.758,1.869c2.575,1.246,4.389,2.828,5.438,4.745c1.051,1.918,1.575,5.438,1.575,10.561l-0.126,13.773
			c0,3.92,0.189,6.81,0.566,8.671c0.379,1.862,1.085,3.857,2.121,5.984h-11.674c-0.309-0.783-0.687-1.945-1.134-3.485
			c-0.196-0.699-0.336-1.161-0.42-1.386c-2.016,1.96-4.172,3.43-6.467,4.409c-2.296,0.979-4.745,1.47-7.349,1.47
			c-4.592,0-8.209-1.245-10.855-3.737c-2.645-2.491-3.968-5.641-3.968-9.448c0-2.52,0.602-4.766,1.806-6.74
			c1.203-1.974,2.891-3.485,5.061-4.535c2.169-1.05,5.297-1.966,9.385-2.75c5.515-1.035,9.336-2.001,11.464-2.897v-1.176
			c0-2.268-0.561-3.884-1.68-4.85c-1.12-0.966-3.233-1.449-6.341-1.449c-2.1,0-3.737,0.414-4.913,1.239
			C564.189,58.631,563.237,60.08,562.509,62.151z M578.298,71.725c-1.512,0.504-3.905,1.106-7.181,1.806
			c-3.275,0.7-5.417,1.386-6.425,2.058c-1.54,1.092-2.31,2.478-2.31,4.157c0,1.652,0.615,3.08,1.848,4.283
			c1.231,1.204,2.799,1.806,4.703,1.806c2.127,0,4.157-0.699,6.089-2.1c1.428-1.063,2.365-2.365,2.813-3.905
			c0.308-1.008,0.462-2.925,0.462-5.753V71.725z"/>
	</g>
</g>
</svg>
