<?xml version="1.0" encoding="utf-8"?>
<!-- Generator: Adobe Illustrator 15.0.0, SVG Export Plug-In . SVG Version: 6.00 Build 0)  -->
<!DOCTYPE svg PUBLIC "-//W3C//DTD SVG 1.1//EN" "http://www.w3.org/Graphics/SVG/1.1/DTD/svg11.dtd">
<svg version="1.1" id="Layer_1" xmlns="http://www.w3.org/2000/svg" xmlns:xlink="http://www.w3.org/1999/xlink" x="0px" y="0px"
	 width="600px" height="115.508px" viewBox="0 0 600 115.508" enable-background="new 0 0 600 115.508" xml:space="preserve">
<path fill="#FF0000" d="M-141.933,938.145c0,3.261-2.569,5.902-5.74,5.902h-358.851c-3.171,0-5.741-2.643-5.741-5.902V684.279
	c0-3.26,2.57-5.9,5.741-5.9h358.851c3.171,0,5.74,2.643,5.74,5.9V938.145z"/>
<g>
	<rect x="-492.599" y="699.379" fill="#FF9900" width="330" height="222"/>
</g>
<g>
	<path fill="#FF8A16" d="M-507.242,379.805c0,3.26-2.569,5.901-5.74,5.901h-318.851c-3.171,0-5.741-2.642-5.741-5.901V98.939
		c0-3.26,2.57-5.9,5.741-5.9h318.851c3.171,0,5.74,2.643,5.74,5.9V379.805z"/>
	<g>
		<rect x="-817.908" y="114.039" fill="#FF9900" width="290" height="250"/>
	</g>
	<path fill="#FF8A16" d="M-408.48-9.826h-360.851c-3.171,0-5.741,2.642-5.741,5.9v18.875v33.394v12.364V73.8
		c0,3.171,2.643,5.74,5.902,5.74h276.765v170.433c0,3.26,2.57,5.901,5.742,5.901h45.758h13.093c0.201,0,0.399-0.011,0.595-0.032
		h18.737c3.171,0,5.74-2.643,5.74-5.902V-3.925C-402.74-7.184-405.309-9.826-408.48-9.826z"/>
	<g>
		<polygon fill="#FF9900" points="-424.072,233.706 -471.905,233.706 -471.905,58.374 -754.072,59.374 -754.072,10.706 
			-424.072,10.706 		"/>
	</g>
	<path fill="#FFFFFF" d="M-649.661,231.21c14.898-7.703,25.089-23.242,25.089-41.171c0-25.589-20.744-46.333-46.333-46.333
		c-25.588,0-46.332,20.744-46.332,46.333c0,17.988,10.259,33.57,25.238,41.248c-61.841,16.927-56.905,81.42-56.905,81.42
		c19.667,28,78,26.333,78,26.333c56,0,79.667-26.333,79.667-26.333C-593.202,257.063-626.733,237.848-649.661,231.21z"/>
</g>
<g>
	<path fill="#FF8A16" d="M96.632,113.799c0,0.944-0.744,1.708-1.662,1.708H2.662c-0.918,0-1.662-0.765-1.662-1.708V32.488
		c0-0.943,0.744-1.708,1.662-1.708h92.309c0.918,0,1.662,0.765,1.662,1.708L96.632,113.799L96.632,113.799z"/>
	<g>
		<rect x="6.693" y="36.859" fill="#FF9900" width="83.956" height="72.375"/>
	</g>
	<path fill="#FF8A16" d="M125.225,1H20.757c-0.918,0-1.662,0.765-1.662,1.708v5.464v9.667v3.58v3.791
		c0,0.918,0.765,1.662,1.708,1.662h80.125v49.34c0,0.944,0.745,1.708,1.663,1.708h13.247h3.791c0.058,0,0.116-0.003,0.172-0.009
		h5.424c0.917,0,1.662-0.765,1.662-1.709V2.708C126.886,1.765,126.142,1,125.225,1z"/>
	<g>
		<polygon fill="#FF9900" points="120.71,71.503 106.863,71.503 106.863,20.744 25.174,21.033 25.174,6.944 120.71,6.944 		"/>
	</g>
	<path fill="#FFFFFF" d="M55.401,70.781c4.313-2.23,7.264-6.729,7.264-11.92c0-7.407-6.006-13.413-13.414-13.413
		s-13.414,6.005-13.414,13.413c0,5.209,2.97,9.72,7.307,11.941C25.241,75.704,26.67,94.375,26.67,94.375
		c5.694,8.105,22.582,7.624,22.582,7.624c16.212,0,23.064-7.624,23.064-7.624C71.747,78.266,62.039,72.703,55.401,70.781z"/>
</g>
<g opacity="0.9">
	<path d="M149.222,73.111l12.094-1.176c0.728,4.06,2.205,7.041,4.43,8.943c2.226,1.904,5.228,2.855,9.007,2.855
		c4.003,0,7.019-0.846,9.049-2.541c2.029-1.693,3.044-3.674,3.044-5.942c0-1.455-0.427-2.694-1.281-3.716s-2.345-1.911-4.472-2.667
		c-1.456-0.504-4.773-1.399-9.952-2.688c-6.663-1.65-11.338-3.681-14.025-6.089c-3.779-3.387-5.669-7.517-5.669-12.388
		c0-3.135,0.888-6.068,2.667-8.797c1.777-2.729,4.339-4.808,7.685-6.236c3.345-1.428,7.383-2.142,12.115-2.142
		c7.727,0,13.542,1.694,17.448,5.081c3.905,3.388,5.956,7.909,6.152,13.563l-12.43,0.546c-0.532-3.163-1.673-5.438-3.422-6.824
		c-1.75-1.386-4.375-2.079-7.874-2.079c-3.611,0-6.439,0.742-8.482,2.226c-1.316,0.952-1.974,2.226-1.974,3.821
		c0,1.456,0.615,2.702,1.848,3.737c1.567,1.316,5.375,2.688,11.422,4.115c6.047,1.427,10.519,2.905,13.417,4.431
		c2.897,1.525,5.165,3.61,6.803,6.256c1.638,2.646,2.457,5.916,2.457,9.806c0,3.526-0.98,6.831-2.939,9.91
		c-1.96,3.079-4.731,5.368-8.314,6.866c-3.584,1.496-8.049,2.246-13.396,2.246c-7.783,0-13.76-1.797-17.931-5.396
		C152.524,85.24,150.033,79.998,149.222,73.111z"/>
	<path d="M217.963,93.141l-14.109-44.596h11.464l8.356,29.227l7.685-29.227h11.38l7.433,29.227l8.524-29.227h11.631l-14.319,44.596
		H244.67l-7.685-28.681l-7.559,28.681H217.963z"/>
	<path d="M276.542,42.499V31.581h11.8v10.918H276.542z M276.542,93.141V48.545h11.8v44.596H276.542z"/>
	<path d="M320.885,48.545v9.406h-8.063v17.973c0,3.641,0.077,5.76,0.229,6.362c0.154,0.603,0.504,1.099,1.052,1.491
		c0.545,0.393,1.21,0.588,1.993,0.588c1.093,0,2.673-0.379,4.745-1.135l1.008,9.154c-2.743,1.176-5.852,1.764-9.321,1.764
		c-2.128,0-4.046-0.356-5.753-1.07c-1.709-0.714-2.961-1.639-3.758-2.771c-0.8-1.134-1.353-2.666-1.66-4.598
		c-0.252-1.371-0.377-4.143-0.377-8.314V57.952h-5.417v-9.406h5.417v-8.86l11.842-6.887v15.747L320.885,48.545L320.885,48.545z"/>
	<path d="M367.958,61.73l-11.632,2.101c-0.394-2.323-1.281-4.073-2.666-5.249c-1.387-1.176-3.187-1.764-5.396-1.764
		c-2.938,0-5.283,1.015-7.032,3.043c-1.75,2.031-2.625,5.425-2.625,10.184c0,5.291,0.889,9.028,2.666,11.212
		c1.777,2.185,4.163,3.275,7.159,3.275c2.239,0,4.073-0.636,5.501-1.911c1.429-1.273,2.437-3.464,3.023-6.572l11.59,1.975
		c-1.204,5.318-3.514,9.336-6.929,12.052c-3.416,2.716-7.993,4.073-13.731,4.073c-6.522,0-11.723-2.059-15.601-6.174
		c-3.877-4.115-5.815-9.812-5.815-17.091c0-7.362,1.945-13.094,5.837-17.196c3.892-4.101,9.154-6.152,15.789-6.152
		c5.432,0,9.749,1.169,12.955,3.506C364.256,53.382,366.558,56.944,367.958,61.73z"/>
	<path d="M388.662,31.581v22.634c3.807-4.451,8.355-6.677,13.646-6.677c2.716,0,5.165,0.504,7.35,1.512
		c2.184,1.008,3.828,2.296,4.935,3.863c1.105,1.568,1.861,3.304,2.269,5.207c0.404,1.903,0.607,4.856,0.607,8.86v26.16h-11.8V69.583
		c0-4.675-0.225-7.644-0.672-8.901c-0.448-1.261-1.238-2.261-2.373-3.002c-1.133-0.741-2.555-1.113-4.262-1.113
		c-1.96,0-3.71,0.477-5.249,1.428c-1.54,0.951-2.667,2.387-3.38,4.304c-0.716,1.918-1.071,4.752-1.071,8.503v22.34h-11.8v-61.56
		H388.662z"/>
	<path d="M429.435,42.499V31.581h11.801v10.918H429.435z M429.435,93.141V48.545h11.801v44.596H429.435z"/>
	<path d="M494.23,93.141H483.27V86.59c-1.819,2.549-3.969,4.445-6.444,5.69c-2.479,1.245-4.978,1.868-7.496,1.868
		c-5.123,0-9.512-2.063-13.164-6.193c-3.654-4.129-5.48-9.889-5.48-17.28c0-7.559,1.777-13.304,5.333-17.238
		c3.556-3.933,8.049-5.9,13.479-5.9c4.981,0,9.294,2.072,12.934,6.215V31.581h11.8V93.141L494.23,93.141z M462.736,69.877
		c0,4.76,0.656,8.203,1.974,10.33c1.903,3.08,4.563,4.619,7.979,4.619c2.715,0,5.023-1.155,6.929-3.465
		c1.903-2.31,2.854-5.758,2.854-10.351c0-5.122-0.924-8.811-2.771-11.065c-1.849-2.252-4.214-3.379-7.097-3.379
		c-2.801,0-5.146,1.113-7.033,3.338C463.68,62.13,462.736,65.455,462.736,69.877z"/>
	<path d="M531.686,78.948l11.759,1.974c-1.513,4.313-3.898,7.594-7.16,9.848c-3.261,2.254-7.342,3.379-12.24,3.379
		c-7.755,0-13.494-2.532-17.217-7.601c-2.939-4.059-4.409-9.182-4.409-15.368c0-7.392,1.932-13.179,5.795-17.365
		c3.863-4.185,8.748-6.278,14.655-6.278c6.635,0,11.869,2.191,15.705,6.572c3.835,4.382,5.669,11.093,5.501,20.135h-29.563
		c0.084,3.5,1.035,6.222,2.855,8.167c1.818,1.946,4.087,2.918,6.803,2.918c1.848,0,3.401-0.504,4.661-1.513
		C530.09,82.809,531.042,81.188,531.686,78.948z M532.358,67.021c-0.084-3.414-0.967-6.011-2.646-7.789
		c-1.68-1.777-3.724-2.667-6.131-2.667c-2.576,0-4.703,0.938-6.383,2.813c-1.681,1.876-2.506,4.424-2.479,7.644H532.358
		L532.358,67.021z"/>
	<path d="M562.509,62.15l-10.708-1.932c1.203-4.311,3.275-7.502,6.215-9.574c2.939-2.071,7.308-3.107,13.103-3.107
		c5.263,0,9.182,0.624,11.758,1.869c2.575,1.246,4.389,2.828,5.438,4.745c1.051,1.918,1.574,5.438,1.574,10.561l-0.126,13.773
		c0,3.92,0.189,6.81,0.566,8.671c0.379,1.862,1.085,3.856,2.121,5.983h-11.674c-0.31-0.783-0.688-1.945-1.135-3.484
		c-0.195-0.699-0.336-1.161-0.42-1.387c-2.016,1.961-4.172,3.431-6.467,4.41c-2.296,0.979-4.745,1.469-7.349,1.469
		c-4.592,0-8.209-1.244-10.855-3.736c-2.645-2.491-3.968-5.641-3.968-9.448c0-2.521,0.602-4.766,1.806-6.739
		c1.203-1.975,2.892-3.485,5.062-4.535c2.169-1.051,5.297-1.967,9.385-2.75c5.515-1.035,9.336-2.002,11.464-2.897v-1.176
		c0-2.269-0.561-3.884-1.68-4.85c-1.12-0.966-3.233-1.449-6.341-1.449c-2.101,0-3.737,0.414-4.913,1.239
		C564.189,58.631,563.237,60.08,562.509,62.15z M578.298,71.725c-1.512,0.504-3.905,1.106-7.181,1.807
		c-3.275,0.699-5.417,1.386-6.425,2.058c-1.54,1.093-2.311,2.478-2.311,4.157c0,1.652,0.615,3.08,1.849,4.283
		c1.23,1.203,2.799,1.806,4.702,1.806c2.127,0,4.157-0.699,6.089-2.101c1.429-1.063,2.365-2.364,2.813-3.904
		c0.308-1.008,0.462-2.926,0.462-5.753L578.298,71.725L578.298,71.725z"/>
</g>
</svg>
